<?xml version="1.0" encoding="UTF-8"?>
<svg id="base" xmlns="http://www.w3.org/2000/svg" xmlns:xlink="http://www.w3.org/1999/xlink" viewBox="0 0 120 500">
  <defs>
    <style>
      .cls-1, .cls-2 {
        fill: none;
      }

      .cls-3 {
        fill: url(#radial-gradient-4);
      }

      .cls-3, .cls-4, .cls-5, .cls-6 {
        mix-blend-mode: screen;
      }

      .cls-4 {
        fill: url(#radial-gradient-3);
      }

      .cls-5 {
        fill: url(#radial-gradient-2);
      }

      .cls-7 {
        isolation: isolate;
        opacity: .53;
      }

      .cls-2 {
        stroke: #2a97fe;
        stroke-miterlimit: 10;
        stroke-width: .59px;
      }

      .cls-8 {
        fill: url(#linear-gradient);
      }

      .cls-6 {
        fill: url(#radial-gradient);
      }

      .cls-9 {
        clip-path: url(#clippath-1);
      }

      .cls-10 {
        clip-path: url(#clippath-2);
      }

      .cls-11 {
        fill: #2a97fe;
      }

      .cls-12 {
        opacity: .1;
      }

      .cls-13 {
        clip-path: url(#clippath);
      }
    </style>
    <linearGradient id="linear-gradient" x1="58.35" y1="-18.62" x2="58.35" y2="517.02" gradientUnits="userSpaceOnUse">
      <stop offset=".07" stop-color="#090a2a"/>
      <stop offset=".46" stop-color="#090b2b"/>
      <stop offset=".61" stop-color="#090f32"/>
      <stop offset=".71" stop-color="#09173e"/>
      <stop offset=".8" stop-color="#0a2150"/>
      <stop offset=".88" stop-color="#0b2f66"/>
      <stop offset=".94" stop-color="#0c4081"/>
      <stop offset="1" stop-color="#0e539f"/>
    </linearGradient>
    <clipPath id="clippath">
      <rect class="cls-1" x="-227" y="-33.12" width="554.38" height="636.28"/>
    </clipPath>
    <clipPath id="clippath-1">
      <path class="cls-1" d="M65.02,593.73c265.34,0,497.46,20.85,624.52,51.98,0-309.5-348.02-990.6-624.52-990.6-276.5,0-624.52,685.59-624.52,990.6,127.06-31.14,359.18-51.98,624.52-51.98Z"/>
    </clipPath>
    <radialGradient id="radial-gradient" cx="-451.84" cy="-460.06" fx="-451.84" fy="-460.06" r="519.79" gradientTransform="translate(570.88 1060.66) scale(1.12 1)" gradientUnits="userSpaceOnUse">
      <stop offset=".07" stop-color="#fff"/>
      <stop offset=".24" stop-color="#005baa"/>
      <stop offset=".28" stop-color="#00539b"/>
      <stop offset=".44" stop-color="#003564"/>
      <stop offset=".59" stop-color="#001e39"/>
      <stop offset=".72" stop-color="#000d19"/>
      <stop offset=".84" stop-color="#000306"/>
      <stop offset=".92" stop-color="#000"/>
    </radialGradient>
    <radialGradient id="radial-gradient-2" cx="8683.39" cy="-1028.93" fx="8683.39" fy="-1028.93" r="318.14" gradientTransform="translate(-3618.45 2977.31) scale(.42 2.31)" gradientUnits="userSpaceOnUse">
      <stop offset=".17" stop-color="#fff"/>
      <stop offset=".25" stop-color="#9bbedd"/>
      <stop offset=".34" stop-color="#2c77b8"/>
      <stop offset=".38" stop-color="#005baa"/>
      <stop offset=".38" stop-color="#0059a6"/>
      <stop offset=".45" stop-color="#00417a"/>
      <stop offset=".51" stop-color="#002d54"/>
      <stop offset=".58" stop-color="#001c35"/>
      <stop offset=".65" stop-color="#00101e"/>
      <stop offset=".73" stop-color="#00070d"/>
      <stop offset=".81" stop-color="#000103"/>
      <stop offset=".92" stop-color="#000"/>
    </radialGradient>
    <radialGradient id="radial-gradient-3" cx="15012.45" cy="-1027.96" fx="15012.45" fy="-1027.96" r="193.99" gradientTransform="translate(-4423.67 2977.31) scale(.29 2.31)" xlink:href="#radial-gradient-2"/>
    <radialGradient id="radial-gradient-4" cx="15690.33" cy="-1027.96" fx="15690.33" fy="-1027.96" r="193.99" gradientTransform="translate(-4423.67 2977.31) scale(.29 2.31)" xlink:href="#radial-gradient-2"/>
    <clipPath id="clippath-2">
      <rect class="cls-1" x="-390.05" y="-105.06" width="891.74" height="594.49"/>
    </clipPath>
  </defs>
  <rect class="cls-8" x="-16.43" y="-18.62" width="149.57" height="535.64"/>
  <g class="cls-7">
    <g class="cls-13">
      <g class="cls-9">
        <ellipse class="cls-6" cx="65.02" cy="600.59" rx="581.94" ry="519.79"/>
        <ellipse class="cls-5" cx="65.02" cy="600.59" rx="134.95" ry="734.88"/>
        <path class="cls-4" d="M21.4,602.83c0,247.47-25.39,448.09-56.71,448.09-31.32,0-56.71-200.62-56.71-448.09,0-247.47,25.39-448.1,56.71-448.1,31.32,0,56.71,200.62,56.71,448.1Z"/>
        <path class="cls-3" d="M219.56,602.83c0,247.47-25.39,448.09-56.71,448.09-31.32,0-56.71-200.62-56.71-448.09,0-247.47,25.39-448.1,56.71-448.1,31.32,0,56.71,200.62,56.71,448.1Z"/>
      </g>
    </g>
  </g>
  <g class="cls-12">
    <g class="cls-10">
      <g>
        <g>
          <circle class="cls-11" cx="114.71" cy="383.82" r="2.32"/>
          <circle class="cls-11" cx="71.6" cy="417.06" r="2.32"/>
          <circle class="cls-11" cx="72.22" cy="458.37" r="2.32"/>
          <circle class="cls-11" cx="64.04" cy="445.4" r="2.32"/>
          <circle class="cls-11" cx="56.42" cy="459.85" r="2.32"/>
          <circle class="cls-11" cx="54.1" cy="433.43" r="2.32"/>
          <circle class="cls-11" cx="25.66" cy="437.05" r="2.32"/>
          <circle class="cls-11" cx="36.76" cy="454.83" r="2.32"/>
          <circle class="cls-11" cx="24.12" cy="469.52" r="2.32"/>
          <circle class="cls-11" cx="5.66" cy="456.05" r="2.32"/>
          <circle class="cls-11" cx="13.82" cy="450.78" r="2.32"/>
          <circle class="cls-11" cx="-1.82" cy="365.05" r="2.32"/>
          <path class="cls-11" d="M19.5,168.13c0-1.28,1.04-2.32,2.32-2.32s2.32,1.04,2.32,2.32-1.04,2.32-2.32,2.32-2.32-1.04-2.32-2.32Z"/>
          <path class="cls-11" d="M51.16,193.63c0-1.28,1.04-2.32,2.32-2.32s2.32,1.04,2.32,2.32-1.04,2.32-2.32,2.32-2.32-1.04-2.32-2.32Z"/>
          <path class="cls-11" d="M65.02,165.81c0-1.28,1.04-2.32,2.32-2.32s2.32,1.04,2.32,2.32-1.04,2.32-2.32,2.32-2.32-1.04-2.32-2.32Z"/>
          <path class="cls-11" d="M83.61,164.6c0-1.28,1.04-2.32,2.32-2.32s2.32,1.04,2.32,2.32-1.04,2.32-2.32,2.32-2.32-1.04-2.32-2.32Z"/>
          <path class="cls-11" d="M72.96,136.86c0-1.28,1.04-2.32,2.32-2.32s2.32,1.04,2.32,2.32-1.04,2.32-2.32,2.32-2.32-1.04-2.32-2.32Z"/>
          <path class="cls-11" d="M35.8,223.84c0-1.28,1.04-2.32,2.32-2.32s2.32,1.04,2.32,2.32-1.04,2.32-2.32,2.32-2.32-1.04-2.32-2.32Z"/>
          <path class="cls-11" d="M41.89,249.42c0-1.28,1.04-2.32,2.32-2.32s2.32,1.04,2.32,2.32-1.04,2.32-2.32,2.32-2.32-1.04-2.32-2.32Z"/>
          <path class="cls-11" d="M85.19,230.01c0-1.28,1.04-2.32,2.32-2.32s2.32,1.04,2.32,2.32-1.04,2.32-2.32,2.32-2.32-1.04-2.32-2.32Z"/>
          <path class="cls-11" d="M94.48,209.44c0-1.28,1.04-2.32,2.32-2.32s2.32,1.04,2.32,2.32-1.04,2.32-2.32,2.32-2.32-1.04-2.32-2.32Z"/>
          <path class="cls-11" d="M114.6,203.62c0-1.28,1.04-2.32,2.32-2.32s2.32,1.04,2.32,2.32-1.04,2.32-2.32,2.32-2.32-1.04-2.32-2.32Z"/>
          <circle class="cls-11" cx="105.7" cy="170.29" r="2.32"/>
          <path class="cls-11" d="M26.01,140.27c0-1.28,1.04-2.32,2.32-2.32s2.32,1.04,2.32,2.32-1.04,2.32-2.32,2.32-2.32-1.04-2.32-2.32Z"/>
          <path class="cls-11" d="M31.46,128.07c0-1.28,1.04-2.32,2.32-2.32s2.32,1.04,2.32,2.32-1.04,2.32-2.32,2.32-2.32-1.04-2.32-2.32Z"/>
          <path class="cls-11" d="M.33,248.9c0-1.28,1.04-2.32,2.32-2.32s2.32,1.04,2.32,2.32-1.04,2.32-2.32,2.32-2.32-1.04-2.32-2.32Z"/>
          <circle class="cls-11" cx="3.53" cy="342.86" r="2.32"/>
          <circle class="cls-11" cx="35.8" cy="348.73" r="2.32"/>
          <circle class="cls-11" cx="40.03" cy="357.9" r="2.32"/>
          <circle class="cls-11" cx="54.1" cy="366.53" r="2.32"/>
          <circle class="cls-11" cx="46.72" cy="384.44" r="2.32"/>
          <circle class="cls-11" cx="39.21" cy="374.38" r="2.32"/>
          <circle class="cls-11" cx="32.42" cy="389.08" r="2.32"/>
          <circle class="cls-11" cx="46.59" cy="348.19" r="2.32"/>
          <circle class="cls-11" cx="58.81" cy="336.42" r="2.32"/>
          <circle class="cls-11" cx="51.83" cy="322.42" r="2.32"/>
          <circle class="cls-11" cx="71.51" cy="304.09" r="2.32"/>
          <circle class="cls-11" cx="75.28" cy="282.41" r="2.32"/>
          <circle class="cls-11" cx="45.38" cy="329.97" r="2.32"/>
          <circle class="cls-11" cx="85.73" cy="477.69" r="2.32"/>
          <circle class="cls-11" cx="73.04" cy="481.46" r="2.32"/>
        </g>
        <g>
          <polyline class="cls-2" points="139.05 492.32 139.05 481.36 139.05 394.52 107.76 366.75 107.76 311.88 123.94 281.86 123.94 236.31"/>
          <polyline class="cls-2" points="128.21 493.25 128.21 434.73 102.49 410.09 102.49 308.38 117.23 279.92 117.23 204.22"/>
          <polyline class="cls-2" points="115.35 493.25 114.61 435.65 90.75 412.06 90.75 313.78 105.5 279.34 105.5 170.29"/>
          <polyline class="cls-2" points="105.24 493.25 105.7 438.52 79.23 415.14 79.23 313.19 96.69 279.41 96.69 208.99"/>
          <polyline class="cls-2" points="94.65 493.25 94.65 462.75 94.65 436.93 71.6 417.06"/>
          <line class="cls-2" x1="85.73" y1="493.25" x2="85.73" y2="477.16"/>
          <polyline class="cls-2" points="94.65 463.93 64.48 433.76 64.48 345.87 49.34 357.7 40.03 357.7"/>
          <polyline class="cls-2" points="71.51 303.48 87.51 279.09 87.51 230.01"/>
          <line class="cls-2" x1="58.81" y1="336.71" x2="47.4" y2="347.59"/>
          <polyline class="cls-2" points="51.83 322.42 57.45 317.96 60.13 297.84 67.34 288.89 67.34 165.71"/>
          <line class="cls-2" x1="75.28" y1="282.02" x2="75.28" y2="136.86"/>
          <polyline class="cls-2" points="85.94 164.6 85.94 216.39 75.28 225.85"/>
          <polyline class="cls-2" points="45.38 330.7 45.38 309.3 53.48 301.2 53.48 193.63"/>
          <polyline class="cls-2" points="36.32 348.73 34.11 330.94 38.12 320.51 38.12 223.84"/>
          <polyline class="cls-2" points="44.21 249.89 44.21 293.56 38.12 299.7"/>
          <line class="cls-2" x1="54.1" y1="433.43" x2="54.1" y2="366.53"/>
          <polyline class="cls-2" points="80.9 492.32 80.9 480.73 72.32 472.26 72.32 458.37"/>
          <polyline class="cls-2" points="73.55 481.46 64.59 473.74 64.59 445.4"/>
          <line class="cls-2" x1="71.6" y1="493.25" x2="36.76" y2="454.83"/>
          <polyline class="cls-2" points="60.1 492.32 32.75 459.87 22.83 457.63 12.11 467.5 12.11 499.19"/>
          <polyline class="cls-2" points="30.19 495.66 33.89 479.29 24.12 469.52"/>
          <polyline class="cls-2" points="55.78 459.85 39.21 443.29 39.21 374.38"/>
          <line class="cls-2" x1="12.11" y1="450.78" x2="39.21" y2="443.29"/>
          <polyline class="cls-2" points="39.21 438.99 46.59 431.74 46.59 384.01"/>
          <polyline class="cls-2" points="25.66 437.05 32.42 432.48 32.42 389.52"/>
          <line class="cls-2" x1="5.66" y1="492.32" x2="5.66" y2="455.15"/>
          <polyline class="cls-2" points="-9.94 446.63 16.99 423.8 16.99 322.97 23.36 312.14 23.36 216.63 28.33 201.94 28.33 140.95"/>
          <polyline class="cls-2" points="33.95 129.31 34.6 204.45 29.11 220.69 29.11 315.76 23.76 326.97 23.76 427.6 -2.33 450.78 -2.33 492.32"/>
          <polyline class="cls-2" points="-10.13 436.4 10.13 420.29 10.13 319.46 16.5 308.64 16.5 213.12 21.83 200.83 21.83 168.13"/>
          <polyline class="cls-2" points="-10.13 340.61 2.65 333.06 2.65 249.42"/>
          <polyline class="cls-2" points="-9.94 420.93 3.41 411.86 3.41 342.49"/>
          <polyline class="cls-2" points="3.41 399.16 -1.82 397.47 -1.82 365.05"/>
          <polyline class="cls-2" points="139.05 420.23 114.53 399.98 114.53 383.26"/>
        </g>
      </g>
    </g>
  </g>
</svg>