<?xml version="1.0" encoding="UTF-8"?>
<svg id="Layer_2" data-name="Layer 2" xmlns="http://www.w3.org/2000/svg" viewBox="0 0 323.39 243.89">
  <defs>
    <style>
      .cls-1, .cls-2 {
        fill: #fff;
      }

      .cls-2 {
        font-family: HIDROMRegular, HIDROM;
        font-size: 114.77px;
      }
    </style>
  </defs>
  <g id="Layer_2-2" data-name="Layer 2">
    <g>
      <path class="cls-1" d="M90.2,33.82c1.43-1.18,2.07-2.95,2.56-4.67,1.68-6.25,2.19-12.74,2.75-19.17.1-2.78.77-5.65-.08-8.37-.74-1.8-3.02-1.75-4.63-1.46-2.26.46-4.9,1.33-5.94,3.58-.66,3.71-.39,7.51-.38,11.27-2.19.25-4.05,1.58-6.19,1.99.52-2.91.91-5.84,1.3-8.77.36-1.74.97-4.47-1.52-4.86-2.13-.08-4.23.87-5.91,2.14-1.32,1.04-2.42,2.58-2.23,4.33-.62,5.49-1.29,10.97-1.58,16.49,0,2.07-.67,4.5.79,6.24,1.51,1.16,3.64.76,5.29.12,1.82-.56,3.17-2.1,3.58-3.94l.74-3.24c1.59-1.31,3.46-2.19,5.16-3.34-.15,3.55-.75,7.06-.74,10.62-.11,1.57.25,3.84,2.22,3.92,2.12.36,3.63-1.4,4.82-2.87Z"/>
      <path class="cls-1" d="M120.08,33.86c2.06.93,4.49,1.62,6.73.9,1.7-.67,3.34-1.65,4.61-2.97,1.38-1.52,2.72-3.87,1.62-5.89-.69-1.49-2.72-1.61-3.39-.06-1.16,1.65-3.84,1.46-4.92-.16-1.09-2.05-.61-4.54.06-6.65.86-2.47,2.14-4.9,4.1-6.68.83-.86,3.33-2.2,3.5-.18h0s-.04.2-.04.2c-.45,1.38.65,2.86,2.14,2.71,2.12-.03,4.44-1.15,5.34-3.16.8-2.07,1.23-4.46.45-6.6-.92-2.62-3.83-3.81-6.42-3.85-4.07-.09-8.05,1.84-10.88,4.7-5.05,5.56-8.03,13.33-6.79,20.86.35,2.66,1.44,5.48,3.9,6.86Z"/>
      <path class="cls-1" d="M94.39,40.81c2.07.39,4.41-.21,5.96-1.65,1.26-1.08,1-3.15,2.43-4.04,1.77-.62,3.14-1.93,4.57-3.08.68.18.7,2.26.76,3.2-.4,2.17,1.95,3.02,3.71,2.69,1.5-.12,3.63-.71,3.74-2.52-.31-1.3-.97-2.5-1.3-3.8-1.92-6.06-1.41-12.56-.26-18.71.61-1.51-.91-2.72-2.26-2.96h0c.39-.81.16-1.81-.66-2.24-2.16-1.13-4.7-.49-6.91.15-2.04.7-4.35,1.49-5.53,3.44-.35,4.77-.84,9.54-1.73,14.24-.83,3.99-1.7,8.15-4.05,11.56-1.36,1.19-.05,3.45,1.51,3.73ZM105.25,21.07c.35-.78.71-1.57,1.06-2.35.28,2.85.45,5.71.76,8.55.45,1.62-2.16,1.04-3.2,1.59.48-2.59,1.07-5.17,1.39-7.79Z"/>
      <path class="cls-1" d="M131.83,36.02c-.32,1.34-.69,3.34.73,4.14,1.92.86,4.24.69,6.16-.1,1-.98,1.53-2.37,2.16-3.62.76-1.04.86-3.18,2.2-3.39,3.06,1.65,5.21,4.47,7.91,6.59,1.19,1.36,4.38,1.17,4.56-.91-.86-3.27-1.51-6.76-3.65-9.49-.59-1.17-2.63-2.02-3.11-2.45,4.06-.64,7.83-2.75,10.55-5.81,1.26-1.15,1.85-2.93,1.5-4.6-.2-1.43-1.87-2-3.14-2.07-3.44,1.09-6.03,3.83-9.25,5.39-.37-.31,1.31-2.45,1.81-3.44,1.37-2,2.38-4.23,3.83-6.18,1.1-1.51-.09-3.46-1.85-3.62-2.01-.31-4.29-.52-6.11.58-.62,1.38-2.71.71-3.11,2.33-.38.66-.72,1.35-1.04,2.04-2.99,6.68-4.19,14.07-7.8,20.49-.66,1.45-1.86,2.6-2.36,4.12Z"/>
      <path class="cls-1" d="M173.2,32.39c.62-.18.97-.82.8-1.44l-2.81-9.81c1.45-.76,2.84-1.81,4.06-3.1,0,0,.02-.02.03-.03,1.74-1.97,3.37-5.14,3.1-7.8-.15-1.42-.81-2.61-1.94-3.44-.11-.08-.23-.14-.37-.18-3.26-.96-6.37.5-9.11,1.8-.24.12-.48.23-.72.34-.52.24-.79.82-.63,1.37l2.78,9.72c-.69.22-1.37.35-2.05.4-.64.04-1.13.6-1.08,1.24.04.64.6,1.12,1.24,1.08.84-.06,1.69-.22,2.54-.48l2.73,9.55c.15.51.61.84,1.12.84.11,0,.21-.01.32-.04ZM168.12,10.4c2.36-1.11,4.79-2.22,7.09-1.65.5.43.78.99.86,1.69.19,1.86-1.12,4.42-2.52,6.01-.92.97-1.95,1.78-3.01,2.4l-2.42-8.45Z"/>
      <path class="cls-1" d="M177.44,26.49c.24,2.12,1.61,3.8,3.69,4.49,2.24.75,4.69.17,6.26-1.47,2.65-2.49,3.79-5.97,4-9.4.08-.03.15-.07.22-.11.65-.43,1.33-.9,2-1.42-1,4.89-1.79,11.48-1.9,12.49-.07.63.37,1.21,1.01,1.29.05,0,.1.01.15.01.57,0,1.07-.42,1.15-1,.14-.98.27-1.98.4-2.97.65-4.98,1.32-10.12,3.34-14.7.29-.28.47-.35.51-.35.7.21,1.63,3.6,1.58,5.77,0,.04,0,.08,0,.11.21,2.9.19,6.05-.06,9.64-.04.61.39,1.15,1,1.23.6.08,1.17-.31,1.3-.91.15-.69.29-1.38.43-2.07.94-4.56,1.91-9.27,4.43-13.1.36-.28.6-.41.73-.46.24.62.25,2.74-.44,5.03l-.02.08c-.87,2.88-2.48,8.24.5,11.62.43.48,1.16.53,1.64.1.48-.42.53-1.16.1-1.64-2.13-2.41-.81-6.79-.02-9.41l.02-.08c.28-.94.61-2.48.67-3.95.08-1.95-.31-3.18-1.21-3.77-.97-.64-2.18-.37-3.6.8-.09.07-.16.15-.22.24-1.31,1.95-2.24,4.07-2.95,6.25-.05-1.65-.59-6.63-3.01-7.62-.74-.3-1.9-.37-3.22,1.03-.09.09-.16.2-.21.32-.13.3-.26.6-.38.9-.14.09-.26.21-.36.36-.88,1.42-2.24,2.56-3.59,3.52-.08-1.05-.23-2.08-.44-3.03-.23-2.66-2.96-4.55-5.3-4.6-.95-.02-1.8.26-2.46.81-.02.01-.04.03-.05.05-2.44,1.55-4.24,4.03-5.2,7.17-.82,2.69-1,5.8-.49,8.76ZM184.59,12.37s.06-.06.09-.09c.22-.18.53-.26.91-.26,1.3.03,2.94,1.16,3.03,2.52,0,.06.01.12.03.18.24,1.07.4,2.23.45,3.43-.96-.04-1.98-.4-2.87-1.05-1.32-.97-2.08-2.37-2.02-3.77.05-.44.17-.76.37-.97ZM182.01,14.71c.33,1.64,1.34,3.17,2.85,4.28,1.27.93,2.75,1.44,4.18,1.49-.26,2.74-1.21,5.44-3.26,7.35-.02.02-.04.04-.05.05-.93.99-2.48,1.35-3.85.89-.58-.19-1.94-.83-2.12-2.57,0-.03,0-.05-.01-.08-.65-3.77-.1-8.31,2.27-11.42Z"/>
      <path class="cls-1" d="M247.33,37.92s.07-.02.11-.03c4.63-1.52,7.17-10.01,7.75-25.98.02-.64-.47-1.17-1.11-1.2-.64-.03-1.18.46-1.22,1.09-.02.36-.04.76-.06,1.17-.26,5.06-.7,13.53-5.13,16.69-1.01.6-1.98.7-2.82.27-1.15-.58-1.94-2.07-2.1-3.97-.29-3.36-.17-6,.5-9.28.31-1.06.58-2.15.78-3.28.11-.61-.28-1.21-.89-1.34-.61-.14-1.22.23-1.38.83-.28,1.04-.51,2.01-.71,2.93-1.35,4.5-3.96,9.4-6.77,11.14-.99.61-1.9.78-2.77.52-1.07-.34-1.84-1.04-2.31-2.1-.22-.5-.36-1.07-.43-1.67,1.94-.09,3.89-.58,5.88-1.48,2.27-1.02,4.04-3.74,4.03-6.19,0-1.77-.93-3.2-2.54-3.91-4.79-2.13-7.66,3.94-8.75,6.23-.44.92-.73,1.92-.88,2.93-.55-.07-1.09-.19-1.64-.33.7-2.12.85-4.46-.04-6.72-1.08-2.76-4.06-3.67-6.27-2.96-.08,0-.15.02-.23.04-2.9.77-4.65,2.99-5.73,5.96-.48,1.21-.8,2.49-.98,3.74-.61,3.29-.79,7.01-.95,10.54-.2,4.27-.39,8.31-1.37,10.14-.3.57-.09,1.27.47,1.57.18.09.36.14.55.14.41,0,.81-.22,1.02-.61,1.23-2.29,1.42-6.39,1.65-11.13.06-1.22.12-2.5.2-3.78.28.2.58.37.92.5,2.41.96,5.5-.14,7.18-1.67.02-.02.03-.03.05-.05.94-.97,1.87-2.19,2.6-3.56.1.03.2.05.31.08.72.2,1.45.34,2.17.43.07.96.29,1.88.64,2.69.73,1.68,2.03,2.85,3.76,3.4,1.54.45,3.11.19,4.67-.77,1.51-.93,3.24-2.85,4.78-5.43.02.85.07,1.73.15,2.65.23,2.71,1.49,4.89,3.37,5.84,1.58.8,3.39.66,5.11-.38.02-.01.04-.03.06-.04.52-.36.99-.78,1.42-1.23-1.21,3.71-2.6,4.95-3.63,5.31-2.65.56-6.27-.8-7.93-3-.36-.47-1.02-.6-1.53-.29-2.13,1.28-5.29,1.59-8.06.77-1.71-.5-3.01-1.38-3.49-2.36-.2-.41-.62-.66-1.07-.65-.45.01-.86.28-1.04.7-.86,1.99-3.33,2.78-7.55,2.4-.63-.05-1.2.42-1.26,1.06-.06.64.42,1.2,1.06,1.26,1.7.15,6.41.57,8.91-2.24.92.88,2.22,1.59,3.8,2.06,3.06.9,6.43.68,9.04-.55,2.38,2.44,6.5,3.81,9.69,3.09ZM229.52,19.37c1.71-3.61,3.21-5.31,4.74-5.31.32,0,.63.07.96.21.77.34,1.15.93,1.15,1.79,0,1.55-1.21,3.42-2.66,4.06-1.65.74-3.25,1.16-4.84,1.26.13-.7.34-1.38.64-2.02ZM219.72,25.04c-1.3,1.16-3.45,1.71-4.73,1.2-.73-.29-1.12-.91-1.19-1.89-.05-.7-.05-1.37,0-2.02.32-1.99.79-3.82,1.49-5.3.18-.33.38-.64.58-.93.04.22.1.44.18.67,1.27,3.94,3.32,5.07,5.6,5.75-.56.95-1.24,1.81-1.92,2.52ZM222.64,20.39c-2.13-.58-3.4-1.27-4.39-4.33-.41-1.27-.07-2.17.96-2.54.28-.1.58-.15.89-.15,1.03,0,2.12.55,2.57,1.72.69,1.75.54,3.59-.04,5.29Z"/>
      <path class="cls-1" d="M197.96,34.34c-2.59,1.03-5.28,2.1-11.49,1.78-3.29-.28-5.84-.7-8.4-1.93-.58-.28-1.27-.04-1.55.54-.28.58-.04,1.27.54,1.55,2.88,1.39,5.78,1.87,9.24,2.16h.04c.8.04,1.54.06,2.24.06,5.21,0,7.86-1.06,10.24-2,2.24-.89,4.18-1.66,8.12-1.31.64.06,1.2-.41,1.26-1.05.06-.64-.41-1.2-1.05-1.26-4.49-.4-6.77.51-9.19,1.47Z"/>
    </g>
    <text class="cls-2" transform="translate(1.38 141)"><tspan x="0" y="0">Century</tspan><tspan x="65.3" y="97.73">Hack</tspan></text>
  </g>
</svg>