<?xml version="1.0" encoding="UTF-8"?>
<svg id="Layer_1" data-name="Layer 1" xmlns="http://www.w3.org/2000/svg" viewBox="0 0 371.28 86">
  <defs>
    <style>
      .cls-1 {
        fill: #fff;
      }
    </style>
  </defs>
  <g>
    <path class="cls-1" d="M13.87,37.59c1.74,0,3.65.24,5.24,1.65,1.71,1.5,1.94,3.47,1.94,4.85,0,2.51-.96,3.92-1.71,4.7-1.59,1.62-3.68,1.76-5.09,1.76h-2.81v7h-4.61v-19.96h7.03ZM11.44,46.78h1.65c.63,0,1.74-.03,2.48-.75.42-.42.75-1.11.75-1.97s-.3-1.53-.75-1.95c-.69-.66-1.68-.75-2.57-.75h-1.56v5.42Z"/>
    <path class="cls-1" d="M42.66,40.04c1.88,1.83,3.11,4.46,3.11,7.54,0,2.66-.96,5.39-3.11,7.48-1.86,1.79-4.37,2.93-7.72,2.93-3.74,0-6.28-1.5-7.78-2.93-1.92-1.8-3.11-4.49-3.11-7.42s1.29-5.77,3.08-7.57c1.35-1.35,3.83-2.93,7.81-2.93,3.11,0,5.71.96,7.72,2.9ZM30.54,43.1c-.87.84-1.77,2.3-1.77,4.52,0,1.83.6,3.29,1.83,4.49,1.29,1.23,2.72,1.65,4.28,1.65,2.03,0,3.47-.75,4.43-1.71.78-.75,1.74-2.15,1.74-4.46,0-2.06-.84-3.59-1.74-4.49-.99-.96-2.57-1.71-4.4-1.71s-3.29.63-4.37,1.71Z"/>
    <path class="cls-1" d="M57.21,37.59c2.54,0,4.13.84,5.09,1.74.84.81,1.74,2.24,1.74,4.46,0,1.26-.27,2.81-1.56,4.07-.69.66-1.68,1.26-2.78,1.53l6.13,8.17h-5.63l-5.39-7.87v7.87h-4.61v-19.96h7ZM54.82,46.66h1.05c.84,0,1.97-.09,2.75-.87.33-.33.75-.96.75-1.94,0-1.14-.54-1.74-.93-2.03-.75-.57-1.95-.63-2.54-.63h-1.08v5.48Z"/>
    <path class="cls-1" d="M76.15,41.48v16.07h-4.61v-16.07h-4.34v-3.89h13.29v3.89h-4.34Z"/>
    <path class="cls-1" d="M94.14,42.47c-1.5-1.35-2.78-1.44-3.35-1.44-.63,0-1.41.09-1.94.69-.3.3-.51.75-.51,1.26,0,.48.15.84.45,1.11.48.45,1.17.63,2.51,1.14l1.5.57c.87.33,1.95.78,2.72,1.53,1.17,1.11,1.47,2.54,1.47,3.71,0,2.06-.72,3.86-1.77,4.94-1.77,1.86-4.34,2.04-5.66,2.04-1.44,0-2.69-.21-3.95-.84-1.02-.51-2.18-1.44-2.93-2.18l2.39-3.29c.51.51,1.32,1.2,1.86,1.53.78.48,1.58.72,2.51.72.6,0,1.44-.12,2.09-.69.39-.33.72-.87.72-1.62,0-.66-.27-1.08-.69-1.44-.54-.45-1.77-.9-2.33-1.11l-1.65-.57c-.93-.33-2-.75-2.78-1.59-1.05-1.11-1.2-2.51-1.2-3.47,0-1.77.54-3.26,1.74-4.49,1.41-1.44,3.08-1.82,4.94-1.82,1.38,0,3.59.24,5.92,1.97l-2.06,3.35Z"/>
    <path class="cls-1" d="M100.11,57.55l3.2-19.96h3.83l4.97,11.94,4.97-11.94h3.83l3.2,19.96h-4.61l-1.59-11.91-5,11.91h-1.62l-5-11.91-1.59,11.91h-4.61Z"/>
    <path class="cls-1" d="M145.84,40.04c1.88,1.83,3.11,4.46,3.11,7.54,0,2.66-.96,5.39-3.11,7.48-1.86,1.79-4.37,2.93-7.72,2.93-3.74,0-6.28-1.5-7.78-2.93-1.92-1.8-3.11-4.49-3.11-7.42s1.29-5.77,3.08-7.57c1.35-1.35,3.83-2.93,7.81-2.93,3.11,0,5.71.96,7.72,2.9ZM133.72,43.1c-.87.84-1.77,2.3-1.77,4.52,0,1.83.6,3.29,1.83,4.49,1.29,1.23,2.72,1.65,4.28,1.65,2.03,0,3.47-.75,4.43-1.71.78-.75,1.74-2.15,1.74-4.46,0-2.06-.84-3.59-1.74-4.49-.99-.96-2.57-1.71-4.4-1.71s-3.29.63-4.37,1.71Z"/>
    <path class="cls-1" d="M170.14,49.41c0,1.92-.24,4.28-2.21,6.31-1.92,1.97-4.13,2.27-6.22,2.27s-4.31-.3-6.22-2.27c-1.97-2.04-2.21-4.4-2.21-6.31v-11.82h4.61v11.7c0,.87.06,2.33,1.05,3.35.81.87,1.92,1.05,2.78,1.05s1.97-.18,2.78-1.05c.99-1.02,1.05-2.48,1.05-3.35v-11.7h4.61v11.82Z"/>
    <path class="cls-1" d="M182.42,41.48v16.07h-4.61v-16.07h-4.34v-3.89h13.29v3.89h-4.34Z"/>
    <path class="cls-1" d="M194.69,45.19h7.96v-7.6h4.61v19.96h-4.61v-8.47h-7.96v8.47h-4.61v-19.96h4.61v7.6Z"/>
  </g>
  <path class="cls-1" d="M9.32,67.93h-2.04l1.14-2.38h3.66v14.16h-2.76v-11.78Z"/>
  <path class="cls-1" d="M30.97,79.01l3.37-4.42c-.45.15-1,.28-1.51.28-1,0-2.27-.4-3.1-1.21-.74-.7-1.34-1.91-1.34-3.4,0-1.19.34-2.38,1.29-3.42,1.21-1.32,2.59-1.61,4.03-1.61s2.87.28,4.03,1.44c.76.76,1.38,1.85,1.38,3.44,0,1.72-.79,3.1-1.78,4.42l-4.16,5.56-2.23-1.08ZM31.93,68.16c-.34.34-.76.93-.76,1.87,0,.85.3,1.49.79,1.95.53.51,1.12.68,1.83.68.76,0,1.34-.23,1.85-.76.51-.53.76-1.12.76-1.85,0-.89-.36-1.51-.79-1.91-.36-.34-.98-.7-1.83-.7-.89,0-1.49.36-1.85.72Z"/>
  <path class="cls-1" d="M56.89,74.97c.25-.3,1.91-2.19,2.42-2.95.38-.57.83-1.44.83-2.27,0-1.27-.91-2.14-2.1-2.14-1.44,0-2.21,1.15-2.25,2.36h-2.84c.13-2.89,2.17-4.73,4.97-4.73,3.29,0,4.99,2.25,4.99,4.5s-1.46,3.76-2.57,4.95l-2.44,2.65h5.12v2.38h-10.27l4.16-4.73Z"/>
  <path class="cls-1" d="M84.76,66.25l-3.44,4.48c.42-.19.93-.34,1.55-.34,1.04,0,2.29.4,3.12,1.21.74.7,1.34,1.91,1.34,3.4,0,1.19-.34,2.38-1.29,3.42-1.21,1.32-2.59,1.61-4.03,1.61s-2.87-.28-4.03-1.44c-.76-.76-1.38-1.85-1.38-3.44,0-1.72.79-3.1,1.78-4.42l4.16-5.56,2.23,1.08ZM83.81,77.09c.34-.34.76-.93.76-1.87,0-.85-.3-1.49-.79-1.95-.53-.51-1.12-.68-1.83-.68-.83,0-1.38.28-1.85.76-.51.53-.76,1.06-.76,1.85s.25,1.42.79,1.91c.36.34.98.7,1.83.7.89,0,1.49-.36,1.85-.72Z"/>
  <path class="cls-1" d="M100.69,73.64h10.73v2.38h-10.73v-2.38Z"/>
  <path class="cls-1" d="M129.17,74.97c.25-.3,1.91-2.19,2.42-2.95.38-.57.83-1.44.83-2.27,0-1.27-.91-2.14-2.1-2.14-1.44,0-2.21,1.15-2.25,2.36h-2.84c.13-2.89,2.17-4.73,4.97-4.73,3.29,0,4.99,2.25,4.99,4.5s-1.46,3.76-2.57,4.95l-2.44,2.65h5.12v2.38h-10.27l4.16-4.73Z"/>
  <path class="cls-1" d="M148.76,72.62c0-4.86,2.65-7.39,5.48-7.39s5.48,2.53,5.48,7.41-2.65,7.39-5.48,7.39-5.48-2.53-5.48-7.41ZM151.52,72.62c0,3.69,1.51,5.03,2.72,5.03s2.72-1.34,2.72-5.03-1.53-5.01-2.72-5.01-2.72,1.34-2.72,5.01Z"/>
  <path class="cls-1" d="M177.35,74.97c.25-.3,1.91-2.19,2.42-2.95.38-.57.83-1.44.83-2.27,0-1.27-.91-2.14-2.1-2.14-1.44,0-2.21,1.15-2.25,2.36h-2.84c.13-2.89,2.17-4.73,4.97-4.73,3.29,0,4.99,2.25,4.99,4.5s-1.46,3.76-2.57,4.95l-2.44,2.65h5.12v2.38h-10.27l4.16-4.73Z"/>
  <path class="cls-1" d="M205.22,66.25l-3.44,4.48c.42-.19.93-.34,1.55-.34,1.04,0,2.29.4,3.12,1.21.74.7,1.34,1.91,1.34,3.4,0,1.19-.34,2.38-1.29,3.42-1.21,1.32-2.59,1.61-4.03,1.61s-2.87-.28-4.03-1.44c-.76-.76-1.38-1.85-1.38-3.44,0-1.72.79-3.1,1.78-4.42l4.16-5.56,2.23,1.08ZM204.27,77.09c.34-.34.76-.93.76-1.87,0-.85-.3-1.49-.79-1.95-.53-.51-1.12-.68-1.83-.68-.83,0-1.38.28-1.85.76-.51.53-.76,1.06-.76,1.85s.25,1.42.79,1.91c.36.34.98.7,1.83.7.89,0,1.49-.36,1.85-.72Z"/>
  <g>
    <path class="cls-1" d="M256.41,19.69c-6.32,7.17-10.14,16.6-10.14,26.91s3.83,19.72,10.14,26.9c1.1,1.25,2.28,2.43,3.52,3.54v2.13h-38.18v-46.68h-13.22l9.21-19.99h42.19s0,3.64,0,3.64c-1.25,1.11-2.43,2.29-3.52,3.54Z"/>
    <path class="cls-1" d="M365.86,46.35c0,11.91-6.12,22.41-15.37,28.5-5.39,3.54-11.82,5.61-18.75,5.61-6.05,0-11.74-1.58-16.68-4.35,7.8-7.42,12.65-17.9,12.65-29.5s-5-22.39-12.99-29.83c5.01-2.9,10.82-4.56,17.02-4.56,6.93,0,13.37,2.07,18.75,5.61,9.25,6.09,15.37,16.59,15.37,28.52Z"/>
    <path class="cls-1" d="M305.73,18.08c-5.38-3.54-11.82-5.6-18.74-5.6-10.2,0-19.36,4.48-25.61,11.58-5.3,6.01-8.5,13.91-8.5,22.54s3.21,16.53,8.5,22.53c6.25,7.11,15.41,11.58,25.61,11.58,6.93,0,13.37-2.06,18.74-5.6,9.26-6.11,15.37-16.6,15.37-28.51s-6.12-22.42-15.37-28.52ZM299.81,70.18c-3.81,2.07-8.18,3.25-12.83,3.25-12.02,0-22.21-7.92-25.61-18.83-.79-2.52-1.22-5.21-1.22-8s.42-5.48,1.22-8.01c3.4-10.92,13.59-18.83,25.61-18.83,4.65,0,9.01,1.18,12.82,3.26,8.35,4.54,14.01,13.4,14.01,23.58s-5.67,19.02-14.01,23.58Z"/>
    <path class="cls-1" d="M278.37,33.6c.08,0,1.43.7,2.19.22,1.27-.81,3.28-.59,3.28-.59-.2-.32-.62-.92-1.62-1.66-.86-.63-.61-1.19-.89-1.95-.22-.6-.46-1.07-1.41-1.45.7-.22,1.45-.05,2.17.56.35.3.76,1.2,1.59,1.49.98.35,1.19.46,1.98,1.15.26-1.37.66-1.47.3-2.59-.17-.56-.25-1.24.36-1.84.8-.8.89-1.23.63-1.86.63.42,1,.77.93,1.48-.03.34-.83,1.33-.14,2.27.63.83.75,2.73.75,2.73.53-.34,1.32-.1,2-1.09.48-.7.85-1.36,1.64-1.34.34,0,.76-.04,1.16-.19.45-.15.88-.43,1.16-.88.09.39.02.91-.74,1.33-.77.42-1.3.86-1.51,1.89-.11.5-.39.75-.9,1.02-.36.19-.81.41-1.39.73.31.13.6.24.9.32.93.25,1.81.19,2.84-.21.55-.21,1.11-.23,1.76.32.83.71,1.64.64,1.98.45-.46.83-.9,1.24-1.51,1.15-.42-.05-1.29-.6-2.53.04-1.2.6-3.32.28-3.32.28.2.32.82,1,1.92,1.69.82.52.63,1.23.92,1.99.22.59.48.97,1.24,1.29-.7.23-1.26.16-1.98-.43-.36-.29-.88-1.32-1.71-1.6-.58-.2-.89-.35-1.2-.58-.23-.16-.46-.36-.8-.64-.25,1.37-.63,1.57-.17,2.86.19.56.17,1.05-.42,1.66-.78.8-.69,1.42-.42,2.05-.77-.49-1.05-.94-1-1.64.02-.35.59-1.14.06-2.19-.58-1.13-1.17-1.17-.84-2.66,0,0-1.15-.06-1.94.86-.55.65-1.14,1.53-1.93,1.51-.72-.02-1.69.1-2.19,1.17-.08-.39.19-1.19.94-1.59.79-.42,1.37-.89,1.54-1.92.12-.81,1.04-1.1,1.86-1.73-1.38-.19-2.05-.67-3.34.08-.84.49-1.21.19-1.76-.36-.56-.57-1.41-.73-2.02-.45.42-.69.89-1.13,1.6-1.15Z"/>
    <path class="cls-1" d="M306.09,46.69c0,10.55-8.56,19.1-19.1,19.1s-19.11-8.56-19.11-19.1c0-6.27,3.02-11.83,7.68-15.31-1.81,2.4-2.88,5.38-2.88,8.62,0,7.9,6.41,14.3,14.31,14.3s14.3-6.41,14.3-14.3c0-3.25-1.08-6.24-2.9-8.64,4.68,3.48,7.7,9.06,7.7,15.34Z"/>
  </g>
</svg>