<?xml version="1.0" encoding="UTF-8"?>
<svg id="Layer_2" data-name="Layer 2" xmlns="http://www.w3.org/2000/svg" viewBox="0 0 775.12 532.27">
  <defs>
    <style>
      .cls-1 {
        fill: #162173;
      }

      .cls-2, .cls-3 {
        fill: #faf6db;
      }

      .cls-3 {
        stroke: #faf6db;
        stroke-linecap: round;
        stroke-linejoin: round;
        stroke-width: 54.88px;
      }
    </style>
  </defs>
  <g>
    <g>
      <path class="cls-2" d="M623.04,205.95c2.81,17.63-19.44,36.19-20.56,53.29s18.36,38.98,13.4,55.53c-5.04,16.83-33.15,23.9-41.72,39.03-8.62,15.2-.25,42.93-12.02,55.85s-40.07,7.12-54.49,17.15-18.65,38.51-35.06,45.1c-15.9,6.38-38.9-11.11-56.53-8.29-17.63,2.81-34.05,26.59-51.15,25.47s-30.8-26.98-47.36-31.95-41.99,9.23-57.12.66-15.88-37.57-28.8-49.34-41.76-9.69-51.79-24.11c-9.87-14.19,2.05-40.52-4.54-56.94s-33.31-26.61-36.12-44.24c-2.81-17.63,19.44-36.19,20.56-53.29s-18.36-38.98-13.4-55.53,33.15-23.9,41.72-39.03c8.62-15.2.25-42.93,12.02-55.85s40.07-7.12,54.49-17.15,18.65-38.51,35.06-45.1,38.9,11.11,56.53,8.29c17.63-2.81,34.05-26.59,51.15-25.47s30.8,26.98,47.36,31.95,41.99-9.23,57.12-.66,15.88,37.57,28.8,49.34c12.86,11.71,41.76,9.69,51.79,24.11s-2.05,40.52,4.54,56.94c6.38,15.9,33.31,26.61,36.12,44.24Z"/>
      <path class="cls-1" d="M590.03,211.22c2.41,15.11-19.96,31.16-20.91,45.81-.99,15.13,18.98,33.98,14.73,48.16-4.32,14.42-31.44,19.18-38.78,32.14-7.38,13.03,2.45,38.72-7.63,49.79-10.03,11.02-36.51,3.62-48.86,12.21-12.15,8.45-14.41,35.9-28.48,41.54-13.62,5.47-34.21-12.69-49.32-10.28-15.11,2.41-29.02,26.08-43.67,25.12-15.13-.99-25.81-26.37-39.99-30.62-14.42-4.32-37.27,10.95-50.23,3.6-13.03-7.38-11.67-34.86-22.74-44.94-11.02-10.03-38.26-6.12-46.86-18.48s4.66-36.29-.99-50.35-31.72-21.92-34.13-37.03c-2.41-15.11,19.96-31.16,20.91-45.81.99-15.13-18.98-33.98-14.73-48.16s31.44-19.18,38.78-32.14-2.45-38.72,7.63-49.79,36.51-3.62,48.86-12.21,14.41-35.9,28.48-41.54,34.21,12.69,49.32,10.28c15.11-2.41,29.02-26.08,43.67-25.12s25.81,26.37,39.99,30.62,37.27-10.95,50.23-3.6,11.67,34.86,22.74,44.94c11.02,10.03,38.26,6.12,46.86,18.48s-4.66,36.29.99,50.35,31.72,21.92,34.13,37.03Z"/>
    </g>
    <g>
      <path class="cls-2" d="M271.44,238.65c-.19,5.61-3.36,10.7-8.32,13.33-4.46,2.73-10.46,4.98-15.45,2.4-5.14-4.3-4.45-11.71-5.56-17.71-2.05-16.18-2.96-32.47-4.04-48.74-1.47-4.98.93-10.03,4.21-13.74,4.22-4.54,9.82-8.42,16.06-9.29,7.42-.17,7.1,8.09,6.95,13.32.39,8.72.81,17.43.81,26.16,6.01-2.33,10.73-7.17,16.95-9.04-1.98-10.9-4.76-21.79-4.79-32.93,1.84-7.08,9.08-11,15.39-13.51,4.52-1.68,11.1-3.04,14.21,1.81,3.89,7.45,3.45,16.14,4.62,24.26,1.73,18.98,3.64,38.1,2.04,57.15-.53,5.26-1.46,10.76-4.99,14.92-2.67,4.9-6.16,10.79-12.5,10.87-5.76.78-8-5.61-8.49-10.24-1.9-10.32-1.98-20.85-3.42-31.24-4.33,4.23-9.32,7.76-13.24,12.4"/>
      <path class="cls-2" d="M420.71,161.99c-1.56-5.77-8.1-.57-10.08,2.36-4.76,6.2-7.19,13.93-8.4,21.55-.83,6.48-.95,13.99,3.3,19.36,3.99,4.17,11.88,3.29,14.38-2.1,1.14-4.85,7.11-5.56,9.88-1.6,4.25,5.31,1.58,12.83-1.63,17.97-3,4.52-7.24,8.21-11.83,11.05-6.11,3.28-13.53,2.53-20.01.92-7.87-2.71-12.52-10.32-14.94-17.87-7.53-21.22-2.94-45.37,8.81-64.17,6.76-9.81,17.3-17.48,29.18-19.37,7.56-1.24,16.63.69,20.68,7.82,3.41,5.81,3.4,12.99,2.15,19.43-1.56,6.32-7.71,10.77-13.85,11.97-4.24,1.24-8.23-2.49-7.64-6.74v-.6"/>
      <path class="cls-2" d="M359.64,166.36c4.03,0,9.1,2.72,8.11,7.42-.13,18.49,1.8,37.64,10.55,54.23,1.63,3.61,4.21,6.76,5.78,10.36.63,5.3-5.27,8.13-9.55,9.28-4.96,1.89-12.24.65-12.2-5.87-.66-2.71-1.81-8.74-3.89-8.89-3.56,4.08-6.86,8.58-11.68,11.33-3.71,3.33-1.86,9.2-4.95,13-3.76,5.02-10.23,7.99-16.46,7.92-4.7.02-9.68-5.85-6.35-10.04,5.04-11.16,5.39-23.68,5.71-35.7.12-14.13-.94-28.23-2.43-42.27,2.38-6.27,8.7-9.76,14.25-12.88,6.1-3.03,13.13-6.21,20-4.07,2.6.84,3.78,3.63,3.08,6.17M346.54,202.12c.46,7.8.08,15.58.05,23.36,2.72-2.15,10.63-1.82,8.47-6.3-2.39-8.1-4.37-16.32-6.66-24.45l-1.84,7.38"/>
      <path class="cls-2" d="M450.2,148.32c.31-4.92,6.76-4.05,7.83-8.4,4.7-4.13,11.45-4.71,17.44-4.86,5.21-.45,9.68,4.58,7.28,9.55-3.18,6.43-4.95,13.42-7.88,19.96-.94,3.13-4.7,10.23-3.47,10.91,8.51-6.23,14.62-15.53,24.03-20.51,3.7-.47,8.87.31,10.2,4.36,1.88,4.74,1.14,10.11-1.94,14.17-6.31,10.32-16.16,18.42-27.61,22.41,1.61,1,7.99,2.39,10.31,5.48,7.64,6.81,11.35,16.6,15.57,25.66.56,6.15-8.59,8.35-12.77,5.03-8.96-4.73-16.69-11.8-26.44-15-3.77,1.33-2.93,7.59-4.61,11-1.18,3.95-2,8.27-4.38,11.64-5.16,3.31-11.81,5-17.85,3.52-4.54-1.58-4.5-7.59-4.28-11.64.66-4.67,3.52-8.65,4.69-13.2,7.12-20.55,6.74-42.65,11.93-63.62.57-2.18,1.21-4.35,1.96-6.47"/>
      <path class="cls-2" d="M281.86,340.81c-1.71.27-3.39-.61-4.16-2.16l-12.7-25.84c-2.16,1.08-4.42,1.92-6.76,2.51-2.13.46-4.24-.89-4.7-3.03-.44-2.04.78-4.08,2.79-4.64,1.79-.45,3.53-1.11,5.17-1.95l-12.94-26.32c-.86-1.75-.32-3.86,1.28-4.98l1.93-1.37c7.35-5.23,15.69-11.18,25.87-10.08.47.05.92.18,1.34.39,3.78,1.86,6.59,5.25,7.7,9.31,2.23,7.73-.89,17.98-4.98,24.7-2.72,4.23-6.1,7.99-10.01,11.15l13.08,26.64c.97,1.96.18,4.33-1.78,5.3-.36.18-.75.3-1.15.37ZM257.17,278.91l10.95,22.26c2.66-2.36,4.98-5.06,6.92-8.04,3.1-5.11,5.56-13.12,4.04-18.28-.43-1.71-1.52-3.19-3.03-4.1-6.61-.38-12.84,3.86-18.87,8.16Z"/>
      <path class="cls-2" d="M339.88,330.12c-.14.02-.28.04-.42.04-2.16.11-4.02-1.54-4.15-3.7-.18-2.89-1.28-21.36-1.04-35.97-1.38,1.47-2.77,2.86-4.15,4.18-.12.12-.25.22-.38.32,1.12,10.1-.42,20.81-6.84,29.46-3.81,5.78-10.83,8.84-17.92,7.79-6.59-.97-11.62-5.25-13.49-11.47-8.45-23.34-.83-41.36,8.35-49.85,1.65-2.05,4.08-3.42,7.09-3.89h.05c7.03-1.1,16.17,3.11,18.32,10.94,1.04,2.51,1.92,5.09,2.63,7.71,3.17-3.31,6.18-7.04,7.84-11.28.19-.49.48-.94.85-1.31.19-.89.4-1.78.62-2.67.11-.43.29-.84.53-1.21,3.44-5.29,7.34-5.34,9.36-4.91,7.01,1.51,10.91,12.65,12.5,18.48.92-5.96,2.59-11.78,4.96-17.32.15-.34.35-.67.59-.95,3.66-4.36,7.24-5.83,10.65-4.37,8.02,3.45,6,21.93,5.91,22.71l-.03.24c-.92,7.92-2.43,21.17,4.79,26.87,1.76,1.3,2.13,3.77.84,5.53s-3.77,2.13-5.53.84c-.07-.05-.14-.11-.21-.16-10.66-8.43-8.76-25.04-7.74-33.97l.03-.24c.63-5.49-.03-11.69-1.03-14-.45.37-.86.78-1.24,1.22-5.25,12.36-5.62,26.47-5.95,40.13-.05,2.09-.1,4.18-.17,6.25-.08,2.18-1.91,3.89-4.09,3.81-1.96-.07-3.57-1.56-3.79-3.51-1.16-10.52-2.75-19.66-4.87-27.95-.02-.13-.06-.25-.08-.38-.89-5.72-4.87-14.4-7.05-15.43-.33.26-.63.57-.87.92-3.41,14.25-2.67,29.47-1.96,44.2.14,2.95.28,5.9.4,8.83.08,1.99-1.34,3.73-3.31,4.06ZM299.07,285.23c-4.64,10.02-3.79,22.82-.1,32.96.01.08.06.16.08.24,1.36,4.67,5.41,5.74,7.08,5.99,3.35.49,7.8-.67,10.21-4.38.05-.08.1-.15.15-.22,4.77-6.38,6.16-14.37,5.58-22.18-4.36.47-8.76-.31-12.69-2.25-4.7-2.31-8.31-5.92-10.31-10.17ZM305.31,278.81c.54,3.89,3.35,7.43,7.55,9.46,2.48,1.24,5.25,1.79,8.01,1.57-.73-3.1-1.72-6.13-2.97-9.07-.08-.19-.15-.39-.2-.59-.88-3.56-5.96-5.91-9.52-5.36h-.02c-2.15.35-3.01,1.55-2.86,3.98h0Z"/>
      <path class="cls-2" d="M396.44,353.08c-2.16.34-4.18-1.14-4.52-3.29-.1-.62-.05-1.25.15-1.84,1.86-5.71.3-17.48-1.35-29.94-1.38-10.42-2.83-21.41-2.77-31.38-.1-3.6.17-7.2.81-10.74,1.54-9.6,5.53-17.34,13.92-21.26.22-.1.44-.18.68-.24,6.26-3.28,15.65-2.13,20.39,5.55,3.74,6.06,4.6,12.82,3.78,19.3,1.27.1,2.55.12,3.82.09-.04-2.9.31-5.8,1.06-8.61,1.98-7.34,7.24-26.84,22.77-23.05,5.25,1.28,8.83,5.09,9.8,10.45,1.33,7.3-2.46,16.37-8.69,20.62-5.21,3.57-10.51,6-15.95,7.33.45,1.4,1.09,2.73,1.89,3.96,1.82,2.7,4.32,4.28,7.44,4.67,2.49.26,4.93-.67,7.36-2.85,7.18-6.44,12.12-21.86,13.67-35.53.09-2.8.27-5.76.53-8.93.21-2.17,2.14-3.77,4.31-3.56,2.02.19,3.56,1.87,3.58,3.9-.01,3.12-.19,6.25-.54,9.35-.29,10.12.73,17.92,3.37,27.67,1.43,5.26,4.35,9.02,7.83,10.06,3.1.93,5.79-.63,7.54-2.15,11.02-11.32,7.76-36.94,6.01-50.72-.15-1.22-.3-2.38-.43-3.45-.25-2.11,1.21-4.05,3.32-4.38l.1-.02c2.15-.28,4.12,1.22,4.43,3.36,9.96,69.74-4.44,77.51-9.18,80.07-.11.06-.22.11-.33.16-8.93,3.75-21.64,2.01-29.98-3.75-7.02,4.87-16.69,7.22-26.05,6.19-4.68-.51-8.73-1.81-11.88-3.78-6.07,9.27-19.8,10.51-24.82,10.96-2.18.03-3.98-1.71-4.01-3.9-.03-1.95,1.37-3.64,3.3-3.96,12.21-1.1,18.82-4.55,20.22-10.53.35-1.5,1.54-2.67,3.06-2.98,1.51-.3,3.06.3,3.98,1.53,1.81,2.46,5.92,4.26,11.01,4.81,8.33.9,17.2-1.6,22.61-6.34,1.52-1.33,3.8-1.31,5.29.06,5.72,5.28,16.91,7.34,24.02,4.47,2.53-1.47,5.57-5.27,7.2-14.83-.71.94-1.48,1.82-2.31,2.66-.06.06-.13.12-.19.18-4.58,4.06-9.95,5.44-15.13,3.89-6.12-1.83-11.05-7.65-13.2-15.57-.55-2.02-1.03-3.97-1.45-5.88-2.69,6.9-6.22,12.91-10.56,16.8-4.08,3.66-8.76,5.33-13.56,4.82-5.36-.62-10.16-3.6-13.09-8.12-1.46-2.22-2.55-4.66-3.23-7.23-2.06.1-4.13.05-6.18-.13l-.53-.05c-1.35,4.05-3.24,7.9-5.62,11.44-.04.07-.09.13-.14.19-4.16,5.43-12.77,10.36-20.5,8.79-.76-.15-1.5-.37-2.22-.65.4,3.45.86,6.87,1.29,10.17,1.85,13.96,3.45,26.01,1.03,33.43-.46,1.42-1.68,2.46-3.16,2.68ZM395.94,288.03c.15,2.42.51,4.82,1.09,7.17.9,3.47,2.75,4.22,4.05,4.5,3.79.77,9.53-1.87,12.59-5.77,1.59-2.38,2.91-4.91,3.96-7.57-6.87-.86-13.34-3.29-19.02-13.97-.17-.32-.33-.64-.48-.96l-.13.33c-1.56,4.56-2.11,10.18-2.06,16.28ZM450.69,255.13c-2.83.44-6.84,3.57-10.62,17.64-.47,1.76-.73,3.57-.78,5.39,4.49-1.26,8.74-3.28,12.55-5.97,3.64-2.49,6.15-8.42,5.38-12.68-.42-2.31-1.66-3.64-3.9-4.19-.86-.25-1.75-.32-2.64-.2h.02ZM409.38,260.64c-.89.13-1.74.42-2.52.85-2.55,1.47-2.99,3.94-1.27,7.17,4.22,7.93,8.09,9.38,14.11,9.97.7-4.98.11-10.09-2.65-14.55-1.93-3.11-5.11-3.84-7.69-3.44h.02Z"/>
      <path class="cls-2" d="M327.86,350.67c-1.19.18-2.42.36-3.7.52-10.4.99-19.12,1.12-28.29-1.43-2.11-.55-3.38-2.71-2.83-4.82.55-2.11,2.71-3.38,4.82-2.83.04.01.09.02.13.04,8.02,2.23,15.63,2.11,25.3,1.19,18.03-2.3,25.2-6.78,32.15-11.12,6.57-4.09,12.78-7.96,26.16-9.15,2.16-.34,4.18,1.13,4.52,3.29s-1.13,4.18-3.29,4.52c-.18.03-.36.04-.53.05-11.5,1.02-16.68,4.25-22.67,7.99-6.84,4.28-14.55,9.08-31.76,11.76Z"/>
    </g>
  </g>
  <g>
    <path class="cls-3" d="M80.84,457.58c0-2.56-1.13-4.55-3.4-5.96-2.27-1.37-8.19-2.58-13.11-3.64l-10.74-1.84c-8.27-1.83-13.94-3.81-17.04-5.96-5.24-3.58-7.85-9.19-7.85-16.81,0-6.96,2.56-12.74,7.68-17.34s14.97-6.9,24.89-6.9c8.29,0,17.68,2.17,23.53,6.51,5.85,4.34,8.92,10.64,9.2,18.89h-15.6c-.29-4.67-2.38-7.99-6.27-9.96-2.59-1.3-8.14-1.95-12-1.95-4.29,0-10.04.84-12.59,2.53-2.56,1.69-3.84,4.04-3.84,7.06,0,2.78,1.26,4.85,3.78,6.22,1.62.91,7.39,1.99,12.65,3.21l15.96,3.21c5.97,1.41,10.45,3.29,13.44,5.64,4.63,3.65,6.95,8.94,6.95,15.86s-2.74,12.99-8.23,17.68-15.56,7.04-25.58,7.04-20.6-2.31-26.46-6.93c-5.86-4.62-8.79-10.97-8.79-19.05h15.49c.5,3.55,1.49,6.2,2.96,7.96,2.69,3.2,9.63,4.79,16.16,4.79,3.91,0,9.41-.42,11.85-1.26,4.63-1.62,6.94-4.62,6.94-9.01Z"/>
    <path class="cls-3" d="M141.94,449.41l-19.29-.03c.26,4.5,1.8,8.15,4.65,10.93,3.13,3.06,7.59,4.59,13.37,4.59s10.24-1.53,13.37-4.59c.28-.27.52-.56.77-.84h16.81c-1.17,3.99-3.08,7.32-5.73,9.99-5.84,6.42-14.24,9.63-25.23,9.63s-19.61-3.21-25.23-9.63c-4.76-4.79-7.14-11.71-7.14-20.77s2.38-15.98,7.14-20.77c5.62-6.39,14.02-9.59,25.23-9.59s19.39,3.2,25.23,9.59c4.76,4.79,7.14,11.71,7.14,20.77,0,.17,0,.34,0,.51v.03s.03.23.03.23h-.03l-14.33-.02-16.75-.03ZM158.31,443.69c-.66-3.16-2.07-5.81-4.26-7.93-3.13-3.02-7.59-4.53-13.37-4.53s-10.21,1.51-13.36,4.53c-2.21,2.12-3.62,4.77-4.28,7.93h35.27Z"/>
    <path class="cls-3" d="M239.84,430.97c1.77,3,2.11,6.66,2.11,10.17v38.54h-16.97l2.83-16.85c-.21.41-.41.82-.62,1.24-10.16,20.22-50.96,22.89-45.88-1.33,3.42-16.33,27.94-20.5,43.56-21.48-2.36-18.26-36.26-5.29-36.26-5.29l.05-12.57s39.63-12.04,51.2,7.58ZM224.97,459.4c0-3.36,0-6.8,0-10.02-7.93,1.5-21.97,2.01-24.22,11.14-2,8.1,16.18,12.5,24.21-1.12Z"/>
    <path class="cls-3" d="M310.96,467.2c-6.11-6.15-9.17-15.05-9.17-26.69s3.06-20.54,9.17-26.69c7.22-8.21,18.02-12.32,32.42-12.32s24.92,4.11,32.42,12.32c3.91,3.93,6.56,8.99,7.97,15.17h-16.7c-1.09-2.16-2.52-4.09-4.32-5.79-4.54-4.27-10.99-6.4-19.36-6.4s-14.78,2.13-19.34,6.4c-4.55,4.27-6.83,10.04-6.83,17.3s2.27,13.07,6.81,17.39c4.54,4.33,10.99,6.49,19.36,6.49s14.82-2.16,19.36-6.49c1.79-1.71,3.22-3.64,4.3-5.81h16.71c-1.41,6.15-4.06,11.19-7.96,15.11-7.5,8.25-18.31,12.38-32.42,12.38s-25.2-4.13-32.42-12.38Z"/>
    <path class="cls-3" d="M455.13,434c.44,2.27.66,5.97.66,11.1v33.75h-17v-34.97c0-3.09-3.45-11.44-14-11.5-4.96-.03-8.72,1.33-11.28,3.98-2.57,2.66-3.85,6.44-3.85,11.37v31.12h-16.57v-78.08h16.42v19.65l-4.91,22.15,3.46-9.38c1.8-4.88,5.42-8.94,10.18-10.95.29-.12.59-.24.89-.35,3.58-1.32,7.36-1.98,11.32-1.98,4.44,0,8.48.62,12.11,1.85,3.63,1.23,6.61,3.11,8.94,5.64,1.98,2.14,3.19,4.35,3.63,6.62Z"/>
    <path class="cls-3" d="M524.93,430.97c1.77,3,2.11,6.66,2.11,10.17v38.54h-16.98l2.83-16.85c-.21.41-.41.82-.62,1.24-10.16,20.22-50.96,22.89-45.88-1.33,3.42-16.33,27.94-20.5,43.56-21.48-2.36-18.26-36.26-5.29-36.26-5.29l.05-12.57s39.62-12.04,51.2,7.58ZM510.07,459.4c0-3.36,0-6.8,0-10.02-7.93,1.5-21.97,2.01-24.22,11.14-2,8.1,16.18,12.5,24.21-1.12Z"/>
    <path class="cls-3" d="M595.79,433.23c.43,2.27.64,5.97.64,11.1v34.52h-16.55v-35.74c0-3.09-3.36-11.44-13.62-11.5-4.82-.03-8.49,1.33-10.98,3.98-2.5,2.66-3.75,6.44-3.75,11.37v31.89h-16.25v-59.73h15.7l-4.04,21.76,3.04-8.48c1.75-4.88,5.27-8.94,9.91-10.95.29-.12.57-.24.86-.35,3.49-1.32,7.16-1.98,11.02-1.98,4.32,0,8.25.62,11.79,1.85,3.53,1.23,6.43,3.11,8.7,5.64,1.93,2.15,3.1,4.35,3.53,6.62Z"/>
    <path class="cls-3" d="M655.43,419.12h15.7v59.41c0,13.05-9.86,25.45-25.54,26.19-27.65,1.3-35.02-9.28-35.02-9.28l-.98-11.19s14.87,11.4,34.22,6.83c12.75-3.01,11.61-17,11.61-17v-6.37c-.57.91-1.19,1.8-1.86,2.66-4.51,5.76-11.36,8.65-20.54,8.65s-16.03-2.88-20.54-8.65c-4.51-5.76-6.77-12.7-6.77-20.82s2.26-14.89,6.77-20.74c4.51-5.85,11.36-8.77,20.54-8.77s16.03,2.92,20.54,8.77c3.08,3.99,5.11,8.49,6.08,13.47l.1.1-4.32-23.27ZM655.43,454.25v-9.37c-.6-3.6-1.93-6.54-4.03-8.78-2.94-3.15-7.12-4.72-12.56-4.72s-9.62,1.57-12.53,4.72c-2.91,3.14-4.37,7.63-4.37,13.46s1.46,10.33,4.37,13.49c2.92,3.16,7.09,4.74,12.53,4.74s9.63-1.58,12.56-4.74c2.09-2.25,3.42-5.2,4.03-8.8Z"/>
    <path class="cls-3" d="M716.58,449.41l-19.29-.03c.26,4.5,1.8,8.15,4.65,10.93,3.13,3.06,7.59,4.59,13.37,4.59s10.24-1.53,13.37-4.59c.28-.27.52-.56.77-.84h16.81c-1.17,3.99-3.08,7.32-5.73,9.99-5.84,6.42-14.25,9.63-25.23,9.63s-19.61-3.21-25.23-9.63c-4.76-4.79-7.14-11.71-7.14-20.77s2.38-15.98,7.14-20.77c5.62-6.39,14.02-9.59,25.23-9.59s19.39,3.2,25.23,9.59c4.76,4.79,7.14,11.71,7.14,20.77,0,.17,0,.34,0,.51v.03s.03.23.03.23h-.03l-14.33-.02-16.75-.03ZM732.94,443.69c-.66-3.16-2.07-5.81-4.26-7.93-3.13-3.02-7.59-4.53-13.37-4.53s-10.21,1.51-13.36,4.53c-2.21,2.12-3.62,4.77-4.28,7.93h35.27Z"/>
  </g>
  <g>
    <path class="cls-1" d="M80.63,457.58c0-2.56-1.13-4.55-3.4-5.96-2.27-1.37-8.19-2.58-13.11-3.64l-10.74-1.84c-8.27-1.83-13.94-3.81-17.04-5.96-5.24-3.58-7.85-9.19-7.85-16.81,0-6.96,2.56-12.74,7.68-17.34s14.97-6.9,24.89-6.9c8.29,0,17.68,2.17,23.53,6.51,5.85,4.34,8.92,10.64,9.2,18.89h-15.6c-.29-4.67-2.38-7.99-6.27-9.96-2.59-1.3-8.14-1.95-12-1.95-4.29,0-10.04.84-12.59,2.53-2.56,1.69-3.84,4.04-3.84,7.06,0,2.78,1.26,4.85,3.78,6.22,1.62.91,7.39,1.99,12.65,3.21l15.96,3.21c5.97,1.41,10.45,3.29,13.44,5.64,4.63,3.65,6.95,8.94,6.95,15.86s-2.74,12.99-8.23,17.68-15.56,7.04-25.58,7.04-20.6-2.31-26.46-6.93c-5.86-4.62-8.79-10.97-8.79-19.05h15.49c.5,3.55,1.49,6.2,2.96,7.96,2.69,3.2,9.63,4.79,16.16,4.79,3.91,0,9.41-.42,11.85-1.26,4.63-1.62,6.94-4.62,6.94-9.01Z"/>
    <path class="cls-1" d="M141.73,449.41l-19.29-.03c.26,4.5,1.8,8.15,4.65,10.93,3.13,3.06,7.59,4.59,13.37,4.59s10.24-1.53,13.37-4.59c.28-.27.52-.56.77-.84h16.81c-1.17,3.99-3.08,7.32-5.73,9.99-5.84,6.42-14.24,9.63-25.23,9.63s-19.61-3.21-25.23-9.63c-4.76-4.79-7.14-11.71-7.14-20.77s2.38-15.98,7.14-20.77c5.62-6.39,14.02-9.59,25.23-9.59s19.39,3.2,25.23,9.59c4.76,4.79,7.14,11.71,7.14,20.77,0,.17,0,.34,0,.51v.03s.03.23.03.23h-.03l-14.33-.02-16.75-.03ZM158.1,443.69c-.66-3.16-2.07-5.81-4.26-7.93-3.13-3.02-7.59-4.53-13.37-4.53s-10.21,1.51-13.36,4.53c-2.21,2.12-3.62,4.77-4.28,7.93h35.27Z"/>
    <path class="cls-1" d="M239.62,430.97c1.77,3,2.11,6.66,2.11,10.17v38.54h-16.97l2.83-16.85c-.21.41-.41.82-.62,1.24-10.16,20.22-50.96,22.89-45.88-1.33,3.42-16.33,27.94-20.5,43.56-21.48-2.36-18.26-36.26-5.29-36.26-5.29l.05-12.57s39.63-12.04,51.2,7.58ZM224.76,459.4c0-3.36,0-6.8,0-10.02-7.93,1.5-21.97,2.01-24.22,11.14-2,8.1,16.18,12.5,24.21-1.12Z"/>
    <path class="cls-1" d="M310.74,467.2c-6.11-6.15-9.17-15.05-9.17-26.69s3.06-20.54,9.17-26.69c7.22-8.21,18.02-12.32,32.42-12.32s24.92,4.11,32.42,12.32c3.91,3.93,6.56,8.99,7.97,15.17h-16.7c-1.09-2.16-2.52-4.09-4.32-5.79-4.54-4.27-10.99-6.4-19.36-6.4s-14.78,2.13-19.34,6.4c-4.55,4.27-6.83,10.04-6.83,17.3s2.27,13.07,6.81,17.39c4.54,4.33,10.99,6.49,19.36,6.49s14.82-2.16,19.36-6.49c1.79-1.71,3.22-3.64,4.3-5.81h16.71c-1.41,6.15-4.06,11.19-7.96,15.11-7.5,8.25-18.31,12.38-32.42,12.38s-25.2-4.13-32.42-12.38Z"/>
    <path class="cls-1" d="M454.92,434c.44,2.27.66,5.97.66,11.1v33.75h-17v-34.97c0-3.09-3.45-11.44-14-11.5-4.96-.03-8.72,1.33-11.28,3.98-2.57,2.66-3.85,6.44-3.85,11.37v31.12h-16.57v-78.08h16.42v19.65l-4.91,22.15,3.46-9.38c1.8-4.88,5.42-8.94,10.18-10.95.29-.12.59-.24.89-.35,3.58-1.32,7.36-1.98,11.32-1.98,4.44,0,8.48.62,12.11,1.85,3.63,1.23,6.61,3.11,8.94,5.64,1.98,2.14,3.19,4.35,3.63,6.62Z"/>
    <path class="cls-1" d="M524.72,430.97c1.77,3,2.11,6.66,2.11,10.17v38.54h-16.98l2.83-16.85c-.21.41-.41.82-.62,1.24-10.16,20.22-50.96,22.89-45.88-1.33,3.42-16.33,27.94-20.5,43.56-21.48-2.36-18.26-36.26-5.29-36.26-5.29l.05-12.57s39.62-12.04,51.2,7.58ZM509.85,459.4c0-3.36,0-6.8,0-10.02-7.93,1.5-21.97,2.01-24.22,11.14-2,8.1,16.18,12.5,24.21-1.12Z"/>
    <path class="cls-1" d="M595.58,433.23c.43,2.27.64,5.97.64,11.1v34.52h-16.55v-35.74c0-3.09-3.36-11.44-13.62-11.5-4.82-.03-8.49,1.33-10.98,3.98-2.5,2.66-3.75,6.44-3.75,11.37v31.89h-16.25v-59.73h15.7l-4.04,21.76,3.04-8.48c1.75-4.88,5.27-8.94,9.91-10.95.29-.12.57-.24.86-.35,3.49-1.32,7.16-1.98,11.02-1.98,4.32,0,8.25.62,11.79,1.85,3.53,1.23,6.43,3.11,8.7,5.64,1.93,2.15,3.1,4.35,3.53,6.62Z"/>
    <path class="cls-1" d="M655.22,419.12h15.7v59.41c0,13.05-9.86,25.45-25.54,26.19-27.65,1.3-35.02-9.28-35.02-9.28l-.98-11.19s14.87,11.4,34.22,6.83c12.75-3.01,11.61-17,11.61-17v-6.37c-.57.91-1.19,1.8-1.86,2.66-4.51,5.76-11.36,8.65-20.54,8.65s-16.03-2.88-20.54-8.65c-4.51-5.76-6.77-12.7-6.77-20.82s2.26-14.89,6.77-20.74c4.51-5.85,11.36-8.77,20.54-8.77s16.03,2.92,20.54,8.77c3.08,3.99,5.11,8.49,6.08,13.47l.1.1-4.32-23.27ZM655.22,454.25v-9.37c-.6-3.6-1.93-6.54-4.03-8.78-2.94-3.15-7.12-4.72-12.56-4.72s-9.62,1.57-12.53,4.72c-2.91,3.14-4.37,7.63-4.37,13.46s1.46,10.33,4.37,13.49c2.92,3.16,7.09,4.74,12.53,4.74s9.63-1.58,12.56-4.74c2.09-2.25,3.42-5.2,4.03-8.8Z"/>
    <path class="cls-1" d="M716.36,449.41l-19.29-.03c.26,4.5,1.8,8.15,4.65,10.93,3.13,3.06,7.59,4.59,13.37,4.59s10.24-1.53,13.37-4.59c.28-.27.52-.56.77-.84h16.81c-1.17,3.99-3.08,7.32-5.73,9.99-5.84,6.42-14.25,9.63-25.23,9.63s-19.61-3.21-25.23-9.63c-4.76-4.79-7.14-11.71-7.14-20.77s2.38-15.98,7.14-20.77c5.62-6.39,14.02-9.59,25.23-9.59s19.39,3.2,25.23,9.59c4.76,4.79,7.14,11.71,7.14,20.77,0,.17,0,.34,0,.51v.03s.03.23.03.23h-.03l-14.33-.02-16.75-.03ZM732.73,443.69c-.66-3.16-2.07-5.81-4.26-7.93-3.13-3.02-7.59-4.53-13.37-4.53s-10.21,1.51-13.36,4.53c-2.21,2.12-3.62,4.77-4.28,7.93h35.27Z"/>
  </g>
</svg>