<?xml version="1.0" encoding="UTF-8"?>
<svg id="Layer_1" data-name="Layer 1" xmlns="http://www.w3.org/2000/svg" viewBox="0 0 1200 800">
  <defs>
    <style>
      .cls-1 {
        fill: #162173;
      }

      .cls-2 {
        fill: #56a8f4;
      }

      .cls-3 {
        fill: #faf6db;
      }

      .cls-4 {
        fill: #fff;
      }
    </style>
  </defs>
  <rect class="cls-1" x="-20" y="-9" width="1241" height="834"/>
  <g>
    <path class="cls-4" d="M1049.09,153.36c.52,0,1.04-.02,1.56-.02,1.78-.03,3.28-1.57,3.25-3.35-.03-1.79-1.56-3.28-3.35-3.25l-1.56.02c-1.78.03-3.28,1.57-3.25,3.35.03,1.79,1.56,3.28,3.35,3.25h0Z"/>
    <path class="cls-4" d="M1028.95,159.7c3.05,2.96,7.65-1.77,4.6-4.74-3.05-2.96-7.65,1.77-4.6,4.74h0Z"/>
    <path class="cls-4" d="M1008.76,163.12c.26-.26.51-.53.77-.79,1.2-1.24,1.27-3.48-.07-4.67-1.34-1.19-3.38-1.26-4.67.07l-.77.79c-1.2,1.24-1.27,3.48.07,4.67,1.34,1.19,3.38,1.26,4.67-.07h0Z"/>
    <path class="cls-4" d="M992.27,205.4c3.05,2.96,7.65-1.77,4.6-4.74s-7.65,1.77-4.6,4.74h0Z"/>
    <path class="cls-4" d="M1013.64,177.05c3.05,2.96,7.65-1.77,4.6-4.74-3.05-2.96-7.65,1.77-4.6,4.74h0Z"/>
    <path class="cls-4" d="M995.01,180.45l.79.77c1.24,1.2,3.48,1.27,4.67-.07,1.19-1.34,1.26-3.38-.07-4.67l-.79-.77c-1.24-1.2-3.48-1.27-4.67.07-1.19,1.34-1.26,3.38.07,4.67h0Z"/>
    <path class="cls-4" d="M1013.97,198.85c3.05,2.96,7.65-1.77,4.6-4.74-3.05-2.96-7.65,1.77-4.6,4.74h0Z"/>
    <path class="cls-4" d="M1014.31,222.19c3.05,2.96,7.65-1.77,4.6-4.74-3.05-2.96-7.65,1.77-4.6,4.74h0Z"/>
    <path class="cls-4" d="M1046.47,238.06c3.05,2.96,7.65-1.77,4.6-4.74-3.05-2.96-7.65,1.77-4.6,4.74h0Z"/>
    <path class="cls-4" d="M1060.08,263.55c3.05,2.96,7.65-1.77,4.6-4.74-3.05-2.96-7.65,1.77-4.6,4.74h0Z"/>
    <path class="cls-4" d="M1085.43,240.59c3.05,2.96,7.65-1.77,4.6-4.74s-7.65,1.77-4.6,4.74h0Z"/>
    <path class="cls-4" d="M1069.93,245.49l.79.77c1.24,1.2,3.48,1.27,4.67-.07,1.19-1.34,1.26-3.38-.07-4.67l-.79-.77c-1.24-1.2-3.48-1.27-4.67.07-1.19,1.34-1.26,3.38.07,4.67h0Z"/>
    <path class="cls-4" d="M1081.87,263.22l.77-.79c1.2-1.24,1.27-3.48-.07-4.67-1.34-1.19-3.38-1.26-4.67.07l-.77.79c-1.2,1.24-1.27,3.48.07,4.67,1.34,1.19,3.38,1.26,4.67-.07h0Z"/>
    <path class="cls-4" d="M1049.19,251.25c0-.52-.02-1.04-.02-1.56-.03-1.78-1.57-3.28-3.35-3.25-1.79.03-3.28,1.56-3.25,3.35,0,.52.02,1.04.02,1.56.03,1.78,1.57,3.28,3.35,3.25,1.79-.03,3.28-1.56,3.25-3.35h0Z"/>
    <path class="cls-4" d="M1030.16,240.64l.77-.79c1.2-1.24,1.27-3.48-.07-4.67-1.34-1.19-3.38-1.26-4.67.07-.26.26-.51.53-.77.79-1.2,1.24-1.27,3.48.07,4.67,1.34,1.19,3.38,1.26,4.67-.07h0Z"/>
    <path class="cls-4" d="M1038.92,201.59l.77-.79c1.2-1.24,1.27-3.48-.07-4.67-1.34-1.19-3.38-1.26-4.67.07-.26.26-.51.53-.77.79-1.2,1.24-1.27,3.48.07,4.67,1.34,1.19,3.38,1.26,4.67-.07h0Z"/>
    <path class="cls-4" d="M1037.62,218.73l1.53-1.58c1.2-1.24,1.27-3.48-.07-4.67-1.34-1.19-3.38-1.26-4.67.07-.51.53-1.02,1.05-1.53,1.58-1.2,1.24-1.27,3.48.07,4.67,1.34,1.19,3.38,1.26,4.67-.07h0Z"/>
    <path class="cls-4" d="M1058.5,210.05l1.56-.02c1.78-.03,3.28-1.57,3.25-3.35-.03-1.79-1.56-3.28-3.35-3.25l-1.56.02c-1.78.03-3.28,1.57-3.25,3.35s1.56,3.28,3.35,3.25h0Z"/>
    <path class="cls-4" d="M1064.98,226.89c3.05,2.96,7.65-1.77,4.6-4.74-3.05-2.96-7.65,1.77-4.6,4.74h0Z"/>
    <path class="cls-4" d="M1085.8,213.34c3.05,2.96,7.65-1.77,4.6-4.74-3.05-2.96-7.65,1.77-4.6,4.74h0Z"/>
    <path class="cls-4" d="M1086.19,187.65c3.05,2.96,7.65-1.77,4.6-4.74-3.05-2.96-7.65,1.77-4.6,4.74h0Z"/>
    <path class="cls-4" d="M1071.63,202.66c3.05,2.96,7.65-1.77,4.6-4.74-3.05-2.96-7.65,1.77-4.6,4.74h0Z"/>
    <path class="cls-4" d="M1062.78,183.33c3.05,2.96,7.65-1.77,4.6-4.74-3.05-2.96-7.65,1.77-4.6,4.74h0Z"/>
    <path class="cls-4" d="M1048,184.33l-.79-.77c-1.24-1.2-3.48-1.27-4.67.07-1.19,1.34-1.26,3.38.07,4.67l.79.77c1.24,1.2,3.48,1.27,4.67-.07,1.19-1.34,1.26-3.38-.07-4.67h0Z"/>
    <path class="cls-4" d="M1033.83,173.64l.77-.79c1.2-1.24,1.27-3.48-.07-4.67-1.34-1.19-3.38-1.26-4.67.07l-.77.79c-1.2,1.24-1.27,3.48.07,4.67,1.34,1.19,3.38,1.26,4.67-.07h0Z"/>
    <path class="cls-4" d="M1055.53,167.09l.79.77c1.24,1.2,3.48,1.27,4.67-.07,1.19-1.34,1.26-3.38-.07-4.67l-.79-.77c-1.24-1.2-3.48-1.27-4.67.07-1.19,1.34-1.26,3.38.07,4.67h0Z"/>
    <path class="cls-4" d="M1037.15,135.45c3.05,2.96,7.65-1.77,4.6-4.74-3.05-2.96-7.65,1.77-4.6,4.74h0Z"/>
    <path class="cls-4" d="M1025.44,133.29c3.05,2.96,7.65-1.77,4.6-4.74s-7.65,1.77-4.6,4.74h0Z"/>
    <path class="cls-4" d="M992.71,130.66c3.05,2.96,7.65-1.77,4.6-4.74-3.05-2.96-7.65,1.77-4.6,4.74h0Z"/>
    <path class="cls-4" d="M972.97,161.62c1.05.5,2.09,1,3.14,1.51,1.61.77,3.59.32,4.48-1.31.82-1.5.31-3.71-1.31-4.48-1.05-.5-2.09-1-3.14-1.51-1.61-.77-3.59-.32-4.48,1.31-.82,1.5-.31,3.71,1.31,4.48h0Z"/>
    <path class="cls-4" d="M975.01,196.31c3.05,2.96,7.65-1.77,4.6-4.74-3.05-2.96-7.65,1.77-4.6,4.74h0Z"/>
    <path class="cls-4" d="M943.92,199.89c3.05,2.96,7.65-1.77,4.6-4.74-3.05-2.96-7.65,1.77-4.6,4.74h0Z"/>
    <path class="cls-4" d="M929.31,211.98c.52,0,1.04-.02,1.56-.02,1.78-.03,3.28-1.57,3.25-3.35-.03-1.79-1.56-3.28-3.35-3.25-.52,0-1.04.02-1.56.02-1.78.03-3.28,1.57-3.25,3.35.03,1.79,1.56,3.28,3.35,3.25h0Z"/>
    <path class="cls-4" d="M945.85,224.77c3.05,2.96,7.65-1.77,4.6-4.74-3.05-2.96-7.65,1.77-4.6,4.74h0Z"/>
    <path class="cls-4" d="M965.95,215.13c3.05,2.96,7.65-1.77,4.6-4.74-3.05-2.96-7.65,1.77-4.6,4.74h0Z"/>
    <path class="cls-4" d="M1109.82,205.98c-.26-.26-.53-.51-.79-.77-1.24-1.2-3.48-1.27-4.67.07-1.19,1.34-1.26,3.38.07,4.67l.79.77c1.24,1.2,3.48,1.27,4.67-.07,1.19-1.34,1.26-3.38-.07-4.67h0Z"/>
    <path class="cls-4" d="M1115.77,187.21c3.05,2.96,7.65-1.77,4.6-4.74-3.05-2.96-7.65,1.77-4.6,4.74h0Z"/>
    <path class="cls-4" d="M1134.42,185.56c.52,0,1.04-.02,1.56-.02,1.78-.03,3.28-1.57,3.25-3.35-.03-1.79-1.56-3.28-3.35-3.25-.52,0-1.04.02-1.56.02-1.78.03-3.28,1.57-3.25,3.35.03,1.79,1.56,3.28,3.35,3.25h0Z"/>
    <path class="cls-4" d="M1158.98,161.65l.77-.79c1.2-1.24,1.27-3.48-.07-4.67-1.34-1.19-3.38-1.26-4.67.07l-.77.79c-1.2,1.24-1.27,3.48.07,4.67,1.34,1.19,3.38,1.26,4.67-.07h0Z"/>
    <path class="cls-4" d="M1164.04,188.04c3.05,2.96,7.65-1.77,4.6-4.74s-7.65,1.77-4.6,4.74h0Z"/>
    <path class="cls-4" d="M1150.66,178.12c3.05,2.96,7.65-1.77,4.6-4.74s-7.65,1.77-4.6,4.74h0Z"/>
  </g>
  <g>
    <g>
      <path class="cls-3" d="M1118.58,22.09c5.94-4.42,11.78-9.28,18.33-12.78,4.14-2.21,8.65-3.14,13.25-3.52-.21.33-.41.67-.62,1.01-19.82,8.82-36.98,22.61-49.61,40.29-2.59,3.62,2.63,8.24,5.24,4.59,8.92-12.48,20.12-23.04,33.03-31.07-1.93,1.6-3.92,3.15-5.82,4.8-9.1,7.89-16.16,17.72-20.86,28.8-1.74,4.11,4.51,7.17,6.27,3.04,4.31-10.17,10.68-19.33,19.07-26.57,3.68-3.17,7.7-5.96,11.06-9.49,3.02-3.17,5.19-6.97,7.46-10.68,1.07-1.74,2.25-3.69,3.69-5.34.55-.29.95-.72,1.21-1.24.99-.9,2.1-1.64,3.37-2.09,4.14-1.45,8.69.19,12.92-1.35,4.29-1.56,6.87-4.51,11.76-3.57,2.86.55,5.56,1.74,8.12,3.16-4.87,5.09-13.58,5.39-20.09,6.82-3.66.8-7.3,1.92-10.47,3.97-3.45,2.23-5.93,5.48-8.66,8.48-3.05,3.33-6.76,4.82-10.5,7.16-3.51,2.2-6.23,5.33-8.59,8.7-5.57,7.96-10.71,16.24-16.04,24.36-2.45,3.74,3.84,6.74,6.27,3.04,5.36-8.16,10.35-16.79,16.27-24.55,2.95-3.87,6.32-5.87,10.49-8.18,3.72-2.05,6.45-4.92,9.22-8.08,2.85-3.24,5.71-5.77,9.88-7.15,3.89-1.28,7.97-1.73,11.97-2.55,5.12-1.05,10.04-2.79,13.87-6.01-1.21,3.79-5.95,6.6-9.4,8.2-4.77,2.22-9.47,4.17-13.21,7.84-4.63,3.93-10.03,6.46-15.77,8.36-5.19,1.72-10.17,2.68-14.27,6.54-3.27,3.07,2,7.64,5.24,4.59,3.72-3.5,10.38-4.12,15.1-5.92-1.12,1.82-2.24,3.63-3.38,5.39-.31.48-.63.96-.94,1.45-3.23,4.29-8.74,5.42-13.59,7.03-5.31,1.77-10.1,3.98-13.67,8.47-2.61,3.28-4.76,7.01-6.8,10.77-.44-.07-.9-.06-1.4.04-9.66,2.1-15.05,10.58-19.61,18.61-2.21,3.9,4.06,6.92,6.27,3.04,2.65-4.68,5.46-9.46,9.71-12.45-3.69,6.56-7.38,13.11-11.07,19.67-2.2,3.91,4.08,6.93,6.27,3.04,3.84-6.83,7.69-13.66,11.53-20.49,3.45-6.13,6.48-13.52,11.26-18.73,3.45-3.77,8.29-5.21,13.1-6.73-1.25,1.92-2.51,3.85-3.76,5.77-4.06,6.23-8.23,12.44-11.57,19.1-3.13,6.26-4.82,13.29-8.5,19.27-6.62,10.77-18.58,16.9-23.75,28.79-1.79,4.1,4.47,7.15,6.27,3.04,5.3-12.18,18.23-18.6,24.55-30.19.41-.75.79-1.5,1.15-2.26.94,3.32-2.86,10.02-4.04,12.14-2.3,4.11-5.31,7.68-8.74,10.89-3.27,3.07,2,7.63,5.24,4.59,6.92-6.48,21.99-26.45,10.57-34.66,1.02-2.56,2.03-5.13,3.16-7.64-.48,3.03,3.6,5.84,6,2.92,8.62-10.47,18.04-20.66,25.75-31.83,5.99-8.68,9.75-18.86,6.9-29.3,1.49-1.19,3.17-2.25,5.11-3.14,4.26-1.95,8.61-3.68,12.01-6.82-1.74,3.66-4.73,7.13-6.62,9.42-2.82,3.41-5.57,6.93-7.07,11.15-1.36,3.83-1.44,7.82-1.8,11.82-.39,4.3-1.26,8.05-4.41,11.19-3.01,3-6.64,5.27-9.55,8.39-6.96,7.48-12.51,16.65-18.49,24.92-2.61,3.61,2.61,8.22,5.24,4.59,3.49-4.82,6.97-9.63,10.46-14.45,2.78-3.84,5.46-7.84,8.79-11.22-2.96,10.27-11.99,18.47-18.02,26.97-2.57,3.63,2.65,8.25,5.24,4.59,8.56-12.08,20.49-22.61,20.7-38.43,1.49-1.39,2.85-2.89,3.94-4.69,2.45-4.08,2.8-8.75,3.16-13.39.44-5.57,1.61-9.95,5.08-14.45.6-.78,1.22-1.53,1.85-2.29.15,2.22.53,4.48.97,6.76,1.73,8.89-.59,15.58-5.21,23.19-4.36,7.19-8.34,14.09-11.27,22.01-3.14,8.47-5.94,17.13-12.12,23.94-3.02,3.32,2.23,7.91,5.24,4.59,5.67-6.25,8.88-13.85,11.76-21.68,3.03-8.25,6.44-15.8,11.09-23.27,3.95-6.33,7.88-13.01,8.29-20.65.33-5.99-3.39-13.84-1.66-19.9.98,2.15,2.65,3.64,4.17,5.63,5.51,7.26,2.01,18.59-1.24,26.08-4.08,9.42-9.89,17.96-13.37,27.66-1.5,4.18,4.75,7.26,6.27,3.04,3.81-10.62,10.46-19.88,14.49-30.39,3.2-8.35,5.51-18.88,1.43-27.36-1.36-2.82-4.6-4.84-5.55-7.72-.73-2.22-.08-5.19-.08-7.48,0-6.84-2.48-12.64-8.28-16.51-.3-.2-.6-.33-.91-.43-.21-.25-.44-.48-.71-.66-.18-.18-.39-.35-.63-.5-7.01-4.51-16.23-8.62-24.3-4.43-2.8,1.45-4.81,2.91-8.08,2.99-2.56.07-5.06-.24-7.59.34-2.73.62-5.08,2-7.12,3.8-7.08.08-14.32.73-20.76,3.86-7.41,3.61-13.86,8.96-20.43,13.85-3.59,2.67.28,8.47,3.88,5.78ZM1168.53,55.46c-7.08,8.93-14.47,17.62-21.71,26.42.35-.71.7-1.42,1.08-2.12,3.85-7.09,8.46-13.77,12.86-20.52,4.39-6.73,8.78-13.46,13.17-20.2,1.66-2.54,3.18-4.98,4.81-7.24.42,8.75-4.86,16.9-10.21,23.65Z"/>
      <path class="cls-3" d="M1204.75-21.77c2.53,1.23,4.9,2.59,7.04,3.97.65.42,1.26.87,1.85,1.35.21.13.42.26.62.4,10.02,6.69,15.53,17.36,15.53,30.07,0,.72-.03,1.41-.07,2.04,1.3,1.51,2.85,3.51,4.09,6.09,5.37,11.16,5.07,24.7-.9,40.26-2.3,5.99-5.12,11.27-7.85,16.39-2.54,4.77-4.94,9.27-6.53,13.67-2.37,6.6-7.82,11.27-14.58,12.5-1.21.22-2.43.32-3.65.31-2.55,5.33-5.8,10.74-10.35,15.74-7.43,8.18-19.71,8.74-27.95,1.25-.73-.66-1.39-1.36-2-2.08-.86-.15-1.73-.35-2.57-.62-5.67,10.3-13.49,17.73-14.02,18.22-4.95,4.64-11.67,6.25-17.87,4.91-5.47,6.02-14.25,8.09-22.25,4.61-10.26-4.46-14.81-15.93-10.37-26.11,1.87-4.29,4.26-7.98,6.83-11.23-1.6-2.39-2.63-5.09-3.04-7.89-.93-1.01-1.77-2.13-2.48-3.34-3.51-5.98-3.53-13.21-.05-19.34,1.56-2.76,3.6-6.34,6.32-10-.08-.09-.17-.17-.25-.26-6.73-.91-12.63-5.32-15.52-11.67-2.98-6.56-2.26-13.97,1.93-19.84,3.37-4.71,7.03-9.2,10.96-13.43-.24-.92-.42-1.86-.53-2.82-.83-7.07,2.11-13.84,7.85-18.12,1.14-.85,2.28-1.72,3.42-2.58,5.67-4.31,12.09-9.19,19.61-12.85,7.63-3.72,15.6-4.94,22.47-5.34,2.81-1.65,5.79-2.84,8.92-3.56,3.71-.85,6.9-.79,9.22-.75.13,0,.27,0,.4,0,.16-.09.32-.18.47-.25.55-.3,1.11-.6,1.7-.91,11.8-6.12,23.93-3.45,33.58,1.22ZM1108.84,9.03s0,0,0,0c0,0,0,0,0,0Z"/>
    </g>
    <path class="cls-1" d="M1118.58,22.09c5.94-4.42,11.78-9.28,18.33-12.78,4.14-2.21,8.65-3.14,13.25-3.52-.21.33-.41.67-.62,1.01-19.82,8.82-36.98,22.61-49.61,40.29-2.59,3.62,2.63,8.24,5.24,4.59,8.92-12.48,20.12-23.04,33.03-31.07-1.93,1.6-3.92,3.15-5.82,4.8-9.1,7.89-16.16,17.72-20.86,28.8-1.74,4.11,4.51,7.17,6.27,3.04,4.31-10.17,10.68-19.33,19.07-26.57,3.68-3.17,7.7-5.96,11.06-9.49,3.02-3.17,5.19-6.97,7.46-10.68,1.07-1.74,2.25-3.69,3.69-5.34.55-.29.95-.72,1.21-1.24.99-.9,2.1-1.64,3.37-2.09,4.14-1.45,8.69.19,12.92-1.35,4.29-1.56,6.87-4.51,11.76-3.57,2.86.55,5.56,1.74,8.12,3.16-4.87,5.09-13.58,5.39-20.09,6.82-3.66.8-7.3,1.92-10.47,3.97-3.45,2.23-5.93,5.48-8.66,8.48-3.05,3.33-6.76,4.82-10.5,7.16-3.51,2.2-6.23,5.33-8.59,8.7-5.57,7.96-10.71,16.24-16.04,24.36-2.45,3.74,3.84,6.74,6.27,3.04,5.36-8.16,10.35-16.79,16.27-24.55,2.95-3.87,6.32-5.87,10.49-8.18,3.72-2.05,6.45-4.92,9.22-8.08,2.85-3.24,5.71-5.77,9.88-7.15,3.89-1.28,7.97-1.73,11.97-2.55,5.12-1.05,10.04-2.79,13.87-6.01-1.21,3.79-5.95,6.6-9.4,8.2-4.77,2.22-9.47,4.17-13.21,7.84-4.63,3.93-10.03,6.46-15.77,8.36-5.19,1.72-10.17,2.68-14.27,6.54-3.27,3.07,2,7.64,5.24,4.59,3.72-3.5,10.38-4.12,15.1-5.92-1.12,1.82-2.24,3.63-3.38,5.39-.31.48-.63.96-.94,1.45-3.23,4.29-8.74,5.42-13.59,7.03-5.31,1.77-10.1,3.98-13.67,8.47-2.61,3.28-4.76,7.01-6.8,10.77-.44-.07-.9-.06-1.4.04-9.66,2.1-15.05,10.58-19.61,18.61-2.21,3.9,4.06,6.92,6.27,3.04,2.65-4.68,5.46-9.46,9.71-12.45-3.69,6.56-7.38,13.11-11.07,19.67-2.2,3.91,4.08,6.93,6.27,3.04,3.84-6.83,7.69-13.66,11.53-20.49,3.45-6.13,6.48-13.52,11.26-18.73,3.45-3.77,8.29-5.21,13.1-6.73-1.25,1.92-2.51,3.85-3.76,5.77-4.06,6.23-8.23,12.44-11.57,19.1-3.13,6.26-4.82,13.29-8.5,19.27-6.62,10.77-18.58,16.9-23.75,28.79-1.79,4.1,4.47,7.15,6.27,3.04,5.3-12.18,18.23-18.6,24.55-30.19.41-.75.79-1.5,1.15-2.26.94,3.32-2.86,10.02-4.04,12.14-2.3,4.11-5.31,7.68-8.74,10.89-3.27,3.07,2,7.63,5.24,4.59,6.92-6.48,21.99-26.45,10.57-34.66,1.02-2.56,2.03-5.13,3.16-7.64-.48,3.03,3.6,5.84,6,2.92,8.62-10.47,18.04-20.66,25.75-31.83,5.99-8.68,9.75-18.86,6.9-29.3,1.49-1.19,3.17-2.25,5.11-3.14,4.26-1.95,8.61-3.68,12.01-6.82-1.74,3.66-4.73,7.13-6.62,9.42-2.82,3.41-5.57,6.93-7.07,11.15-1.36,3.83-1.44,7.82-1.8,11.82-.39,4.3-1.26,8.05-4.41,11.19-3.01,3-6.64,5.27-9.55,8.39-6.96,7.48-12.51,16.65-18.49,24.92-2.61,3.61,2.61,8.22,5.24,4.59,3.49-4.82,6.97-9.63,10.46-14.45,2.78-3.84,5.46-7.84,8.79-11.22-2.96,10.27-11.99,18.47-18.02,26.97-2.57,3.63,2.65,8.25,5.24,4.59,8.56-12.08,20.49-22.61,20.7-38.43,1.49-1.39,2.85-2.89,3.94-4.69,2.45-4.08,2.8-8.75,3.16-13.39.44-5.57,1.61-9.95,5.08-14.45.6-.78,1.22-1.53,1.85-2.29.15,2.22.53,4.48.97,6.76,1.73,8.89-.59,15.58-5.21,23.19-4.36,7.19-8.34,14.09-11.27,22.01-3.14,8.47-5.94,17.13-12.12,23.94-3.02,3.32,2.23,7.91,5.24,4.59,5.67-6.25,8.88-13.85,11.76-21.68,3.03-8.25,6.44-15.8,11.09-23.27,3.95-6.33,7.88-13.01,8.29-20.65.33-5.99-3.39-13.84-1.66-19.9.98,2.15,2.65,3.64,4.17,5.63,5.51,7.26,2.01,18.59-1.24,26.08-4.08,9.42-9.89,17.96-13.37,27.66-1.5,4.18,4.75,7.26,6.27,3.04,3.81-10.62,10.46-19.88,14.49-30.39,3.2-8.35,5.51-18.88,1.43-27.36-1.36-2.82-4.6-4.84-5.55-7.72-.73-2.22-.08-5.19-.08-7.48,0-6.84-2.48-12.64-8.28-16.51-.3-.2-.6-.33-.91-.43-.21-.25-.44-.48-.71-.66-.18-.18-.39-.35-.63-.5-7.01-4.51-16.23-8.62-24.3-4.43-2.8,1.45-4.81,2.91-8.08,2.99-2.56.07-5.06-.24-7.59.34-2.73.62-5.08,2-7.12,3.8-7.08.08-14.32.73-20.76,3.86-7.41,3.61-13.86,8.96-20.43,13.85-3.59,2.67.28,8.47,3.88,5.78ZM1168.53,55.46c-7.08,8.93-14.47,17.62-21.71,26.42.35-.71.7-1.42,1.08-2.12,3.85-7.09,8.46-13.77,12.86-20.52,4.39-6.73,8.78-13.46,13.17-20.2,1.66-2.54,3.18-4.98,4.81-7.24.42,8.75-4.86,16.9-10.21,23.65Z"/>
  </g>
  <g>
    <path class="cls-2" d="M1232.25,418.72c-4.55-3.65-16.63-10.18-17.3-15.88-.51-4.32,2.53-10.68,3.54-14.98.86-3.62,2.45-7.8,2.01-11.61-.65-5.65-5.32-7.85-10.57-6.64-4.44,1.02-8.73,4.19-12.75,6.19-4.52,2.25-9.05,4.44-13.51,6.8-6.21-5.66-12.76-10.85-19.45-15.93-3.77-2.86-9.41-8.57-14.41-4.79-4.49,3.39-3.31,10.9-2.84,15.59.88,8.69,2.78,17.14,5.49,25.42-8.86,5.45-17.76,10.83-26.56,16.38-4.67,2.95-8.96,5.55-6.47,11.6,5.22,12.66,22.32,14.15,33.71,11.96,2.63-.51,10.17-2.93,11.67-2.04.99.59,1.56,3.79,1.96,4.91,2.25,6.26,4.19,12.64,6.33,18.94,2.72,7.99,6.95,23.09,17.97,22.32,10.65-.75,10.89-17.63,11.47-25.2.39-5.04-.59-11.83.98-16.63.07-.23.12-.39.16-.52.61-.07,1.35-.05,1.7-.03,2.76.1,5.67-.33,8.43-.5,7.6-.48,25.64.03,30.6-7.11,4.64-6.68-8.17-15.06-12.15-18.25ZM1235.85,435.88c-9.32,3.07-19.52,2.91-29.2,3.6-4.36.31-7.16.09-8.06,4.73-1.72,8.92-.59,18.37-2.18,27.38-.27,1.5-.41,4.01-1.26,5.37-.39.85-.78,1.7-1.16,2.54-3.03-.31-6.07-.62-9.1-.94-1.2-.73-2.13-2.96-2.89-4.45-2-3.94-3.24-8.41-4.64-12.59-2.34-6.97-3.74-16.47-7.87-22.63-5.02-7.49-22.29,1.1-29.84-.26-4.13-.75-8.36-2.31-11.58-5.03-6.17-5.22-2.27-8.34,3.22-11.73,8.49-5.23,16.98-10.47,25.46-15.7.9-.56,1.52-1.78,1.16-2.84-1.8-5.27-3.33-10.58-4.41-16.05-.69-3.49-4.25-16.22-1.64-19.43,4.27-5.24,26.05,16.16,29.69,19.55.45.42.94.63,1.43.68.5.09,1.05.02,1.62-.29,6.22-3.39,12.66-6.32,18.94-9.6,5.3-2.77,11.43-6.98,11.2,3.82-.08,3.86-1.94,8.21-2.83,11.98-.85,3.58-3.85,9.46-1.83,12.93,2.29,3.94,8.39,7.27,11.91,10.04,4.31,3.38,8.73,6.67,12.79,10.36,3.87,3.51,7.8,6.33,1.1,8.54Z"/>
    <path class="cls-2" d="M1190.57,417.81c.31-1.99.08-4.06-.62-5.95,1.52-1.63,2.11-3.93,2.56-6.39,1.08-5.85,3.71-9.96,8.88-13.2,2.73-1.72.21-6.07-2.54-4.34-4.01,2.52-7.71,5.99-9.7,10.36-.75,1.64-.97,6.95-2.16,9.33-.37-.22-.75-.31-1.12-.32-.05,0-.09-.02-.14-.03-2.42-.24-4.9.36-6.97,1.61-.1-.41-.34-.81-.75-1.17-7.11-6.15-6.08-17.37-11.48-24.38.8.65,1.91.82,2.86.27,1.13-.66,1.64-2.3.9-3.44-.08-.12-.15-.23-.23-.35-.74-1.14-2.23-1.61-3.44-.9-1.13.66-1.64,2.3-.9,3.44.05.08.11.16.16.24-1.17-1.33-2.58-2.49-4.42-3.39-2.9-1.41-5.45,2.92-2.54,4.34,5.81,2.83,6.7,9.51,8.33,15.13,1.4,4.83,3.33,9.25,7.2,12.6.35.3.73.48,1.1.57-.32.47-.6.97-.84,1.5-.5,1.12-.7,2.3-.69,3.47-9.04.99-17.69,3.11-26.11,6.58-2.95,1.21-1.66,6.08,1.34,4.85,7.98-3.28,16.22-5.47,24.8-6.4.51-.06.92-.24,1.27-.49.84,1.4,2.05,2.59,3.55,3.39,1.09.58,2.22.84,3.34.86,7.25,10.97-6,28.48,3.82,38.29,2.29,2.29,5.85-1.26,3.55-3.55-4.44-4.44-.98-17.08-.76-22.88.19-4.86.14-9.31-1.9-13.42.63-.46,1.19-1,1.69-1.62,3.31,1.27,6.69,1.66,10.36,1.72,5.79.09,13.03-.56,16.7,4.96,1.79,2.68,6.14.16,4.34-2.54-7.07-10.6-19.55-4.93-29.45-8.74ZM1179.7,414.66c1.11-1.61,2.89-2.3,4.74-2.39.14.35.35.67.61.92.61,1.3.79,2.81.48,4.24-.29,1.33-1.2,2.54-2.35,2.96-.06.01-.13.03-.19.05-.68.19-1.43.1-2.18-.41-1.79-1.22-2.35-3.6-1.12-5.38Z"/>
    <path class="cls-2" d="M1136.25,426.22c-.74-1.14-2.23-1.61-3.44-.9-1.13.66-1.64,2.3-.9,3.44.15.23.3.47.46.7.74,1.14,2.23,1.61,3.44.9,1.13-.66,1.64-2.3.9-3.44-.15-.23-.3-.47-.46-.7Z"/>
    <path class="cls-2" d="M1144.8,429.02c-.19-.04-.39-.08-.58-.12-1.28-.27-2.78.38-3.09,1.76-.29,1.26.38,2.8,1.76,3.09.19.04.39.08.58.12,1.28.27,2.78-.38,3.09-1.76.29-1.26-.38-2.8-1.76-3.09Z"/>
    <path class="cls-2" d="M1156.48,427.94c-.23.15-.47.3-.7.46-1.14.74-1.61,2.23-.9,3.44.66,1.13,2.3,1.64,3.44.9.23-.15.47-.3.7-.46,1.14-.74,1.61-2.23.9-3.44-.66-1.13-2.3-1.64-3.44-.9Z"/>
    <path class="cls-2" d="M1198.07,427.4c-3.23,0-3.24,5.03,0,5.03s3.24-5.03,0-5.03Z"/>
    <path class="cls-2" d="M1201.31,407.98c-.74-1.14-2.23-1.61-3.44-.9-1.13.66-1.64,2.3-.9,3.44l.23.35c.74,1.14,2.23,1.61,3.44.9,1.13-.66,1.64-2.3.9-3.44-.08-.12-.15-.23-.23-.35Z"/>
    <path class="cls-2" d="M1199.85,396.29c-3.23,0-3.24,5.03,0,5.03s3.24-5.03,0-5.03Z"/>
    <path class="cls-2" d="M1185.16,396.36c3.23,0,3.24-5.03,0-5.03s-3.24,5.03,0,5.03Z"/>
    <path class="cls-2" d="M1179.62,402.45c3.23,0,3.24-5.03,0-5.03s-3.24,5.03,0,5.03Z"/>
    <path class="cls-2" d="M1165.49,401.25c-.74-1.14-2.23-1.61-3.44-.9-1.13.66-1.64,2.3-.9,3.44.08.12.15.23.23.35.74,1.14,2.23,1.61,3.44.9,1.13-.66,1.64-2.3.9-3.44l-.23-.35Z"/>
    <path class="cls-2" d="M1164.39,412.84c3.23,0,3.24-5.03,0-5.03s-3.24,5.03,0,5.03Z"/>
    <path class="cls-2" d="M1152.97,416.59c.74,1.14,2.23,1.61,3.44.9,1.13-.66,1.64-2.3.9-3.44-.08-.12-.15-.23-.23-.35-.74-1.14-2.23-1.61-3.44-.9-1.13.66-1.64,2.3-.9,3.44l.23.35Z"/>
    <path class="cls-2" d="M1172.52,426.5c-3.23,0-3.24,5.03,0,5.03s3.24-5.03,0-5.03Z"/>
    <path class="cls-2" d="M1176.09,438.17c-3.23,0-3.24,5.03,0,5.03s3.24-5.03,0-5.03Z"/>
    <path class="cls-2" d="M1188.62,467.49c-3.23,0-3.24,5.03,0,5.03s3.24-5.03,0-5.03Z"/>
    <path class="cls-2" d="M1158.03,375.49c1.28.27,2.78-.38,3.09-1.76.29-1.26-.38-2.8-1.76-3.09-.19-.04-.39-.08-.58-.12-1.28-.27-2.78.38-3.09,1.76-.29,1.26.38,2.8,1.76,3.09.19.04.39.08.58.12Z"/>
    <path class="cls-2" d="M1191.6,452.07c-3.23,0-3.24,5.03,0,5.03s3.24-5.03,0-5.03Z"/>
    <path class="cls-2" d="M1159.27,389.15c-3.23,0-3.24,5.03,0,5.03s3.24-5.03,0-5.03Z"/>
  </g>
  <g>
    <path class="cls-2" d="M90.83,205.26c-9.6-11.17-26.86-14-38.5-4.62-5.65.83-11.76,2.79-16.09,6.56-6.07,5.28-8.53,15.32-9.88,22.9-2.99,16.8,9.69,27.85,24.16,33.49,7.95,3.1,17.01,4.76,25.22,1.65,7.75-2.93,14.65-9.95,19.83-16.21,11.05-13.35,5.71-31.61-4.75-43.78ZM82.92,255.3c-11.19,9.71-24.54,7.89-36.85,1.29-12.3-6.6-17.81-16.17-14.23-29.97,1.32-5.09,2.73-11.09,6.37-15.07,2.2-2.41,5.51-4.07,8.91-5.15-6.19,9.46-7.95,24.69,1.66,31.88,11.21,8.4,31.4,10.79,34.52-6.59,1.21-6.76.35-14.25-4.92-19.09-3.22-2.96-11.52-7.77-16.01-5.12-5.01,2.95-5.93,13.83-3.86,18.59,2.2,5.05,8.73,8.13,13.4,4.08,3.92-3.41,2.65-10.07-2.49-11.58-3.39-1-5.95.61-7.27,3.1-.38-1.45-.25-3.03.45-4.74.15-1.64.89-2.93,2.22-3.86.82-1.76,2.02-2.06,3.61-.91,1.96.64,3.78,1.53,5.48,2.67,5.42,4.02,6.55,12.09,4.45,18.29-3.35,9.91-14.47,7.63-21.81,4.2-6.79-3.18-9.89-7.92-9.78-15.45.19-12.64,10.33-22.63,23.03-22.4,13.36.24,22.71,12.55,26.2,24.43,4.03,13.71-3.18,22.83-13.07,31.41Z"/>
    <path class="cls-2" d="M38.86,229.48c.56-2.86-3.82-4.08-4.38-1.21-.59,3.01-.12,6.05,1.61,8.61,1.62,2.42,5.56.14,3.93-2.29-1.03-1.53-1.51-3.27-1.15-5.11Z"/>
    <path class="cls-2" d="M47.83,242.58c-1.01-.25-2.02-.51-3.03-.76-1.15-.29-2.52.37-2.8,1.59-.27,1.18.35,2.49,1.59,2.8,1.01.25,2.02.5,3.03.76,1.15.29,2.52-.37,2.8-1.59.27-1.18-.35-2.49-1.59-2.8Z"/>
    <path class="cls-2" d="M60.1,250.07h-.76c-1.19,0-2.33,1.05-2.27,2.27.06,1.23,1,2.27,2.27,2.27h.76c1.19,0,2.33-1.05,2.27-2.27-.06-1.23-1-2.27-2.27-2.27Z"/>
    <path class="cls-2" d="M74.41,251.5c-.25.25-.51.51-.76.76-.87.87-.87,2.35,0,3.21.87.87,2.34.87,3.21,0,.25-.25.51-.51.76-.76.87-.87.87-2.35,0-3.21-.87-.87-2.34-.87-3.21,0Z"/>
    <path class="cls-2" d="M88.13,237.95c-1.23.06-2.27,1-2.27,2.27v.76c0,1.19,1.05,2.33,2.27,2.27,1.23-.06,2.27-1,2.27-2.27v-.76c0-1.19-1.05-2.33-2.27-2.27Z"/>
    <path class="cls-2" d="M88.89,222.04c-1.23.06-2.27,1-2.27,2.27v.76c0,1.19,1.05,2.33,2.27,2.27,1.23-.06,2.27-1,2.27-2.27v-.76c0-1.19-1.05-2.33-2.27-2.27Z"/>
    <path class="cls-2" d="M79.04,202.34c-2.92,0-2.93,4.55,0,4.55s2.93-4.55,0-4.55Z"/>
    <path class="cls-2" d="M63.13,200.83c-2.92,0-2.93,4.55,0,4.55s2.93-4.55,0-4.55Z"/>
    <path class="cls-2" d="M52.53,212.95c-1.23.06-2.27,1-2.27,2.27v.76c0,1.19,1.05,2.33,2.27,2.27,1.23-.06,2.27-1,2.27-2.27v-.76c0-1.19-1.05-2.33-2.27-2.27Z"/>
    <path class="cls-2" d="M51.77,224.32c-2.92,0-2.93,4.55,0,4.55s2.93-4.55,0-4.55Z"/>
  </g>
  <path class="cls-2" d="M102.03,702.15c-4.55-2.86-7.54-1.36-9,3.58-2.54,8.54-2.49,18.13-3.23,26.93-.85,10.21-2.12,20.05-6.9,29.24-3.2,6.15-8.31,14.31-15.47,16.5.66-3.69,3.41-6.49,5.05-9.88,1.73-3.6,2.19-7.58,2.77-11.48,1.42-9.58,2.81-19.18,3.66-28.83.89-10.1,1.22-20.27.34-30.38-.45-5.22-.25-14.43-6.27-16.72-5.13-1.96-10.03,2.24-11.71,6.79-3,8.09-1.36,18.67-.96,27.07.94,19.46,2.52,39.27-6.47,57.24-1.89,1.4-3.69-4.72-3.61-4.18-.04-.31.12-.78.1-1.07-.18-2.13-.07-4.39-.15-6.54-.15-4.56-.3-9.11-.45-13.67-.3-9.11-.6-18.23-.9-27.34-.3-9.11-.6-18.23-.9-27.34-.23-7.06.12-14.66-2.41-21.38-1.45-3.87-3.56-4.95-7.63-3.74-4.54,1.35-5.98,3.61-5.75,8.15.92,17.69,3.81,35.28,3.49,53.04-.23,12.66-3.06,26.51,1.31,38.57-11.01-11.88-13.33-29.35-15.66-45.03-1.68-11.26-3.35-22.51-5.03-33.77-.81-5.47-1.63-10.94-2.44-16.4-.62-4.13-1.1-8.42-2.86-12.25-2.36-5.12-7.78-9.47-13.75-7.96-6.86,1.73-7.03,9.35-5.35,14.91,2.83,9.36,7.18,18.26,10.03,27.65,3.04,10.02,5.44,20.24,7.16,30.57,2.71,16.19,1.06,37.79,12.94,50.74-18.02-2.41-21.6-28.02-25.23-42.49-3.8-15.16-8.58-31.18-18.67-43.51-2.29-2.8-6.4-3.3-7.7.89-1.06,3.42,0,8.29.57,11.75.87,5.29,2.38,10.45,3.8,15.61,4.49,16.35,7.59,34.43,15.8,49.46,3.85,7.04,9.3,13.15,16.58,16.72,8.35,4.1,17.78,4.89,26.92,5.58,8.93,2.03,18.09,1.02,27.06,2.7,7.02,1.32,13.43,1.33,19.78-2.36,13.88-8.07,17.92-24.23,19.77-39.04,1.2-9.65,2.81-19.26,3.95-28.92.59-5.05,2.68-16.08-2.56-19.38ZM99.19,737.92c-2.04,15.37-2.26,32.85-14,44.53-7.01,6.98-14.73,8.2-24.16,6.41-8.74-1.66-17.67-.56-26.38-2.57-.12-.03-.23-.04-.34-.04-.02,0-.04,0-.06,0-8.4-.63-17.17-1.26-24.93-4.84-6.97-3.21-12.17-8.78-15.91-15.39-7.63-13.5-10.5-29.92-14.57-44.73-1.18-4.3-2.42-8.58-3.5-12.91-1.11-4.43-2.83-9.81-2.22-14.4.14-1.07-.57-4.19,2.1-3.64.37.08,1.09,1.43,1.32,1.78.65.96,1.21,1.97,1.84,2.93,2.08,3.14,4.12,6.25,5.81,9.63,7.03,14.01,9.61,29.66,13.68,44.65,3.67,13.53,11.54,29.67,27.97,28.93.6-.03,1-.34,1.22-.75.3-.41.37-.94.06-1.4-.13-.31-.36-.56-.7-.69-12.19-10.58-11.39-28.88-13.35-43.59-2.38-17.87-6.72-35.46-12.97-52.37-1.96-5.29-12.41-24.21-1.17-25.41,10.8-1.16,11.54,14.97,12.6,22.1,2.81,18.85,5.31,37.77,8.46,56.56,2.65,15.79,7.48,31.61,20.95,41.44.68.5,1.35.26,1.75-.24.5-.4.73-1.07.26-1.77-8.04-11.9-5.12-26.75-4.52-40.21.72-16.16-1.51-32.23-2.8-48.3-.22-2.79-1.89-9.78-.18-12.17.59-.82,2.67-1.77,3.69-1.83,2.74-.16,3.84,2.38,4.45,4.9,1.89,7.79,1.34,16.41,1.6,24.37.55,16.6,1.09,33.2,1.64,49.8.15,4.56.3,9.11.45,13.67.09,2.75-.81,6.19.35,8.77,1.34,2.97,5.11,5.42,7.94,3.41.23-.09.43-.26.59-.52.14-.17.23-.35.28-.54,6.46-13.01,7.89-27.09,7.55-41.46-.2-8.54-.89-17.06-1.1-25.6-.1-3.99-.18-8.02.11-12,.2-2.71.56-5.55,2.22-7.8,2.06-2.79,6.16-4.76,8.85-.83,2.42,3.52,2.07,9.91,2.37,13.92.27,3.79.38,7.58.37,11.38-.04,8.9-.8,17.78-1.86,26.61-.99,8.3-1.73,17.02-3.66,25.17-1.48,6.22-7.15,10.81-6.96,17.41.03.9.71,1.37,1.41,1.41.14.02.29.03.45,0,10.07-1.37,17.07-13.24,20.81-21.57,5.89-13.15,5.41-27.86,6.96-41.91.42-3.85.79-7.96,1.89-11.69.62-2.1,2.09-3.86,4.24-2.07,1.94,1.62,2.03,5.37,2.09,7.83.22,8.63-1.86,17.14-2.99,25.65Z"/>
  <path class="cls-2" d="M1215.5,791.48c-3.07-4.95-7.06-9.42-12.45-10.85-3.41-5.49-6.96-11.84-13.45-14.06-.93-.32-1.85-.54-2.74-.67-.08-.13-.18-.25-.31-.37-2.01-1.89-4.39-3.62-6.85-4.76.01-.33-.08-.69-.33-1.05-2.58-3.71-8.47-11.53-13.85-7.69-4.82,3.44-2.64,9.96-.35,14.19-2.66,6.29-1.7,15.39-.27,21.65.13.56.43.92.81,1.13-1.79,9.11-.79,18.92,6.38,23.73-.62,10.65,3.28,21.41,13.7,25.6.09.04.18.06.27.08,2.15,4.88,5.91,7.96,11.93,5.24,6.43-.02,11.03-11.14,13.65-17.89,0-.02.02-.04.03-.06.22-.55.45-1.15.69-1.8.24-.61.45-1.15.64-1.61,2.82-6.74,12.76-26.01,2.5-30.83ZM1167.51,755.27c2.01-1.66,5.05,1.6,6.99,4.13-2.55-.1-4.99.76-7.02,3.07-1.11-2.4-2.02-5.51.03-7.21ZM1167.73,772.7c.15-2.76.64-5.62,2.62-7.73,3.48-3.72,7.86-1.48,11.24,1.22-3.84,1.01-7.14,3.72-9.7,7.39-1.51,2.17-2.95,4.99-4.11,8.13-.25-3.01-.2-6.08-.04-9.02ZM1173.01,778.99c3.63-6.88,10.33-12.58,18.13-7.4,3.13,2.08,5.26,5.38,7.23,8.62-.37.02-.74.05-1.12.1-9.67,1.33-17.03,9.38-21.23,17.62-1.6,3.14-2.76,6.69-3.41,10.37-6.83-6.92-3.28-22.33.4-29.31ZM1183.82,821.64c-.38,3.09-.24,7.66.7,11.92-9.98-6.07-10.7-22.12-6.1-32.01,2.9-6.25,6.81-11.65,12.89-15.15,6.89-3.97,12.73-2.26,17.29,2.31-16.11.6-22.99,18.52-24.77,32.92ZM1188.4,816.72c2.04-10.32,7.41-21.5,17.63-23.79-6.44,5.03-11.17,16.94-12,22.29-1.72,5.31-6.75,18.98-2.31,25.27-5.5-3.08-4.11-19.83-3.33-23.77ZM1210.15,817.44c-.34,1.77-.8,3.52-1.38,5.23-.03.07-.06.14-.09.21-1.4,3.23-5.95,16.56-10.48,17.07-.13.02-.25,0-.37,0-.18-.03-.37-.03-.56,0-4.28-.51-3.6-8.53-3.15-11.19.01-.07.03-.14.05-.22.28-.29.49-.67.55-1.16.78-6.79,5.2-14.17,12.71-14.73,3.87-.29,3.3,1.75,2.72,4.78ZM1213.38,811.03s0,.02,0,.03c-.9-1.36-2.49-2.23-5.09-2.25-3.79-.03-7.03,1.32-9.65,3.48.9-2.78,2.2-5.44,3.62-7.96,1.6-2.84,4.81-8.79,8.29-9.34,9.64-1.54,4.3,12.04,2.84,16.05Z"/>
  <g>
    <path class="cls-4" d="M121.21,23.54c.52.11,1.03.21,1.55.32,1.77.36,3.6-.84,3.96-2.61.37-1.78-.83-3.59-2.61-3.96l-1.55-.32c-1.77-.36-3.6.84-3.96,2.61-.37,1.78.83,3.59,2.61,3.96h0Z"/>
    <path class="cls-4" d="M99.85,25.41c2.38,3.6,7.98-.08,5.6-3.69-2.38-3.6-7.98.08-5.6,3.69h0Z"/>
    <path class="cls-4" d="M79.07,24.38c.31-.21.62-.41.93-.62,1.46-.97,2.02-3.18.95-4.65-1.07-1.47-3.08-1.99-4.65-.95-.31.21-.62.41-.93.62-1.46.97-2.02,3.18-.95,4.65,1.07,1.47,3.08,1.99,4.65.95h0Z"/>
    <path class="cls-4" d="M53.45,62.7c2.38,3.6,7.98-.08,5.6-3.69-2.38-3.6-7.98.08-5.6,3.69h0Z"/>
    <path class="cls-4" d="M80.86,39.27c2.38,3.6,7.98-.08,5.6-3.69-2.38-3.6-7.98.08-5.6,3.69h0Z"/>
    <path class="cls-4" d="M61.64,38.55l.62.93c.97,1.46,3.18,2.02,4.65.95,1.47-1.07,1.99-3.08.95-4.65l-.62-.93c-.97-1.46-3.18-2.02-4.65-.95-1.47,1.07-1.99,3.08-.95,4.65h0Z"/>
    <path class="cls-4" d="M76.41,60.95c2.38,3.6,7.98-.08,5.6-3.69-2.38-3.6-7.98.08-5.6,3.69h0Z"/>
    <path class="cls-4" d="M71.64,84.19c2.38,3.6,7.98-.08,5.6-3.69-2.38-3.6-7.98.08-5.6,3.69h0Z"/>
    <path class="cls-4" d="M100.05,106.97c2.38,3.6,7.98-.08,5.6-3.69s-7.98.08-5.6,3.69h0Z"/>
    <path class="cls-4" d="M107.97,135.23c2.38,3.6,7.98-.08,5.6-3.69-2.38-3.6-7.98.08-5.6,3.69h0Z"/>
    <path class="cls-4" d="M138.14,118.01c2.38,3.6,7.98-.08,5.6-3.69s-7.98.08-5.6,3.69h0Z"/>
    <path class="cls-4" d="M121.7,119.48l.62.93c.97,1.46,3.18,2.02,4.65.95,1.47-1.07,1.99-3.08.95-4.65l-.62-.93c-.97-1.46-3.18-2.02-4.65-.95-1.47,1.07-1.99,3.08-.95,4.65h0Z"/>
    <path class="cls-4" d="M129.66,139.68l.93-.62c1.46-.97,2.02-3.18.95-4.65-1.07-1.47-3.08-1.99-4.65-.95l-.93.62c-1.46.97-2.02,3.18-.95,4.65,1.07,1.47,3.08,1.99,4.65.95h0Z"/>
    <path class="cls-4" d="M99.86,120.65c.11-.52.21-1.03.32-1.55.36-1.77-.84-3.6-2.61-3.96-1.78-.37-3.59.83-3.96,2.61-.11.52-.21,1.03-.32,1.55-.36,1.77.84,3.6,2.61,3.96,1.78.37,3.59-.83,3.96-2.61h0Z"/>
    <path class="cls-4" d="M83.31,105.95l.93-.62c1.46-.97,2.02-3.18.95-4.65-1.07-1.47-3.08-1.99-4.65-.95l-.93.62c-1.46.97-2.02,3.18-.95,4.65,1.07,1.47,3.08,1.99,4.65.95h0Z"/>
    <path class="cls-4" d="M100.56,69.14l.93-.62c1.46-.97,2.02-3.18.95-4.65-1.07-1.47-3.08-1.99-4.65-.95l-.93.62c-1.46.97-2.02,3.18-.95,4.65,1.07,1.47,3.08,1.99,4.65.95h0Z"/>
    <path class="cls-4" d="M95.51,85.86c.62-.41,1.24-.82,1.87-1.23,1.46-.97,2.02-3.18.95-4.65-1.07-1.47-3.08-1.99-4.65-.95-.62.41-1.24.82-1.87,1.23-1.46.97-2.02,3.18-.95,4.65,1.07,1.47,3.08,1.99,4.65.95h0Z"/>
    <path class="cls-4" d="M118.13,81.82l1.55.32c1.77.36,3.6-.84,3.96-2.61.37-1.78-.83-3.59-2.61-3.96l-1.55-.32c-1.77-.36-3.6.84-3.96,2.61-.37,1.78.83,3.59,2.61,3.96h0Z"/>
    <path class="cls-4" d="M120.87,99.94c2.38,3.6,7.98-.08,5.6-3.69-2.38-3.6-7.98.08-5.6,3.69h0Z"/>
    <path class="cls-4" d="M144.48,91.07c2.38,3.6,7.98-.08,5.6-3.69-2.38-3.6-7.98.08-5.6,3.69h0Z"/>
    <path class="cls-4" d="M150.5,65.67c2.38,3.6,7.98-.08,5.6-3.69-2.38-3.6-7.98.08-5.6,3.69h0Z"/>
    <path class="cls-4" d="M132.76,77.36c2.38,3.6,7.98-.08,5.6-3.69s-7.98.08-5.6,3.69h0Z"/>
    <path class="cls-4" d="M128.22,56.25c2.38,3.6,7.98-.08,5.6-3.69-2.38-3.6-7.98.08-5.6,3.69h0Z"/>
    <path class="cls-4" d="M113.35,54.01l-.62-.93c-.97-1.46-3.18-2.02-4.65-.95-1.47,1.07-1.99,3.08-.95,4.65l.62.93c.97,1.46,3.18,2.02,4.65.95,1.47-1.07,1.99-3.08.95-4.65h0Z"/>
    <path class="cls-4" d="M101.63,40.3l.93-.62c1.46-.97,2.02-3.18.95-4.65-1.07-1.47-3.08-1.99-4.65-.95l-.93.62c-1.46.97-2.02,3.18-.95,4.65,1.07,1.47,3.08,1.99,4.65.95h0Z"/>
    <path class="cls-4" d="M124.59,38.56l.62.93c.97,1.46,3.18,2.02,4.65.95,1.47-1.07,1.99-3.08.95-4.65l-.62-.93c-.97-1.46-3.18-2.02-4.65-.95-1.47,1.07-1.99,3.08-.95,4.65h0Z"/>
    <path class="cls-4" d="M113.29,3.15c2.38,3.6,7.98-.08,5.6-3.69-2.38-3.6-7.98.08-5.6,3.69h0Z"/>
    <path class="cls-4" d="M43.91,15.05c.93.73,1.85,1.45,2.78,2.18,1.43,1.12,3.49,1.1,4.73-.32,1.15-1.31,1.12-3.61-.32-4.73-.93-.73-1.85-1.45-2.78-2.18-1.42-1.12-3.49-1.1-4.73.32-1.15,1.31-1.12,3.61.32,4.73h0Z"/>
    <path class="cls-4" d="M38.32,49.91c2.38,3.6,7.98-.08,5.6-3.69-2.38-3.6-7.98.08-5.6,3.69h0Z"/>
    <path class="cls-4" d="M6.71,46.65c2.38,3.6,7.98-.08,5.6-3.69s-7.98.08-5.6,3.69h0Z"/>
    <path class="cls-4" d="M3.17,71.75c2.38,3.6,7.98-.08,5.6-3.69-2.38-3.6-7.98.08-5.6,3.69h0Z"/>
    <path class="cls-4" d="M25.22,66.59c2.38,3.6,7.98-.08,5.6-3.69s-7.98.08-5.6,3.69h0Z"/>
    <path class="cls-4" d="M169.92,89.02l-.62-.93c-.97-1.46-3.18-2.02-4.65-.95-1.47,1.07-1.99,3.08-.95,4.65l.62.93c.97,1.46,3.18,2.02,4.65.95,1.47-1.07,1.99-3.08.95-4.65h0Z"/>
    <path class="cls-4" d="M179.93,71.71c2.38,3.6,7.98-.08,5.6-3.69s-7.98.08-5.6,3.69h0Z"/>
    <path class="cls-4" d="M198.79,74.16c.52.11,1.03.21,1.55.32,1.77.36,3.6-.84,3.96-2.61.37-1.78-.83-3.59-2.61-3.96-.52-.11-1.03-.21-1.55-.32-1.77-.36-3.6.84-3.96,2.61-.37,1.78.83,3.59,2.61,3.96h0Z"/>
    <path class="cls-4" d="M228.38,55.83l.93-.62c1.46-.97,2.02-3.18.95-4.65-1.07-1.47-3.08-1.99-4.65-.95l-.93.62c-1.46.97-2.02,3.18-.95,4.65,1.07,1.47,3.08,1.99,4.65.95h0Z"/>
    <path class="cls-4" d="M227.62,83.11c2.38,3.6,7.98-.08,5.6-3.69-2.38-3.6-7.98.08-5.6,3.69h0Z"/>
    <path class="cls-4" d="M216.53,70.34c2.38,3.6,7.98-.08,5.6-3.69-2.38-3.6-7.98.08-5.6,3.69h0Z"/>
  </g>
  <g>
    <g>
      <g>
        <path class="cls-3" d="M37.19,461.73c-.31.39-.36.8-.25,1.17.57,4.82-5.82,8.94-2.4,13.99,2.77,4.1,8.2.44,10.23-2.49,2.5-3.6,2.66-8.01.38-11.74-2.03-3.32-5.4-4.17-7.96-.94ZM40.04,475.04c-4.65,2.53-3.64-3.03-2.32-5.46,1.17-2.16,2.18-4.09,2.08-6.5,1.92-1.82,3.62,1.91,4.01,3.68.68,3.04-1.02,6.78-3.77,8.28Z"/>
        <path class="cls-3" d="M35.39,496.36c-6.32-.69-11.91-4.08-15.59-9.52-7.56-11.18-2.68-21.76-.63-25.81.3-3.72,1.69-7.33,4.07-10.34,4.74-6,11.61-9.19,18.85-8.75,7.41.45,14.07,4.62,18.23,11.45,5.96,9.77,5.6,21.7-.95,31.14-3.85,5.55-11.84,12.02-21.69,11.96-.77,0-1.54-.05-2.29-.13ZM29.71,465.03c-1.05,2.11-.97,4.88.26,6.9,1.89,3.1,5.81,5.27,9.97,5.52,3.77.23,7.58-1.13,10.13-3.53l-10.27-10.83,5.09-.22c-2.1-1.22-4.52-1.91-6.99-1.93-.46,0-1.01.02-1.6.08l.89.71-.89-.71c-1.05.12-2.25.38-3.38.93l.73,1.33,3.29-.39-3.02.89,6.12,11.26-6.12-11.26-4.21,1.24ZM32.91,461.95c-.82.4-1.6.94-2.26,1.69l2.99-.35-.73-1.33Z"/>
      </g>
      <g>
        <path class="cls-3" d="M54.64,418.39c-.28.22-.44.48-.5.75-1.47,3.37-.53,7.31,1.96,9.97,2.36,2.52,6.79,3.99,9.81,1.66,3.24-2.5,1.44-6.94-.9-9.34-2.81-2.88-6.54-6.03-10.37-3.03ZM62.75,423.17c1.68,1.7,3.61,5.52-.25,5.88-4.38.4-7.13-4.93-5.79-8.62,2.16-1.33,4.54,1.23,6.04,2.74Z"/>
        <path class="cls-3" d="M59.56,449.61c-5.98-.65-11.85-3.47-16.41-8.33-7.27-7.73-9.45-18.78-5.66-28.39,1.22-3.33,3.37-6.3,6.2-8.51,0,0,0,0,0,0,0,0,0,0,0,0,2.85-2.22,17.61-12.2,34.03,4.63,5.29,5.41,8.15,12.81,7.66,19.79-.45,6.4-3.51,12.09-8.61,16.04-5.03,3.89-11.18,5.43-17.23,4.77ZM51.85,433.35c2.36,1.63,7.97,2.7,12.66-.2l-7.8-12.72,6.44,2.34,5.9-5.85c-3.77-4-10.08-3.25-14.01-.22-.36.28-.7.57-1.03.89l.63.81-.63-.81c-.35.34-.68.69-.99,1.07l1.12.49-1.28-.3c-1.69,2.11-2.75,4.75-2.94,7.47-.09,1.34-.07,4.58,1.93,7.04ZM63.15,422.77l7.57,2.75c1.05-3.06.43-6.37-1.66-8.59,0,0,0,0,0,0l-5.9,5.85ZM71.45,423.22s0,.01,0,.02c0,0,0-.01,0-.02Z"/>
      </g>
      <g>
        <path class="cls-3" d="M104.94,452.75c4.58.04,12.99-5.81,10.88-11.26-.99-2.56-4.14-2.86-6.49-2.9-5.8-.12-10.18-.32-13.74-5.57-.07-.25-.22-.47-.47-.64-.29-.3-.65-.38-.99-.32-5.34-1.14-5.89,4.71-5.01,8.93,1.48,7.08,8.71,11.69,15.83,11.76ZM95.15,446.19c-2.02-1.6-2.85-3.61-3.31-6.05-.25-1.34-1.08-5.78,1.51-5.35,2.19,3.25,5.48,5.91,9.44,6.57,2.85.48,13.24-1.55,9.18,4.22-4.2,5.96-11.54,4.8-16.81.61Z"/>
        <path class="cls-3" d="M101.21,470.32c-14.52-1.59-26.64-11.95-29.51-25.7-2.01-9.64.2-18.51,6.04-24.32,4.72-4.7,11.13-6.84,17.96-5.99,3.91.29,7.68,1.79,10.73,4.34.8.65,1.55,1.37,2.23,2.13.4.01.77.02,1.04.02,5.21.11,17.85,1.71,22.71,14.27,2.8,7.25,1.73,15.29-2.96,22.06-5.51,7.97-15.66,13.47-24.67,13.39h0c-1.2-.01-2.39-.08-3.56-.21ZM98.42,442.07c-.17,1.78.02,3.77.82,5.84.02.06.04.12.07.17,1.28-.67,2.48-1.53,3.52-2.57.95-.94,1.67-1.92,2.21-2.86l.07-7.68c-.39,0-.74,0-1.07.03l-5.62,7.07ZM104.04,435c-2.62.17-3.26,1.08-3.83,1.9-.85,1.22-1.58,3.03-1.79,5.17l5.62-7.07ZM105.13,434.96l-.08,7.67c1.38-2.41,1.61-4.57,1.47-5.25-.3-1.46-1.14-2.29-1.39-2.41Z"/>
      </g>
      <g>
        <path class="cls-3" d="M146.07,459.43c-.29,0-.54.07-.75.19-.51.24-.89.74-.81,1.45.73,6.72,2.33,17.71,11.36,17.04.67-.05,1.06-.67,1.19-1.25,1.56-7.14-2.65-17.35-10.99-17.43ZM154.42,475.28c-5.13-.48-6.35-7.91-6.9-12.77,5.12,1.27,7.44,7.72,6.9,12.77Z"/>
        <path class="cls-3" d="M152.1,495.76c-9.2-1.01-16.9-6.71-21.16-15.93-2.62-5.67-3.55-11.69-4.11-16.84-.85-7.92,3.27-15.54,10.31-19.16,2.8-1.46,5.93-2.22,9.1-2.18,8.47.08,16.14,3.89,21.59,10.74,6.18,7.75,8.71,18.58,6.6,28.26-1.84,8.45-8.76,14.56-17.23,15.19-1.74.13-3.45.1-5.1-.08ZM139.6,473.67c0,.1,0,.17,0,.19.22.78,1.86,2.44,4.34,3.08l.68-2.73-5.02-.54ZM155.81,460.38l-.11,1.2,3.25-.37c-.97-.43-2.03-.73-3.14-.83Z"/>
      </g>
      <g>
        <path class="cls-3" d="M8.46,418.14c-.17-.02-.32-.01-.46.01-4.07.16-10.39,1.77-9.46,7.24.85,5.04,9.2,6.82,13.34,6.73,3.68-.08,8.33-2.18,7.34-6.65-.98-4.47-6.72-6.79-10.76-7.34ZM14.89,428.69c-.93.66-2.85.63-3.84.59-2.55-.1-5.94-.74-7.94-2.44-5.04-4.28,2.28-5.67,5.09-5.86,2.02.28,3.65.92,5.39,1.97,1.93,1.17,4.64,3.37,1.31,5.73Z"/>
        <path class="cls-3" d="M7.33,449.69c-12.17-1.33-24.16-8.53-26.32-21.33-1.12-6.64.54-13.12,4.68-18.23,6.19-7.63,15.46-9.38,20.88-9.7,1.43-.13,2.87-.09,4.29.1,10.03,1.36,22.78,7.71,25.73,21.14,1.46,6.65-.07,13.47-4.21,18.72-4.55,5.78-12.07,9.34-20.12,9.52-1.63.04-3.29-.04-4.94-.22ZM6.07,435.76s.02,0,0,0c0,0,0,0,0,0h0ZM7.55,415.6c-1.58.98-2.68,2.25-3.11,2.8-2.43,3.09-3.39,7.16-2.58,10.89.83,3.78,3.22,5.97,4.3,6.48l2.04-14.78.97,14.79c2.09-.73,4.69-3.22,6.08-6.58l-.36-.51.36.51c.83-2.01,1.23-4.33.82-6.77-.75-4.42-3.5-7.14-5.08-8.05-.74.07-1.44.26-2.08.52l-.44,3.24.44-3.24c-.35.14-.69.31-1.01.49l.11,2.76-.46-2.56Z"/>
      </g>
      <g>
        <path class="cls-3" d="M58.3,398.79c5.25,1.22,15.03.04,12.41-7.86-2.23-6.72-11.72-8.51-17.66-9.67-4.2-.77-12.97.93-13.27,6.29-.42,7.66,13.34,10.04,18.52,11.25ZM52.74,384.09c3.42.67,6.94,1.42,10.09,2.96,1.09.51,2.1,1.15,3.01,1.93,2.32,5.19,1.66,7.67-1.97,7.43-2.72.6-5.58-.49-8.16-1.23-2.12-.61-13.05-3.39-12.8-6.09.4-4.37,6.47-5.61,9.83-4.99Z"/>
        <path class="cls-3" d="M58.2,416.77c-1.38-.15-2.7-.38-3.93-.66h0c-.36-.08-.76-.17-1.2-.27-3.46-.77-9.25-2.05-14.64-4.58-15.64-7.34-16.69-19.72-16.42-24.7.36-6.6,3.53-12.58,8.91-16.82,7.54-5.95,18.14-7.29,25.31-5.99.08.01.16.03.24.05l.23.04c7.6,1.5,25.41,4.99,30.88,21.48,2.79,8.42,1.1,17.13-4.53,23.3-6.72,7.36-16.84,9.02-24.86,8.14ZM57.04,384.39c-.47.49-.94,1.06-1.39,1.71-2,2.93-2.47,6.05-2.23,8.44l2.95-1.32c.62-1.34,1.06-2.91,1.16-4.69.08-1.53-.12-2.92-.49-4.14Z"/>
      </g>
      <g>
        <path class="cls-3" d="M108.34,410.98c-1.55,5.48,7.56,7.02,11.16,6.88,5.72-.23,11.75-3.32,14.3-8.63,2.1-4.35-.54-12-6.4-8.71-.03.02-.05.03-.07.05-.18.09-.34.22-.49.4-3.2,3.98-7.82,5.35-12.65,6.09-2.46.37-5.09,1.25-5.85,3.93ZM117.63,409.43c1.34-.28,2.68-.71,3.94-1.24,2.75-1.14,5.16-2.78,7.1-5,1.09.91,2.18,1.82,3.27,2.73-.38.96-.77,1.92-1.15,2.88-.5.83-1.19,1.64-1.89,2.31-1.49,1.43-3.32,2.44-5.26,3.1-1.77.6-3.63.9-5.51.8-1.09-.06-5.8-.55-6.17-1.81-.41-1.4,2.28-3.11,3.29-3.41.74-.22,1.61-.2,2.37-.36Z"/>
        <path class="cls-3" d="M114.96,435.41c-5.67-.62-14.31-2.79-19.96-9.97-4.32-5.49-5.69-12.53-3.77-19.32,0,0,0,0,0,0,1.21-4.26,5.61-14.41,20.27-16.65,1.09-.17,1.75-.32,2.13-.43,1.31-1.47,2.82-2.72,4.51-3.72.19-.12.39-.23.58-.34,8.79-4.92,19.03-3.83,26.07,2.79,7.6,7.15,9.72,19.41,5.03,29.15-5.22,10.85-16.85,18.18-29.62,18.69-.85.03-2.76.06-5.25-.21ZM118.41,400.54l2.84,1.13c-.97-.83-1.85-1.33-2.4-1.56-.11.08-.27.22-.44.43Z"/>
      </g>
      <g>
        <path class="cls-3" d="M104.28,391.72c6.45.7,13.4-.52,16.49-6.95,2.72-5.66-3.49-7.45-7.98-6.17-2.93.3-5.83.31-8.73-.2-1.97-.34-4.1-1.53-6.12-1.51-1.78.02-4.17,1.07-4.98,2.72-3.33,6.74,6.34,11.57,11.32,12.11ZM96.69,380.11c1.28-.82,4.75.7,6.24.99,3.25.64,6.5.67,9.79.36.16.02.33,0,.53-.05.17-.02.31-.06.44-.12,2.06-.54,5.41-1.04,3.96,3.13-.44,1.27-2.85,3.13-3.86,3.62-3.53,1.72-10.03,1.41-13.56-.17-2.03-.82-3.48-2.19-4.35-4.13.27-1.21.54-2.42.81-3.63Z"/>
        <path class="cls-3" d="M102.34,409.4c-8.63-.94-19.66-6.15-24.89-15.67-3.78-6.87-3.93-14.88-.44-21.98,4.26-8.62,13.49-12.56,20.75-12.64,4.21-.04,7.54,1.08,9.53,1.75.09.03.18.06.27.09.7.08,1.5.1,2.4.05,9.32-1.94,18.68.92,24.28,7.57,5.52,6.54,6.49,15.7,2.55,23.91-5.91,12.29-18.78,18.62-34.43,16.92h-.03ZM106.06,375.32c-.5.47-.98,1.06-1.32,1.75-.43.9-.76,1.95-.94,3.11l1.82-.82.44-4.04ZM106.06,375.32l-.44,4.04,3.55-1.6c-.55-1.39-1.29-2.53-2.05-3.25-.34.2-.7.47-1.06.8Z"/>
      </g>
      <g>
        <path class="cls-3" d="M167.37,424c-2.88-3.86-8.51-10.64-13.94-6.46-2.25,1.73-3.24,5.31-4.29,7.81-1.62,3.87-3.28,7.84-6.92,10.04-.1-1.22-.3-2.47-.63-3.77-1.47-5.8-1.19-10.15.69-15.87.96-2.94,2-5.85,2.26-8.96.48-5.87-1.93-10.83-7.46-13.21-2.38-1.02-5.93-2.19-9.25-2.33,2.52-7.46,2.91-18.27-7.75-18.18-2.36.02-4.65.65-6.98.89-4.22.43-6.69-1.18-10.03-3.51-2.89-2.01-6.11-3.66-9.64-2.23-8.38,3.4-9.74,17.06-10.81,24.61-1.79,12.76-2.97,25.3-11.42,35.18-.2-3.53-.97-6.88-2.7-9.86-.65-1.12-1.52-2.15-2.52-3.05,4.47-8.37,13.73-15.56,10.16-25.95-3.31-9.64-14.04-14.19-23.62-13.72-10.12.49-18.56,6.72-19.37,17.22-.48,6.24,1.26,12.45.57,18.68-.67,6.05-3.58,11.4-6.88,16.43-.06-3.61-.85-7-3.68-9.86-6.25-6.29-21.93-8.77-28.67-2.25-10.47,10.12,2.59,24.43,6.59,33.99,5.57,13.33,5.4,28.43,13.99,40.54,8.3,11.69,21.93,18.94,36.21,19.5.36.01.66-.09.9-.26,1.9,1.24,3.9,2.34,5.91,3.35,4.79,2.4,11.24,5.6,15.07,0,.01-.02.03-.05.04-.07,7.56,8.77,23.86,4.59,32.1-.84,6.87-4.52,12.17-10.92,18.51-16.1,3.32-2.71,6.94-5.17,11.02-6.57,5.17-1.77,10.69-1.54,16.01-2.5,5.71-1.03,12.04-3.86,14.31-9.63,2.55-6.48-1.66-12.79-5.87-17.44-.66-.73-1.39-1.47-2.16-2.19,2.84-4.13,6.32-7.3,10.7-9.81,2.32-1.33,4.61-2.49,5.79-5.05,2.84-6.18-2.73-13.87-6.23-18.58ZM128.79,394.44c3.72.34,8.7,1.51,11.13,4.6,4.76,6.06-.46,14.72-1.9,20.99-1.59,6.95,2.54,12.77,1.67,19.52-.88,6.84-5.72,15.53-10.03,20.76-3.26,3.96-7.32,6.78-8.74,11.8-5.26,1.3-10.69,1.94-15.83,3.91-4.85,1.86-7.97,4.93-9.88,8.98-.09-2.19-.05-4.38.34-6.55,1.56-8.64,7.11-16.45,14.89-20.56,5.64-2.98,12-4.95,13.57-11.96,1.18-5.27-1.21-10.68-5.86-13.41-2.65-1.56-5.43-1.76-8.45-1.73.13-4.89-1.34-9.33-4.49-13.21-1.73-2.13-4.28-4.2-5.19-6.85-2.15-6.22,5.11-6.91,9.12-7,3.76-.09,8.07-.03,10.89-2.95,2.86-2.96,3.09-6.87,8.74-6.34ZM74.62,509.83c.03-.08.05-.16.08-.23,3.25-.16,5.64-2.27,6.71-5.42,1.56-4.57-.85-8.81-3.52-12.4-3.02-4.06-5.54-7.99-7.26-12.48.45-8.11,2.01-16.09,4.45-23.84,2.4-7.62,5.44-16.05,10.12-22.61,1.81-2.54,4.4-5.52,7.96-5.09,3.05.37,3.29,2.14,5.09,3.69,2,1.72,4.38,2.2,6.95,2.31,4.39.18,8.89-1,12.66,1.99,5.11,4.04,4.52,11.43-.41,15.3-2.86,2.25-6.57,3.26-9.69,5.11-2.7,1.61-5.1,3.61-7.21,5.94-4.2,4.66-7.01,10.53-7.93,16.74-1.14,7.73,2.22,16.32-.76,23.72-2.53,6.3-11.23,12.12-17.25,7.27ZM82.6,411.42c2.3-9.65,2.27-19.75,5-29.31,1.28-4.49,3.32-11.27,8.84-11.25,4.33.02,7,4.28,11.02,5.57,3.4,1.09,6.81.1,10.22-.29,3.54-.41,6.55-.18,8.55,3.34,1.84,3.23-.04,7.87-1.16,11.07-.11.32-.11.62-.03.88-1.38.26-2.63.8-3.61,1.74-1.47,1.42-1.66,3.48-2.9,5.03-1.27,1.59-3.22,2.19-5.13,2.5-3.26.53-6.58-.1-9.82.72-4.42,1.12-7.81,4.6-6.51,9.4.81,2.98,3.17,5.28,5.1,7.56,3.19,3.76,4.9,7.67,4.71,12.55-1.31.06-2.62.05-3.86-.31-2.45-.71-3.45-2.51-5.32-4-4.4-3.52-10.12-1.1-13.37,2.7-5.48,6.41-8.77,15.65-11.38,23.54-1.99,6.02-3.49,12.19-4.37,18.46-.89-5.81-.81-11.74-.34-17.59.52-6.47,2.6-14.22,2.97-21.57,5.81-5.77,9.49-12.72,11.4-20.74ZM68.15,431.3c-.16.33-.17.68-.08,1-.26,2.75-.74,5.46-1.1,7.91-1.64,11.34-3.13,23.21-.67,34.55,1.05,4.84,2.85,9.5,5.56,13.66,1.55,2.38,3.51,4.47,5.05,6.86,1.79,2.79,3.91,10.75-1.49,11.46.39-2.55.05-5.1-1.75-6.51-.18-.33-.53-.56-1.06-.55-8.99.2-13.19-10.3-14.4-17.6-1.03-6.21-1.28-12.76-4.49-18.36-.52-.91-1.15-1.8-1.85-2.64,1.46-6.09,2.4-12.25,2.08-18.53-.34-6.74-3.27-12.96-3.67-19.62-.6-10.17,10.51-10.95,15.38-3.98,2.46,3.52,2.81,7.95,2.48,12.35ZM36.7,408.53c.09-10.6-3.9-23.64,8.7-28.73,9.83-3.97,24.33-.54,28.02,10.34,2.97,8.74-5.55,16.03-9.74,23.26-4.91-2.95-11.51-3.16-14.78,2.37-3.62,6.13.06,13.69,1.32,19.94,1.56,7.72.93,15.37-.71,22.96-2.73-2.38-6.08-4.16-9.43-4.79-2.4-.45-5.22.12-7.06,1.7-4.94-6.55-7.05-14.18-6.46-22.36,5.14-7.48,10.05-15.31,10.13-24.69ZM14.86,484.54c-7.53-13.73-7.05-30.07-15.18-43.68-3.71-6.21-9.59-15.69-3.77-22.6,4.9-5.81,17.96-3.57,23.48.2,4.89,3.35,4.84,8.45,4.49,13.66-.31.48-.29.96-.09,1.37-.14,2.06-.27,4.11-.09,6.06.63,6.82,3.39,13.14,7.62,18.48.02.02.03.03.05.05-.13.42-.23.85-.27,1.33-.07.92.32,1.55.39,2.38.28,3.32.08,3.64-2.08,5.18-1.66,1.19-3,2.37-3.53,4.43-1.36,5.28,2.76,9.25,6.26,12.45,5.63,5.14,7.37,11.88,11.68,17.88,1.31,1.82,2.85,3.41,4.53,4.84-13.84-1.57-26.7-9.68-33.48-22.04ZM72.3,506.9c-.72,3.57-2.78,6.59-7.05,5.85-3.21-.56-7.13-3.02-9.85-4.65-6.52-3.88-10.09-8.92-13.4-15.58-2.42-4.88-5.3-8.25-9.26-11.9-3.54-3.26-6.25-7.57-1.57-11.42,1.4-1.15,3.08-1.75,3.72-3.6.3-.86.25-1.36.14-2.19-.28-2.15-.92-1.74.17-4.33.41-2.86,2.24-3.56,5.49-2.1.73.24,1.44.54,2.13.89,2.23,1.04,4.43,2.42,6.15,4.2.1.21.26.38.46.49,4.41,4.99,4.79,12.13,5.72,18.4,1.3,8.77,5.99,21.48,16.75,21.55,1.16,1.09.65,3.1.39,4.39ZM161.68,477.49c-4.3,6.78-13.48,6.58-20.5,7.47-12.65,1.59-20.63,9.93-29.59,18.18-5.38,4.95-11.21,9.35-18.5,10.87-3.38.7-7.49,1.09-11.15.33,6.11-1.23,11.87-7.03,13.29-12.98.72-3.03.69-6.09.5-9.17.21-.19.36-.46.43-.8,1.43-7.43,5.73-11.71,13.11-13.64,5.21-1.37,10.55-1.92,15.66-3.68,4.66-1.6,9.21-3.97,12.61-7.61,1.46-1.57,2.54-3.32,3.53-5.2,1.05-1.99,1.49-3.32,3.54-4.55,2.81-1.69,5.63-1,8.29.85,5.58,3.91,13.18,13.01,8.79,19.95ZM170.51,442.28c-1.04,1.46-2.93,2.16-4.4,3.03-4.53,2.68-8.2,5.98-11.19,10.29-3.3-2.46-7.22-3.95-11.27-2.04-2.39,1.13-3.53,3.2-4.68,5.47-2.15,4.25-4.92,7.43-9.12,9.76-1.81,1.01-3.69,1.77-5.59,2.38,1.45-3.16,4.36-5.37,6.69-7.98,2.53-2.84,4.46-6.09,6.18-9.47,2.66-5.25,4.83-9.93,5.15-15.14.03-.01.05-.01.08-.03,3.84-1.78,6.11-4.88,7.91-8.61,1.12-2.32,1.96-4.76,3.05-7.09.35-2.22,1.66-3.04,3.91-2.45,1.96-.85,3.49-.4,4.62,1.34,1.04,1.04,1.98,2.27,2.87,3.43,2.07,2.69,4.1,5.65,5.44,8.77,1.08,2.52,2.24,5.73.38,8.34Z"/>
        <path class="cls-3" d="M64.42,533.49c-.36-.04-.71-.08-1.07-.14-5.54-.82-10.18-3.16-13.26-4.7-.94-.47-1.85-.95-2.72-1.42-.42-.04-.83-.08-1.25-.12-18.19-1.99-34.98-11.74-45.57-26.64-7.22-10.17-9.76-20.95-12-30.46-1.17-4.94-2.27-9.62-3.9-13.52-.5-1.2-1.7-3.29-2.85-5.31-2.88-5.04-6.47-11.32-8.14-18.47-2.66-11.4.34-22,8.45-29.85,8.58-8.3,21.47-10.29,33.16-7.91,0-1.18.04-2.4.14-3.67,1.45-18.84,16.35-32.67,36.24-33.62,7.95-.38,15.59,1.29,22.16,4.56,3.03-4.37,7.19-8.14,12.93-10.47,8.63-3.5,17.54-2.12,26.49,4.12.04.02.08.05.12.09,1.73-.29,3.99-.63,6.59-.65,9.2-.07,17,3.67,21.97,10.53,2.63,3.63,4.26,7.97,4.89,12.74,7.94,4.33,13.23,11.62,14.96,20.36,9.56,1.93,15.88,9.1,19.87,14.46,0,0,0,0,0,0,4.22,5.67,15.44,20.73,8.13,36.63-2.34,5.08-5.8,8.28-8.79,10.39,4.14,9.41,2.97,17.45.71,23.18-4.2,10.68-14.3,18.19-27.69,20.61-2.71.49-5.24.73-7.47.95-2.4.23-4.68.45-5.93.88-1.43.49-3.24,1.64-5.54,3.52-1.97,1.61-4.01,3.56-6.16,5.61-3.9,3.73-8.33,7.95-13.83,11.57-6.95,4.57-15.78,7.7-24.24,8.57-6.74.7-12.98-.05-18.45-2.14-2.55.51-5.22.63-7.95.34Z"/>
      </g>
      <g>
        <path class="cls-3" d="M161.44,423.24c-2.39-1.99-5.98-2.94-7.02.47-.09.17-.15.38-.16.63-.04.23-.03.44.02.62.05,4.92,1.89,9.61,5.46,13.08,1.38,1.35,3.64,3.42,5.78,3,2.23-.43,2.48-2.93,2.41-4.78-.17-4.48-3.04-10.13-6.49-13.01ZM162.28,436.52c-.99-.86-1.85-1.87-2.58-2.95-1.78-2.64-2.66-5.75-2.6-8.92.32-1.72,4.06,2.5,4.36,2.95,1.63,2.46,4.15,6.24,3.65,9.39-.31,1.98-1.81.41-2.83-.47Z"/>
        <path class="cls-3" d="M162.63,458.76c-5.31-.58-10.43-3.25-15.29-7.99-6.62-6.44-10.43-15.11-10.8-24.5-.11-1.25-.09-2.51.04-3.76.17-1.78.6-3.53,1.25-5.19,2.29-6.21,7.25-10.95,13.47-12.8,7.15-2.13,15.21-.23,21.55,5.07h0c7.34,6.13,12.51,16.57,12.86,25.99.51,13.46-8.06,21.21-16.78,22.91-2.12.41-4.22.5-6.29.28ZM150.17,436.99c2.48,1.99,6.29,2.7,10.03,1.93l2.08-2.4-2.08,2.4c.41-.08.82-.19,1.23-.31,4.37-1.3,7.96-4.53,9.6-8.58.32-.85.56-1.73.73-2.63l-1.36-.26-8.11,9.37,8.11-9.37-12.08-2.28c-5.47,2.73-8.28,8.36-8.14,12.06,0,.02,0,.04,0,.06ZM150.04,436.89h0s0,0,0,0ZM170.03,432.23s0,.01-.01.02c0,0,0-.01.01-.02ZM170.04,432.21s0,0,0,0c0,0,0,0,0,0ZM171.42,428.91s0,.01,0,.02c0,0,0-.01,0-.02ZM171.74,427.58s0,.01,0,.02c0,0,0-.01,0-.02ZM166.51,423.39c-1.31-.14-2.78-.12-4.39.19-1.23.24-2.37.62-3.42,1.1l12.76.25c-1.09-.62-2.8-1.31-4.95-1.54Z"/>
      </g>
    </g>
    <g>
      <path class="cls-1" d="M37.19,461.73c-.31.39-.36.8-.25,1.17.57,4.82-5.82,8.94-2.4,13.99,2.77,4.1,8.2.44,10.23-2.49,2.5-3.6,2.66-8.01.38-11.74-2.03-3.32-5.4-4.17-7.96-.94ZM40.04,475.04c-4.65,2.53-3.64-3.03-2.32-5.46,1.17-2.16,2.18-4.09,2.08-6.5,1.92-1.82,3.62,1.91,4.01,3.68.68,3.04-1.02,6.78-3.77,8.28Z"/>
      <path class="cls-1" d="M54.64,418.39c-.28.22-.44.48-.5.75-1.47,3.37-.53,7.31,1.96,9.97,2.36,2.52,6.79,3.99,9.81,1.66,3.24-2.5,1.44-6.94-.9-9.34-2.81-2.88-6.54-6.03-10.37-3.03ZM62.75,423.17c1.68,1.7,3.61,5.52-.25,5.88-4.38.4-7.13-4.93-5.79-8.62,2.16-1.33,4.54,1.23,6.04,2.74Z"/>
      <path class="cls-1" d="M104.94,452.75c4.58.04,12.99-5.81,10.88-11.26-.99-2.56-4.14-2.86-6.49-2.9-5.8-.12-10.18-.32-13.74-5.57-.07-.25-.22-.47-.47-.64-.29-.3-.65-.38-.99-.32-5.34-1.14-5.89,4.71-5.01,8.93,1.48,7.08,8.71,11.69,15.83,11.76ZM95.15,446.19c-2.02-1.6-2.85-3.61-3.31-6.05-.25-1.34-1.08-5.78,1.51-5.35,2.19,3.25,5.48,5.91,9.44,6.57,2.85.48,13.24-1.55,9.18,4.22-4.2,5.96-11.54,4.8-16.81.61Z"/>
      <path class="cls-1" d="M146.07,459.43c-.29,0-.54.07-.75.19-.51.24-.89.74-.81,1.45.73,6.72,2.33,17.71,11.36,17.04.67-.05,1.06-.67,1.19-1.25,1.56-7.14-2.65-17.35-10.99-17.43ZM154.42,475.28c-5.13-.48-6.35-7.91-6.9-12.77,5.12,1.27,7.44,7.72,6.9,12.77Z"/>
      <path class="cls-1" d="M8.46,418.14c-.17-.02-.32-.01-.46.01-4.07.16-10.39,1.77-9.46,7.24.85,5.04,9.2,6.82,13.34,6.73,3.68-.08,8.33-2.18,7.34-6.65-.98-4.47-6.72-6.79-10.76-7.34ZM14.89,428.69c-.93.66-2.85.63-3.84.59-2.55-.1-5.94-.74-7.94-2.44-5.04-4.28,2.28-5.67,5.09-5.86,2.02.28,3.65.92,5.39,1.97,1.93,1.17,4.64,3.37,1.31,5.73Z"/>
      <path class="cls-1" d="M58.3,398.79c5.25,1.22,15.03.04,12.41-7.86-2.23-6.72-11.72-8.51-17.66-9.67-4.2-.77-12.97.93-13.27,6.29-.42,7.66,13.34,10.04,18.52,11.25ZM52.74,384.09c3.42.67,6.94,1.42,10.09,2.96,1.09.51,2.1,1.15,3.01,1.93,2.32,5.19,1.66,7.67-1.97,7.43-2.72.6-5.58-.49-8.16-1.23-2.12-.61-13.05-3.39-12.8-6.09.4-4.37,6.47-5.61,9.83-4.99Z"/>
      <path class="cls-1" d="M108.34,410.98c-1.55,5.48,7.56,7.02,11.16,6.88,5.72-.23,11.75-3.32,14.3-8.63,2.1-4.35-.54-12-6.4-8.71-.03.02-.05.03-.07.05-.18.09-.34.22-.49.4-3.2,3.98-7.82,5.35-12.65,6.09-2.46.37-5.09,1.25-5.85,3.93ZM117.63,409.43c1.34-.28,2.68-.71,3.94-1.24,2.75-1.14,5.16-2.78,7.1-5,1.09.91,2.18,1.82,3.27,2.73-.38.96-.77,1.92-1.15,2.88-.5.83-1.19,1.64-1.89,2.31-1.49,1.43-3.32,2.44-5.26,3.1-1.77.6-3.63.9-5.51.8-1.09-.06-5.8-.55-6.17-1.81-.41-1.4,2.28-3.11,3.29-3.41.74-.22,1.61-.2,2.37-.36Z"/>
      <path class="cls-1" d="M104.28,391.72c6.45.7,13.4-.52,16.49-6.95,2.72-5.66-3.49-7.45-7.98-6.17-2.93.3-5.83.31-8.73-.2-1.97-.34-4.1-1.53-6.12-1.51-1.78.02-4.17,1.07-4.98,2.72-3.33,6.74,6.34,11.57,11.32,12.11ZM96.69,380.11c1.28-.82,4.75.7,6.24.99,3.25.64,6.5.67,9.79.36.16.02.33,0,.53-.05.17-.02.31-.06.44-.12,2.06-.54,5.41-1.04,3.96,3.13-.44,1.27-2.85,3.13-3.86,3.62-3.53,1.72-10.03,1.41-13.56-.17-2.03-.82-3.48-2.19-4.35-4.13.27-1.21.54-2.42.81-3.63Z"/>
      <path class="cls-1" d="M167.37,424c-2.88-3.86-8.51-10.64-13.94-6.46-2.25,1.73-3.24,5.31-4.29,7.81-1.62,3.87-3.28,7.84-6.92,10.04-.1-1.22-.3-2.47-.63-3.77-1.47-5.8-1.19-10.15.69-15.87.96-2.94,2-5.85,2.26-8.96.48-5.87-1.93-10.83-7.46-13.21-2.38-1.02-5.93-2.19-9.25-2.33,2.52-7.46,2.91-18.27-7.75-18.18-2.36.02-4.65.65-6.98.89-4.22.43-6.69-1.18-10.03-3.51-2.89-2.01-6.11-3.66-9.64-2.23-8.38,3.4-9.74,17.06-10.81,24.61-1.79,12.76-2.97,25.3-11.42,35.18-.2-3.53-.97-6.88-2.7-9.86-.65-1.12-1.52-2.15-2.52-3.05,4.47-8.37,13.73-15.56,10.16-25.95-3.31-9.64-14.04-14.19-23.62-13.72-10.12.49-18.56,6.72-19.37,17.22-.48,6.24,1.26,12.45.57,18.68-.67,6.05-3.58,11.4-6.88,16.43-.06-3.61-.85-7-3.68-9.86-6.25-6.29-21.93-8.77-28.67-2.25-10.47,10.12,2.59,24.43,6.59,33.99,5.57,13.33,5.4,28.43,13.99,40.54,8.3,11.69,21.93,18.94,36.21,19.5.36.01.66-.09.9-.26,1.9,1.24,3.9,2.34,5.91,3.35,4.79,2.4,11.24,5.6,15.07,0,.01-.02.03-.05.04-.07,7.56,8.77,23.86,4.59,32.1-.84,6.87-4.52,12.17-10.92,18.51-16.1,3.32-2.71,6.94-5.17,11.02-6.57,5.17-1.77,10.69-1.54,16.01-2.5,5.71-1.03,12.04-3.86,14.31-9.63,2.55-6.48-1.66-12.79-5.87-17.44-.66-.73-1.39-1.47-2.16-2.19,2.84-4.13,6.32-7.3,10.7-9.81,2.32-1.33,4.61-2.49,5.79-5.05,2.84-6.18-2.73-13.87-6.23-18.58ZM128.79,394.44c3.72.34,8.7,1.51,11.13,4.6,4.76,6.06-.46,14.72-1.9,20.99-1.59,6.95,2.54,12.77,1.67,19.52-.88,6.84-5.72,15.53-10.03,20.76-3.26,3.96-7.32,6.78-8.74,11.8-5.26,1.3-10.69,1.94-15.83,3.91-4.85,1.86-7.97,4.93-9.88,8.98-.09-2.19-.05-4.38.34-6.55,1.56-8.64,7.11-16.45,14.89-20.56,5.64-2.98,12-4.95,13.57-11.96,1.18-5.27-1.21-10.68-5.86-13.41-2.65-1.56-5.43-1.76-8.45-1.73.13-4.89-1.34-9.33-4.49-13.21-1.73-2.13-4.28-4.2-5.19-6.85-2.15-6.22,5.11-6.91,9.12-7,3.76-.09,8.07-.03,10.89-2.95,2.86-2.96,3.09-6.87,8.74-6.34ZM74.62,509.83c.03-.08.05-.16.08-.23,3.25-.16,5.64-2.27,6.71-5.42,1.56-4.57-.85-8.81-3.52-12.4-3.02-4.06-5.54-7.99-7.26-12.48.45-8.11,2.01-16.09,4.45-23.84,2.4-7.62,5.44-16.05,10.12-22.61,1.81-2.54,4.4-5.52,7.96-5.09,3.05.37,3.29,2.14,5.09,3.69,2,1.72,4.38,2.2,6.95,2.31,4.39.18,8.89-1,12.66,1.99,5.11,4.04,4.52,11.43-.41,15.3-2.86,2.25-6.57,3.26-9.69,5.11-2.7,1.61-5.1,3.61-7.21,5.94-4.2,4.66-7.01,10.53-7.93,16.74-1.14,7.73,2.22,16.32-.76,23.72-2.53,6.3-11.23,12.12-17.25,7.27ZM82.6,411.42c2.3-9.65,2.27-19.75,5-29.31,1.28-4.49,3.32-11.27,8.84-11.25,4.33.02,7,4.28,11.02,5.57,3.4,1.09,6.81.1,10.22-.29,3.54-.41,6.55-.18,8.55,3.34,1.84,3.23-.04,7.87-1.16,11.07-.11.32-.11.62-.03.88-1.38.26-2.63.8-3.61,1.74-1.47,1.42-1.66,3.48-2.9,5.03-1.27,1.59-3.22,2.19-5.13,2.5-3.26.53-6.58-.1-9.82.72-4.42,1.12-7.81,4.6-6.51,9.4.81,2.98,3.17,5.28,5.1,7.56,3.19,3.76,4.9,7.67,4.71,12.55-1.31.06-2.62.05-3.86-.31-2.45-.71-3.45-2.51-5.32-4-4.4-3.52-10.12-1.1-13.37,2.7-5.48,6.41-8.77,15.65-11.38,23.54-1.99,6.02-3.49,12.19-4.37,18.46-.89-5.81-.81-11.74-.34-17.59.52-6.47,2.6-14.22,2.97-21.57,5.81-5.77,9.49-12.72,11.4-20.74ZM68.15,431.3c-.16.33-.17.68-.08,1-.26,2.75-.74,5.46-1.1,7.91-1.64,11.34-3.13,23.21-.67,34.55,1.05,4.84,2.85,9.5,5.56,13.66,1.55,2.38,3.51,4.47,5.05,6.86,1.79,2.79,3.91,10.75-1.49,11.46.39-2.55.05-5.1-1.75-6.51-.18-.33-.53-.56-1.06-.55-8.99.2-13.19-10.3-14.4-17.6-1.03-6.21-1.28-12.76-4.49-18.36-.52-.91-1.15-1.8-1.85-2.64,1.46-6.09,2.4-12.25,2.08-18.53-.34-6.74-3.27-12.96-3.67-19.62-.6-10.17,10.51-10.95,15.38-3.98,2.46,3.52,2.81,7.95,2.48,12.35ZM36.7,408.53c.09-10.6-3.9-23.64,8.7-28.73,9.83-3.97,24.33-.54,28.02,10.34,2.97,8.74-5.55,16.03-9.74,23.26-4.91-2.95-11.51-3.16-14.78,2.37-3.62,6.13.06,13.69,1.32,19.94,1.56,7.72.93,15.37-.71,22.96-2.73-2.38-6.08-4.16-9.43-4.79-2.4-.45-5.22.12-7.06,1.7-4.94-6.55-7.05-14.18-6.46-22.36,5.14-7.48,10.05-15.31,10.13-24.69ZM14.86,484.54c-7.53-13.73-7.05-30.07-15.18-43.68-3.71-6.21-9.59-15.69-3.77-22.6,4.9-5.81,17.96-3.57,23.48.2,4.89,3.35,4.84,8.45,4.49,13.66-.31.48-.29.96-.09,1.37-.14,2.06-.27,4.11-.09,6.06.63,6.82,3.39,13.14,7.62,18.48.02.02.03.03.05.05-.13.42-.23.85-.27,1.33-.07.92.32,1.55.39,2.38.28,3.32.08,3.64-2.08,5.18-1.66,1.19-3,2.37-3.53,4.43-1.36,5.28,2.76,9.25,6.26,12.45,5.63,5.14,7.37,11.88,11.68,17.88,1.31,1.82,2.85,3.41,4.53,4.84-13.84-1.57-26.7-9.68-33.48-22.04ZM72.3,506.9c-.72,3.57-2.78,6.59-7.05,5.85-3.21-.56-7.13-3.02-9.85-4.65-6.52-3.88-10.09-8.92-13.4-15.58-2.42-4.88-5.3-8.25-9.26-11.9-3.54-3.26-6.25-7.57-1.57-11.42,1.4-1.15,3.08-1.75,3.72-3.6.3-.86.25-1.36.14-2.19-.28-2.15-.92-1.74.17-4.33.41-2.86,2.24-3.56,5.49-2.1.73.24,1.44.54,2.13.89,2.23,1.04,4.43,2.42,6.15,4.2.1.21.26.38.46.49,4.41,4.99,4.79,12.13,5.72,18.4,1.3,8.77,5.99,21.48,16.75,21.55,1.16,1.09.65,3.1.39,4.39ZM161.68,477.49c-4.3,6.78-13.48,6.58-20.5,7.47-12.65,1.59-20.63,9.93-29.59,18.18-5.38,4.95-11.21,9.35-18.5,10.87-3.38.7-7.49,1.09-11.15.33,6.11-1.23,11.87-7.03,13.29-12.98.72-3.03.69-6.09.5-9.17.21-.19.36-.46.43-.8,1.43-7.43,5.73-11.71,13.11-13.64,5.21-1.37,10.55-1.92,15.66-3.68,4.66-1.6,9.21-3.97,12.61-7.61,1.46-1.57,2.54-3.32,3.53-5.2,1.05-1.99,1.49-3.32,3.54-4.55,2.81-1.69,5.63-1,8.29.85,5.58,3.91,13.18,13.01,8.79,19.95ZM170.51,442.28c-1.04,1.46-2.93,2.16-4.4,3.03-4.53,2.68-8.2,5.98-11.19,10.29-3.3-2.46-7.22-3.95-11.27-2.04-2.39,1.13-3.53,3.2-4.68,5.47-2.15,4.25-4.92,7.43-9.12,9.76-1.81,1.01-3.69,1.77-5.59,2.38,1.45-3.16,4.36-5.37,6.69-7.98,2.53-2.84,4.46-6.09,6.18-9.47,2.66-5.25,4.83-9.93,5.15-15.14.03-.01.05-.01.08-.03,3.84-1.78,6.11-4.88,7.91-8.61,1.12-2.32,1.96-4.76,3.05-7.09.35-2.22,1.66-3.04,3.91-2.45,1.96-.85,3.49-.4,4.62,1.34,1.04,1.04,1.98,2.27,2.87,3.43,2.07,2.69,4.1,5.65,5.44,8.77,1.08,2.52,2.24,5.73.38,8.34Z"/>
      <path class="cls-1" d="M161.44,423.24c-2.39-1.99-5.98-2.94-7.02.47-.09.17-.15.38-.16.63-.04.23-.03.44.02.62.05,4.92,1.89,9.61,5.46,13.08,1.38,1.35,3.64,3.42,5.78,3,2.23-.43,2.48-2.93,2.41-4.78-.17-4.48-3.04-10.13-6.49-13.01ZM162.28,436.52c-.99-.86-1.85-1.87-2.58-2.95-1.78-2.64-2.66-5.75-2.6-8.92.32-1.72,4.06,2.5,4.36,2.95,1.63,2.46,4.15,6.24,3.65,9.39-.31,1.98-1.81.41-2.83-.47Z"/>
    </g>
  </g>
  <g>
    <path class="cls-4" d="M1030.6,727.08c1.93-4.43-4.96-7.44-6.89-3-1.93,4.43,4.96,7.44,6.89,3h0Z"/>
    <path class="cls-4" d="M1046.88,727.33c-.17.38-.33.77-.5,1.15-.78,1.8.05,4.22,1.95,4.95,1.9.73,4.11-.01,4.95-1.95l.5-1.15c.78-1.8-.05-4.22-1.95-4.95-1.9-.73-4.1.01-4.95,1.95h0Z"/>
    <path class="cls-4" d="M1058.2,760.96c1.93-4.43-4.96-7.44-6.89-3-1.93,4.43,4.96,7.44,6.89,3h0Z"/>
    <path class="cls-4" d="M1078.31,787.31c-.22-.55-.43-1.1-.65-1.65-.74-1.89-2.98-2.86-4.87-2.12-1.9.75-2.87,2.98-2.12,4.87.22.55.43,1.1.65,1.65.74,1.89,2.98,2.86,4.87,2.12,1.9-.75,2.87-2.98,2.12-4.87h0Z"/>
    <path class="cls-4" d="M1112.38,777.72c1.93-4.43-4.96-7.44-6.89-3-1.93,4.43,4.96,7.44,6.89,3h0Z"/>
    <path class="cls-4" d="M1089.22,749.7c-.22-.55-.43-1.1-.65-1.65-.74-1.89-2.98-2.86-4.87-2.12-1.9.75-2.87,2.98-2.12,4.87l.65,1.65c.74,1.89,2.98,2.86,4.87,2.12,1.9-.75,2.87-2.98,2.12-4.87h0Z"/>
    <path class="cls-4" d="M1122.85,731.72c1.93-4.43-4.96-7.44-6.89-3s4.96,7.44,6.89,3h0Z"/>
    <path class="cls-4" d="M1144.59,697.47c1.93-4.43-4.96-7.44-6.89-3-1.93,4.43,4.96,7.44,6.89,3h0Z"/>
    <path class="cls-4" d="M1095.13,716.92c1.93-4.43-4.96-7.44-6.89-3-1.93,4.43,4.96,7.44,6.89,3h0Z"/>
    <path class="cls-4" d="M1116.82,692.21c1.93-4.43-4.96-7.44-6.89-3-1.93,4.43,4.96,7.44,6.89,3h0Z"/>
    <path class="cls-4" d="M1154,663.31c1.93-4.43-4.96-7.44-6.89-3-1.93,4.43,4.96,7.44,6.89,3h0Z"/>
    <path class="cls-4" d="M1123.31,708.69c1.93-4.43-4.96-7.44-6.89-3-1.93,4.43,4.96,7.44,6.89,3h0Z"/>
    <path class="cls-4" d="M1085.2,698.93c1.93-4.43-4.96-7.44-6.89-3-1.93,4.43,4.96,7.44,6.89,3h0Z"/>
    <path class="cls-4" d="M1079.09,731.8c1.93-4.43-4.96-7.44-6.89-3-1.93,4.43,4.96,7.44,6.89,3h0Z"/>
    <path class="cls-4" d="M1105.06,734.91c1.93-4.43-4.96-7.44-6.89-3s4.96,7.44,6.89,3h0Z"/>
    <path class="cls-4" d="M1124.68,755.75l.5-1.15c.78-1.8-.05-4.22-1.95-4.95-1.9-.73-4.11.01-4.95,1.95l-.5,1.15c-.78,1.8.05,4.22,1.95,4.95,1.9.73,4.1-.01,4.95-1.95h0Z"/>
    <path class="cls-4" d="M1089.86,776.11l.5-1.15c.78-1.8-.05-4.22-1.95-4.95-1.9-.73-4.1.01-4.95,1.95l-.5,1.15c-.78,1.8.05,4.22,1.95,4.95,1.9.73,4.11-.01,4.95-1.95h0Z"/>
    <path class="cls-4" d="M1104.38,796.09c-.38-.17-.77-.33-1.15-.5-1.8-.78-4.22.05-4.95,1.95-.73,1.9.01,4.1,1.95,4.95l1.15.5c1.8.78,4.22-.05,4.95-1.95.73-1.9-.01-4.11-1.95-4.95h0Z"/>
    <path class="cls-4" d="M1041.3,696.21c1.93-4.43-4.96-7.44-6.89-3-1.93,4.43,4.96,7.44,6.89,3h0Z"/>
    <path class="cls-4" d="M1073.96,709.07c1.93-4.43-4.96-7.44-6.89-3-1.93,4.43,4.96,7.44,6.89,3h0Z"/>
    <path class="cls-4" d="M1045.76,664l-.71-.31c-4.43-1.93-7.44,4.96-3,6.89l.71.31c4.43,1.93,7.44-4.96,3-6.89l-.71-.31c-4.43-1.93-7.44,4.96-3,6.89l.71.31c4.43,1.93,7.44-4.96,3-6.89h0Z"/>
    <path class="cls-4" d="M1009.68,702.94c1.93-4.43-4.96-7.44-6.89-3-1.93,4.43,4.96,7.44,6.89,3h0Z"/>
    <path class="cls-4" d="M1060.58,689.58c1.93-4.43-4.96-7.44-6.89-3-1.93,4.43,4.96,7.44,6.89,3h0Z"/>
    <path class="cls-4" d="M1040.04,714.79c1.93-4.43-4.96-7.44-6.89-3-1.93,4.43,4.96,7.44,6.89,3h0Z"/>
    <path class="cls-4" d="M1045.57,755.45c1.93-4.43-4.96-7.44-6.89-3-1.93,4.43,4.96,7.44,6.89,3h0Z"/>
    <path class="cls-4" d="M1121.08,666.74c1.93-4.43-4.96-7.44-6.89-3-1.93,4.43,4.96,7.44,6.89,3h0Z"/>
    <path class="cls-4" d="M1137.31,676.53c1.93-4.43-4.96-7.44-6.89-3-1.93,4.43,4.96,7.44,6.89,3h0Z"/>
    <path class="cls-4" d="M1024.13,679.17c1.93-4.43-4.96-7.44-6.89-3-1.93,4.43,4.96,7.44,6.89,3h0Z"/>
    <path class="cls-4" d="M975.58,725.15c.55-.22,1.1-.43,1.65-.65,1.89-.74,2.86-2.98,2.12-4.87-.75-1.9-2.98-2.87-4.87-2.12l-1.65.65c-1.89.74-2.86,2.98-2.12,4.87.75,1.9,2.98,2.87,4.87,2.12h0Z"/>
    <path class="cls-4" d="M1002.48,725.76c1.93-4.43-4.96-7.44-6.89-3-1.93,4.43,4.96,7.44,6.89,3h0Z"/>
  </g>
</svg>