<?xml version="1.0" encoding="UTF-8"?>
<svg id="Layer_2" data-name="Layer 2" xmlns="http://www.w3.org/2000/svg" viewBox="0 0 448.62 37.56">
  <defs>
    <style>
      .cls-1 {
        fill: #003e66;
      }
    </style>
  </defs>
  <g id="Layer_1-2" data-name="Layer 1">
    <g>
      <path class="cls-1" d="M22.7,1.11c1.55,5.43,3.72,9.88,8.17,9.88,1.31,0,2.1-.45,2.1-.45,0,0-1.11,1.22-3.32,1.22-4.47,0-7.44-5-9.87-10.66h-1.32c2.36,5.09,5.12,9.81,8.85,10.89-4.14-.56-7.39-5.56-10.2-10.89h-4.76c-1.78,0-3.47.38-5,1.06,5.2,6.61,13.76,16.96,20.06,16.96,3.37,0,5.55-2.22,5.55-2.22,0,0-1.97,3.71-6.3,3.71-6.62,0-17.67-9.94-23.47-15.42-.51.57-.98,1.18-1.38,1.84,6,5.12,17.82,14.77,24.54,14.42.34-.02.66-.06.97-.12-.48.17-1,.31-1.57.38-6.53.8-18.59-7.6-25.05-12.35-.46,1.29-.71,2.68-.71,4.12v5.36c7.52,4.18,18.56,9.78,24.14,9.78,6.55,0,8.84-5.64,8.84-5.64,0,0-.83,7.73-10,7.73-7.74,0-16.26-3.1-22.98-5.74v2.64c6.9,2.2,15.66,4.78,23.44,4.27,1.53-.1,2.82-.4,3.9-.84-1.15.7-2.62,1.26-4.48,1.54-7.39,1.14-15.94-.48-22.86-2.02v5.89h22.98c6.81,0,12.37-5.57,12.37-12.37V1.11h-12.65Z"/>
      <path class="cls-1" d="M44.32,15.03l.35-.51c.25-.35.52-.36.92-.14.36.25,1.17.82,2.27.82,1.04,0,1.67-.52,1.67-1.28,0-2.13-5.23-1.69-5.23-5.18,0-1.97,1.64-3.25,3.77-3.25,1.33,0,2.42.51,2.89.85.35.25.39.55.21.9l-.28.52c-.24.46-.57.4-.9.22-.46-.27-1.07-.62-1.94-.62-1.04,0-1.71.51-1.71,1.26,0,2.1,5.23,1.56,5.23,5.13,0,1.82-1.36,3.32-3.71,3.32-1.59,0-2.89-.71-3.44-1.14-.25-.22-.41-.49-.09-.92"/>
      <path class="cls-1" d="M56.9,8.65c1.3,0,2.16.47,2.64.81.33.22.35.55.13.9l-.21.32c-.24.36-.51.36-.88.17-.33-.22-.87-.49-1.56-.49-1.48,0-2.45,1.12-2.45,2.5s.96,2.53,2.51,2.53c.79,0,1.42-.35,1.8-.62.4-.22.7-.17.9.21l.16.3c.19.35.14.66-.17.88-.49.36-1.47.93-2.86.93-2.67,0-4.38-1.88-4.38-4.22s1.71-4.22,4.38-4.22"/>
      <path class="cls-1" d="M65.02,15.38c1.31,0,2.4-1.01,2.4-2.51s-1.09-2.51-2.4-2.51-2.38,1.03-2.38,2.51,1.07,2.51,2.38,2.51M65.02,8.65c2.45,0,4.44,1.75,4.44,4.22s-1.99,4.22-4.44,4.22-4.42-1.74-4.42-4.22,1.97-4.22,4.42-4.22"/>
      <path class="cls-1" d="M70.99,10.54h-.43c-.43,0-.65-.22-.65-.66v-.27c0-.43.22-.66.66-.66h.46v-1.64c0-.43.24-.66.66-.66h.63c.43,0,.66.24.66.66v1.64h1.17c.43,0,.66.24.66.66v.27c0,.44-.24.66-.65.66h-1.18v3.13c0,1.2.74,1.44,1.3,1.5.49.05.66.21.66.65v.49c0,.47-.27.66-.82.66-1.44,0-3.14-.77-3.14-2.95v-3.47Z"/>
      <path class="cls-1" d="M76.83,10.54h-.43c-.43,0-.65-.22-.65-.66v-.27c0-.43.22-.66.66-.66h.46v-1.64c0-.43.24-.66.66-.66h.63c.43,0,.66.24.66.66v1.64h1.17c.43,0,.66.24.66.66v.27c0,.44-.24.66-.65.66h-1.18v3.13c0,1.2.74,1.44,1.3,1.5.49.05.66.21.66.65v.49c0,.47-.27.66-.82.66-1.44,0-3.14-.77-3.14-2.95v-3.47Z"/>
      <path class="cls-1" d="M82.04,9.5c0-.43.22-.66.65-.66h.7c.43,0,.65.24.65.66v6.73c0,.44-.22.66-.65.66h-.7c-.43,0-.65-.22-.65-.66v-6.73ZM82.04,6.82v-.47c0-.43.22-.66.65-.66h.7c.43,0,.66.24.66.66v.47c0,.43-.24.65-.66.65h-.7c-.43,0-.65-.22-.65-.65"/>
      <path class="cls-1" d="M85.33,15.36l.19-.28c.24-.33.51-.36.9-.16.38.21.98.55,1.8.55.7,0,1.12-.32,1.12-.82,0-1.31-4-.82-4-3.59,0-1.58,1.39-2.42,3.08-2.42,1.07,0,1.82.35,2.24.59.36.19.41.52.24.88l-.16.28c-.19.38-.49.43-.88.25-.35-.16-.87-.39-1.53-.39s-1.09.28-1.09.79c0,1.33,4,.81,4,3.55,0,1.42-1.2,2.48-3.06,2.48-1.29,0-2.19-.49-2.68-.82-.36-.21-.39-.55-.16-.9"/>
      <path class="cls-1" d="M92.45,6.34c0-.43.24-.66.66-.66h.68c.44,0,.66.24.66.66v3.25c0,.4-.05.68-.05.68h.03c.4-.77,1.41-1.63,2.8-1.63,1.78,0,2.81.93,2.81,3.06v4.52c0,.44-.24.66-.66.66h-.68c-.44,0-.66-.22-.66-.66v-4.11c0-.98-.25-1.64-1.26-1.64-1.41,0-2.32,1.14-2.32,2.67v3.08c0,.44-.22.66-.66.66h-.68c-.43,0-.66-.22-.66-.66V6.34Z"/>
      <path class="cls-1" d="M108.46,15.22c1.28,0,2.04-.69,2.04-2.05v-1.22h-1.9c-1.25,0-2.05.55-2.05,1.64,0,.9.76,1.63,1.91,1.63M106.37,10.92v-.03s-1.42-.55-1.42-2.45c0-1.99,1.6-2.95,3.54-2.95h.66c.43,0,.66.24.66.66v.4c0,.43-.24.65-.66.65h-.52c-1.03,0-1.63.68-1.63,1.5,0,.65.36,1.48,1.71,1.48h1.79v-.81c0-.43.24-.65.66-.65h.68c.43,0,.66.17.66.54v.92h.79c.43,0,.66.24.66.66v.44c0,.43-.24.66-.66.66h-.79v1.33c0,2.29-1.5,3.81-4.04,3.81s-4-1.47-4-3.36c0-1.22.73-2.38,1.91-2.79"/>
      <path class="cls-1" d="M117.95,15.03l.35-.51c.25-.35.52-.36.92-.14.36.25,1.17.82,2.27.82,1.04,0,1.67-.52,1.67-1.28,0-2.13-5.23-1.69-5.23-5.18,0-1.97,1.64-3.25,3.78-3.25,1.33,0,2.42.51,2.89.85.35.25.39.55.21.9l-.28.52c-.24.46-.57.4-.9.22-.46-.27-1.07-.62-1.94-.62-1.04,0-1.71.51-1.71,1.26,0,2.1,5.23,1.56,5.23,5.13,0,1.82-1.36,3.32-3.71,3.32-1.59,0-2.89-.71-3.44-1.14-.25-.22-.41-.49-.09-.92"/>
      <path class="cls-1" d="M130.52,15.38c1.31,0,2.4-1.01,2.4-2.51s-1.09-2.51-2.4-2.51-2.38,1.03-2.38,2.51,1.07,2.51,2.38,2.51M130.52,8.65c2.45,0,4.44,1.75,4.44,4.22s-1.99,4.22-4.44,4.22-4.42-1.74-4.42-4.22,1.97-4.22,4.42-4.22"/>
      <path class="cls-1" d="M135.99,9.5c0-.43.24-.66.66-.66h.68c.44,0,.66.24.66.66v4.11c0,.98.25,1.64,1.25,1.64,1.45,0,2.26-1.28,2.26-2.72v-3.03c0-.43.22-.66.66-.66h.68c.43,0,.66.24.66.66v6.73c0,.44-.24.66-.66.66h-.62c-.43,0-.65-.22-.65-.66v-.47c0-.19.03-.36.03-.36h-.03c-.38.82-1.42,1.69-2.8,1.69-1.72,0-2.79-.87-2.79-3.06v-4.52Z"/>
      <path class="cls-1" d="M145.61,10.54h-.43c-.43,0-.65-.22-.65-.66v-.27c0-.43.22-.66.66-.66h.46v-1.64c0-.43.24-.66.66-.66h.63c.43,0,.66.24.66.66v1.64h1.17c.43,0,.66.24.66.66v.27c0,.44-.24.66-.65.66h-1.19v3.13c0,1.2.74,1.44,1.3,1.5.49.05.66.21.66.65v.49c0,.47-.27.66-.82.66-1.44,0-3.14-.77-3.14-2.95v-3.47Z"/>
      <path class="cls-1" d="M150.66,6.34c0-.43.24-.66.66-.66h.68c.44,0,.66.24.66.66v3.25c0,.4-.05.68-.05.68h.03c.4-.77,1.41-1.63,2.8-1.63,1.78,0,2.81.93,2.81,3.06v4.52c0,.44-.24.66-.66.66h-.68c-.44,0-.66-.22-.66-.66v-4.11c0-.98-.25-1.64-1.26-1.64-1.41,0-2.32,1.14-2.32,2.67v3.08c0,.44-.22.66-.66.66h-.68c-.43,0-.66-.22-.66-.66V6.34Z"/>
      <path class="cls-1" d="M164.96,11.95c-.03-1.12-.71-1.78-1.63-1.78-1.03,0-1.75.71-1.94,1.78h3.57ZM163.38,8.65c2.29,0,3.57,1.63,3.57,3.84,0,.35-.3.68-.7.68h-4.91c.13,1.45,1.2,2.21,2.42,2.21.74,0,1.36-.28,1.74-.52.4-.19.68-.14.89.22l.19.32c.19.36.13.68-.22.89-.52.33-1.47.81-2.73.81-2.67,0-4.33-1.93-4.33-4.22,0-2.48,1.67-4.22,4.09-4.22"/>
      <path class="cls-1" d="M168.04,9.5c0-.43.22-.66.65-.66h.62c.43,0,.66.24.66.66v.76c0,.3-.05.55-.05.55h.03c.32-.96,1.2-2.04,2.34-2.04.44,0,.6.22.6.66v.62c0,.43-.25.66-.68.66-1.47,0-2.18,1.45-2.18,2.92v2.59c0,.44-.22.66-.65.66h-.7c-.43,0-.65-.22-.65-.66v-6.73Z"/>
      <path class="cls-1" d="M173.88,9.5c0-.43.22-.66.65-.66h.62c.43,0,.65.24.65.66v.49c0,.17-.03.36-.03.36h.03c.35-.68,1.23-1.71,2.86-1.71,1.78,0,2.81.93,2.81,3.06v4.52c0,.44-.22.66-.66.66h-.68c-.43,0-.66-.22-.66-.66v-4.11c0-.98-.25-1.64-1.26-1.64-1.42,0-2.32,1.18-2.32,2.64v3.11c0,.44-.22.66-.65.66h-.7c-.43,0-.65-.22-.65-.66v-6.73Z"/>
      <path class="cls-1" d="M44.32,21.17c0-.25.13-.4.38-.4h5.48c.25,0,.4.14.4.4v.19c0,.25-.14.39-.4.39h-4.77v4.04h3.82c.25,0,.4.13.4.38v.21c0,.25-.14.4-.4.4h-3.82v4.12h5.05c.25,0,.4.14.4.4v.19c0,.25-.14.39-.4.39h-5.76c-.25,0-.38-.14-.38-.39v-10.31Z"/>
      <path class="cls-1" d="M52.24,21.17c0-.25.13-.4.38-.4h.3c.25,0,.4.14.4.4v8.64c0,1,.47,1.11.82,1.15.19.02.33.11.33.35v.24c0,.24-.11.4-.41.4-.65,0-1.82-.21-1.82-1.94v-8.83Z"/>
      <path class="cls-1" d="M61.51,27.13c-.06-1.67-1.07-2.5-2.26-2.5-1.33,0-2.48.88-2.73,2.5h4.99ZM59.28,23.75c2.12,0,3.32,1.53,3.32,3.79,0,.22-.17.4-.41.4h-5.72c.05,2.02,1.44,3.17,3.08,3.17.99,0,1.72-.44,2.08-.73.22-.14.4-.11.52.09l.13.19c.11.19.08.38-.11.52-.43.32-1.37.88-2.65.88-2.37,0-4.15-1.71-4.15-4.15,0-2.61,1.77-4.17,3.92-4.17"/>
      <path class="cls-1" d="M67.97,23.75c1.36,0,2.24.58,2.64.9.19.14.21.33.05.54l-.11.17c-.14.22-.32.22-.54.08-.35-.27-1.04-.73-2.01-.73-1.74,0-3.1,1.31-3.1,3.21s1.36,3.19,3.11,3.19c1.11,0,1.86-.52,2.24-.84.21-.16.38-.13.52.1l.11.16c.13.21.08.38-.09.54-.41.33-1.36,1.01-2.83,1.01-2.37,0-4.17-1.69-4.17-4.15s1.82-4.17,4.17-4.17"/>
      <path class="cls-1" d="M72.96,24.9h-.66c-.25,0-.38-.13-.38-.38v-.13c0-.25.13-.4.38-.4h.68v-1.86c0-.25.14-.39.39-.39h.28c.25,0,.38.14.38.39v1.86h1.61c.25,0,.4.14.4.4v.13c0,.25-.14.38-.4.38h-1.61v3.98c0,1.83,1.12,2.05,1.74,2.08.32.03.43.13.43.4v.21c0,.25-.13.38-.44.38-1.74,0-2.8-1.06-2.8-2.92v-4.12Z"/>
      <path class="cls-1" d="M77.84,24.33c0-.25.14-.4.4-.4h.28c.24,0,.38.14.38.4v1.07c0,.35-.06.63-.06.63h.03c.38-1.15,1.3-2.15,2.56-2.15.28,0,.41.13.41.38v.28c0,.25-.17.39-.44.39-1.67,0-2.48,1.91-2.48,3.57v2.97c0,.25-.13.39-.38.39h-.3c-.25,0-.4-.14-.4-.39v-7.16Z"/>
      <path class="cls-1" d="M83.1,24.33c0-.25.14-.4.4-.4h.3c.25,0,.38.14.38.4v7.15c0,.25-.13.4-.38.4h-.3c-.25,0-.4-.14-.4-.4v-7.15ZM83.07,21.74v-.57c0-.25.13-.4.38-.4h.4c.25,0,.38.14.38.4v.57c0,.25-.13.38-.38.38h-.4c-.25,0-.38-.13-.38-.38"/>
      <path class="cls-1" d="M89.72,23.75c1.36,0,2.24.58,2.64.9.19.14.21.33.05.54l-.11.17c-.14.22-.32.22-.54.08-.35-.27-1.04-.73-2.01-.73-1.74,0-3.1,1.31-3.1,3.21s1.36,3.19,3.11,3.19c1.11,0,1.86-.52,2.24-.84.21-.16.38-.13.52.1l.11.16c.13.21.08.38-.09.54-.41.33-1.36,1.01-2.83,1.01-2.37,0-4.17-1.69-4.17-4.15s1.82-4.17,4.17-4.17"/>
      <path class="cls-1" d="M94.21,24.33c0-.25.14-.4.4-.4h.3c.25,0,.38.14.38.4v7.15c0,.25-.13.4-.38.4h-.3c-.25,0-.4-.14-.4-.4v-7.15ZM94.18,21.74v-.57c0-.25.13-.4.38-.4h.4c.25,0,.38.14.38.4v.57c0,.25-.13.38-.38.38h-.4c-.25,0-.38-.13-.38-.38"/>
      <path class="cls-1" d="M97.6,24.9h-.66c-.25,0-.38-.13-.38-.38v-.13c0-.25.13-.4.38-.4h.68v-1.86c0-.25.14-.39.39-.39h.28c.25,0,.38.14.38.39v1.86h1.61c.25,0,.4.14.4.4v.13c0,.25-.14.38-.4.38h-1.61v3.98c0,1.83,1.12,2.05,1.74,2.08.32.03.43.13.43.4v.21c0,.25-.13.38-.44.38-1.74,0-2.79-1.06-2.79-2.92v-4.12Z"/>
      <path class="cls-1" d="M102.23,34.05c.17.08.41.21.69.21.71,0,1.19-.62,1.49-1.31l.47-1.12-3.13-7.42c-.11-.27.02-.46.3-.46h.36c.24,0,.36.09.44.3l2.23,5.5c.14.4.28.84.28.84h.03s.11-.44.27-.84l2.18-5.48c.08-.22.21-.32.44-.32h.35c.28,0,.41.17.32.46l-3.74,9.1c-.41,1.03-1.23,1.71-2.29,1.71-.46,0-.84-.16-1.09-.28-.21-.09-.27-.32-.17-.51l.09-.17c.11-.21.28-.25.47-.19"/>
      <path class="cls-1" d="M114.51,21.17c0-.25.13-.4.38-.4h.38c.21,0,.35.08.47.25l5.5,7.74c.38.55.92,1.5.92,1.5h.03s-.09-.92-.09-1.5v-7.6c0-.25.14-.4.39-.4h.32c.25,0,.38.14.38.4v10.31c0,.25-.13.39-.38.39h-.38c-.21,0-.35-.08-.46-.25l-5.51-7.74c-.38-.55-.92-1.5-.92-1.5h-.03s.09.92.09,1.5v7.6c0,.25-.14.39-.38.39h-.33c-.25,0-.38-.14-.38-.39v-10.31Z"/>
      <path class="cls-1" d="M130.68,27.13c-.06-1.67-1.07-2.5-2.26-2.5-1.33,0-2.48.88-2.73,2.5h4.99ZM128.45,23.75c2.12,0,3.32,1.53,3.32,3.79,0,.22-.17.4-.41.4h-5.72c.05,2.02,1.44,3.17,3.08,3.17.99,0,1.72-.44,2.08-.73.22-.14.39-.11.52.09l.13.19c.11.19.08.38-.11.52-.43.32-1.37.88-2.65.88-2.37,0-4.15-1.71-4.15-4.15,0-2.61,1.77-4.17,3.92-4.17"/>
      <path class="cls-1" d="M133.56,24.9h-.66c-.25,0-.38-.13-.38-.38v-.13c0-.25.13-.4.38-.4h.68v-1.86c0-.25.14-.39.39-.39h.28c.25,0,.38.14.38.39v1.86h1.61c.25,0,.4.14.4.4v.13c0,.25-.14.38-.4.38h-1.61v3.98c0,1.83,1.12,2.05,1.74,2.08.32.03.43.13.43.4v.21c0,.25-.13.38-.44.38-1.74,0-2.79-1.06-2.79-2.92v-4.12Z"/>
      <path class="cls-1" d="M137.66,24.38c-.08-.27.05-.44.33-.44h.33c.22,0,.38.09.44.33l1.82,5.59c.13.38.24.85.24.85h.03s.13-.47.25-.85l1.85-5.58c.06-.22.22-.32.44-.32h.38c.22,0,.38.1.44.32l1.85,5.58c.13.38.25.85.25.85h.03s.1-.46.24-.85l1.82-5.59c.06-.24.22-.33.44-.33h.33c.28,0,.4.17.32.44l-2.43,7.17c-.06.24-.22.33-.44.33h-.49c-.24,0-.38-.09-.44-.33l-1.85-5.32c-.13-.4-.24-.85-.24-.85h-.03s-.11.46-.25.85l-1.83,5.32c-.06.24-.21.33-.44.33h-.49c-.24,0-.38-.09-.46-.33l-2.43-7.17Z"/>
      <path class="cls-1" d="M154.01,31.11c1.69,0,3.08-1.39,3.08-3.24s-1.39-3.16-3.08-3.16-3.1,1.36-3.1,3.16,1.39,3.24,3.1,3.24M154,23.75c2.32,0,4.2,1.77,4.2,4.12s-1.88,4.2-4.19,4.2-4.2-1.8-4.2-4.2,1.88-4.12,4.19-4.12"/>
      <path class="cls-1" d="M159.43,24.33c0-.25.14-.4.4-.4h.28c.24,0,.38.14.38.4v1.07c0,.35-.06.63-.06.63h.03c.38-1.15,1.3-2.15,2.56-2.15.28,0,.41.13.41.38v.28c0,.25-.17.39-.44.39-1.67,0-2.48,1.91-2.48,3.57v2.97c0,.25-.13.39-.38.39h-.3c-.25,0-.4-.14-.4-.39v-7.16Z"/>
      <path class="cls-1" d="M164.71,21.17c0-.25.13-.4.38-.4h.3c.25,0,.4.14.4.4v5.8h1.28l2.2-2.79c.13-.16.27-.24.47-.24h.4c.32,0,.43.22.22.47l-2.4,2.98v.03l2.75,3.98c.17.27.06.47-.27.47h-.41c-.22,0-.35-.08-.46-.27l-2.48-3.7h-1.3v3.57c0,.25-.14.39-.4.39h-.3c-.25,0-.38-.14-.38-.39v-10.31Z"/>
      <path class="cls-1" d="M171.5,30.62l.13-.16c.14-.19.32-.21.54-.06.35.27,1.07.73,2.1.73.88,0,1.61-.44,1.61-1.28,0-1.78-4.25-1.25-4.25-3.87,0-1.47,1.25-2.23,2.7-2.23,1.14,0,1.85.41,2.18.65.21.13.24.32.11.52l-.11.17c-.13.22-.32.24-.54.11-.3-.21-.87-.51-1.71-.51s-1.56.36-1.56,1.23c0,1.83,4.23,1.25,4.23,3.9,0,1.31-1.11,2.24-2.69,2.24-1.39,0-2.29-.58-2.68-.92-.19-.14-.21-.33-.06-.54"/>
    </g>
    <g>
      <path class="cls-1" d="M305.89,29.26c1.23-1.02,1.79-2.55,2.22-4.04,1.45-5.41,1.9-11.03,2.38-16.59.09-2.4.67-4.89-.07-7.24-.64-1.56-2.61-1.51-4-1.26-1.95.4-4.24,1.15-5.14,3.1-.57,3.21-.33,6.5-.33,9.75-1.89.22-3.5,1.37-5.36,1.73.45-2.52.79-5.05,1.13-7.59.31-1.5.84-3.87-1.31-4.21-1.84-.07-3.66.76-5.11,1.85-1.14.9-2.09,2.23-1.93,3.74-.54,4.75-1.12,9.49-1.37,14.26,0,1.79-.58,3.89.68,5.4,1.3,1,3.15.66,4.58.11,1.57-.49,2.74-1.81,3.09-3.41l.64-2.81c1.37-1.13,3-1.89,4.46-2.89-.13,3.07-.65,6.11-.64,9.19-.1,1.36.22,3.32,1.92,3.39,1.83.31,3.14-1.21,4.17-2.48Z"/>
      <path class="cls-1" d="M331.74,29.29c1.79.8,3.89,1.4,5.82.77,1.47-.58,2.89-1.43,3.99-2.57,1.19-1.32,2.35-3.34,1.4-5.1-.59-1.29-2.35-1.39-2.93-.05-1,1.42-3.32,1.27-4.26-.14-.95-1.77-.52-3.93.05-5.76.75-2.14,1.85-4.24,3.54-5.78.72-.74,2.88-1.9,3.03-.16h0s-.03.17-.03.17c-.39,1.19.57,2.48,1.85,2.34,1.83-.03,3.84-1,4.62-2.73.69-1.79,1.07-3.86.39-5.71-.8-2.27-3.31-3.3-5.56-3.33-3.52-.07-6.96,1.59-9.41,4.07-4.37,4.81-6.94,11.53-5.88,18.05.3,2.3,1.25,4.74,3.38,5.93Z"/>
      <path class="cls-1" d="M309.52,35.3c1.79.34,3.81-.18,5.16-1.43,1.09-.94.86-2.73,2.1-3.49,1.53-.54,2.72-1.67,3.96-2.66.59.15.6,1.95.65,2.77-.35,1.88,1.68,2.62,3.21,2.33,1.3-.11,3.14-.62,3.24-2.18-.26-1.12-.84-2.16-1.13-3.29-1.66-5.25-1.22-10.86-.22-16.19.53-1.31-.79-2.35-1.95-2.56h0c.34-.7.14-1.56-.57-1.94-1.87-.98-4.06-.42-5.98.13-1.76.61-3.77,1.29-4.78,2.97-.3,4.13-.73,8.25-1.5,12.32-.72,3.45-1.47,7.05-3.5,10-1.18,1.03-.05,2.98,1.31,3.22ZM318.91,18.23c.31-.68.61-1.36.92-2.03.24,2.46.39,4.94.65,7.4.39,1.4-1.87.9-2.77,1.38.41-2.24.93-4.47,1.2-6.74Z"/>
      <path class="cls-1" d="M341.91,31.16c-.27,1.16-.6,2.89.63,3.58,1.66.74,3.67.6,5.33-.09.86-.85,1.33-2.05,1.87-3.13.66-.9.74-2.75,1.9-2.93,2.65,1.43,4.51,3.87,6.85,5.7,1.03,1.17,3.79,1.02,3.94-.79-.75-2.83-1.31-5.85-3.16-8.21-.51-1.01-2.28-1.74-2.69-2.12,3.51-.55,6.77-2.38,9.13-5.03,1.09-.99,1.6-2.53,1.3-3.98-.17-1.24-1.62-1.73-2.71-1.79-2.97.94-5.22,3.31-8,4.66-.32-.26,1.13-2.12,1.57-2.97,1.19-1.73,2.06-3.66,3.31-5.35.95-1.31-.08-2.99-1.6-3.13-1.74-.26-3.71-.45-5.28.5-.53,1.2-2.35.61-2.69,2.01-.33.57-.62,1.17-.9,1.76-2.59,5.78-3.63,12.17-6.75,17.73-.57,1.25-1.61,2.25-2.04,3.56Z"/>
      <path class="cls-1" d="M377.69,28.02c.53-.15.84-.71.69-1.24l-2.43-8.49c1.26-.66,2.45-1.57,3.51-2.69,0,0,.01-.02.02-.02,1.51-1.7,2.92-4.45,2.68-6.75-.13-1.22-.7-2.26-1.67-2.98-.1-.07-.2-.13-.32-.16-2.82-.83-5.51.44-7.88,1.55-.21.1-.42.2-.63.29-.45.21-.68.71-.54,1.19l2.4,8.41c-.59.19-1.19.3-1.77.34-.55.04-.97.52-.94,1.07.04.55.52.97,1.07.94.73-.05,1.46-.19,2.19-.42l2.36,8.26c.13.44.53.73.97.73.09,0,.18-.01.28-.04ZM373.3,9c2.04-.96,4.14-1.92,6.13-1.43.44.38.68.86.74,1.46.16,1.6-.97,3.83-2.18,5.2-.8.84-1.68,1.54-2.61,2.07l-2.09-7.31Z"/>
      <path class="cls-1" d="M381.36,22.92c.21,1.83,1.4,3.28,3.19,3.89,1.93.65,4.06.15,5.42-1.28,2.29-2.15,3.28-5.17,3.46-8.13.07-.03.13-.06.19-.1.56-.38,1.15-.78,1.73-1.23-.86,4.23-1.54,9.93-1.65,10.8-.06.55.32,1.04.87,1.11.04,0,.09,0,.13,0,.49,0,.92-.36.99-.86.12-.85.23-1.71.35-2.57.56-4.31,1.15-8.76,2.89-12.71.25-.24.41-.3.44-.3.61.18,1.41,3.12,1.37,4.99,0,.03,0,.07,0,.1.18,2.51.17,5.23-.05,8.34-.04.53.34.99.86,1.06.52.07,1.01-.27,1.12-.78.13-.59.25-1.19.38-1.79.81-3.94,1.65-8.02,3.84-11.33.31-.25.52-.35.63-.4.2.53.22,2.37-.38,4.35l-.02.07c-.75,2.49-2.15,7.13.44,10.05.37.42,1,.46,1.42.09.42-.37.46-1,.09-1.42-1.84-2.08-.7-5.88-.02-8.14l.02-.07c.25-.82.53-2.14.58-3.42.07-1.68-.27-2.75-1.04-3.26-.84-.56-1.89-.32-3.11.7-.07.06-.14.13-.19.21-1.14,1.69-1.94,3.52-2.56,5.41-.04-1.42-.51-5.73-2.6-6.6-.64-.26-1.64-.32-2.79.89-.08.08-.14.18-.19.28-.12.26-.23.52-.33.78-.12.08-.23.18-.31.31-.76,1.23-1.94,2.21-3.11,3.05-.07-.91-.2-1.8-.38-2.62-.2-2.3-2.56-3.94-4.58-3.98-.82-.02-1.56.22-2.13.7-.02.01-.03.03-.05.04-2.11,1.34-3.67,3.49-4.49,6.21-.71,2.33-.86,5.02-.43,7.58ZM387.54,10.7s.06-.05.08-.08c.19-.16.46-.23.79-.22,1.13.02,2.55,1,2.62,2.18,0,.05.01.11.02.16.21.92.35,1.93.39,2.96-.83-.03-1.71-.34-2.48-.91-1.15-.84-1.8-2.05-1.74-3.26.04-.38.15-.65.32-.84ZM385.32,12.73c.29,1.42,1.16,2.74,2.46,3.7,1.1.81,2.38,1.25,3.62,1.29-.22,2.37-1.05,4.7-2.82,6.36-.02.01-.03.03-.05.05-.81.86-2.15,1.17-3.33.77-.5-.17-1.68-.72-1.83-2.23,0-.02,0-.04,0-.07-.56-3.26-.09-7.19,1.97-9.88Z"/>
      <path class="cls-1" d="M441.82,32.81s.06-.02.09-.03c4.01-1.31,6.2-8.66,6.7-22.47.02-.55-.41-1.01-.96-1.04-.56-.02-1.02.4-1.05.95-.02.32-.04.65-.05,1.02-.23,4.38-.61,11.71-4.44,14.44-.87.52-1.71.6-2.44.24-1-.5-1.68-1.79-1.82-3.43-.25-2.91-.15-5.19.43-8.03.27-.91.5-1.86.68-2.84.1-.53-.24-1.04-.77-1.16-.52-.12-1.05.2-1.19.72-.24.9-.45,1.74-.62,2.54-1.17,3.9-3.42,8.13-5.86,9.63-.85.53-1.64.67-2.4.45-.92-.29-1.6-.9-2-1.82-.19-.43-.31-.92-.37-1.45,1.68-.08,3.36-.5,5.09-1.28,1.96-.88,3.49-3.23,3.49-5.36,0-1.53-.8-2.77-2.19-3.38-4.15-1.84-6.63,3.41-7.57,5.39-.38.8-.63,1.66-.76,2.53-.47-.06-.95-.16-1.42-.29.61-1.84.74-3.86-.03-5.81-.94-2.38-3.51-3.17-5.42-2.56-.07,0-.13.01-.2.03-2.51.67-4.02,2.59-4.96,5.16-.41,1.05-.69,2.16-.85,3.23-.53,2.85-.68,6.07-.82,9.12-.17,3.7-.34,7.19-1.19,8.77-.26.49-.08,1.1.41,1.36.15.08.31.12.48.12.36,0,.7-.19.89-.53,1.07-1.98,1.23-5.53,1.42-9.63.05-1.06.1-2.16.17-3.27.24.17.51.32.8.44,2.09.83,4.76-.12,6.21-1.44.01-.01.03-.03.04-.04.82-.84,1.62-1.89,2.25-3.08.09.02.18.05.27.07.63.17,1.25.3,1.88.37.06.83.25,1.62.55,2.33.63,1.45,1.75,2.47,3.25,2.94,1.33.39,2.69.16,4.04-.67,1.31-.81,2.81-2.47,4.14-4.7.02.74.06,1.5.13,2.3.2,2.34,1.29,4.23,2.91,5.05,1.37.69,2.94.58,4.42-.33.02-.01.04-.02.06-.04.45-.32.86-.67,1.23-1.07-1.05,3.21-2.25,4.28-3.14,4.6-2.29.48-5.42-.69-6.86-2.59-.31-.41-.88-.52-1.32-.25-1.84,1.11-4.58,1.37-6.97.67-1.48-.44-2.61-1.2-3.02-2.04-.17-.35-.54-.57-.93-.56-.39,0-.74.25-.9.61-.74,1.72-2.88,2.4-6.53,2.08-.55-.05-1.04.36-1.09.91-.05.55.36,1.04.91,1.09,1.47.13,5.54.49,7.7-1.94.8.76,1.92,1.38,3.28,1.78,2.65.78,5.56.59,7.82-.47,2.06,2.11,5.63,3.29,8.38,2.68ZM426.41,16.75c1.48-3.13,2.78-4.6,4.1-4.6.27,0,.55.06.83.19.67.3,1,.8,1,1.55,0,1.34-1.05,2.96-2.3,3.52-1.42.64-2.81,1-4.18,1.09.11-.6.3-1.2.56-1.75ZM417.94,21.66c-1.12,1-2.99,1.48-4.09,1.04-.63-.25-.97-.79-1.03-1.64-.04-.61-.04-1.19,0-1.74.28-1.72.68-3.31,1.29-4.59.16-.29.33-.55.5-.8.04.19.09.38.15.58,1.09,3.4,2.87,4.39,4.84,4.98-.49.82-1.07,1.57-1.66,2.18ZM420.47,17.64c-1.84-.5-2.94-1.09-3.79-3.75-.35-1.1-.06-1.88.83-2.19.24-.09.5-.13.77-.13.89,0,1.83.48,2.23,1.49.6,1.52.47,3.11-.04,4.58Z"/>
      <path class="cls-1" d="M399.11,29.71c-2.24.89-4.57,1.82-9.94,1.54-2.85-.24-5.06-.6-7.27-1.67-.5-.24-1.1-.03-1.34.47-.24.5-.03,1.1.47,1.34,2.49,1.2,5,1.62,7.99,1.87h.03c.69.04,1.33.05,1.94.05,4.5,0,6.8-.92,8.86-1.73,1.94-.77,3.62-1.44,7.02-1.14.56.05,1.04-.36,1.09-.91.05-.55-.36-1.04-.91-1.09-3.88-.35-5.86.44-7.95,1.27Z"/>
    </g>
    <g>
      <path class="cls-1" d="M203.9,16.97h1l1.02,3.45c.08.25.12.53.13.53h.02s.05-.27.13-.53l1.07-3.44h.87l1.06,3.44c.08.25.14.53.14.53h.02s.04-.27.12-.53l1.03-3.45h.99l-1.58,4.92h-1.04l-1.02-3.16c-.08-.25-.14-.53-.14-.53h-.02s-.06.28-.14.53l-1.01,3.16h-1.05l-1.58-4.92Z"/>
      <path class="cls-1" d="M214.68,16.85c1.47,0,2.65,1.08,2.65,2.57s-1.19,2.59-2.65,2.59-2.65-1.09-2.65-2.59,1.19-2.57,2.65-2.57ZM214.68,21.19c.93,0,1.69-.74,1.69-1.77s-.76-1.75-1.69-1.75-1.69.73-1.69,1.75.77,1.77,1.69,1.77Z"/>
      <path class="cls-1" d="M218.44,16.97h.91v.86c0,.2-.02.37-.02.37h.02c.22-.72.8-1.28,1.56-1.28.13,0,.24.02.24.02v.93s-.13-.03-.27-.03c-.6,0-1.16.43-1.38,1.16-.09.28-.12.58-.12.88v2.01h-.94v-4.92Z"/>
      <path class="cls-1" d="M222.09,15.02h.94v3.75h.69l1.34-1.81h1.07l-1.63,2.17v.02l1.82,2.73h-1.1l-1.48-2.31h-.71v2.31h-.94v-6.86Z"/>
      <path class="cls-1" d="M227.19,15.02h.95v.96h-.95v-.96ZM227.19,16.97h.94v4.92h-.94v-4.92Z"/>
      <path class="cls-1" d="M229.61,16.97h.91v.65c0,.19-.02.36-.02.36h.02c.19-.43.78-1.13,1.85-1.13,1.16,0,1.69.63,1.69,1.88v3.15h-.94v-2.94c0-.69-.15-1.23-.93-1.23s-1.35.5-1.55,1.21c-.06.19-.08.42-.08.66v2.3h-.94v-4.92Z"/>
      <path class="cls-1" d="M237.26,23.11c.86,0,1.55-.38,1.55-1.38v-.36c0-.16,0-.31,0-.31h-.02c-.29.49-.75.77-1.46.77-1.37,0-2.2-1.1-2.2-2.52s.79-2.46,2.15-2.46c1.19,0,1.54.73,1.54.73h.02s0-.07,0-.16v-.46h.9v4.71c0,1.62-1.23,2.25-2.48,2.25-.59,0-1.21-.17-1.68-.41l.31-.74s.61.33,1.35.33ZM238.83,19.32c0-1.28-.62-1.65-1.39-1.65-.86,0-1.34.62-1.34,1.62s.54,1.72,1.43,1.72c.68,0,1.3-.41,1.3-1.69Z"/>
      <path class="cls-1" d="M243.15,16.97h1l1.02,3.45c.08.25.12.53.13.53h.02s.05-.27.13-.53l1.07-3.44h.87l1.06,3.44c.08.25.14.53.14.53h.02s.04-.27.12-.53l1.03-3.45h.99l-1.58,4.92h-1.04l-1.02-3.16c-.08-.25-.14-.53-.14-.53h-.02s-.06.28-.14.53l-1.01,3.16h-1.05l-1.58-4.92Z"/>
      <path class="cls-1" d="M251.62,15.02h.95v.96h-.95v-.96ZM251.63,16.97h.94v4.92h-.94v-4.92Z"/>
      <path class="cls-1" d="M254.25,17.8h-.64v-.76h.67v-1.42h.91v1.42h1.19v.76h-1.19v2.19c0,.98.69,1.11,1.05,1.11.14,0,.22-.02.22-.02v.84s-.14.02-.33.02c-.63,0-1.89-.19-1.89-1.84v-2.29Z"/>
      <path class="cls-1" d="M257.53,15.02h.94v2.52c0,.23-.02.41-.02.41h.02c.21-.48.84-1.1,1.82-1.1,1.16,0,1.69.63,1.69,1.88v3.15h-.94v-2.94c0-.69-.15-1.23-.93-1.23-.74,0-1.35.51-1.55,1.21-.06.2-.08.42-.08.65v2.3h-.94v-6.86Z"/>
    </g>
  </g>
</svg>