<?xml version="1.0" encoding="UTF-8"?>
<svg xmlns="http://www.w3.org/2000/svg" viewBox="0 0 480 320">
  <defs>
    <style>
      .cls-1 {
        fill: #fbb800;
      }

      .cls-2 {
        fill: #003e66;
      }

      .cls-3 {
        fill: #fff;
      }

      .cls-4 {
        stroke: #000;
        stroke-linecap: round;
        stroke-linejoin: round;
        stroke-width: .5px;
      }

      .cls-5 {
        fill: #71d9ca;
      }

      .cls-6 {
        fill: #2140c1;
      }
    </style>
  </defs>
  <g id="Layer_2" data-name="Layer 2">
    <rect class="cls-1" x="-.1" width="480" height="320"/>
  </g>
  <g id="Layer_1" data-name="Layer 1">
    <g>
      <g>
        <path d="M-5.69,230.07c-.14,0-.26-.09-.3-.23-.56-2.16-.84-4.4-.81-6.66.06-5.76,2.11-11.36,5.77-15.79,3.6-4.36,8.62-7.42,14.12-8.61.16-.04.33.07.36.23.04.16-.07.33-.23.36-11.3,2.44-19.28,12.24-19.41,23.82-.02,2.2.24,4.39.79,6.5.04.16-.06.33-.22.37-.03,0-.05,0-.08,0Z"/>
        <path d="M11.81,247.82s-.05,0-.08-.01c-4.74-1.31-8.97-3.96-12.24-7.67-.11-.13-.1-.32.03-.43.13-.11.32-.1.43.03,3.19,3.62,7.32,6.21,11.94,7.48.16.04.26.21.21.38-.04.14-.16.22-.29.22Z"/>
        <path d="M24.21,248.05c-.14,0-.26-.09-.3-.24-.04-.16.06-.33.23-.37,4.95-1.17,9.36-3.81,12.76-7.64.11-.13.3-.14.43-.03.13.11.14.3.03.43-3.48,3.93-8,6.63-13.08,7.83-.02,0-.05,0-.07,0Z"/>
        <path d="M42.48,230.52s-.06,0-.08-.01c-.16-.05-.26-.21-.21-.38.58-2.07.89-4.22.91-6.4.11-9.61-5.44-18.47-14.14-22.57-.15-.07-.22-.25-.15-.41.07-.15.25-.22.41-.15,8.91,4.2,14.6,13.28,14.49,23.13-.02,2.23-.34,4.43-.93,6.55-.04.13-.16.22-.29.22Z"/>
      </g>
      <g>
        <path d="M-10.43,231.32c-.14,0-.26-.09-.3-.23-.67-2.58-1-5.26-.97-7.95.08-6.87,2.52-13.57,6.89-18.85,4.3-5.21,10.29-8.86,16.85-10.28.16-.04.33.07.36.23.04.16-.07.33-.23.36-13.54,2.93-23.11,14.67-23.26,28.54-.03,2.64.29,5.26.95,7.79.04.16-.06.33-.22.37-.03,0-.05,0-.08,0Z"/>
        <path d="M10.51,252.55s-.05,0-.08-.01c-5.66-1.56-10.71-4.72-14.61-9.15-.11-.13-.1-.32.03-.43.13-.11.32-.1.43.03,3.82,4.34,8.77,7.44,14.31,8.97.16.04.26.21.21.38-.04.14-.16.22-.29.22Z"/>
        <path d="M25.34,252.82c-.14,0-.26-.09-.3-.24-.04-.16.06-.33.23-.37,5.94-1.4,11.22-4.57,15.29-9.16.11-.13.3-.14.43-.03.13.11.14.3.03.43-4.15,4.69-9.55,7.92-15.61,9.35-.02,0-.05,0-.07,0Z"/>
        <path d="M47.19,231.85s-.06,0-.08-.01c-.16-.05-.26-.21-.21-.38.7-2.48,1.06-5.06,1.09-7.67.13-11.52-6.52-22.14-16.94-27.05-.15-.07-.22-.25-.15-.41.07-.15.25-.22.41-.15,10.64,5.02,17.42,15.86,17.29,27.61-.03,2.66-.4,5.29-1.12,7.82-.04.13-.16.22-.29.22Z"/>
      </g>
      <g>
        <g>
          <polygon class="cls-3" points="17.69 225.14 12.6 323.39 25.54 323.39 20.44 225.14 17.69 225.14"/>
          <path class="cls-5" d="M16.49,248.33c.56.04,1.12.07,1.69.08,1.17.01,2.33-.06,3.46-.2l-1.2-23.07h-2.75l-1.2,23.19Z"/>
          <path d="M25.54,323.69h-12.94c-.08,0-.16-.03-.22-.1-.06-.06-.09-.14-.08-.23l5.09-98.25c0-.16.14-.29.31-.29h2.75c.16,0,.3.13.31.29l5.09,98.25c0,.08-.03.17-.08.23-.06.06-.14.1-.22.1ZM12.92,323.08h12.3l-5.06-97.64h-2.17l-5.06,97.64Z"/>
        </g>
        <g>
          <g>
            <path class="cls-5" d="M-3.3,235.69c.47.84,1,1.65,1.56,2.43l17.91-8.18,2.64-5-.36-1.51-21.74,12.26Z"/>
            <path d="M-14.73,244.36c-.08,0-.16-.03-.22-.1-.09-.1-.11-.24-.05-.35l1.45-2.74c.03-.05.07-.09.12-.12l31.73-17.88c.08-.05.18-.05.27-.01.09.04.15.12.18.21l.36,1.51c.02.07,0,.15-.03.21l-2.64,4.99c-.03.06-.08.11-.14.14l-30.9,14.12s-.08.03-.13.03ZM-13.06,241.54l-.99,1.87,29.99-13.7,2.53-4.8-.24-1-31.3,17.64Z"/>
          </g>
          <g>
            <path class="cls-5" d="M39.92,236.18c.49-.82.93-1.68,1.33-2.56l-16.06-11.44-5.64.21-1.13,1.07,21.5,12.72Z"/>
            <path d="M49.77,242.31c-.05,0-.11-.01-.16-.04l-31.35-18.55c-.08-.05-.14-.13-.15-.23s.02-.19.09-.26l1.13-1.07c.05-.05.12-.08.2-.08l5.64-.21c.07,0,.13.02.19.06l27.67,19.71c.11.08.15.21.12.34-.04.13-.15.21-.28.22l-3.09.11s0,0-.01,0ZM18.93,223.4l30.92,18.29,2.11-.08-26.86-19.13-5.43.2-.75.71Z"/>
          </g>
          <g>
            <path class="cls-5" d="M18.73,198.51c-.98-.01-1.94.04-2.89.14l-1.88,19.59,3,4.78,1.49.44.27-24.95Z"/>
            <path d="M18.45,223.77s-.06,0-.09-.01l-1.49-.44c-.07-.02-.13-.07-.17-.13l-3-4.78c-.04-.06-.05-.12-.05-.19l3.25-33.82c.01-.13.11-.24.23-.27.13-.03.26.02.33.13l1.65,2.62s.05.11.05.17l-.4,36.42c0,.1-.05.19-.12.24-.05.04-.12.06-.18.06ZM17.16,222.76l.99.29.39-35.93-1.12-1.79-3.15,32.82,2.89,4.6Z"/>
          </g>
          <circle class="cls-5" cx="18.46" cy="223.46" r="4.39"/>
          <path d="M18.46,228.15s-.03,0-.05,0c-1.25-.01-2.43-.51-3.3-1.41-.88-.9-1.35-2.08-1.34-3.33.03-2.59,2.16-4.66,4.74-4.64,1.25.01,2.43.51,3.3,1.41.88.9,1.35,2.08,1.34,3.33-.03,2.57-2.13,4.64-4.69,4.64ZM18.45,219.38c-2.23,0-4.05,1.8-4.08,4.04-.01,1.09.4,2.12,1.16,2.9.76.78,1.78,1.21,2.87,1.23.02,0,.03,0,.05,0,2.23,0,4.05-1.8,4.08-4.04h.31s-.31,0-.31,0c.01-1.09-.4-2.12-1.16-2.9-.76-.78-1.78-1.21-2.87-1.23-.02,0-.03,0-.05,0Z"/>
        </g>
      </g>
    </g>
    <g>
      <g>
        <g>
          <path class="cls-2" d="M50.79,22.5c1.48,5.17,3.55,9.42,7.79,9.42,1.25,0,2-.43,2-.43,0,0-1.06,1.16-3.16,1.16-4.26,0-7.09-4.77-9.4-10.15h-1.25c2.25,4.85,4.88,9.35,8.43,10.38-3.95-.53-7.04-5.3-9.72-10.38h-4.53c-1.69,0-3.3.36-4.76,1.01,4.96,6.29,13.11,16.16,19.11,16.16,3.21,0,5.29-2.12,5.29-2.12,0,0-1.88,3.53-6.01,3.53-6.31,0-16.83-9.47-22.36-14.69-.49.54-.93,1.13-1.31,1.75,5.72,4.87,16.98,14.07,23.38,13.74.32-.02.63-.06.93-.11-.45.17-.95.29-1.5.36-6.22.76-17.71-7.24-23.87-11.77-.44,1.23-.68,2.55-.68,3.93v5.11c7.16,3.99,17.68,9.32,23,9.32,6.24,0,8.42-5.37,8.42-5.37,0,0-.79,7.37-9.53,7.37-7.38,0-15.49-2.96-21.9-5.47v2.52c6.57,2.1,14.92,4.55,22.33,4.07,1.46-.1,2.69-.38,3.72-.8-1.1.67-2.49,1.2-4.27,1.47-7.04,1.09-15.18-.45-21.78-1.92v5.61h21.89c6.48,0,11.79-5.3,11.79-11.79v-21.89h-12.05Z"/>
          <path class="cls-2" d="M71.39,35.77l.33-.48c.24-.33.5-.35.87-.14.35.24,1.11.78,2.17.78.99,0,1.6-.5,1.6-1.22,0-2.03-4.98-1.61-4.98-4.94,0-1.88,1.56-3.1,3.6-3.1,1.26,0,2.3.48,2.75.81.33.24.38.53.2.86l-.27.5c-.23.44-.54.38-.86.21-.44-.26-1.02-.59-1.85-.59-.99,0-1.63.48-1.63,1.2,0,2,4.98,1.49,4.98,4.89,0,1.73-1.29,3.16-3.54,3.16-1.52,0-2.75-.68-3.28-1.08-.24-.21-.39-.47-.09-.87"/>
          <path class="cls-2" d="M83.37,29.69c1.23,0,2.06.45,2.51.77.32.21.33.53.12.86l-.2.3c-.23.35-.48.35-.84.17-.32-.21-.83-.47-1.49-.47-1.41,0-2.33,1.07-2.33,2.38s.92,2.41,2.39,2.41c.75,0,1.35-.33,1.72-.59.38-.21.66-.17.86.2l.15.29c.18.33.14.63-.17.84-.47.35-1.4.89-2.72.89-2.54,0-4.17-1.79-4.17-4.02s1.63-4.02,4.17-4.02"/>
          <path class="cls-2" d="M91.11,36.1c1.25,0,2.29-.96,2.29-2.39s-1.04-2.39-2.29-2.39-2.27.98-2.27,2.39,1.02,2.39,2.27,2.39M91.11,29.69c2.33,0,4.23,1.67,4.23,4.02s-1.9,4.02-4.23,4.02-4.21-1.66-4.21-4.02,1.88-4.02,4.21-4.02"/>
          <path class="cls-2" d="M96.8,31.49h-.41c-.41,0-.62-.21-.62-.63v-.26c0-.41.21-.63.63-.63h.44v-1.56c0-.41.23-.63.63-.63h.6c.41,0,.63.23.63.63v1.56h1.11c.41,0,.63.23.63.63v.26c0,.42-.23.63-.62.63h-1.13v2.98c0,1.14.71,1.37,1.23,1.43.47.05.63.2.63.62v.47c0,.45-.26.63-.78.63-1.37,0-3-.74-3-2.81v-3.31Z"/>
          <path class="cls-2" d="M102.37,31.49h-.41c-.41,0-.62-.21-.62-.63v-.26c0-.41.21-.63.63-.63h.44v-1.56c0-.41.23-.63.63-.63h.6c.41,0,.63.23.63.63v1.56h1.11c.41,0,.63.23.63.63v.26c0,.42-.23.63-.62.63h-1.13v2.98c0,1.14.71,1.37,1.23,1.43.47.05.63.2.63.62v.47c0,.45-.26.63-.78.63-1.37,0-3-.74-3-2.81v-3.31Z"/>
          <path class="cls-2" d="M107.33,30.5c0-.41.21-.63.62-.63h.66c.41,0,.62.23.62.63v6.41c0,.42-.21.63-.62.63h-.66c-.41,0-.62-.21-.62-.63v-6.41ZM107.33,27.94v-.45c0-.41.21-.63.62-.63h.66c.41,0,.63.23.63.63v.45c0,.41-.23.62-.63.62h-.66c-.41,0-.62-.21-.62-.62"/>
          <path class="cls-2" d="M110.46,36.08l.18-.27c.23-.32.48-.35.86-.15.36.2.93.53,1.71.53.66,0,1.07-.3,1.07-.78,0-1.25-3.81-.78-3.81-3.42,0-1.51,1.32-2.3,2.93-2.3,1.02,0,1.73.33,2.14.56.35.18.39.5.23.84l-.15.27c-.18.36-.47.41-.84.24-.33-.15-.83-.38-1.46-.38s-1.04.27-1.04.75c0,1.26,3.81.77,3.81,3.39,0,1.35-1.14,2.36-2.92,2.36-1.23,0-2.09-.47-2.56-.78-.35-.2-.38-.53-.15-.86"/>
          <path class="cls-2" d="M117.25,27.49c0-.41.23-.63.63-.63h.65c.42,0,.63.23.63.63v3.1c0,.38-.05.65-.05.65h.03c.38-.74,1.34-1.55,2.66-1.55,1.7,0,2.68.89,2.68,2.92v4.3c0,.42-.23.63-.63.63h-.65c-.42,0-.63-.21-.63-.63v-3.91c0-.93-.24-1.57-1.2-1.57-1.34,0-2.21,1.08-2.21,2.54v2.93c0,.42-.21.63-.63.63h-.65c-.41,0-.63-.21-.63-.63v-9.42Z"/>
          <path class="cls-2" d="M132.5,35.95c1.22,0,1.94-.66,1.94-1.96v-1.16h-1.81c-1.19,0-1.96.53-1.96,1.57,0,.86.72,1.55,1.82,1.55M130.51,31.86v-.03s-1.35-.53-1.35-2.33c0-1.9,1.52-2.81,3.37-2.81h.63c.41,0,.63.23.63.63v.38c0,.41-.23.62-.63.62h-.5c-.98,0-1.55.65-1.55,1.43,0,.62.35,1.41,1.63,1.41h1.7v-.77c0-.41.23-.62.63-.62h.65c.41,0,.63.17.63.51v.87h.75c.41,0,.63.23.63.63v.42c0,.41-.23.63-.63.63h-.75v1.26c0,2.18-1.43,3.63-3.85,3.63s-3.81-1.4-3.81-3.21c0-1.16.69-2.27,1.82-2.66"/>
          <path class="cls-2" d="M141.54,35.77l.33-.48c.24-.33.5-.35.87-.14.35.24,1.11.78,2.17.78.99,0,1.6-.5,1.6-1.22,0-2.03-4.98-1.61-4.98-4.94,0-1.88,1.57-3.1,3.6-3.1,1.26,0,2.3.48,2.75.81.33.24.38.53.2.86l-.27.5c-.23.44-.54.38-.86.21-.44-.26-1.02-.59-1.85-.59-.99,0-1.63.48-1.63,1.2,0,2,4.98,1.49,4.98,4.89,0,1.73-1.29,3.16-3.54,3.16-1.52,0-2.75-.68-3.28-1.08-.24-.21-.39-.47-.09-.87"/>
          <path class="cls-2" d="M153.52,36.1c1.25,0,2.29-.96,2.29-2.39s-1.04-2.39-2.29-2.39-2.27.98-2.27,2.39,1.02,2.39,2.27,2.39M153.52,29.69c2.33,0,4.23,1.67,4.23,4.02s-1.9,4.02-4.23,4.02-4.21-1.66-4.21-4.02,1.88-4.02,4.21-4.02"/>
          <path class="cls-2" d="M158.73,30.5c0-.41.23-.63.63-.63h.65c.42,0,.63.23.63.63v3.91c0,.93.24,1.57,1.19,1.57,1.38,0,2.15-1.22,2.15-2.59v-2.89c0-.41.21-.63.63-.63h.65c.41,0,.63.23.63.63v6.41c0,.42-.23.63-.63.63h-.59c-.41,0-.62-.21-.62-.63v-.45c0-.18.03-.35.03-.35h-.03c-.36.78-1.35,1.61-2.66,1.61-1.64,0-2.66-.83-2.66-2.92v-4.3Z"/>
          <path class="cls-2" d="M167.9,31.49h-.41c-.41,0-.62-.21-.62-.63v-.26c0-.41.21-.63.63-.63h.44v-1.56c0-.41.23-.63.63-.63h.6c.41,0,.63.23.63.63v1.56h1.11c.41,0,.63.23.63.63v.26c0,.42-.23.63-.62.63h-1.13v2.98c0,1.14.71,1.37,1.23,1.43.47.05.63.2.63.62v.47c0,.45-.26.63-.78.63-1.37,0-3-.74-3-2.81v-3.31Z"/>
          <path class="cls-2" d="M172.71,27.49c0-.41.23-.63.63-.63h.65c.42,0,.63.23.63.63v3.1c0,.38-.05.65-.05.65h.03c.38-.74,1.34-1.55,2.66-1.55,1.7,0,2.68.89,2.68,2.92v4.3c0,.42-.23.63-.63.63h-.65c-.42,0-.63-.21-.63-.63v-3.91c0-.93-.24-1.57-1.2-1.57-1.34,0-2.21,1.08-2.21,2.54v2.93c0,.42-.21.63-.63.63h-.65c-.41,0-.63-.21-.63-.63v-9.42Z"/>
          <path class="cls-2" d="M186.33,32.83c-.03-1.07-.68-1.7-1.55-1.7-.98,0-1.67.68-1.85,1.7h3.4ZM184.83,29.69c2.18,0,3.4,1.55,3.4,3.66,0,.33-.29.65-.66.65h-4.68c.12,1.39,1.14,2.11,2.3,2.11.71,0,1.29-.27,1.66-.5.38-.18.65-.14.84.21l.18.3c.18.35.12.65-.21.84-.5.32-1.4.77-2.6.77-2.54,0-4.12-1.84-4.12-4.02,0-2.36,1.59-4.02,3.9-4.02"/>
          <path class="cls-2" d="M189.27,30.5c0-.41.21-.63.62-.63h.59c.41,0,.63.23.63.63v.72c0,.29-.05.53-.05.53h.03c.3-.92,1.14-1.94,2.23-1.94.42,0,.57.21.57.63v.59c0,.41-.24.63-.65.63-1.4,0-2.08,1.38-2.08,2.78v2.47c0,.42-.21.63-.62.63h-.66c-.41,0-.62-.21-.62-.63v-6.41Z"/>
          <path class="cls-2" d="M194.84,30.5c0-.41.21-.63.62-.63h.59c.41,0,.62.23.62.63v.47c0,.16-.03.35-.03.35h.03c.33-.65,1.17-1.63,2.72-1.63,1.7,0,2.68.89,2.68,2.92v4.3c0,.42-.21.63-.63.63h-.65c-.41,0-.63-.21-.63-.63v-3.91c0-.93-.24-1.57-1.2-1.57-1.35,0-2.21,1.13-2.21,2.51v2.96c0,.42-.21.63-.62.63h-.66c-.41,0-.62-.21-.62-.63v-6.41Z"/>
          <path class="cls-2" d="M71.39,41.62c0-.24.12-.38.36-.38h5.22c.24,0,.38.14.38.38v.18c0,.24-.14.38-.38.38h-4.55v3.85h3.64c.24,0,.38.12.38.36v.2c0,.24-.14.38-.38.38h-3.64v3.93h4.82c.24,0,.38.14.38.38v.18c0,.24-.14.38-.38.38h-5.49c-.24,0-.36-.13-.36-.38v-9.83Z"/>
          <path class="cls-2" d="M78.93,41.62c0-.24.12-.38.36-.38h.29c.24,0,.38.14.38.38v8.23c0,.95.45,1.05.78,1.1.18.02.32.1.32.33v.23c0,.23-.1.38-.39.38-.62,0-1.73-.2-1.73-1.85v-8.41Z"/>
          <path class="cls-2" d="M87.77,47.3c-.06-1.6-1.02-2.38-2.15-2.38-1.26,0-2.36.84-2.6,2.38h4.76ZM85.65,44.08c2.02,0,3.16,1.46,3.16,3.61,0,.21-.16.38-.39.38h-5.45c.05,1.93,1.37,3.03,2.93,3.03.95,0,1.64-.42,1.99-.69.21-.14.38-.11.5.09l.12.18c.1.18.08.36-.11.5-.41.3-1.31.84-2.53.84-2.26,0-3.96-1.63-3.96-3.96,0-2.48,1.68-3.97,3.73-3.97"/>
          <path class="cls-2" d="M93.92,44.08c1.29,0,2.14.56,2.51.86.18.13.2.32.05.51l-.1.17c-.14.21-.3.21-.51.08-.33-.26-.99-.69-1.91-.69-1.66,0-2.95,1.25-2.95,3.05s1.29,3.04,2.96,3.04c1.05,0,1.78-.5,2.14-.8.2-.15.36-.12.5.09l.11.15c.12.2.08.36-.09.51-.39.32-1.29.96-2.69.96-2.26,0-3.97-1.61-3.97-3.96s1.73-3.97,3.97-3.97"/>
          <path class="cls-2" d="M98.68,45.18h-.63c-.24,0-.36-.12-.36-.36v-.12c0-.24.12-.38.36-.38h.65v-1.78c0-.24.13-.38.38-.38h.27c.24,0,.36.14.36.38v1.78h1.53c.24,0,.38.14.38.38v.12c0,.24-.14.36-.38.36h-1.53v3.79c0,1.75,1.07,1.96,1.66,1.99.3.03.41.12.41.38v.2c0,.24-.12.36-.42.36-1.66,0-2.66-1.01-2.66-2.78v-3.93Z"/>
          <path class="cls-2" d="M103.33,44.63c0-.24.14-.38.38-.38h.27c.23,0,.36.14.36.38v1.02c0,.33-.06.6-.06.6h.03c.36-1.1,1.23-2.05,2.44-2.05.27,0,.39.12.39.36v.27c0,.24-.16.38-.42.38-1.6,0-2.36,1.82-2.36,3.4v2.83c0,.24-.12.38-.36.38h-.29c-.24,0-.38-.13-.38-.38v-6.82Z"/>
          <path class="cls-2" d="M108.34,44.63c0-.24.14-.38.38-.38h.29c.24,0,.36.14.36.38v6.82c0,.24-.12.38-.36.38h-.29c-.24,0-.38-.14-.38-.38v-6.82ZM108.31,42.17v-.54c0-.24.12-.38.36-.38h.38c.24,0,.36.13.36.38v.54c0,.24-.12.36-.36.36h-.38c-.24,0-.36-.12-.36-.36"/>
          <path class="cls-2" d="M114.65,44.08c1.29,0,2.14.56,2.51.86.18.13.2.32.05.51l-.11.17c-.13.21-.3.21-.51.08-.33-.26-.99-.69-1.91-.69-1.66,0-2.95,1.25-2.95,3.05s1.29,3.04,2.96,3.04c1.05,0,1.78-.5,2.14-.8.2-.15.36-.12.5.09l.1.15c.12.2.08.36-.09.51-.39.32-1.29.96-2.69.96-2.26,0-3.97-1.61-3.97-3.96s1.73-3.97,3.97-3.97"/>
          <path class="cls-2" d="M118.92,44.63c0-.24.14-.38.38-.38h.29c.24,0,.36.14.36.38v6.82c0,.24-.12.38-.36.38h-.29c-.24,0-.38-.14-.38-.38v-6.82ZM118.89,42.17v-.54c0-.24.12-.38.36-.38h.38c.24,0,.36.13.36.38v.54c0,.24-.12.36-.36.36h-.38c-.24,0-.36-.12-.36-.36"/>
          <path class="cls-2" d="M122.16,45.18h-.63c-.24,0-.36-.12-.36-.36v-.12c0-.24.12-.38.36-.38h.65v-1.78c0-.24.13-.38.38-.38h.27c.24,0,.36.14.36.38v1.78h1.53c.24,0,.38.14.38.38v.12c0,.24-.14.36-.38.36h-1.53v3.79c0,1.75,1.07,1.96,1.66,1.99.3.03.41.12.41.38v.2c0,.24-.12.36-.42.36-1.66,0-2.66-1.01-2.66-2.78v-3.93Z"/>
          <path class="cls-2" d="M126.57,53.89c.17.08.39.2.66.2.68,0,1.13-.59,1.42-1.25l.45-1.07-2.98-7.07c-.1-.26.01-.44.29-.44h.35c.23,0,.35.09.42.29l2.12,5.24c.14.38.27.8.27.8h.03s.1-.42.26-.8l2.08-5.22c.08-.21.2-.3.42-.3h.33c.27,0,.39.17.3.44l-3.57,8.67c-.39.98-1.17,1.63-2.18,1.63-.44,0-.8-.15-1.04-.27-.2-.09-.26-.3-.17-.48l.09-.17c.1-.2.27-.24.45-.18"/>
          <path class="cls-2" d="M138.26,41.62c0-.24.12-.38.36-.38h.36c.2,0,.33.08.45.24l5.24,7.37c.36.53.87,1.43.87,1.43h.03s-.09-.87-.09-1.43v-7.24c0-.24.13-.38.38-.38h.3c.24,0,.36.14.36.38v9.83c0,.24-.12.38-.36.38h-.36c-.2,0-.33-.08-.44-.24l-5.25-7.37c-.36-.53-.87-1.43-.87-1.43h-.03s.09.87.09,1.43v7.24c0,.24-.13.38-.36.38h-.32c-.24,0-.36-.13-.36-.38v-9.83Z"/>
          <path class="cls-2" d="M153.68,47.3c-.06-1.6-1.02-2.38-2.15-2.38-1.26,0-2.36.84-2.6,2.38h4.76ZM151.55,44.08c2.02,0,3.16,1.46,3.16,3.61,0,.21-.17.38-.39.38h-5.45c.04,1.93,1.37,3.03,2.93,3.03.95,0,1.64-.42,1.99-.69.21-.14.38-.11.5.09l.12.18c.1.18.08.36-.11.5-.41.3-1.31.84-2.53.84-2.26,0-3.96-1.63-3.96-3.96,0-2.48,1.68-3.97,3.73-3.97"/>
          <path class="cls-2" d="M156.41,45.18h-.63c-.24,0-.36-.12-.36-.36v-.12c0-.24.12-.38.36-.38h.65v-1.78c0-.24.13-.38.38-.38h.27c.24,0,.36.14.36.38v1.78h1.53c.24,0,.38.14.38.38v.12c0,.24-.14.36-.38.36h-1.53v3.79c0,1.75,1.07,1.96,1.66,1.99.3.03.41.12.41.38v.2c0,.24-.12.36-.42.36-1.66,0-2.66-1.01-2.66-2.78v-3.93Z"/>
          <path class="cls-2" d="M160.33,44.68c-.08-.26.05-.42.32-.42h.32c.21,0,.36.09.42.32l1.73,5.33c.12.36.23.81.23.81h.03s.12-.45.24-.81l1.76-5.31c.06-.21.21-.3.42-.3h.36c.21,0,.36.09.42.3l1.76,5.31c.12.36.24.81.24.81h.03s.09-.44.23-.81l1.73-5.33c.06-.23.21-.32.42-.32h.32c.27,0,.38.17.3.42l-2.32,6.83c-.06.23-.21.32-.42.32h-.47c-.23,0-.36-.09-.42-.32l-1.76-5.07c-.12-.38-.23-.81-.23-.81h-.03s-.11.44-.24.81l-1.75,5.07c-.06.23-.2.32-.42.32h-.47c-.23,0-.36-.09-.44-.32l-2.32-6.83Z"/>
          <path class="cls-2" d="M175.91,51.09c1.61,0,2.93-1.32,2.93-3.09s-1.32-3.01-2.93-3.01-2.95,1.29-2.95,3.01,1.32,3.09,2.95,3.09M175.89,44.08c2.21,0,4,1.68,4,3.93s-1.79,4-3.99,4-4-1.72-4-4,1.79-3.93,3.99-3.93"/>
          <path class="cls-2" d="M181.07,44.63c0-.24.14-.38.38-.38h.27c.23,0,.36.14.36.38v1.02c0,.33-.06.6-.06.6h.03c.36-1.1,1.23-2.05,2.44-2.05.27,0,.39.12.39.36v.27c0,.24-.17.38-.42.38-1.6,0-2.36,1.82-2.36,3.4v2.83c0,.24-.12.38-.36.38h-.29c-.24,0-.38-.13-.38-.38v-6.82Z"/>
          <path class="cls-2" d="M186.09,41.62c0-.24.12-.38.36-.38h.29c.24,0,.38.14.38.38v5.52h1.22l2.09-2.66c.12-.15.26-.23.45-.23h.38c.3,0,.41.21.21.45l-2.29,2.84v.03l2.62,3.79c.17.26.06.45-.26.45h-.39c-.21,0-.33-.08-.44-.26l-2.36-3.52h-1.23v3.4c0,.24-.14.38-.38.38h-.29c-.24,0-.36-.13-.36-.38v-9.83Z"/>
          <path class="cls-2" d="M192.57,50.62l.12-.15c.14-.18.3-.2.51-.06.33.26,1.02.69,2,.69.84,0,1.54-.42,1.54-1.22,0-1.7-4.05-1.19-4.05-3.69,0-1.4,1.19-2.12,2.57-2.12,1.08,0,1.76.39,2.08.62.2.12.23.3.1.5l-.1.17c-.12.21-.3.23-.51.11-.29-.2-.83-.48-1.63-.48s-1.49.35-1.49,1.17c0,1.75,4.03,1.19,4.03,3.72,0,1.25-1.05,2.14-2.56,2.14-1.32,0-2.18-.56-2.56-.87-.18-.14-.2-.32-.06-.51"/>
        </g>
        <g>
          <path class="cls-2" d="M320.62,49.33c1.18-.97,1.71-2.43,2.11-3.85,1.38-5.16,1.81-10.51,2.27-15.8.08-2.29.63-4.66-.07-6.9-.61-1.49-2.49-1.44-3.81-1.2-1.86.38-4.04,1.1-4.9,2.95-.54,3.06-.32,6.19-.31,9.29-1.8.21-3.34,1.3-5.1,1.64.43-2.4.75-4.81,1.07-7.23.3-1.43.8-3.68-1.25-4.01-1.76-.07-3.49.72-4.87,1.76-1.09.86-1.99,2.12-1.84,3.57-.51,4.52-1.07,9.04-1.31,13.59,0,1.71-.55,3.71.65,5.14,1.24.95,3,.63,4.36.1,1.5-.46,2.61-1.73,2.95-3.25l.61-2.67c1.31-1.08,2.86-1.8,4.25-2.75-.12,2.92-.62,5.82-.61,8.75-.09,1.3.21,3.16,1.83,3.23,1.75.29,3-1.15,3.97-2.37Z"/>
          <path class="cls-2" d="M345.24,49.36c1.7.76,3.7,1.34,5.54.74,1.4-.55,2.75-1.36,3.8-2.45,1.14-1.25,2.24-3.19,1.34-4.86-.57-1.22-2.24-1.33-2.8-.05-.96,1.36-3.17,1.21-4.06-.14-.9-1.69-.5-3.74.05-5.48.71-2.04,1.77-4.04,3.38-5.51.69-.71,2.74-1.81,2.89-.15h0s-.03.16-.03.16c-.37,1.14.54,2.36,1.76,2.23,1.75-.03,3.66-.95,4.4-2.6.66-1.71,1.02-3.68.37-5.44-.76-2.16-3.16-3.14-5.3-3.17-3.36-.07-6.63,1.52-8.97,3.88-4.16,4.58-6.62,10.99-5.6,17.2.29,2.19,1.19,4.52,3.22,5.65Z"/>
          <path class="cls-2" d="M324.07,55.09c1.71.33,3.63-.17,4.91-1.36,1.04-.89.82-2.6,2.01-3.33,1.46-.51,2.59-1.59,3.77-2.53.56.15.57,1.86.62,2.64-.33,1.79,1.6,2.49,3.06,2.22,1.23-.1,2.99-.59,3.08-2.08-.25-1.07-.8-2.06-1.07-3.13-1.58-5-1.16-10.35-.21-15.42.5-1.24-.75-2.24-1.86-2.44h0c.32-.67.13-1.49-.54-1.85-1.78-.93-3.87-.4-5.7.13-1.68.58-3.59,1.23-4.55,2.83-.29,3.93-.7,7.86-1.43,11.74-.68,3.29-1.4,6.72-3.34,9.53-1.12.99-.04,2.84,1.25,3.07ZM333.02,38.82c.29-.65.58-1.29.87-1.94.23,2.35.37,4.7.62,7.05.37,1.34-1.78.86-2.64,1.31.39-2.14.88-4.26,1.14-6.42Z"/>
          <path class="cls-2" d="M354.93,51.14c-.26,1.1-.57,2.75.6,3.41,1.59.71,3.5.57,5.08-.08.82-.81,1.26-1.95,1.78-2.98.63-.86.71-2.62,1.81-2.8,2.52,1.36,4.29,3.69,6.52,5.43.98,1.12,3.61.97,3.76-.75-.71-2.7-1.25-5.57-3.01-7.82-.49-.96-2.17-1.66-2.56-2.02,3.34-.53,6.45-2.27,8.7-4.79,1.04-.95,1.53-2.42,1.24-3.8-.16-1.18-1.54-1.65-2.59-1.7-2.83.9-4.97,3.15-7.62,4.44-.3-.25,1.08-2.02,1.49-2.83,1.13-1.65,1.96-3.49,3.15-5.09.91-1.25-.07-2.85-1.53-2.98-1.65-.25-3.54-.43-5.03.47-.51,1.14-2.24.58-2.57,1.92-.31.55-.6,1.11-.86,1.68-2.46,5.51-3.45,11.6-6.43,16.89-.55,1.19-1.53,2.14-1.94,3.39Z"/>
          <path class="cls-2" d="M389.03,48.15c.51-.15.8-.68.66-1.19l-2.31-8.09c1.2-.63,2.34-1.49,3.35-2.56,0,0,.01-.02.02-.02,1.43-1.62,2.78-4.24,2.56-6.43-.12-1.17-.67-2.15-1.6-2.84-.09-.07-.19-.12-.3-.15-2.69-.79-5.25.42-7.51,1.48-.2.09-.4.19-.6.28-.43.2-.65.68-.52,1.13l2.29,8.01c-.56.18-1.13.29-1.69.33-.53.04-.93.49-.89,1.02.04.53.49.93,1.02.89.69-.05,1.39-.18,2.09-.4l2.25,7.87c.12.42.5.69.92.69.09,0,.18-.01.26-.04ZM384.85,30.02c1.94-.92,3.95-1.83,5.84-1.36.41.36.65.82.71,1.39.16,1.53-.92,3.64-2.07,4.95-.76.8-1.6,1.47-2.48,1.98l-1.99-6.96Z"/>
          <path class="cls-2" d="M392.53,43.29c.2,1.75,1.33,3.13,3.04,3.7,1.84.62,3.87.14,5.16-1.22,2.19-2.05,3.12-4.92,3.3-7.75.06-.03.12-.06.18-.09.54-.36,1.1-.74,1.65-1.17-.82,4.03-1.47,9.47-1.57,10.29-.06.52.31.99.83,1.06.04,0,.08,0,.12,0,.47,0,.88-.35.95-.82.12-.81.22-1.63.33-2.45.54-4.1,1.09-8.34,2.75-12.11.24-.23.39-.28.42-.29.58.17,1.35,2.97,1.3,4.75,0,.03,0,.06,0,.09.17,2.39.16,4.99-.05,7.94-.03.5.32.94.82,1.01.5.07.96-.26,1.07-.75.12-.57.24-1.14.36-1.71.77-3.76,1.57-7.64,3.65-10.8.3-.23.49-.33.6-.38.2.51.21,2.26-.36,4.14l-.02.06c-.71,2.37-2.04,6.79.42,9.58.35.4.96.43,1.35.08.4-.35.43-.96.08-1.35-1.75-1.98-.67-5.6-.02-7.76l.02-.06c.23-.78.5-2.04.56-3.26.07-1.6-.26-2.62-.99-3.11-.8-.53-1.8-.31-2.97.66-.07.06-.13.13-.18.2-1.08,1.61-1.85,3.35-2.44,5.15-.04-1.36-.49-5.46-2.48-6.28-.61-.25-1.56-.31-2.65.85-.07.08-.13.17-.18.26-.11.25-.22.49-.32.74-.12.07-.22.18-.29.3-.73,1.17-1.85,2.11-2.96,2.9-.06-.87-.19-1.71-.36-2.5-.19-2.19-2.44-3.75-4.37-3.79-.78-.02-1.49.21-2.03.67-.01.01-.03.03-.04.04-2.01,1.28-3.49,3.32-4.28,5.91-.68,2.22-.82,4.78-.41,7.22ZM398.42,31.65s.05-.05.08-.07c.18-.15.44-.22.75-.21,1.07.02,2.43.95,2.5,2.08,0,.05.01.1.02.15.2.88.33,1.84.37,2.82-.79-.03-1.63-.33-2.36-.87-1.09-.8-1.71-1.96-1.66-3.1.04-.36.14-.62.31-.8ZM396.3,33.57c.28,1.35,1.1,2.61,2.35,3.52,1.05.77,2.27,1.19,3.45,1.23-.21,2.26-1,4.48-2.69,6.06-.02.01-.03.03-.05.04-.77.82-2.05,1.12-3.17.74-.48-.16-1.6-.69-1.75-2.12,0-.02,0-.04,0-.06-.53-3.1-.08-6.85,1.87-9.42Z"/>
          <path class="cls-2" d="M450.14,52.71s.06-.01.09-.02c3.82-1.25,5.91-8.26,6.39-21.41.02-.52-.39-.97-.91-.99-.53-.02-.97.38-1,.9-.02.3-.03.62-.05.97-.22,4.17-.58,11.15-4.23,13.75-.83.5-1.63.57-2.32.22-.95-.48-1.6-1.7-1.73-3.27-.24-2.77-.14-4.94.41-7.65.26-.87.48-1.77.65-2.71.09-.51-.23-.99-.73-1.11-.5-.11-1,.19-1.14.69-.23.86-.42,1.66-.59,2.42-1.11,3.71-3.26,7.75-5.58,9.18-.81.5-1.57.64-2.28.43-.88-.28-1.52-.86-1.9-1.73-.18-.41-.3-.88-.35-1.38,1.6-.07,3.2-.48,4.85-1.22,1.87-.84,3.33-3.08,3.32-5.1,0-1.46-.76-2.64-2.09-3.22-3.95-1.76-6.32,3.25-7.21,5.13-.36.76-.6,1.58-.73,2.42-.45-.06-.9-.15-1.35-.28.58-1.75.7-3.67-.03-5.54-.89-2.27-3.34-3.02-5.16-2.44-.06,0-.13.01-.19.03-2.39.64-3.83,2.47-4.72,4.92-.39,1-.66,2.06-.81,3.08-.5,2.71-.65,5.78-.78,8.69-.16,3.52-.32,6.85-1.13,8.36-.25.47-.08,1.05.39,1.3.14.08.3.11.45.11.34,0,.67-.18.84-.5,1.02-1.89,1.17-5.27,1.36-9.18.05-1.01.1-2.06.16-3.12.23.17.48.31.76.42,1.99.79,4.53-.12,5.92-1.37.01-.01.03-.03.04-.04.78-.8,1.54-1.8,2.14-2.93.08.02.17.04.25.07.6.16,1.19.28,1.79.35.06.79.24,1.55.53,2.22.61,1.38,1.67,2.35,3.1,2.8,1.27.37,2.56.16,3.85-.64,1.25-.77,2.67-2.35,3.94-4.48.01.7.06,1.43.12,2.19.19,2.23,1.23,4.03,2.78,4.81,1.3.66,2.8.55,4.21-.31.02-.01.04-.02.05-.03.43-.3.82-.64,1.17-1.02-1,3.05-2.15,4.08-2.99,4.38-2.18.46-5.16-.66-6.53-2.47-.3-.39-.84-.5-1.26-.24-1.75,1.06-4.36,1.31-6.64.64-1.41-.41-2.48-1.14-2.88-1.94-.16-.34-.51-.54-.88-.54-.37,0-.71.23-.86.58-.71,1.64-2.74,2.29-6.22,1.98-.52-.04-.99.34-1.04.87-.05.53.34.99.87,1.04,1.4.12,5.28.47,7.34-1.84.76.73,1.83,1.31,3.13,1.69,2.52.74,5.3.56,7.45-.45,1.96,2.01,5.36,3.14,7.99,2.55ZM435.45,37.41c1.41-2.98,2.65-4.38,3.91-4.38.26,0,.52.06.79.18.64.28.95.77.95,1.48,0,1.28-1,2.82-2.19,3.35-1.36.61-2.68.96-3.99,1.04.1-.57.28-1.14.53-1.66ZM427.38,42.09c-1.07.96-2.85,1.41-3.9.99-.6-.24-.92-.75-.98-1.56-.04-.58-.04-1.13,0-1.66.26-1.64.65-3.15,1.23-4.37.15-.27.31-.53.48-.76.04.18.08.36.14.55,1.04,3.24,2.74,4.18,4.62,4.74-.47.79-1.02,1.49-1.58,2.08ZM429.79,38.25c-1.75-.48-2.8-1.04-3.61-3.57-.34-1.04-.05-1.79.79-2.09.23-.08.48-.12.73-.12.85,0,1.74.46,2.12,1.42.57,1.45.45,2.96-.04,4.36Z"/>
          <path class="cls-2" d="M409.44,49.76c-2.14.85-4.35,1.73-9.47,1.47-2.71-.23-4.82-.57-6.93-1.59-.48-.23-1.05-.03-1.28.45-.23.48-.03,1.05.45,1.28,2.37,1.15,4.76,1.54,7.62,1.78h.03c.66.04,1.27.05,1.85.05,4.29,0,6.48-.87,8.44-1.65,1.85-.74,3.45-1.37,6.69-1.08.53.05.99-.34,1.04-.87.05-.53-.34-.99-.87-1.04-3.7-.33-5.58.42-7.57,1.21Z"/>
        </g>
        <g>
          <path class="cls-2" d="M223.44,37.62h.95l.97,3.29c.07.24.11.5.12.5h.02s.05-.26.12-.5l1.02-3.28h.82l1.01,3.28c.07.24.13.5.13.5h.02s.04-.26.11-.5l.98-3.29h.95l-1.51,4.69h-.99l-.97-3.01c-.07-.24-.13-.51-.13-.51h-.02s-.06.27-.13.51l-.96,3.01h-1l-1.51-4.69Z"/>
          <path class="cls-2" d="M233.71,37.51c1.4,0,2.53,1.03,2.53,2.44s-1.13,2.46-2.53,2.46-2.53-1.04-2.53-2.46,1.13-2.44,2.53-2.44ZM233.71,41.64c.89,0,1.61-.7,1.61-1.69s-.72-1.67-1.61-1.67-1.61.69-1.61,1.67.73,1.69,1.61,1.69Z"/>
          <path class="cls-2" d="M237.3,37.62h.87v.82c0,.19-.02.35-.02.35h.02c.21-.68.76-1.22,1.48-1.22.12,0,.23.02.23.02v.89s-.12-.03-.26-.03c-.57,0-1.1.41-1.32,1.1-.08.27-.11.56-.11.84v1.92h-.9v-4.69Z"/>
          <path class="cls-2" d="M240.77,35.77h.9v3.57h.66l1.28-1.72h1.02l-1.56,2.07v.02l1.73,2.6h-1.05l-1.41-2.2h-.68v2.2h-.9v-6.54Z"/>
          <path class="cls-2" d="M245.63,35.77h.91v.92h-.91v-.92ZM245.63,37.62h.9v4.69h-.9v-4.69Z"/>
          <path class="cls-2" d="M247.94,37.62h.87v.62c0,.19-.02.34-.02.34h.02c.19-.41.74-1.07,1.76-1.07,1.1,0,1.61.6,1.61,1.8v3h-.9v-2.8c0-.66-.14-1.18-.89-1.18s-1.29.47-1.48,1.15c-.06.19-.07.4-.07.63v2.2h-.9v-4.69Z"/>
          <path class="cls-2" d="M255.22,43.47c.82,0,1.48-.36,1.48-1.31v-.34c0-.15,0-.3,0-.3h-.02c-.28.46-.71.73-1.39.73-1.31,0-2.09-1.05-2.09-2.4s.75-2.34,2.05-2.34c1.13,0,1.47.69,1.47.69h.02s0-.07,0-.15v-.44h.86v4.49c0,1.55-1.18,2.14-2.36,2.14-.56,0-1.15-.16-1.6-.39l.3-.7s.58.31,1.29.31ZM256.72,39.86c0-1.22-.59-1.57-1.32-1.57-.82,0-1.28.59-1.28,1.55s.52,1.64,1.36,1.64c.65,0,1.24-.39,1.24-1.61Z"/>
          <path class="cls-2" d="M260.84,37.62h.95l.97,3.29c.07.24.11.5.12.5h.02s.05-.26.12-.5l1.02-3.28h.82l1.01,3.28c.07.24.13.5.13.5h.02s.04-.26.11-.5l.98-3.29h.95l-1.51,4.69h-.99l-.97-3.01c-.07-.24-.13-.51-.13-.51h-.02s-.06.27-.13.51l-.96,3.01h-1l-1.51-4.69Z"/>
          <path class="cls-2" d="M268.91,35.77h.91v.92h-.91v-.92ZM268.92,37.62h.9v4.69h-.9v-4.69Z"/>
          <path class="cls-2" d="M271.42,38.4h-.61v-.72h.64v-1.35h.87v1.35h1.13v.72h-1.13v2.08c0,.94.66,1.06,1,1.06.13,0,.21-.02.21-.02v.8s-.13.02-.32.02c-.6,0-1.8-.19-1.8-1.75v-2.19Z"/>
          <path class="cls-2" d="M274.53,35.77h.9v2.4c0,.22-.02.39-.02.39h.02c.2-.45.8-1.05,1.73-1.05,1.1,0,1.61.6,1.61,1.8v3h-.9v-2.8c0-.66-.14-1.18-.89-1.18-.7,0-1.29.48-1.48,1.16-.06.19-.07.4-.07.62v2.2h-.9v-6.54Z"/>
        </g>
      </g>
      <g>
        <path class="cls-3" d="M142.02,248.01h-9.29v-14.76c0-22.97,18.82-41.66,41.96-41.66h171.11c14.39,0,26.1-11.59,26.1-25.85v-21.03c0-15.21-12.49-27.58-27.85-27.58H116.15l.03-9.29h227.88c20.48,0,37.13,16.54,37.13,36.87v21.03c0,19.37-15.87,35.13-35.39,35.13h-171.11c-18.02,0-32.68,14.52-32.68,32.37v14.76Z"/>
        <g>
          <path class="cls-6" d="M237.42,86.13l-20.99,59.9h-29.48v-32.1l-11.29,32.1h-29.48v-59.9h15.77v54.02l18.94-54.02h21.83v54.02l18.94-54.02h15.77Z"/>
          <path class="cls-6" d="M277.08,146.03h-15.3l-2.89-8.02c-2.52,5.04-7.65,8.58-13.72,8.58-8.4,0-15.21-6.81-15.21-15.21s6.81-15.3,15.21-15.3c4.48,0,8.4,1.87,11.2,4.95v-8.58h-18.57v-15.3h33.87v33.96l5.41,14.93ZM248.06,131.38c0-1.68-1.31-2.99-2.89-2.99s-2.89,1.31-2.89,2.99c0,1.59,1.31,2.89,2.89,2.89s2.89-1.31,2.89-2.89Z"/>
          <path class="cls-6" d="M308.06,130.73v15.3h-26.68v-34.15h-6.16v-15.3h6.16l.09-10.45h15.21v10.54h11.38v15.3l-11.38-.09v18.85h11.38Z"/>
          <path class="cls-6" d="M344.63,130.73v15.3h-26.69v-34.15h-6.16v-15.3h6.16l.09-10.45h15.21v10.54h11.38v15.3l-11.38-.09v18.85h11.38Z"/>
          <path class="cls-6" d="M198.05,160.43l-20.99,59.9h-29.48v-32.1l-11.29,32.1h-29.48v-59.9h15.77v54.02l18.94-54.02h21.83v54.02l18.94-54.02h15.77Z"/>
          <path class="cls-6" d="M241.44,196.07c0,13.81-11.2,25-24.91,25s-25.01-11.2-25.01-25,11.2-24.91,25.01-24.91,24.91,11.2,24.91,24.91ZM226.23,196.07c0-5.32-4.39-9.7-9.7-9.7s-9.7,4.39-9.7,9.7,4.29,9.7,9.7,9.7,9.7-4.29,9.7-9.7Z"/>
          <path class="cls-6" d="M283.42,171.53v15.3l-14.37-.09-4.01,2.8v30.79h-15.3v-33.59h-5.5v-15.3h20.81v9.42l7.84-9.42,10.54.09Z"/>
          <path class="cls-6" d="M338.1,220.33h-15.3l-2.24-13.25h-14.46v13.25h-15.3v-48.42l-5.5-.09v-15.21h20.81v29.39l11.38-14.55h17.26l-17.26,21.55h16.05l4.57,27.34Z"/>
          <path class="cls-6" d="M384.01,205.12c0,8.58-8.86,15.95-22.39,15.95-12.22,0-20.34-8.77-21.65-13.25l13.44-4.76c1.77,1.77,4.48,3.92,9.42,3.92,2.61,0,5.23-.47,5.23-2.61,0-1.87-3.17-2.61-7.18-2.89-14.46-.93-20.9-5.23-20.9-14.46,0-8.49,8.86-15.86,22.39-15.86,12.22,0,20.34,8.77,21.65,13.16l-13.44,4.85c-1.87-1.87-4.57-4.01-9.42-4.01-2.71,0-5.32.56-5.32,2.71,0,1.77,3.27,2.52,7.28,2.8,14.37,1.03,20.9,5.32,20.9,14.46Z"/>
        </g>
        <rect class="cls-3" x="188.12" y="191.58" width="56.21" height="9.29"/>
        <rect class="cls-3" x="166.22" y="107.86" width="41.54" height="9.29"/>
        <circle class="cls-5" cx="114.21" cy="112.5" r="12.45"/>
        <circle class="cls-5" cx="137.5" cy="248.82" r="12.45"/>
      </g>
      <g>
        <path class="cls-2" d="M167.26,274.66v-11.15q0-2.05,2.05-2.05h6.55q1.39,0,1.39,1.35t-1.39,1.33h-5.71v3.89h5.22q1.39,0,1.39,1.3,0,1.31-1.39,1.31h-5.22v4.03q0,1.39-1.44,1.39-1.45,0-1.45-1.39Z"/>
        <path class="cls-2" d="M179,274.7v-6.13c0-2.29,1.41-3.75,3.62-3.75.75,0,1.53.1,2.13.28.55.17.91.26.91.65,0,.2-.05.41-.24,1.04-.21.75-.33,1-.67,1-.19,0-.39-.05-.64-.11-.31-.08-.79-.15-1.16-.15-.79,0-1.16.38-1.16,1.19v6q0,1.35-1.4,1.35t-1.4-1.35Z"/>
        <path class="cls-2" d="M186.75,272.01c-.06-.77-.07-2.06,0-2.77.24-2.56,2.1-4.41,4.98-4.41s4.64,1.85,4.64,4.65v.54c0,1.23-.27,1.42-1.37,1.42h-5.63v.31c.05,1.2,1.03,2.02,2.46,2.02.98,0,1.58-.19,2.17-.42.37-.15.61-.28.84-.28.27,0,.41.2.73.92.24.52.29.74.29.89,0,.23-.13.37-.72.64-.87.39-2.05.73-3.31.73-2.9,0-4.84-1.76-5.06-4.24ZM193.81,269.55c.11-1.49-.8-2.4-2.2-2.4s-2.19.95-2.24,2.33v.07h4.44Z"/>
        <path class="cls-2" d="M198.31,272.01c-.06-.77-.07-2.06,0-2.77.24-2.56,2.1-4.41,4.98-4.41s4.64,1.85,4.64,4.65v.54c0,1.23-.27,1.42-1.37,1.42h-5.63v.31c.05,1.2,1.03,2.02,2.46,2.02.98,0,1.58-.19,2.17-.42.37-.15.61-.28.84-.28.27,0,.41.2.73.92.24.52.29.74.29.89,0,.23-.13.37-.72.64-.87.39-2.05.73-3.31.73-2.9,0-4.84-1.76-5.06-4.24ZM205.36,269.55c.11-1.49-.8-2.4-2.2-2.4s-2.19.95-2.24,2.33v.07h4.44Z"/>
        <path class="cls-2" d="M215.42,274.66v-11.81q0-1.39,1.44-1.39t1.44,1.39v4.59h6.4v-4.59q0-1.39,1.44-1.39,1.44,0,1.44,1.39v11.81q0,1.39-1.44,1.39-1.44,0-1.44-1.39v-4.55h-6.4v4.55q0,1.39-1.44,1.39-1.44,0-1.44-1.39Z"/>
        <path class="cls-2" d="M229.83,272.7c0-1.74,1.34-3.35,4.18-3.35.83,0,1.6.11,2.43.33v-.79c0-1.01-.55-1.56-2.13-1.56-.69,0-1.52.24-2.1.46-.3.12-.54.17-.69.17-.28,0-.42-.19-.71-.93-.2-.48-.27-.75-.27-.94,0-.28.13-.4.82-.67.88-.35,1.9-.61,3.14-.61,2.96,0,4.62,1.31,4.62,4.18v5.11c0,.51-.13.77-.49,1.01-.68.45-2.3,1.13-4.43,1.13-2.87,0-4.36-1.62-4.36-3.55ZM234.38,274.01c.74,0,1.5-.19,2.05-.46v-2.01c-.72-.22-1.36-.32-1.92-.32-1.38,0-2.03.62-2.03,1.44s.78,1.35,1.9,1.35Z"/>
        <path class="cls-2" d="M241.45,272.03c-.07-.8-.08-2.18,0-2.98.23-2.46,2.14-4.23,4.91-4.23s4.03,1.42,4.53,2.73c.09.24.16.48.16.64,0,.37-.3.53-1.02.79-.54.2-.83.27-1,.27-.32,0-.42-.12-.55-.39-.38-.84-.99-1.34-2.08-1.34-1.28,0-2.06.81-2.17,2.01-.06.68-.06,1.36,0,2.05.1,1.18.89,1.99,2.17,1.99,1.09,0,1.7-.49,2.08-1.34.13-.27.24-.38.55-.38.16,0,.45.06,1,.27.72.26,1.02.42,1.02.79,0,.14-.07.39-.16.63-.49,1.32-1.89,2.73-4.53,2.73-2.77,0-4.67-1.75-4.91-4.22Z"/>
        <path class="cls-2" d="M260.43,275.66l-3.12-3.37c-.42-.45-.5-.46-1.06-.46h-.25v2.88q0,1.35-1.4,1.35t-1.41-1.35v-12.07q0-1.35,1.41-1.35,1.4,0,1.4,1.35v6.52h.21c.42,0,.52-.03.96-.47l3.22-3.25c.39-.41.55-.58.81-.58s.41.07,1.02.68c.62.61.71.83.71,1.04s-.08.31-.4.64l-3.23,3.18,3.13,3.29c.41.44.57.65.57.86,0,.18-.14.42-.75.99-.7.63-.83.69-1.08.69s-.44-.24-.73-.55Z"/>
        <path class="cls-2" d="M264.08,272.7c0-1.74,1.34-3.35,4.18-3.35.83,0,1.6.11,2.43.33v-.79c0-1.01-.55-1.56-2.13-1.56-.69,0-1.52.24-2.1.46-.3.12-.54.17-.69.17-.28,0-.42-.19-.71-.93-.2-.48-.27-.75-.27-.94,0-.28.13-.4.82-.67.88-.35,1.9-.61,3.14-.61,2.96,0,4.62,1.31,4.62,4.18v5.11c0,.51-.13.77-.49,1.01-.68.45-2.3,1.13-4.43,1.13-2.87,0-4.36-1.62-4.36-3.55ZM268.63,274.01c.74,0,1.5-.19,2.05-.46v-2.01c-.72-.22-1.36-.32-1.92-.32-1.38,0-2.03.62-2.03,1.44s.78,1.35,1.9,1.35Z"/>
        <path class="cls-2" d="M275.96,272.42v-8.43q0-1.35,1.4-1.35t1.4,1.35v1.03h2.52q1.28,0,1.28,1.28,0,1.28-1.28,1.28h-2.52v4.57c0,1.07.39,1.51,1.35,1.51.46,0,.95-.12,1.32-.27.3-.11.51-.19.66-.19.32,0,.43.2.76,1,.26.63.28.75.28.89,0,.27-.21.4-.68.62-.79.35-1.73.54-2.52.54-2.34,0-3.96-1.3-3.96-3.83Z"/>
        <path class="cls-2" d="M284.82,274.7v-12.07q0-1.35,1.41-1.35t1.4,1.35v3.11c.77-.51,1.73-.92,2.78-.92,2.46,0,4.06,1.62,4.06,4.14v5.74q0,1.35-1.4,1.35-1.4,0-1.4-1.35v-5.23c0-1.23-.67-1.95-1.89-1.95-.84,0-1.67.44-2.15.95v6.24q0,1.35-1.4,1.35-1.41,0-1.41-1.35Z"/>
        <path class="cls-2" d="M296.87,272c-.07-.79-.07-2.14,0-2.93.23-2.48,2.17-4.25,4.97-4.25s4.75,1.77,4.98,4.25c.07.79.07,2.14,0,2.93-.24,2.48-2.17,4.25-4.98,4.25s-4.73-1.77-4.97-4.25ZM301.84,273.55c1.27,0,2.09-.81,2.2-2.02.06-.68.06-1.33,0-2-.1-1.2-.94-2.03-2.2-2.03s-2.09.82-2.19,2.03c-.06.67-.06,1.32,0,2,.1,1.2.94,2.02,2.19,2.02Z"/>
        <path class="cls-2" d="M309.26,274.7v-7.03c0-1.16.04-1.45.73-1.84.83-.46,2.27-1.01,4.18-1.01,3.01,0,4.74,1.68,4.74,4.38v5.5q0,1.35-1.4,1.35t-1.41-1.35v-5.19c0-1.29-.69-2-1.98-2-.79,0-1.58.21-2.05.5v6.68q0,1.35-1.41,1.35-1.4,0-1.4-1.35Z"/>
      </g>
      <g>
        <path class="cls-2" d="M49.63,298.44c-.26-.17-.37-.26-.37-.4s.1-.29.34-.65c.26-.37.35-.47.49-.47.12,0,.26.1.47.25,1.06.71,2.2,1.13,3.74,1.13,2.2,0,3.28-.83,3.28-2.31,0-1.26-.95-1.87-3.42-2.37-3.39-.67-4.63-1.78-4.63-3.89,0-2.34,1.85-3.74,4.63-3.74,1.82,0,3.08.52,4,1.21.19.14.31.25.31.36s-.05.23-.31.61c-.27.39-.36.52-.5.52-.13,0-.28-.11-.48-.25-.74-.56-1.73-.92-3.01-.92-2.04,0-3.03.84-3.03,2.19,0,1.22.79,1.84,3.37,2.34,3.36.64,4.68,1.75,4.68,3.9,0,2.4-1.86,3.87-4.87,3.87-2.08,0-3.5-.56-4.67-1.38Z"/>
        <path class="cls-2" d="M60.93,296.64c0-1.63,1.26-3.07,3.78-3.07.89,0,1.65.1,2.67.4v-.89c0-1.44-.74-2.1-2.41-2.1-.84,0-1.71.28-2.24.5-.24.1-.36.14-.45.14-.15,0-.24-.1-.44-.54-.15-.34-.18-.47-.18-.56,0-.14.1-.23.39-.35.81-.36,1.91-.65,3.06-.65,2.36,0,3.76,1.12,3.76,3.55v5.07c0,.33-.07.47-.3.64-.54.39-2,1.04-3.89,1.04-2.34,0-3.76-1.29-3.76-3.17ZM64.86,298.44c.88,0,1.83-.27,2.52-.64v-2.55c-.97-.29-1.68-.41-2.48-.41-1.69,0-2.47.77-2.47,1.8,0,1.14.89,1.8,2.43,1.8Z"/>
        <path class="cls-2" d="M71.86,296.85v-8.57q0-.71.77-.71t.77.71v1.41h2.9q.69,0,.69.73,0,.72-.69.72h-2.9v5.57c0,1.09.47,1.62,1.5,1.62.61,0,1.06-.12,1.48-.3.14-.05.28-.1.39-.1.17,0,.23.12.42.57.16.41.17.45.17.54,0,.15-.14.24-.42.35-.68.29-1.37.43-2.12.43-1.81,0-2.97-1.08-2.97-2.96Z"/>
        <path class="cls-2" d="M89.38,298.91v-11.11l-3.47,1.78c-.19.11-.34.18-.49.18s-.25-.03-.48-.45c-.14-.27-.21-.41-.21-.54,0-.18.12-.27.38-.4l4.02-2.09c.38-.2.49-.26.67-.26.17,0,.29.05.61.28.51.36.53.41.53.78v11.84q0,.73-.78.73t-.79-.73Z"/>
        <path class="cls-2" d="M96.79,299.64q-.82,0-.82-.74t.91-.81c3.71,0,6.11-1.13,6.11-3.46,0-1.43-.98-2.38-2.66-2.38-1.11,0-1.91.4-2.62.77-.25.12-.37.18-.48.18s-.26-.06-.52-.23c-.33-.21-.36-.29-.36-.6v-4.9q0-1.31,1.28-1.31h5.34q.81,0,.81.75,0,.77-.81.77h-5.13v3.87c.73-.4,1.64-.74,2.79-.74,2.36,0,3.95,1.49,3.95,3.81,0,3.16-2.89,5.02-7.78,5.02Z"/>
        <path class="cls-2" d="M107.5,296.85v-8.57q0-.71.77-.71t.77.71v1.41h2.9q.69,0,.69.73,0,.72-.69.72h-2.9v5.57c0,1.09.47,1.62,1.5,1.62.61,0,1.06-.12,1.48-.3.14-.05.28-.1.39-.1.17,0,.23.12.42.57.16.41.17.45.17.54,0,.15-.14.24-.42.35-.68.29-1.37.43-2.12.43-1.81,0-2.97-1.08-2.97-2.96Z"/>
        <path class="cls-2" d="M115.02,298.93v-12.22q0-.71.77-.71t.77.71v4.1c.74-.72,1.88-1.28,3.06-1.28,2.17,0,3.67,1.32,3.67,3.78v5.63q0,.71-.77.71-.77,0-.77-.71v-5.43c0-1.55-.8-2.47-2.34-2.47-1.14,0-2.23.69-2.85,1.49v6.41q0,.71-.77.71-.77,0-.77-.71Z"/>
        <path class="cls-2" d="M131.73,298.85v-11.71q0-.98,1.29-.98.99,0,1.34.6l6.75,11.12h.06c-.08-1.93-.09-5.73-.09-8.41v-2.49q0-.82.79-.82t.8.82v11.69q0,.97-1.08.97c-1.12,0-1.11,0-1.49-.65l-6.79-11.1h-.07c.08,1.67.08,4.88.08,7.29v3.67q0,.79-.79.79-.79,0-.79-.79Z"/>
        <path class="cls-2" d="M145.68,295.95c-.08-.72-.08-1.85,0-2.57.22-2.28,1.92-3.87,4.33-3.87s4.13,1.59,4.33,3.87c.07.71.07,1.84,0,2.57-.23,2.27-1.91,3.86-4.33,3.86s-4.09-1.59-4.32-3.86ZM149.99,298.31c1.59,0,2.65-1.03,2.8-2.52.07-.71.07-1.55,0-2.25-.14-1.49-1.22-2.51-2.8-2.51s-2.64,1.02-2.79,2.51c-.07.7-.07,1.55,0,2.25.14,1.49,1.22,2.52,2.79,2.52Z"/>
        <path class="cls-2" d="M159.26,299.05l-3.14-8.32c-.08-.25-.14-.44-.14-.53,0-.17.1-.23.61-.41.32-.11.5-.16.59-.16.18,0,.25.13.35.45l2.87,8.11c.04.1.05.1.13.1q.09,0,.13-.1l2.9-8.15c.1-.3.19-.41.34-.41.1,0,.22.03.61.17.53.19.59.25.59.41,0,.08-.07.29-.15.52l-3.17,8.33q-.22.58-1.27.58t-1.25-.59Z"/>
        <path class="cls-2" d="M166.77,295.98c-.07-.71-.08-1.83,0-2.53.22-2.3,1.88-3.91,4.29-3.91,2.55,0,4.07,1.68,4.07,4.07v.65c0,.89-.15,1.04-.99,1.04h-5.9c0,.2,0,.39.03.58.12,1.49,1.22,2.49,2.89,2.49.89,0,1.62-.18,2.31-.48.29-.12.43-.19.56-.19.15,0,.24.11.4.51.15.34.18.46.18.55,0,.13-.08.22-.39.35-.96.42-1.94.69-3.06.69-2.48,0-4.14-1.56-4.37-3.83ZM173.64,294.06c.16-2.01-.95-3.11-2.62-3.11-1.59,0-2.64,1.05-2.77,2.61,0,.16-.02.33-.03.5h5.42Z"/>
        <path class="cls-2" d="M177.69,298.93v-7.51c0-.53.07-.7.39-.9.64-.46,2.04-1,3.33-1,1.42,0,2.25.46,2.87,1.1.68-.49,1.69-1.1,3.14-1.1,2.49,0,3.56,1.41,3.56,3.57v5.83q0,.71-.77.71t-.77-.71v-5.66c0-1.45-.68-2.23-2.17-2.23-1,0-1.78.44-2.3.87.1.4.13.8.13,1.33v5.71q0,.71-.77.71-.77,0-.77-.71v-5.68c0-1.53-.68-2.22-2.21-2.22-.67,0-1.64.36-2.12.66v7.24q0,.71-.77.71-.77,0-.77-.71Z"/>
        <path class="cls-2" d="M194.39,298.79c-.23-.15-.32-.32-.32-.68v-11.41q0-.71.77-.71t.77.71v3.4c.67-.33,1.65-.59,2.64-.59,2.38,0,3.95,1.54,4.15,3.78.08.76.08,1.97,0,2.74-.2,2.23-1.78,3.77-4.24,3.77-1.63,0-3.15-.62-3.77-1.03ZM198.14,298.31c1.65,0,2.61-.98,2.74-2.44.08-.72.08-1.66,0-2.4-.13-1.46-1.08-2.43-2.74-2.43-.86,0-1.99.28-2.53.66v5.96c.54.39,1.66.66,2.53.66Z"/>
        <path class="cls-2" d="M204.85,295.98c-.07-.71-.08-1.83,0-2.53.22-2.3,1.88-3.91,4.29-3.91,2.55,0,4.07,1.68,4.07,4.07v.65c0,.89-.15,1.04-.99,1.04h-5.9c0,.2,0,.39.03.58.12,1.49,1.22,2.49,2.89,2.49.89,0,1.62-.18,2.31-.48.29-.12.43-.19.56-.19.15,0,.24.11.4.51.15.34.18.46.18.55,0,.13-.08.22-.39.35-.96.42-1.94.69-3.06.69-2.48,0-4.14-1.56-4.37-3.83ZM211.72,294.06c.16-2.01-.95-3.11-2.62-3.11-1.59,0-2.64,1.05-2.77,2.61,0,.16-.02.33-.03.5h5.42Z"/>
        <path class="cls-2" d="M215.77,298.93v-6.32c0-1.94,1.15-3.09,3.1-3.09.7,0,1.28.09,1.68.21.29.09.56.15.56.36,0,.11-.02.2-.13.61-.13.46-.2.58-.39.58-.12,0-.28-.05-.44-.1-.35-.1-.75-.15-1.21-.15-1.09,0-1.63.53-1.63,1.62v6.28q0,.71-.77.71t-.77-.71Z"/>
        <path class="cls-2" d="M227.86,298.89q0-.78.79-.78c2.8,0,5.66-.23,6.06-4.35-.84.54-2.03.89-3.19.9-2.74,0-4.41-1.75-4.41-4.27s1.75-4.4,4.55-4.4c3.3,0,4.69,2.47,4.69,6.35,0,5.35-2.42,7.28-7.63,7.28q-.85,0-.85-.73ZM231.65,293.22c1.23,0,2.17-.32,3.11-.89,0-3.19-.9-4.83-3.14-4.83-1.91,0-2.95,1.09-2.95,2.89s1.13,2.83,2.98,2.83Z"/>
        <path class="cls-2" d="M238.45,296.64c0-1.63,1.26-3.07,3.78-3.07.89,0,1.65.1,2.67.4v-.89c0-1.44-.74-2.1-2.41-2.1-.84,0-1.71.28-2.24.5-.24.1-.36.14-.45.14-.15,0-.24-.1-.44-.54-.15-.34-.18-.47-.18-.56,0-.14.1-.23.39-.35.81-.36,1.91-.65,3.06-.65,2.36,0,3.76,1.12,3.76,3.55v5.07c0,.33-.07.47-.3.64-.54.39-2,1.04-3.89,1.04-2.34,0-3.76-1.29-3.76-3.17ZM242.39,298.44c.88,0,1.83-.27,2.52-.64v-2.55c-.97-.29-1.68-.41-2.48-.41-1.69,0-2.47.77-2.47,1.8,0,1.14.89,1.8,2.43,1.8Z"/>
        <path class="cls-2" d="M249.39,298.93v-7.51c0-.53.07-.7.39-.9.64-.46,2.04-1,3.33-1,1.42,0,2.25.46,2.87,1.1.67-.49,1.69-1.1,3.14-1.1,2.49,0,3.56,1.41,3.56,3.57v5.83q0,.71-.77.71t-.77-.71v-5.66c0-1.45-.68-2.23-2.17-2.23-1,0-1.78.44-2.3.87.1.4.13.8.13,1.33v5.71q0,.71-.77.71-.77,0-.77-.71v-5.68c0-1.53-.68-2.22-2.21-2.22-.67,0-1.64.36-2.12.66v7.24q0,.71-.77.71-.77,0-.77-.71Z"/>
        <path class="cls-2" d="M265.7,294.58q0-.72.76-.72h6.86q.75,0,.75.72t-.75.71h-6.86c-.74,0-.76,0-.76-.71Z"/>
        <path class="cls-2" d="M278,299.64q-.82,0-.82-.74t.91-.81c3.71,0,6.11-1.13,6.11-3.46,0-1.43-.98-2.38-2.66-2.38-1.11,0-1.91.4-2.62.77-.25.12-.37.18-.48.18s-.26-.06-.52-.23c-.33-.21-.36-.29-.36-.6v-4.9q0-1.31,1.28-1.31h5.34q.81,0,.81.75,0,.77-.81.77h-5.13v3.87c.73-.4,1.64-.74,2.79-.74,2.36,0,3.95,1.49,3.95,3.81,0,3.16-2.89,5.02-7.78,5.02Z"/>
        <path class="cls-2" d="M288.71,302.26v-10.84c0-.53.07-.71.39-.9.6-.37,2.07-1,3.71-1,2.46,0,4.03,1.54,4.25,3.78.08.76.08,1.98,0,2.74-.23,2.23-1.79,3.77-4.16,3.77-.99,0-1.98-.26-2.64-.59v3.03q0,.71-.77.71t-.77-.71ZM292.78,298.31c1.65,0,2.6-.98,2.74-2.44.08-.74.08-1.68,0-2.4-.13-1.46-1.08-2.43-2.74-2.43-.87,0-1.99.28-2.53.66v5.96c.54.39,1.66.66,2.53.66Z"/>
        <path class="cls-2" d="M299.84,298.93v-7.51c0-.53.07-.7.39-.9.64-.46,2.04-1,3.33-1,1.42,0,2.25.46,2.87,1.1.68-.49,1.69-1.1,3.14-1.1,2.49,0,3.56,1.41,3.56,3.57v5.83q0,.71-.77.71t-.77-.71v-5.66c0-1.45-.68-2.23-2.17-2.23-1,0-1.78.44-2.3.87.1.4.13.8.13,1.33v5.71q0,.71-.77.71-.77,0-.77-.71v-5.68c0-1.53-.68-2.22-2.21-2.22-.67,0-1.64.36-2.12.66v7.24q0,.71-.77.71-.77,0-.77-.71Z"/>
        <path class="cls-2" d="M321.3,294.38c0-1.31,1.08-2.39,2.4-2.39s2.4,1.08,2.4,2.39-1.08,2.4-2.4,2.4-2.4-1.08-2.4-2.4Z"/>
        <path class="cls-2" d="M334.68,298.92v-11.45q0-1.31,1.31-1.31h3.92c2.66,0,4.33,1.67,4.33,4.24s-1.64,4.23-4.36,4.23h-3.6v4.28q0,.73-.79.73t-.8-.72ZM339.82,293.12c1.9,0,2.82-1.1,2.82-2.72s-.93-2.72-2.81-2.72h-3.56v5.44h3.55Z"/>
        <path class="cls-2" d="M346.08,295.95c-.08-.72-.08-1.85,0-2.57.22-2.28,1.92-3.87,4.33-3.87s4.13,1.59,4.33,3.87c.07.71.07,1.84,0,2.57-.23,2.27-1.91,3.86-4.33,3.86s-4.09-1.59-4.32-3.86ZM350.4,298.31c1.59,0,2.65-1.03,2.8-2.52.07-.71.07-1.55,0-2.25-.14-1.49-1.22-2.51-2.8-2.51s-2.64,1.02-2.79,2.51c-.07.7-.07,1.55,0,2.25.14,1.49,1.22,2.52,2.79,2.52Z"/>
        <path class="cls-2" d="M357.49,298.93v-6.32c0-1.94,1.15-3.09,3.1-3.09.7,0,1.28.09,1.68.21.29.09.56.15.56.36,0,.11-.02.2-.13.61-.13.46-.2.58-.39.58-.12,0-.28-.05-.44-.1-.35-.1-.75-.15-1.21-.15-1.09,0-1.63.53-1.63,1.62v6.28q0,.71-.77.71t-.77-.71Z"/>
        <path class="cls-2" d="M364.79,296.85v-8.57q0-.71.77-.71t.77.71v1.41h2.9q.69,0,.69.73,0,.72-.69.72h-2.9v5.57c0,1.09.47,1.62,1.5,1.62.61,0,1.06-.12,1.48-.3.14-.05.28-.1.39-.1.17,0,.23.12.42.57.16.41.17.45.17.54,0,.15-.14.24-.42.35-.68.29-1.37.43-2.12.43-1.81,0-2.97-1.08-2.97-2.96Z"/>
        <path class="cls-2" d="M371.95,298.73c-.21-.16-.35-.28-.35-.41,0-.11.06-.2.31-.53.26-.34.36-.46.48-.46s.25.11.41.22c.61.46,1.35.82,2.64.82,1.37,0,2.03-.64,2.03-1.53,0-.69-.42-1.13-1.5-1.38l-1.48-.36c-1.6-.37-2.57-1.23-2.57-2.65,0-1.8,1.44-2.93,3.48-2.93,1.32,0,2.29.45,2.92.91.21.15.31.28.31.38,0,.15-.08.27-.3.58-.25.32-.38.46-.52.46-.12,0-.23-.11-.43-.23-.44-.33-1.12-.65-1.94-.65-1.29,0-2.01.51-2.01,1.44,0,.6.35,1.04,1.49,1.31l1.41.32c1.83.43,2.67,1.36,2.67,2.74,0,1.86-1.42,3.03-3.56,3.03-1.43,0-2.59-.37-3.49-1.08Z"/>
        <path class="cls-2" d="M381.52,298.93v-7.51c0-.53.07-.7.39-.9.64-.46,2.04-1,3.33-1,1.42,0,2.25.46,2.87,1.1.68-.49,1.69-1.1,3.14-1.1,2.49,0,3.56,1.41,3.56,3.57v5.83q0,.71-.77.71t-.77-.71v-5.66c0-1.45-.68-2.23-2.17-2.23-1,0-1.78.44-2.3.87.1.4.13.8.13,1.33v5.71q0,.71-.77.71-.77,0-.77-.71v-5.68c0-1.53-.68-2.22-2.21-2.22-.67,0-1.64.36-2.12.66v7.24q0,.71-.77.71-.77,0-.77-.71Z"/>
        <path class="cls-2" d="M397.54,295.95c-.08-.72-.08-1.85,0-2.57.22-2.28,1.92-3.87,4.33-3.87s4.13,1.59,4.33,3.87c.07.71.07,1.84,0,2.57-.23,2.27-1.91,3.86-4.33,3.86s-4.09-1.59-4.32-3.86ZM401.86,298.31c1.59,0,2.65-1.03,2.8-2.52.07-.71.07-1.55,0-2.25-.14-1.49-1.22-2.51-2.8-2.51s-2.64,1.02-2.79,2.51c-.07.7-.07,1.55,0,2.25.14,1.49,1.22,2.52,2.79,2.52Z"/>
        <path class="cls-2" d="M408.92,295.84v-5.44q0-.71.77-.71t.77.71v5.31c0,1.71.85,2.59,2.55,2.59,1,0,1.99-.29,2.57-.66v-7.24q0-.71.77-.71.77,0,.77.71v7.51c0,.53-.07.71-.38.9-.67.41-2.04,1-3.74,1-2.59,0-4.08-1.47-4.08-3.97Z"/>
        <path class="cls-2" d="M420.21,296.85v-8.57q0-.71.77-.71t.77.71v1.41h2.9q.69,0,.69.73,0,.72-.69.72h-2.9v5.57c0,1.09.47,1.62,1.5,1.62.61,0,1.06-.12,1.48-.3.14-.05.28-.1.39-.1.17,0,.23.12.42.57.16.41.17.45.17.54,0,.15-.14.24-.42.35-.68.29-1.37.43-2.12.43-1.81,0-2.97-1.08-2.97-2.96Z"/>
        <path class="cls-2" d="M427.74,298.93v-12.22q0-.71.77-.71t.77.71v4.1c.74-.72,1.88-1.28,3.06-1.28,2.17,0,3.67,1.32,3.67,3.78v5.63q0,.71-.77.71-.77,0-.77-.71v-5.43c0-1.55-.8-2.47-2.34-2.47-1.14,0-2.23.69-2.85,1.49v6.41q0,.71-.77.71-.77,0-.77-.71Z"/>
      </g>
    </g>
    <g>
      <path class="cls-4" d="M483.01,107.17c-.09,0-.19-.05-.24-.13-2.21-3.51-6.65-5.93-11.86-6.49-.12-.01-.22-.1-.25-.21-2.1-8.48-10.21-14.41-19.73-14.41-7.76,0-14.93,4.14-18.27,10.54-.04.08-.12.13-.21.15-.09.01-.18-.01-.24-.07-2.5-2.38-5.81-3.7-9.3-3.7-5.97,0-11.25,3.91-12.83,9.52-.04.15-.2.24-.35.2-.15-.04-.24-.2-.2-.35,1.66-5.85,7.16-9.93,13.38-9.93,3.52,0,6.85,1.28,9.42,3.6,3.51-6.41,10.77-10.52,18.6-10.52,4.74,0,9.38,1.5,13.06,4.23,3.58,2.65,6.12,6.34,7.17,10.42,5.3.61,9.81,3.12,12.09,6.73.08.13.04.31-.09.39-.05.03-.1.04-.15.04Z"/>
      <path class="cls-4" d="M483.02,107.17h-94.2c-.16,0-.28-.13-.28-.28s.13-.28.28-.28h94.2c.16,0,.28.13.28.28s-.13.28-.28.28Z"/>
    </g>
    <g>
      <path class="cls-4" d="M505.41,146.89c-.08,0-.15-.04-.19-.11-1.79-2.83-5.36-4.79-9.57-5.23-.1-.01-.18-.08-.2-.17-1.69-6.84-8.24-11.62-15.92-11.62-6.26,0-12.04,3.34-14.74,8.51-.03.06-.09.11-.17.12-.07.01-.14-.01-.2-.06-2.02-1.92-4.68-2.98-7.5-2.98-4.81,0-9.07,3.16-10.35,7.68-.03.12-.16.19-.28.16-.12-.03-.19-.16-.16-.28,1.34-4.72,5.77-8.01,10.79-8.01,2.84,0,5.52,1.03,7.6,2.9,2.83-5.17,8.69-8.49,15-8.49,3.83,0,7.57,1.21,10.54,3.41,2.88,2.14,4.93,5.12,5.79,8.41,4.28.49,7.91,2.52,9.75,5.43.07.11.04.25-.07.32-.04.02-.08.04-.12.04Z"/>
      <path class="cls-4" d="M505.42,146.88h-75.99c-.13,0-.23-.1-.23-.23s.1-.23.23-.23h75.99c.13,0,.23.1.23.23s-.1.23-.23.23Z"/>
    </g>
    <g>
      <path class="cls-4" d="M82.54,153.97c-.07,0-.14-.03-.17-.1-1.61-2.55-4.84-4.32-8.64-4.72-.09,0-.16-.07-.18-.16-1.53-6.18-7.43-10.49-14.36-10.49-5.65,0-10.87,3.01-13.3,7.68-.03.06-.09.1-.15.11-.06.01-.13,0-.18-.05-1.82-1.74-4.23-2.69-6.77-2.69-4.34,0-8.19,2.85-9.34,6.93-.03.11-.15.17-.25.14-.11-.03-.17-.15-.14-.25,1.21-4.26,5.21-7.23,9.74-7.23,2.56,0,4.98.93,6.86,2.62,2.56-4.66,7.84-7.66,13.54-7.66,3.45,0,6.83,1.09,9.51,3.08,2.6,1.93,4.45,4.62,5.22,7.59,3.86.45,7.14,2.27,8.8,4.9.06.1.03.22-.06.28-.03.02-.07.03-.11.03Z"/>
      <path class="cls-4" d="M82.55,153.96H13.98c-.11,0-.21-.09-.21-.21s.09-.21.21-.21h68.57c.11,0,.21.09.21.21s-.09.21-.21.21Z"/>
    </g>
  </g>
</svg>