<?xml version="1.0" encoding="UTF-8"?>
<svg id="Layer_1" data-name="Layer 1" xmlns="http://www.w3.org/2000/svg" viewBox="0 0 1280 320">
  <defs>
    <style>
      .cls-1 {
        fill: #fbb800;
      }

      .cls-2, .cls-3, .cls-4, .cls-5 {
        stroke: #000;
        stroke-linecap: round;
        stroke-linejoin: round;
      }

      .cls-2, .cls-5 {
        stroke-width: .44px;
      }

      .cls-6 {
        fill: #003e66;
      }

      .cls-3 {
        stroke-width: .28px;
      }

      .cls-7, .cls-5 {
        fill: #fff;
      }

      .cls-4 {
        stroke-width: .5px;
      }

      .cls-8 {
        opacity: .25;
      }

      .cls-9 {
        fill: #71d9ca;
      }

      .cls-10 {
        fill: #2140c1;
      }
    </style>
  </defs>
  <rect class="cls-1" x="0" y=".15" width="1280" height="320"/>
  <g>
    <g>
      <path class="cls-6" d="M445.49,21.66c1.48,5.17,3.55,9.42,7.79,9.42,1.25,0,2-.43,2-.43,0,0-1.06,1.16-3.16,1.16-4.26,0-7.09-4.77-9.4-10.15h-1.25c2.25,4.85,4.88,9.35,8.43,10.38-3.95-.53-7.04-5.3-9.72-10.38h-4.53c-1.69,0-3.3.36-4.76,1.01,4.96,6.29,13.11,16.16,19.11,16.16,3.21,0,5.29-2.12,5.29-2.12,0,0-1.88,3.53-6.01,3.53-6.31,0-16.83-9.47-22.36-14.69-.49.54-.93,1.13-1.31,1.75,5.72,4.87,16.98,14.07,23.38,13.74.32-.02.63-.06.93-.11-.45.17-.95.29-1.5.36-6.22.76-17.71-7.24-23.87-11.77-.44,1.23-.68,2.55-.68,3.93v5.11c7.16,3.99,17.68,9.32,23,9.32,6.24,0,8.42-5.37,8.42-5.37,0,0-.79,7.37-9.53,7.37-7.38,0-15.49-2.96-21.9-5.47v2.52c6.57,2.1,14.92,4.55,22.33,4.07,1.46-.1,2.69-.38,3.72-.8-1.1.67-2.49,1.2-4.27,1.47-7.04,1.09-15.18-.45-21.78-1.92v5.61h21.89c6.48,0,11.79-5.3,11.79-11.79v-21.89h-12.05Z"/>
      <path class="cls-6" d="M466.09,34.92l.33-.48c.24-.33.5-.35.87-.14.35.24,1.11.78,2.17.78.99,0,1.6-.5,1.6-1.22,0-2.03-4.98-1.61-4.98-4.94,0-1.88,1.56-3.1,3.6-3.1,1.26,0,2.3.48,2.75.81.33.24.38.53.2.86l-.27.5c-.23.44-.54.38-.86.21-.44-.26-1.02-.59-1.85-.59-.99,0-1.63.48-1.63,1.2,0,2,4.98,1.49,4.98,4.89,0,1.73-1.29,3.16-3.54,3.16-1.52,0-2.75-.68-3.28-1.08-.24-.21-.39-.47-.09-.87"/>
      <path class="cls-6" d="M478.07,28.84c1.23,0,2.06.45,2.51.77.32.21.33.53.12.86l-.2.3c-.23.35-.48.35-.84.17-.32-.21-.83-.47-1.49-.47-1.41,0-2.33,1.07-2.33,2.38s.92,2.41,2.39,2.41c.75,0,1.35-.33,1.72-.59.38-.21.66-.17.86.2l.15.29c.18.33.14.63-.17.84-.47.35-1.4.89-2.72.89-2.54,0-4.17-1.79-4.17-4.02s1.63-4.02,4.17-4.02"/>
      <path class="cls-6" d="M485.8,35.25c1.25,0,2.29-.96,2.29-2.39s-1.04-2.39-2.29-2.39-2.27.98-2.27,2.39,1.02,2.39,2.27,2.39M485.8,28.84c2.33,0,4.23,1.67,4.23,4.02s-1.9,4.02-4.23,4.02-4.21-1.66-4.21-4.02,1.88-4.02,4.21-4.02"/>
      <path class="cls-6" d="M491.49,30.65h-.41c-.41,0-.62-.21-.62-.63v-.26c0-.41.21-.63.63-.63h.44v-1.56c0-.41.23-.63.63-.63h.6c.41,0,.63.23.63.63v1.56h1.11c.41,0,.63.23.63.63v.26c0,.42-.23.63-.62.63h-1.13v2.98c0,1.14.71,1.37,1.23,1.43.47.05.63.2.63.62v.47c0,.45-.26.63-.78.63-1.37,0-3-.74-3-2.81v-3.31Z"/>
      <path class="cls-6" d="M497.06,30.65h-.41c-.41,0-.62-.21-.62-.63v-.26c0-.41.21-.63.63-.63h.44v-1.56c0-.41.23-.63.63-.63h.6c.41,0,.63.23.63.63v1.56h1.11c.41,0,.63.23.63.63v.26c0,.42-.23.63-.62.63h-1.13v2.98c0,1.14.71,1.37,1.23,1.43.47.05.63.2.63.62v.47c0,.45-.26.63-.78.63-1.37,0-3-.74-3-2.81v-3.31Z"/>
      <path class="cls-6" d="M502.03,29.66c0-.41.21-.63.62-.63h.66c.41,0,.62.23.62.63v6.41c0,.42-.21.63-.62.63h-.66c-.41,0-.62-.21-.62-.63v-6.41ZM502.03,27.1v-.45c0-.41.21-.63.62-.63h.66c.41,0,.63.23.63.63v.45c0,.41-.23.62-.63.62h-.66c-.41,0-.62-.21-.62-.62"/>
      <path class="cls-6" d="M505.16,35.24l.18-.27c.23-.32.48-.35.86-.15.36.2.93.53,1.71.53.66,0,1.07-.3,1.07-.78,0-1.25-3.81-.78-3.81-3.42,0-1.51,1.32-2.3,2.93-2.3,1.02,0,1.73.33,2.14.56.35.18.39.5.23.84l-.15.27c-.18.36-.47.41-.84.24-.33-.15-.83-.38-1.46-.38s-1.04.27-1.04.75c0,1.26,3.81.77,3.81,3.39,0,1.35-1.14,2.36-2.92,2.36-1.23,0-2.09-.47-2.56-.78-.35-.2-.38-.53-.15-.86"/>
      <path class="cls-6" d="M511.95,26.65c0-.41.23-.63.63-.63h.65c.42,0,.63.23.63.63v3.1c0,.38-.05.65-.05.65h.03c.38-.74,1.34-1.55,2.66-1.55,1.7,0,2.68.89,2.68,2.92v4.3c0,.42-.23.63-.63.63h-.65c-.42,0-.63-.21-.63-.63v-3.91c0-.93-.24-1.57-1.2-1.57-1.34,0-2.21,1.08-2.21,2.54v2.93c0,.42-.21.63-.63.63h-.65c-.41,0-.63-.21-.63-.63v-9.42Z"/>
      <path class="cls-6" d="M527.19,35.1c1.22,0,1.94-.66,1.94-1.96v-1.16h-1.81c-1.19,0-1.96.53-1.96,1.57,0,.86.72,1.55,1.82,1.55M525.21,31.01v-.03s-1.35-.53-1.35-2.33c0-1.9,1.52-2.81,3.37-2.81h.63c.41,0,.63.23.63.63v.38c0,.41-.23.62-.63.62h-.5c-.98,0-1.55.65-1.55,1.43,0,.62.35,1.41,1.63,1.41h1.7v-.77c0-.41.23-.62.63-.62h.65c.41,0,.63.17.63.51v.87h.75c.41,0,.63.23.63.63v.42c0,.41-.23.63-.63.63h-.75v1.26c0,2.18-1.43,3.63-3.85,3.63s-3.81-1.4-3.81-3.21c0-1.16.69-2.27,1.82-2.66"/>
      <path class="cls-6" d="M536.24,34.92l.33-.48c.24-.33.5-.35.87-.14.35.24,1.11.78,2.17.78.99,0,1.6-.5,1.6-1.22,0-2.03-4.98-1.61-4.98-4.94,0-1.88,1.57-3.1,3.6-3.1,1.26,0,2.3.48,2.75.81.33.24.38.53.2.86l-.27.5c-.23.44-.54.38-.86.21-.44-.26-1.02-.59-1.85-.59-.99,0-1.63.48-1.63,1.2,0,2,4.98,1.49,4.98,4.89,0,1.73-1.29,3.16-3.54,3.16-1.52,0-2.75-.68-3.28-1.08-.24-.21-.39-.47-.09-.87"/>
      <path class="cls-6" d="M548.22,35.25c1.25,0,2.29-.96,2.29-2.39s-1.04-2.39-2.29-2.39-2.27.98-2.27,2.39,1.02,2.39,2.27,2.39M548.22,28.84c2.33,0,4.23,1.67,4.23,4.02s-1.9,4.02-4.23,4.02-4.21-1.66-4.21-4.02,1.88-4.02,4.21-4.02"/>
      <path class="cls-6" d="M553.43,29.66c0-.41.23-.63.63-.63h.65c.42,0,.63.23.63.63v3.91c0,.93.24,1.57,1.19,1.57,1.38,0,2.15-1.22,2.15-2.59v-2.89c0-.41.21-.63.63-.63h.65c.41,0,.63.23.63.63v6.41c0,.42-.23.63-.63.63h-.59c-.41,0-.62-.21-.62-.63v-.45c0-.18.03-.35.03-.35h-.03c-.36.78-1.35,1.61-2.66,1.61-1.64,0-2.66-.83-2.66-2.92v-4.3Z"/>
      <path class="cls-6" d="M562.59,30.65h-.41c-.41,0-.62-.21-.62-.63v-.26c0-.41.21-.63.63-.63h.44v-1.56c0-.41.23-.63.63-.63h.6c.41,0,.63.23.63.63v1.56h1.11c.41,0,.63.23.63.63v.26c0,.42-.23.63-.62.63h-1.13v2.98c0,1.14.71,1.37,1.23,1.43.47.05.63.2.63.62v.47c0,.45-.26.63-.78.63-1.37,0-3-.74-3-2.81v-3.31Z"/>
      <path class="cls-6" d="M567.41,26.65c0-.41.23-.63.63-.63h.65c.42,0,.63.23.63.63v3.1c0,.38-.05.65-.05.65h.03c.38-.74,1.34-1.55,2.66-1.55,1.7,0,2.68.89,2.68,2.92v4.3c0,.42-.23.63-.63.63h-.65c-.42,0-.63-.21-.63-.63v-3.91c0-.93-.24-1.57-1.2-1.57-1.34,0-2.21,1.08-2.21,2.54v2.93c0,.42-.21.63-.63.63h-.65c-.41,0-.63-.21-.63-.63v-9.42Z"/>
      <path class="cls-6" d="M581.03,31.99c-.03-1.07-.68-1.7-1.55-1.7-.98,0-1.67.68-1.85,1.7h3.4ZM579.53,28.84c2.18,0,3.4,1.55,3.4,3.66,0,.33-.29.65-.66.65h-4.68c.12,1.39,1.14,2.11,2.3,2.11.71,0,1.29-.27,1.66-.5.38-.18.65-.14.84.21l.18.3c.18.35.12.65-.21.84-.5.32-1.4.77-2.6.77-2.54,0-4.12-1.84-4.12-4.02,0-2.36,1.59-4.02,3.9-4.02"/>
      <path class="cls-6" d="M583.97,29.66c0-.41.21-.63.62-.63h.59c.41,0,.63.23.63.63v.72c0,.29-.05.53-.05.53h.03c.3-.92,1.14-1.94,2.23-1.94.42,0,.57.21.57.63v.59c0,.41-.24.63-.65.63-1.4,0-2.08,1.38-2.08,2.78v2.47c0,.42-.21.63-.62.63h-.66c-.41,0-.62-.21-.62-.63v-6.41Z"/>
      <path class="cls-6" d="M589.53,29.66c0-.41.21-.63.62-.63h.59c.41,0,.62.23.62.63v.47c0,.16-.03.35-.03.35h.03c.33-.65,1.17-1.63,2.72-1.63,1.7,0,2.68.89,2.68,2.92v4.3c0,.42-.21.63-.63.63h-.65c-.41,0-.63-.21-.63-.63v-3.91c0-.93-.24-1.57-1.2-1.57-1.35,0-2.21,1.13-2.21,2.51v2.96c0,.42-.21.63-.62.63h-.66c-.41,0-.62-.21-.62-.63v-6.41Z"/>
      <path class="cls-6" d="M466.09,40.78c0-.24.12-.38.36-.38h5.22c.24,0,.38.14.38.38v.18c0,.24-.14.38-.38.38h-4.55v3.85h3.64c.24,0,.38.12.38.36v.2c0,.24-.14.38-.38.38h-3.64v3.93h4.82c.24,0,.38.14.38.38v.18c0,.24-.14.38-.38.38h-5.49c-.24,0-.36-.13-.36-.38v-9.83Z"/>
      <path class="cls-6" d="M473.63,40.78c0-.24.12-.38.36-.38h.29c.24,0,.38.14.38.38v8.23c0,.95.45,1.05.78,1.1.18.02.32.1.32.33v.23c0,.23-.1.38-.39.38-.62,0-1.73-.2-1.73-1.85v-8.41Z"/>
      <path class="cls-6" d="M482.46,46.45c-.06-1.6-1.02-2.38-2.15-2.38-1.26,0-2.36.84-2.6,2.38h4.76ZM480.34,43.23c2.02,0,3.16,1.46,3.16,3.61,0,.21-.16.38-.39.38h-5.45c.05,1.93,1.37,3.03,2.93,3.03.95,0,1.64-.42,1.99-.69.21-.14.38-.11.5.09l.12.18c.1.18.08.36-.11.5-.41.3-1.31.84-2.53.84-2.26,0-3.96-1.63-3.96-3.96,0-2.48,1.68-3.97,3.73-3.97"/>
      <path class="cls-6" d="M488.62,43.23c1.29,0,2.14.56,2.51.86.18.13.2.32.05.51l-.1.17c-.14.21-.3.21-.51.08-.33-.26-.99-.69-1.91-.69-1.66,0-2.95,1.25-2.95,3.05s1.29,3.04,2.96,3.04c1.05,0,1.78-.5,2.14-.8.2-.15.36-.12.5.09l.11.15c.12.2.08.36-.09.51-.39.32-1.29.96-2.69.96-2.26,0-3.97-1.61-3.97-3.96s1.73-3.97,3.97-3.97"/>
      <path class="cls-6" d="M493.38,44.33h-.63c-.24,0-.36-.12-.36-.36v-.12c0-.24.12-.38.36-.38h.65v-1.78c0-.24.13-.38.38-.38h.27c.24,0,.36.14.36.38v1.78h1.53c.24,0,.38.14.38.38v.12c0,.24-.14.36-.38.36h-1.53v3.79c0,1.75,1.07,1.96,1.66,1.99.3.03.41.12.41.38v.2c0,.24-.12.36-.42.36-1.66,0-2.66-1.01-2.66-2.78v-3.93Z"/>
      <path class="cls-6" d="M498.03,43.79c0-.24.14-.38.38-.38h.27c.23,0,.36.14.36.38v1.02c0,.33-.06.6-.06.6h.03c.36-1.1,1.23-2.05,2.44-2.05.27,0,.39.12.39.36v.27c0,.24-.16.38-.42.38-1.6,0-2.36,1.82-2.36,3.4v2.83c0,.24-.12.38-.36.38h-.29c-.24,0-.38-.13-.38-.38v-6.82Z"/>
      <path class="cls-6" d="M503.04,43.79c0-.24.14-.38.38-.38h.29c.24,0,.36.14.36.38v6.82c0,.24-.12.38-.36.38h-.29c-.24,0-.38-.14-.38-.38v-6.82ZM503.01,41.32v-.54c0-.24.12-.38.36-.38h.38c.24,0,.36.13.36.38v.54c0,.24-.12.36-.36.36h-.38c-.24,0-.36-.12-.36-.36"/>
      <path class="cls-6" d="M509.34,43.23c1.29,0,2.14.56,2.51.86.18.13.2.32.05.51l-.11.17c-.13.21-.3.21-.51.08-.33-.26-.99-.69-1.91-.69-1.66,0-2.95,1.25-2.95,3.05s1.29,3.04,2.96,3.04c1.05,0,1.78-.5,2.14-.8.2-.15.36-.12.5.09l.1.15c.12.2.08.36-.09.51-.39.32-1.29.96-2.69.96-2.26,0-3.97-1.61-3.97-3.96s1.73-3.97,3.97-3.97"/>
      <path class="cls-6" d="M513.62,43.79c0-.24.14-.38.38-.38h.29c.24,0,.36.14.36.38v6.82c0,.24-.12.38-.36.38h-.29c-.24,0-.38-.14-.38-.38v-6.82ZM513.59,41.32v-.54c0-.24.12-.38.36-.38h.38c.24,0,.36.13.36.38v.54c0,.24-.12.36-.36.36h-.38c-.24,0-.36-.12-.36-.36"/>
      <path class="cls-6" d="M516.85,44.33h-.63c-.24,0-.36-.12-.36-.36v-.12c0-.24.12-.38.36-.38h.65v-1.78c0-.24.13-.38.38-.38h.27c.24,0,.36.14.36.38v1.78h1.53c.24,0,.38.14.38.38v.12c0,.24-.14.36-.38.36h-1.53v3.79c0,1.75,1.07,1.96,1.66,1.99.3.03.41.12.41.38v.2c0,.24-.12.36-.42.36-1.66,0-2.66-1.01-2.66-2.78v-3.93Z"/>
      <path class="cls-6" d="M521.26,53.04c.17.08.39.2.66.2.68,0,1.13-.59,1.42-1.25l.45-1.07-2.98-7.07c-.1-.26.01-.44.29-.44h.35c.23,0,.35.09.42.29l2.12,5.24c.14.38.27.8.27.8h.03s.1-.42.26-.8l2.08-5.22c.08-.21.2-.3.42-.3h.33c.27,0,.39.17.3.44l-3.57,8.67c-.39.98-1.17,1.63-2.18,1.63-.44,0-.8-.15-1.04-.27-.2-.09-.26-.3-.17-.48l.09-.17c.1-.2.27-.24.45-.18"/>
      <path class="cls-6" d="M532.96,40.78c0-.24.12-.38.36-.38h.36c.2,0,.33.08.45.24l5.24,7.37c.36.53.87,1.43.87,1.43h.03s-.09-.87-.09-1.43v-7.24c0-.24.13-.38.38-.38h.3c.24,0,.36.14.36.38v9.83c0,.24-.12.38-.36.38h-.36c-.2,0-.33-.08-.44-.24l-5.25-7.37c-.36-.53-.87-1.43-.87-1.43h-.03s.09.87.09,1.43v7.24c0,.24-.13.38-.36.38h-.32c-.24,0-.36-.13-.36-.38v-9.83Z"/>
      <path class="cls-6" d="M548.37,46.45c-.06-1.6-1.02-2.38-2.15-2.38-1.26,0-2.36.84-2.6,2.38h4.76ZM546.25,43.23c2.02,0,3.16,1.46,3.16,3.61,0,.21-.17.38-.39.38h-5.45c.04,1.93,1.37,3.03,2.93,3.03.95,0,1.64-.42,1.99-.69.21-.14.38-.11.5.09l.12.18c.1.18.08.36-.11.5-.41.3-1.31.84-2.53.84-2.26,0-3.96-1.63-3.96-3.96,0-2.48,1.68-3.97,3.73-3.97"/>
      <path class="cls-6" d="M551.11,44.33h-.63c-.24,0-.36-.12-.36-.36v-.12c0-.24.12-.38.36-.38h.65v-1.78c0-.24.13-.38.38-.38h.27c.24,0,.36.14.36.38v1.78h1.53c.24,0,.38.14.38.38v.12c0,.24-.14.36-.38.36h-1.53v3.79c0,1.75,1.07,1.96,1.66,1.99.3.03.41.12.41.38v.2c0,.24-.12.36-.42.36-1.66,0-2.66-1.01-2.66-2.78v-3.93Z"/>
      <path class="cls-6" d="M555.02,43.83c-.08-.26.05-.42.32-.42h.32c.21,0,.36.09.42.32l1.73,5.33c.12.36.23.81.23.81h.03s.12-.45.24-.81l1.76-5.31c.06-.21.21-.3.42-.3h.36c.21,0,.36.09.42.3l1.76,5.31c.12.36.24.81.24.81h.03s.09-.44.23-.81l1.73-5.33c.06-.23.21-.32.42-.32h.32c.27,0,.38.17.3.42l-2.32,6.83c-.06.23-.21.32-.42.32h-.47c-.23,0-.36-.09-.42-.32l-1.76-5.07c-.12-.38-.23-.81-.23-.81h-.03s-.11.44-.24.81l-1.75,5.07c-.06.23-.2.32-.42.32h-.47c-.23,0-.36-.09-.44-.32l-2.32-6.83Z"/>
      <path class="cls-6" d="M570.6,50.24c1.61,0,2.93-1.32,2.93-3.09s-1.32-3.01-2.93-3.01-2.95,1.29-2.95,3.01,1.32,3.09,2.95,3.09M570.59,43.23c2.21,0,4,1.68,4,3.93s-1.79,4-3.99,4-4-1.72-4-4,1.79-3.93,3.99-3.93"/>
      <path class="cls-6" d="M575.76,43.79c0-.24.14-.38.38-.38h.27c.23,0,.36.14.36.38v1.02c0,.33-.06.6-.06.6h.03c.36-1.1,1.23-2.05,2.44-2.05.27,0,.39.12.39.36v.27c0,.24-.17.38-.42.38-1.6,0-2.36,1.82-2.36,3.4v2.83c0,.24-.12.38-.36.38h-.29c-.24,0-.38-.13-.38-.38v-6.82Z"/>
      <path class="cls-6" d="M580.79,40.78c0-.24.12-.38.36-.38h.29c.24,0,.38.14.38.38v5.52h1.22l2.09-2.66c.12-.15.26-.23.45-.23h.38c.3,0,.41.21.21.45l-2.29,2.84v.03l2.62,3.79c.17.26.06.45-.26.45h-.39c-.21,0-.33-.08-.44-.26l-2.36-3.52h-1.23v3.4c0,.24-.14.38-.38.38h-.29c-.24,0-.36-.13-.36-.38v-9.83Z"/>
      <path class="cls-6" d="M587.26,49.78l.12-.15c.14-.18.3-.2.51-.06.33.26,1.02.69,2,.69.84,0,1.54-.42,1.54-1.22,0-1.7-4.05-1.19-4.05-3.69,0-1.4,1.19-2.12,2.57-2.12,1.08,0,1.76.39,2.08.62.2.12.23.3.1.5l-.1.17c-.12.21-.3.23-.51.11-.29-.2-.83-.48-1.63-.48s-1.49.35-1.49,1.17c0,1.75,4.03,1.19,4.03,3.72,0,1.25-1.05,2.14-2.56,2.14-1.32,0-2.18-.56-2.56-.87-.18-.14-.2-.32-.06-.51"/>
    </g>
    <g>
      <path class="cls-6" d="M715.31,48.49c1.18-.97,1.71-2.43,2.11-3.85,1.38-5.16,1.81-10.51,2.27-15.8.08-2.29.63-4.66-.07-6.9-.61-1.49-2.49-1.44-3.81-1.2-1.86.38-4.04,1.1-4.9,2.95-.54,3.06-.32,6.19-.31,9.29-1.8.21-3.34,1.3-5.1,1.64.43-2.4.75-4.81,1.07-7.23.3-1.43.8-3.68-1.25-4.01-1.76-.07-3.49.72-4.87,1.76-1.09.86-1.99,2.12-1.84,3.57-.51,4.52-1.07,9.04-1.31,13.59,0,1.71-.55,3.71.65,5.14,1.24.95,3,.63,4.36.1,1.5-.46,2.61-1.73,2.95-3.25l.61-2.67c1.31-1.08,2.86-1.8,4.25-2.75-.12,2.92-.62,5.82-.61,8.75-.09,1.3.21,3.16,1.83,3.23,1.75.29,3-1.15,3.97-2.37Z"/>
      <path class="cls-6" d="M739.94,48.51c1.7.76,3.7,1.34,5.54.74,1.4-.55,2.75-1.36,3.8-2.45,1.14-1.25,2.24-3.19,1.34-4.86-.57-1.22-2.24-1.33-2.8-.05-.96,1.36-3.17,1.21-4.06-.14-.9-1.69-.5-3.74.05-5.48.71-2.04,1.77-4.04,3.38-5.51.69-.71,2.74-1.81,2.89-.15h0s-.03.16-.03.16c-.37,1.14.54,2.36,1.76,2.23,1.75-.03,3.66-.95,4.4-2.6.66-1.71,1.02-3.68.37-5.44-.76-2.16-3.16-3.14-5.3-3.17-3.36-.07-6.63,1.52-8.97,3.88-4.16,4.58-6.62,10.99-5.6,17.2.29,2.19,1.19,4.52,3.22,5.65Z"/>
      <path class="cls-6" d="M718.77,54.24c1.71.33,3.63-.17,4.91-1.36,1.04-.89.82-2.6,2.01-3.33,1.46-.51,2.59-1.59,3.77-2.53.56.15.57,1.86.62,2.64-.33,1.79,1.6,2.49,3.06,2.22,1.23-.1,2.99-.59,3.08-2.08-.25-1.07-.8-2.06-1.07-3.13-1.58-5-1.16-10.35-.21-15.42.5-1.24-.75-2.24-1.86-2.44h0c.32-.67.13-1.49-.54-1.85-1.78-.93-3.87-.4-5.7.13-1.68.58-3.59,1.23-4.55,2.83-.29,3.93-.7,7.86-1.43,11.74-.68,3.29-1.4,6.72-3.34,9.53-1.12.99-.04,2.84,1.25,3.07ZM727.71,37.97c.29-.65.58-1.29.87-1.94.23,2.35.37,4.7.62,7.05.37,1.34-1.78.86-2.64,1.31.39-2.14.88-4.26,1.14-6.42Z"/>
      <path class="cls-6" d="M749.63,50.29c-.26,1.1-.57,2.75.6,3.41,1.59.71,3.5.57,5.08-.08.82-.81,1.26-1.95,1.78-2.98.63-.86.71-2.62,1.81-2.8,2.52,1.36,4.29,3.69,6.52,5.43.98,1.12,3.61.97,3.76-.75-.71-2.7-1.25-5.57-3.01-7.82-.49-.96-2.17-1.66-2.56-2.02,3.34-.53,6.45-2.27,8.7-4.79,1.04-.95,1.53-2.42,1.24-3.8-.16-1.18-1.54-1.65-2.59-1.7-2.83.9-4.97,3.15-7.62,4.44-.3-.25,1.08-2.02,1.49-2.83,1.13-1.65,1.96-3.49,3.15-5.09.91-1.25-.07-2.85-1.53-2.98-1.65-.25-3.54-.43-5.03.47-.51,1.14-2.24.58-2.57,1.92-.31.55-.6,1.11-.86,1.68-2.46,5.51-3.45,11.6-6.43,16.89-.55,1.19-1.53,2.14-1.94,3.39Z"/>
      <path class="cls-6" d="M783.73,47.3c.51-.15.8-.68.66-1.19l-2.31-8.09c1.2-.63,2.34-1.49,3.35-2.56,0,0,.01-.02.02-.02,1.43-1.62,2.78-4.24,2.56-6.43-.12-1.17-.67-2.15-1.6-2.84-.09-.07-.19-.12-.3-.15-2.69-.79-5.25.42-7.51,1.48-.2.09-.4.19-.6.28-.43.2-.65.68-.52,1.13l2.29,8.01c-.56.18-1.13.29-1.69.33-.53.04-.93.49-.89,1.02.04.53.49.93,1.02.89.69-.05,1.39-.18,2.09-.4l2.25,7.87c.12.42.5.69.92.69.09,0,.18-.01.26-.04ZM779.54,29.18c1.94-.92,3.95-1.83,5.84-1.36.41.36.65.82.71,1.39.16,1.53-.92,3.64-2.07,4.95-.76.8-1.6,1.47-2.48,1.98l-1.99-6.96Z"/>
      <path class="cls-6" d="M787.22,42.44c.2,1.75,1.33,3.13,3.04,3.7,1.84.62,3.87.14,5.16-1.22,2.19-2.05,3.12-4.92,3.3-7.75.06-.03.12-.06.18-.09.54-.36,1.1-.74,1.65-1.17-.82,4.03-1.47,9.47-1.57,10.29-.06.52.31.99.83,1.06.04,0,.08,0,.12,0,.47,0,.88-.35.95-.82.12-.81.22-1.63.33-2.45.54-4.1,1.09-8.34,2.75-12.11.24-.23.39-.28.42-.29.58.17,1.35,2.97,1.3,4.75,0,.03,0,.06,0,.09.17,2.39.16,4.99-.05,7.94-.03.5.32.94.82,1.01.5.07.96-.26,1.07-.75.12-.57.24-1.14.36-1.71.77-3.76,1.57-7.64,3.65-10.8.3-.23.49-.33.6-.38.2.51.21,2.26-.36,4.14l-.02.06c-.71,2.37-2.04,6.79.42,9.58.35.4.96.43,1.35.08.4-.35.43-.96.08-1.35-1.75-1.98-.67-5.6-.02-7.76l.02-.06c.23-.78.5-2.04.56-3.26.07-1.6-.26-2.62-.99-3.11-.8-.53-1.8-.31-2.97.66-.07.06-.13.13-.18.2-1.08,1.61-1.85,3.35-2.44,5.15-.04-1.36-.49-5.46-2.48-6.28-.61-.25-1.56-.31-2.65.85-.07.08-.13.17-.18.26-.11.25-.22.49-.32.74-.12.07-.22.18-.29.3-.73,1.17-1.85,2.11-2.96,2.9-.06-.87-.19-1.71-.36-2.5-.19-2.19-2.44-3.75-4.37-3.79-.78-.02-1.49.21-2.03.67-.01.01-.03.03-.04.04-2.01,1.28-3.49,3.32-4.28,5.91-.68,2.22-.82,4.78-.41,7.22ZM793.11,30.8s.05-.05.08-.07c.18-.15.44-.22.75-.21,1.07.02,2.43.95,2.5,2.08,0,.05.01.1.02.15.2.88.33,1.84.37,2.82-.79-.03-1.63-.33-2.36-.87-1.09-.8-1.71-1.96-1.66-3.1.04-.36.14-.62.31-.8ZM790.99,32.73c.28,1.35,1.1,2.61,2.35,3.52,1.05.77,2.27,1.19,3.45,1.23-.21,2.26-1,4.48-2.69,6.06-.02.01-.03.03-.05.04-.77.82-2.05,1.12-3.17.74-.48-.16-1.6-.69-1.75-2.12,0-.02,0-.04,0-.06-.53-3.1-.08-6.85,1.87-9.42Z"/>
      <path class="cls-6" d="M844.83,51.86s.06-.01.09-.02c3.82-1.25,5.91-8.26,6.39-21.41.02-.52-.39-.97-.91-.99-.53-.02-.97.38-1,.9-.02.3-.03.62-.05.97-.22,4.17-.58,11.15-4.23,13.75-.83.5-1.63.57-2.32.22-.95-.48-1.6-1.7-1.73-3.27-.24-2.77-.14-4.94.41-7.65.26-.87.48-1.77.65-2.71.09-.51-.23-.99-.73-1.11-.5-.11-1,.19-1.14.69-.23.86-.42,1.66-.59,2.42-1.11,3.71-3.26,7.75-5.58,9.18-.81.5-1.57.64-2.28.43-.88-.28-1.52-.86-1.9-1.73-.18-.41-.3-.88-.35-1.38,1.6-.07,3.2-.48,4.85-1.22,1.87-.84,3.33-3.08,3.32-5.1,0-1.46-.76-2.64-2.09-3.22-3.95-1.76-6.32,3.25-7.21,5.13-.36.76-.6,1.58-.73,2.42-.45-.06-.9-.15-1.35-.28.58-1.75.7-3.67-.03-5.54-.89-2.27-3.34-3.02-5.16-2.44-.06,0-.13.01-.19.03-2.39.64-3.83,2.47-4.72,4.92-.39,1-.66,2.06-.81,3.08-.5,2.71-.65,5.78-.78,8.69-.16,3.52-.32,6.85-1.13,8.36-.25.47-.08,1.05.39,1.3.14.08.3.11.45.11.34,0,.67-.18.84-.5,1.02-1.89,1.17-5.27,1.36-9.18.05-1.01.1-2.06.16-3.12.23.17.48.31.76.42,1.99.79,4.53-.12,5.92-1.37.01-.01.03-.03.04-.04.78-.8,1.54-1.8,2.14-2.93.08.02.17.04.25.07.6.16,1.19.28,1.79.35.06.79.24,1.55.53,2.22.61,1.38,1.67,2.35,3.1,2.8,1.27.37,2.56.16,3.85-.64,1.25-.77,2.67-2.35,3.94-4.48.01.7.06,1.43.12,2.19.19,2.23,1.23,4.03,2.78,4.81,1.3.66,2.8.55,4.21-.31.02-.01.04-.02.05-.03.43-.3.82-.64,1.17-1.02-1,3.05-2.15,4.08-2.99,4.38-2.18.46-5.16-.66-6.53-2.47-.3-.39-.84-.5-1.26-.24-1.75,1.06-4.36,1.31-6.64.64-1.41-.41-2.48-1.14-2.88-1.94-.16-.34-.51-.54-.88-.54-.37,0-.71.23-.86.58-.71,1.64-2.74,2.29-6.22,1.98-.52-.04-.99.34-1.04.87-.05.53.34.99.87,1.04,1.4.12,5.28.47,7.34-1.84.76.73,1.83,1.31,3.13,1.69,2.52.74,5.3.56,7.45-.45,1.96,2.01,5.36,3.14,7.99,2.55ZM830.15,36.57c1.41-2.98,2.65-4.38,3.91-4.38.26,0,.52.06.79.18.64.28.95.77.95,1.48,0,1.28-1,2.82-2.19,3.35-1.36.61-2.68.96-3.99,1.04.1-.57.28-1.14.53-1.66ZM822.08,41.24c-1.07.96-2.85,1.41-3.9.99-.6-.24-.92-.75-.98-1.56-.04-.58-.04-1.13,0-1.66.26-1.64.65-3.15,1.23-4.37.15-.27.31-.53.48-.76.04.18.08.36.14.55,1.04,3.24,2.74,4.18,4.62,4.74-.47.79-1.02,1.49-1.58,2.08ZM824.48,37.41c-1.75-.48-2.8-1.04-3.61-3.57-.34-1.04-.05-1.79.79-2.09.23-.08.48-.12.73-.12.85,0,1.74.46,2.12,1.42.57,1.45.45,2.96-.04,4.36Z"/>
      <path class="cls-6" d="M804.14,48.91c-2.14.85-4.35,1.73-9.47,1.47-2.71-.23-4.82-.57-6.93-1.59-.48-.23-1.05-.03-1.28.45-.23.48-.03,1.05.45,1.28,2.37,1.15,4.76,1.54,7.62,1.78h.03c.66.04,1.27.05,1.85.05,4.29,0,6.48-.87,8.44-1.65,1.85-.74,3.45-1.37,6.69-1.08.53.05.99-.34,1.04-.87.05-.53-.34-.99-.87-1.04-3.7-.33-5.58.42-7.57,1.21Z"/>
    </g>
    <g>
      <path class="cls-6" d="M618.14,36.77h.95l.97,3.29c.07.24.11.5.12.5h.02s.05-.26.12-.5l1.02-3.28h.82l1.01,3.28c.07.24.13.5.13.5h.02s.04-.26.11-.5l.98-3.29h.95l-1.51,4.69h-.99l-.97-3.01c-.07-.24-.13-.51-.13-.51h-.02s-.06.27-.13.51l-.96,3.01h-1l-1.51-4.69Z"/>
      <path class="cls-6" d="M628.4,36.66c1.4,0,2.53,1.03,2.53,2.44s-1.13,2.46-2.53,2.46-2.53-1.04-2.53-2.46,1.13-2.44,2.53-2.44ZM628.4,40.79c.89,0,1.61-.7,1.61-1.69s-.72-1.67-1.61-1.67-1.61.69-1.61,1.67.73,1.69,1.61,1.69Z"/>
      <path class="cls-6" d="M631.99,36.77h.87v.82c0,.19-.02.35-.02.35h.02c.21-.68.76-1.22,1.48-1.22.12,0,.23.02.23.02v.89s-.12-.03-.26-.03c-.57,0-1.1.41-1.32,1.1-.08.27-.11.56-.11.84v1.92h-.9v-4.69Z"/>
      <path class="cls-6" d="M635.46,34.92h.9v3.57h.66l1.28-1.72h1.02l-1.56,2.07v.02l1.73,2.6h-1.05l-1.41-2.2h-.68v2.2h-.9v-6.54Z"/>
      <path class="cls-6" d="M640.32,34.92h.91v.92h-.91v-.92ZM640.33,36.77h.9v4.69h-.9v-4.69Z"/>
      <path class="cls-6" d="M642.63,36.77h.87v.62c0,.19-.02.34-.02.34h.02c.19-.41.74-1.07,1.76-1.07,1.1,0,1.61.6,1.61,1.8v3h-.9v-2.8c0-.66-.14-1.18-.89-1.18s-1.29.47-1.48,1.15c-.06.19-.07.4-.07.63v2.2h-.9v-4.69Z"/>
      <path class="cls-6" d="M649.92,42.63c.82,0,1.48-.36,1.48-1.31v-.34c0-.15,0-.3,0-.3h-.02c-.28.46-.71.73-1.39.73-1.31,0-2.09-1.05-2.09-2.4s.75-2.34,2.05-2.34c1.13,0,1.47.69,1.47.69h.02s0-.07,0-.15v-.44h.86v4.49c0,1.55-1.18,2.14-2.36,2.14-.56,0-1.15-.16-1.6-.39l.3-.7s.58.31,1.29.31ZM651.42,39.01c0-1.22-.59-1.57-1.32-1.57-.82,0-1.28.59-1.28,1.55s.52,1.64,1.36,1.64c.65,0,1.24-.39,1.24-1.61Z"/>
      <path class="cls-6" d="M655.53,36.77h.95l.97,3.29c.07.24.11.5.12.5h.02s.05-.26.12-.5l1.02-3.28h.82l1.01,3.28c.07.24.13.5.13.5h.02s.04-.26.11-.5l.98-3.29h.95l-1.51,4.69h-.99l-.97-3.01c-.07-.24-.13-.51-.13-.51h-.02s-.06.27-.13.51l-.96,3.01h-1l-1.51-4.69Z"/>
      <path class="cls-6" d="M663.6,34.92h.91v.92h-.91v-.92ZM663.61,36.77h.9v4.69h-.9v-4.69Z"/>
      <path class="cls-6" d="M666.11,37.56h-.61v-.72h.64v-1.35h.87v1.35h1.13v.72h-1.13v2.08c0,.94.66,1.06,1,1.06.13,0,.21-.02.21-.02v.8s-.13.02-.32.02c-.6,0-1.8-.19-1.8-1.75v-2.19Z"/>
      <path class="cls-6" d="M669.23,34.92h.9v2.4c0,.22-.02.39-.02.39h.02c.2-.45.8-1.05,1.73-1.05,1.1,0,1.61.6,1.61,1.8v3h-.9v-2.8c0-.66-.14-1.18-.89-1.18-.7,0-1.29.48-1.48,1.16-.06.19-.07.4-.07.62v2.2h-.9v-6.54Z"/>
    </g>
  </g>
  <path class="cls-7" d="M536.72,247.16h-9.29v-14.76c0-22.97,18.82-41.66,41.96-41.66h171.11c14.39,0,26.1-11.59,26.1-25.85v-21.03c0-15.21-12.49-27.58-27.85-27.58h-227.91l.03-9.29h227.88c20.48,0,37.13,16.54,37.13,36.87v21.03c0,19.37-15.87,35.13-35.39,35.13h-171.11c-18.02,0-32.68,14.52-32.68,32.37v14.76Z"/>
  <g>
    <path class="cls-10" d="M632.12,85.28l-20.99,59.9h-29.48v-32.1l-11.29,32.1h-29.48v-59.9h15.77v54.02l18.94-54.02h21.83v54.02l18.94-54.02h15.77Z"/>
    <path class="cls-10" d="M671.77,145.18h-15.3l-2.89-8.02c-2.52,5.04-7.65,8.58-13.72,8.58-8.4,0-15.21-6.81-15.21-15.21s6.81-15.3,15.21-15.3c4.48,0,8.4,1.87,11.2,4.95v-8.58h-18.57v-15.3h33.87v33.96l5.41,14.93ZM642.76,130.54c0-1.68-1.31-2.99-2.89-2.99s-2.89,1.31-2.89,2.99c0,1.59,1.31,2.89,2.89,2.89s2.89-1.31,2.89-2.89Z"/>
    <path class="cls-10" d="M702.75,129.88v15.3h-26.68v-34.15h-6.16v-15.3h6.16l.09-10.45h15.21v10.54h11.38v15.3l-11.38-.09v18.85h11.38Z"/>
    <path class="cls-10" d="M739.33,129.88v15.3h-26.69v-34.15h-6.16v-15.3h6.16l.09-10.45h15.21v10.54h11.38v15.3l-11.38-.09v18.85h11.38Z"/>
    <path class="cls-10" d="M592.74,159.58l-20.99,59.9h-29.48v-32.1l-11.29,32.1h-29.48v-59.9h15.77v54.02l18.94-54.02h21.83v54.02l18.94-54.02h15.77Z"/>
    <path class="cls-10" d="M636.13,195.22c0,13.81-11.2,25-24.91,25s-25.01-11.2-25.01-25,11.2-24.91,25.01-24.91,24.91,11.2,24.91,24.91ZM620.92,195.22c0-5.32-4.39-9.7-9.7-9.7s-9.7,4.39-9.7,9.7,4.29,9.7,9.7,9.7,9.7-4.29,9.7-9.7Z"/>
    <path class="cls-10" d="M678.12,170.68v15.3l-14.37-.09-4.01,2.8v30.79h-15.3v-33.59h-5.5v-15.3h20.81v9.42l7.84-9.42,10.54.09Z"/>
    <path class="cls-10" d="M732.8,219.48h-15.3l-2.24-13.25h-14.46v13.25h-15.3v-48.42l-5.5-.09v-15.21h20.81v29.39l11.38-14.55h17.26l-17.26,21.55h16.05l4.57,27.34Z"/>
    <path class="cls-10" d="M778.7,204.27c0,8.58-8.86,15.95-22.39,15.95-12.22,0-20.34-8.77-21.65-13.25l13.44-4.76c1.77,1.77,4.48,3.92,9.42,3.92,2.61,0,5.23-.47,5.23-2.61,0-1.87-3.17-2.61-7.18-2.89-14.46-.93-20.9-5.23-20.9-14.46,0-8.49,8.86-15.86,22.39-15.86,12.22,0,20.34,8.77,21.65,13.16l-13.44,4.85c-1.87-1.87-4.57-4.01-9.42-4.01-2.71,0-5.32.56-5.32,2.71,0,1.77,3.27,2.52,7.28,2.8,14.37,1.03,20.9,5.32,20.9,14.46Z"/>
  </g>
  <rect class="cls-7" x="582.82" y="190.74" width="56.21" height="9.29"/>
  <rect class="cls-7" x="560.92" y="107.01" width="41.54" height="9.29"/>
  <circle class="cls-9" cx="508.91" cy="111.66" r="12.45"/>
  <circle class="cls-9" cx="532.19" cy="247.98" r="12.45"/>
  <g>
    <path class="cls-6" d="M561.96,273.81v-11.15q0-2.05,2.05-2.05h6.55q1.39,0,1.39,1.35t-1.39,1.33h-5.71v3.89h5.22q1.39,0,1.39,1.3,0,1.31-1.39,1.31h-5.22v4.03q0,1.39-1.44,1.39-1.45,0-1.45-1.39Z"/>
    <path class="cls-6" d="M573.7,273.85v-6.13c0-2.29,1.41-3.75,3.62-3.75.75,0,1.53.1,2.13.28.55.17.91.26.91.65,0,.2-.05.41-.24,1.04-.21.75-.33,1-.67,1-.19,0-.39-.05-.64-.11-.31-.08-.79-.15-1.16-.15-.79,0-1.16.38-1.16,1.19v6q0,1.35-1.4,1.35t-1.4-1.35Z"/>
    <path class="cls-6" d="M581.45,271.16c-.06-.77-.07-2.06,0-2.77.24-2.56,2.1-4.41,4.98-4.41s4.64,1.85,4.64,4.65v.54c0,1.23-.27,1.42-1.37,1.42h-5.63v.31c.05,1.2,1.03,2.02,2.46,2.02.98,0,1.58-.19,2.17-.42.37-.15.61-.28.84-.28.27,0,.41.2.73.92.24.52.29.74.29.89,0,.23-.13.37-.72.64-.87.39-2.05.73-3.31.73-2.9,0-4.84-1.76-5.06-4.24ZM588.5,268.7c.11-1.49-.8-2.4-2.2-2.4s-2.19.95-2.24,2.33v.07h4.44Z"/>
    <path class="cls-6" d="M593,271.16c-.06-.77-.07-2.06,0-2.77.24-2.56,2.1-4.41,4.98-4.41s4.64,1.85,4.64,4.65v.54c0,1.23-.27,1.42-1.37,1.42h-5.63v.31c.05,1.2,1.03,2.02,2.46,2.02.98,0,1.58-.19,2.17-.42.37-.15.61-.28.84-.28.27,0,.41.2.73.92.24.52.29.74.29.89,0,.23-.13.37-.72.64-.87.39-2.05.73-3.31.73-2.9,0-4.84-1.76-5.06-4.24ZM600.06,268.7c.11-1.49-.8-2.4-2.2-2.4s-2.19.95-2.24,2.33v.07h4.44Z"/>
    <path class="cls-6" d="M610.12,273.81v-11.81q0-1.39,1.44-1.39t1.44,1.39v4.59h6.4v-4.59q0-1.39,1.44-1.39,1.44,0,1.44,1.39v11.81q0,1.39-1.44,1.39-1.44,0-1.44-1.39v-4.55h-6.4v4.55q0,1.39-1.44,1.39-1.44,0-1.44-1.39Z"/>
    <path class="cls-6" d="M624.52,271.85c0-1.74,1.34-3.35,4.18-3.35.83,0,1.6.11,2.43.33v-.79c0-1.01-.55-1.56-2.13-1.56-.69,0-1.52.24-2.1.46-.3.12-.54.17-.69.17-.28,0-.42-.19-.71-.93-.2-.48-.27-.75-.27-.94,0-.28.13-.4.82-.67.88-.35,1.9-.61,3.14-.61,2.96,0,4.62,1.31,4.62,4.18v5.11c0,.51-.13.77-.49,1.01-.68.45-2.3,1.13-4.43,1.13-2.87,0-4.36-1.62-4.36-3.55ZM629.08,273.17c.74,0,1.5-.19,2.05-.46v-2.01c-.72-.22-1.36-.32-1.92-.32-1.38,0-2.03.62-2.03,1.44s.78,1.35,1.9,1.35Z"/>
    <path class="cls-6" d="M636.14,271.18c-.07-.8-.08-2.18,0-2.98.23-2.46,2.14-4.23,4.91-4.23s4.03,1.42,4.53,2.73c.09.24.16.48.16.64,0,.37-.3.53-1.02.79-.54.2-.83.27-1,.27-.32,0-.42-.12-.55-.39-.38-.84-.99-1.34-2.08-1.34-1.28,0-2.06.81-2.17,2.01-.06.68-.06,1.36,0,2.05.1,1.18.89,1.99,2.17,1.99,1.09,0,1.7-.49,2.08-1.34.13-.27.24-.38.55-.38.16,0,.45.06,1,.27.72.26,1.02.42,1.02.79,0,.14-.07.39-.16.63-.49,1.32-1.89,2.73-4.53,2.73-2.77,0-4.67-1.75-4.91-4.22Z"/>
    <path class="cls-6" d="M655.12,274.81l-3.12-3.37c-.42-.45-.5-.46-1.06-.46h-.25v2.88q0,1.35-1.4,1.35t-1.41-1.35v-12.07q0-1.35,1.41-1.35,1.4,0,1.4,1.35v6.52h.21c.42,0,.52-.03.96-.47l3.22-3.25c.39-.41.55-.58.81-.58s.41.07,1.02.68c.62.61.71.83.71,1.04s-.08.31-.4.64l-3.23,3.18,3.13,3.29c.41.44.57.65.57.86,0,.18-.14.42-.75.99-.7.63-.83.69-1.08.69s-.44-.24-.73-.55Z"/>
    <path class="cls-6" d="M658.77,271.85c0-1.74,1.34-3.35,4.18-3.35.83,0,1.6.11,2.43.33v-.79c0-1.01-.55-1.56-2.13-1.56-.69,0-1.52.24-2.1.46-.3.12-.54.17-.69.17-.28,0-.42-.19-.71-.93-.2-.48-.27-.75-.27-.94,0-.28.13-.4.82-.67.88-.35,1.9-.61,3.14-.61,2.96,0,4.62,1.31,4.62,4.18v5.11c0,.51-.13.77-.49,1.01-.68.45-2.3,1.13-4.43,1.13-2.87,0-4.36-1.62-4.36-3.55ZM663.33,273.17c.74,0,1.5-.19,2.05-.46v-2.01c-.72-.22-1.36-.32-1.92-.32-1.38,0-2.03.62-2.03,1.44s.78,1.35,1.9,1.35Z"/>
    <path class="cls-6" d="M670.66,271.57v-8.43q0-1.35,1.4-1.35t1.4,1.35v1.03h2.52q1.28,0,1.28,1.28,0,1.28-1.28,1.28h-2.52v4.57c0,1.07.39,1.51,1.35,1.51.46,0,.95-.12,1.32-.27.3-.11.51-.19.66-.19.32,0,.43.2.76,1,.26.63.28.75.28.89,0,.27-.21.4-.68.62-.79.35-1.73.54-2.52.54-2.34,0-3.96-1.3-3.96-3.83Z"/>
    <path class="cls-6" d="M679.52,273.85v-12.07q0-1.35,1.41-1.35t1.4,1.35v3.11c.77-.51,1.73-.92,2.78-.92,2.46,0,4.06,1.62,4.06,4.14v5.74q0,1.35-1.4,1.35-1.4,0-1.4-1.35v-5.23c0-1.23-.67-1.95-1.89-1.95-.84,0-1.67.44-2.15.95v6.24q0,1.35-1.4,1.35-1.41,0-1.41-1.35Z"/>
    <path class="cls-6" d="M691.57,271.15c-.07-.79-.07-2.14,0-2.93.23-2.48,2.17-4.25,4.97-4.25s4.75,1.77,4.98,4.25c.07.79.07,2.14,0,2.93-.24,2.48-2.17,4.25-4.98,4.25s-4.73-1.77-4.97-4.25ZM696.53,272.7c1.27,0,2.09-.81,2.2-2.02.06-.68.06-1.33,0-2-.1-1.2-.94-2.03-2.2-2.03s-2.09.82-2.19,2.03c-.06.67-.06,1.32,0,2,.1,1.2.94,2.02,2.19,2.02Z"/>
    <path class="cls-6" d="M703.96,273.85v-7.03c0-1.16.04-1.45.73-1.84.83-.46,2.27-1.01,4.18-1.01,3.01,0,4.74,1.68,4.74,4.38v5.5q0,1.35-1.4,1.35t-1.41-1.35v-5.19c0-1.29-.69-2-1.98-2-.79,0-1.58.21-2.05.5v6.68q0,1.35-1.41,1.35-1.4,0-1.4-1.35Z"/>
  </g>
  <g>
    <path class="cls-6" d="M444.33,297.59c-.26-.17-.37-.26-.37-.4s.1-.29.34-.65c.26-.37.35-.47.49-.47.12,0,.26.1.47.25,1.06.71,2.2,1.13,3.74,1.13,2.2,0,3.28-.83,3.28-2.31,0-1.26-.95-1.87-3.42-2.37-3.39-.67-4.63-1.78-4.63-3.89,0-2.34,1.85-3.74,4.63-3.74,1.82,0,3.08.52,4,1.21.19.14.31.25.31.36s-.05.23-.31.61c-.27.39-.36.52-.5.52-.13,0-.28-.11-.48-.25-.74-.56-1.73-.92-3.01-.92-2.04,0-3.03.84-3.03,2.19,0,1.22.79,1.84,3.37,2.34,3.36.64,4.68,1.75,4.68,3.9,0,2.4-1.86,3.87-4.87,3.87-2.08,0-3.5-.56-4.67-1.38Z"/>
    <path class="cls-6" d="M455.62,295.79c0-1.63,1.26-3.07,3.78-3.07.89,0,1.65.1,2.67.4v-.89c0-1.44-.74-2.1-2.41-2.1-.84,0-1.71.28-2.24.5-.24.1-.36.14-.45.14-.15,0-.24-.1-.44-.54-.15-.34-.18-.47-.18-.56,0-.14.1-.23.39-.35.81-.36,1.91-.65,3.06-.65,2.36,0,3.76,1.12,3.76,3.55v5.07c0,.33-.07.47-.3.64-.54.39-2,1.04-3.89,1.04-2.34,0-3.76-1.29-3.76-3.17ZM459.56,297.59c.88,0,1.83-.27,2.52-.64v-2.55c-.97-.29-1.68-.41-2.48-.41-1.69,0-2.47.77-2.47,1.8,0,1.14.89,1.8,2.43,1.8Z"/>
    <path class="cls-6" d="M466.56,296v-8.57q0-.71.77-.71t.77.71v1.41h2.9q.69,0,.69.73,0,.72-.69.72h-2.9v5.57c0,1.09.47,1.62,1.5,1.62.61,0,1.06-.12,1.48-.3.14-.05.28-.1.39-.1.17,0,.23.12.42.57.16.41.17.45.17.54,0,.15-.14.24-.42.35-.68.29-1.37.43-2.12.43-1.81,0-2.97-1.08-2.97-2.96Z"/>
    <path class="cls-6" d="M484.08,298.06v-11.11l-3.47,1.78c-.19.11-.34.18-.49.18s-.25-.03-.48-.45c-.14-.27-.21-.41-.21-.54,0-.18.12-.27.38-.4l4.02-2.09c.38-.2.49-.26.67-.26.17,0,.29.05.61.28.51.36.53.41.53.78v11.84q0,.73-.78.73t-.79-.73Z"/>
    <path class="cls-6" d="M491.49,298.8q-.82,0-.82-.74t.91-.81c3.71,0,6.11-1.13,6.11-3.46,0-1.43-.98-2.38-2.66-2.38-1.11,0-1.91.4-2.62.77-.25.12-.37.18-.48.18s-.26-.06-.52-.23c-.33-.21-.36-.29-.36-.6v-4.9q0-1.31,1.28-1.31h5.34q.81,0,.81.75,0,.77-.81.77h-5.13v3.87c.73-.4,1.64-.74,2.79-.74,2.36,0,3.95,1.49,3.95,3.81,0,3.16-2.89,5.02-7.78,5.02Z"/>
    <path class="cls-6" d="M502.19,296v-8.57q0-.71.77-.71t.77.71v1.41h2.9q.69,0,.69.73,0,.72-.69.72h-2.9v5.57c0,1.09.47,1.62,1.5,1.62.61,0,1.06-.12,1.48-.3.14-.05.28-.1.39-.1.17,0,.23.12.42.57.16.41.17.45.17.54,0,.15-.14.24-.42.35-.68.29-1.37.43-2.12.43-1.81,0-2.97-1.08-2.97-2.96Z"/>
    <path class="cls-6" d="M509.72,298.08v-12.22q0-.71.77-.71t.77.71v4.1c.74-.72,1.88-1.28,3.06-1.28,2.17,0,3.67,1.32,3.67,3.78v5.63q0,.71-.77.71-.77,0-.77-.71v-5.43c0-1.55-.8-2.47-2.34-2.47-1.14,0-2.23.69-2.85,1.49v6.41q0,.71-.77.71-.77,0-.77-.71Z"/>
    <path class="cls-6" d="M526.43,298.01v-11.71q0-.98,1.29-.98.99,0,1.34.6l6.75,11.12h.06c-.08-1.93-.09-5.73-.09-8.41v-2.49q0-.82.79-.82t.8.82v11.69q0,.97-1.08.97c-1.12,0-1.11,0-1.49-.65l-6.79-11.1h-.07c.08,1.67.08,4.88.08,7.29v3.67q0,.79-.79.79-.79,0-.79-.79Z"/>
    <path class="cls-6" d="M540.37,295.11c-.08-.72-.08-1.85,0-2.57.22-2.28,1.92-3.87,4.33-3.87s4.13,1.59,4.33,3.87c.07.71.07,1.84,0,2.57-.23,2.27-1.91,3.86-4.33,3.86s-4.09-1.59-4.32-3.86ZM544.69,297.47c1.59,0,2.65-1.03,2.8-2.52.07-.71.07-1.55,0-2.25-.14-1.49-1.22-2.51-2.8-2.51s-2.64,1.02-2.79,2.51c-.07.7-.07,1.55,0,2.25.14,1.49,1.22,2.52,2.79,2.52Z"/>
    <path class="cls-6" d="M553.96,298.21l-3.14-8.32c-.08-.25-.14-.44-.14-.53,0-.17.1-.23.61-.41.32-.11.5-.16.59-.16.18,0,.25.13.35.45l2.87,8.11c.04.1.05.1.13.1q.09,0,.13-.1l2.9-8.15c.1-.3.19-.41.34-.41.1,0,.22.03.61.17.53.19.59.25.59.41,0,.08-.07.29-.15.52l-3.17,8.33q-.22.58-1.27.58t-1.25-.59Z"/>
    <path class="cls-6" d="M561.46,295.14c-.07-.71-.08-1.83,0-2.53.22-2.3,1.88-3.91,4.29-3.91,2.55,0,4.07,1.68,4.07,4.07v.65c0,.89-.15,1.04-.99,1.04h-5.9c0,.2,0,.39.03.58.12,1.49,1.22,2.49,2.89,2.49.89,0,1.62-.18,2.31-.48.29-.12.43-.19.56-.19.15,0,.24.11.4.51.15.34.18.46.18.55,0,.13-.08.22-.39.35-.96.42-1.94.69-3.06.69-2.48,0-4.14-1.56-4.37-3.83ZM568.33,293.22c.16-2.01-.95-3.11-2.62-3.11-1.59,0-2.64,1.05-2.77,2.61,0,.16-.02.33-.03.5h5.42Z"/>
    <path class="cls-6" d="M572.39,298.08v-7.51c0-.53.07-.7.39-.9.64-.46,2.04-1,3.33-1,1.42,0,2.25.46,2.87,1.1.68-.49,1.69-1.1,3.14-1.1,2.49,0,3.56,1.41,3.56,3.57v5.83q0,.71-.77.71t-.77-.71v-5.66c0-1.45-.68-2.23-2.17-2.23-1,0-1.78.44-2.3.87.1.4.13.8.13,1.33v5.71q0,.71-.77.71-.77,0-.77-.71v-5.68c0-1.53-.68-2.22-2.21-2.22-.67,0-1.64.36-2.12.66v7.24q0,.71-.77.71-.77,0-.77-.71Z"/>
    <path class="cls-6" d="M589.09,297.94c-.23-.15-.32-.32-.32-.68v-11.41q0-.71.77-.71t.77.71v3.4c.67-.33,1.65-.59,2.64-.59,2.38,0,3.95,1.54,4.15,3.78.08.76.08,1.97,0,2.74-.2,2.23-1.78,3.77-4.24,3.77-1.63,0-3.15-.62-3.77-1.03ZM592.83,297.47c1.65,0,2.61-.98,2.74-2.44.08-.72.08-1.66,0-2.4-.13-1.46-1.08-2.43-2.74-2.43-.86,0-1.99.28-2.53.66v5.96c.54.39,1.66.66,2.53.66Z"/>
    <path class="cls-6" d="M599.55,295.14c-.07-.71-.08-1.83,0-2.53.22-2.3,1.88-3.91,4.29-3.91,2.55,0,4.07,1.68,4.07,4.07v.65c0,.89-.15,1.04-.99,1.04h-5.9c0,.2,0,.39.03.58.12,1.49,1.22,2.49,2.89,2.49.89,0,1.62-.18,2.31-.48.29-.12.43-.19.56-.19.15,0,.24.11.4.51.15.34.18.46.18.55,0,.13-.08.22-.39.35-.96.42-1.94.69-3.06.69-2.48,0-4.14-1.56-4.37-3.83ZM606.42,293.22c.16-2.01-.95-3.11-2.62-3.11-1.59,0-2.64,1.05-2.77,2.61,0,.16-.02.33-.03.5h5.42Z"/>
    <path class="cls-6" d="M610.46,298.08v-6.32c0-1.94,1.15-3.09,3.1-3.09.7,0,1.28.09,1.68.21.29.09.56.15.56.36,0,.11-.02.2-.13.61-.13.46-.2.58-.39.58-.12,0-.28-.05-.44-.1-.35-.1-.75-.15-1.21-.15-1.09,0-1.63.53-1.63,1.62v6.28q0,.71-.77.71t-.77-.71Z"/>
    <path class="cls-6" d="M622.56,298.05q0-.78.79-.78c2.8,0,5.66-.23,6.06-4.35-.84.54-2.03.89-3.19.9-2.74,0-4.41-1.75-4.41-4.27s1.75-4.4,4.55-4.4c3.3,0,4.69,2.47,4.69,6.35,0,5.35-2.42,7.28-7.63,7.28q-.85,0-.85-.73ZM626.35,292.38c1.23,0,2.17-.32,3.11-.89,0-3.19-.9-4.83-3.14-4.83-1.91,0-2.95,1.09-2.95,2.89s1.13,2.83,2.98,2.83Z"/>
    <path class="cls-6" d="M633.15,295.79c0-1.63,1.26-3.07,3.78-3.07.89,0,1.65.1,2.67.4v-.89c0-1.44-.74-2.1-2.41-2.1-.84,0-1.71.28-2.24.5-.24.1-.36.14-.45.14-.15,0-.24-.1-.44-.54-.15-.34-.18-.47-.18-.56,0-.14.1-.23.39-.35.81-.36,1.91-.65,3.06-.65,2.36,0,3.76,1.12,3.76,3.55v5.07c0,.33-.07.47-.3.64-.54.39-2,1.04-3.89,1.04-2.34,0-3.76-1.29-3.76-3.17ZM637.08,297.59c.88,0,1.83-.27,2.52-.64v-2.55c-.97-.29-1.68-.41-2.48-.41-1.69,0-2.47.77-2.47,1.8,0,1.14.89,1.8,2.43,1.8Z"/>
    <path class="cls-6" d="M644.09,298.08v-7.51c0-.53.07-.7.39-.9.64-.46,2.04-1,3.33-1,1.42,0,2.25.46,2.87,1.1.67-.49,1.69-1.1,3.14-1.1,2.49,0,3.56,1.41,3.56,3.57v5.83q0,.71-.77.71t-.77-.71v-5.66c0-1.45-.68-2.23-2.17-2.23-1,0-1.78.44-2.3.87.1.4.13.8.13,1.33v5.71q0,.71-.77.71-.77,0-.77-.71v-5.68c0-1.53-.68-2.22-2.21-2.22-.67,0-1.64.36-2.12.66v7.24q0,.71-.77.71-.77,0-.77-.71Z"/>
    <path class="cls-6" d="M660.39,293.73q0-.72.76-.72h6.86q.75,0,.75.72t-.75.71h-6.86c-.74,0-.76,0-.76-.71Z"/>
    <path class="cls-6" d="M672.7,298.8q-.82,0-.82-.74t.91-.81c3.71,0,6.11-1.13,6.11-3.46,0-1.43-.98-2.38-2.66-2.38-1.11,0-1.91.4-2.62.77-.25.12-.37.18-.48.18s-.26-.06-.52-.23c-.33-.21-.36-.29-.36-.6v-4.9q0-1.31,1.28-1.31h5.34q.81,0,.81.75,0,.77-.81.77h-5.13v3.87c.73-.4,1.64-.74,2.79-.74,2.36,0,3.95,1.49,3.95,3.81,0,3.16-2.89,5.02-7.78,5.02Z"/>
    <path class="cls-6" d="M683.41,301.41v-10.84c0-.53.07-.71.39-.9.6-.37,2.07-1,3.71-1,2.46,0,4.03,1.54,4.25,3.78.08.76.08,1.98,0,2.74-.23,2.23-1.79,3.77-4.16,3.77-.99,0-1.98-.26-2.64-.59v3.03q0,.71-.77.71t-.77-.71ZM687.48,297.47c1.65,0,2.6-.98,2.74-2.44.08-.74.08-1.68,0-2.4-.13-1.46-1.08-2.43-2.74-2.43-.87,0-1.99.28-2.53.66v5.96c.54.39,1.66.66,2.53.66Z"/>
    <path class="cls-6" d="M694.53,298.08v-7.51c0-.53.07-.7.39-.9.64-.46,2.04-1,3.33-1,1.42,0,2.25.46,2.87,1.1.68-.49,1.69-1.1,3.14-1.1,2.49,0,3.56,1.41,3.56,3.57v5.83q0,.71-.77.71t-.77-.71v-5.66c0-1.45-.68-2.23-2.17-2.23-1,0-1.78.44-2.3.87.1.4.13.8.13,1.33v5.71q0,.71-.77.71-.77,0-.77-.71v-5.68c0-1.53-.68-2.22-2.21-2.22-.67,0-1.64.36-2.12.66v7.24q0,.71-.77.71-.77,0-.77-.71Z"/>
    <path class="cls-6" d="M716,293.54c0-1.31,1.08-2.39,2.4-2.39s2.4,1.08,2.4,2.39-1.08,2.4-2.4,2.4-2.4-1.08-2.4-2.4Z"/>
    <path class="cls-6" d="M729.37,298.07v-11.45q0-1.31,1.31-1.31h3.92c2.66,0,4.33,1.67,4.33,4.24s-1.64,4.23-4.36,4.23h-3.6v4.28q0,.73-.79.73t-.8-.72ZM734.51,292.28c1.9,0,2.82-1.1,2.82-2.72s-.93-2.72-2.81-2.72h-3.56v5.44h3.55Z"/>
    <path class="cls-6" d="M740.78,295.11c-.08-.72-.08-1.85,0-2.57.22-2.28,1.92-3.87,4.33-3.87s4.13,1.59,4.33,3.87c.07.71.07,1.84,0,2.57-.23,2.27-1.91,3.86-4.33,3.86s-4.09-1.59-4.32-3.86ZM745.1,297.47c1.59,0,2.65-1.03,2.8-2.52.07-.71.07-1.55,0-2.25-.14-1.49-1.22-2.51-2.8-2.51s-2.64,1.02-2.79,2.51c-.07.7-.07,1.55,0,2.25.14,1.49,1.22,2.52,2.79,2.52Z"/>
    <path class="cls-6" d="M752.18,298.08v-6.32c0-1.94,1.15-3.09,3.1-3.09.7,0,1.28.09,1.68.21.29.09.56.15.56.36,0,.11-.02.2-.13.61-.13.46-.2.58-.39.58-.12,0-.28-.05-.44-.1-.35-.1-.75-.15-1.21-.15-1.09,0-1.63.53-1.63,1.62v6.28q0,.71-.77.71t-.77-.71Z"/>
    <path class="cls-6" d="M759.49,296v-8.57q0-.71.77-.71t.77.71v1.41h2.9q.69,0,.69.73,0,.72-.69.72h-2.9v5.57c0,1.09.47,1.62,1.5,1.62.61,0,1.06-.12,1.48-.3.14-.05.28-.1.39-.1.17,0,.23.12.42.57.16.41.17.45.17.54,0,.15-.14.24-.42.35-.68.29-1.37.43-2.12.43-1.81,0-2.97-1.08-2.97-2.96Z"/>
    <path class="cls-6" d="M766.65,297.89c-.21-.16-.35-.28-.35-.41,0-.11.06-.2.31-.53.26-.34.36-.46.48-.46s.25.11.41.22c.61.46,1.35.82,2.64.82,1.37,0,2.03-.64,2.03-1.53,0-.69-.42-1.13-1.5-1.38l-1.48-.36c-1.6-.37-2.57-1.23-2.57-2.65,0-1.8,1.44-2.93,3.48-2.93,1.32,0,2.29.45,2.92.91.21.15.31.28.31.38,0,.15-.08.27-.3.58-.25.32-.38.46-.52.46-.12,0-.23-.11-.43-.23-.44-.33-1.12-.65-1.94-.65-1.29,0-2.01.51-2.01,1.44,0,.6.35,1.04,1.49,1.31l1.41.32c1.83.43,2.67,1.36,2.67,2.74,0,1.86-1.42,3.03-3.56,3.03-1.43,0-2.59-.37-3.49-1.08Z"/>
    <path class="cls-6" d="M776.21,298.08v-7.51c0-.53.07-.7.39-.9.64-.46,2.04-1,3.33-1,1.42,0,2.25.46,2.87,1.1.68-.49,1.69-1.1,3.14-1.1,2.49,0,3.56,1.41,3.56,3.57v5.83q0,.71-.77.71t-.77-.71v-5.66c0-1.45-.68-2.23-2.17-2.23-1,0-1.78.44-2.3.87.1.4.13.8.13,1.33v5.71q0,.71-.77.71-.77,0-.77-.71v-5.68c0-1.53-.68-2.22-2.21-2.22-.67,0-1.64.36-2.12.66v7.24q0,.71-.77.71-.77,0-.77-.71Z"/>
    <path class="cls-6" d="M792.24,295.11c-.08-.72-.08-1.85,0-2.57.22-2.28,1.92-3.87,4.33-3.87s4.13,1.59,4.33,3.87c.07.71.07,1.84,0,2.57-.23,2.27-1.91,3.86-4.33,3.86s-4.09-1.59-4.32-3.86ZM796.56,297.47c1.59,0,2.65-1.03,2.8-2.52.07-.71.07-1.55,0-2.25-.14-1.49-1.22-2.51-2.8-2.51s-2.64,1.02-2.79,2.51c-.07.7-.07,1.55,0,2.25.14,1.49,1.22,2.52,2.79,2.52Z"/>
    <path class="cls-6" d="M803.61,294.99v-5.44q0-.71.77-.71t.77.71v5.31c0,1.71.85,2.59,2.55,2.59,1,0,1.99-.29,2.57-.66v-7.24q0-.71.77-.71.77,0,.77.71v7.51c0,.53-.07.71-.38.9-.67.41-2.04,1-3.74,1-2.59,0-4.08-1.47-4.08-3.97Z"/>
    <path class="cls-6" d="M814.91,296v-8.57q0-.71.77-.71t.77.71v1.41h2.9q.69,0,.69.73,0,.72-.69.72h-2.9v5.57c0,1.09.47,1.62,1.5,1.62.61,0,1.06-.12,1.48-.3.14-.05.28-.1.39-.1.17,0,.23.12.42.57.16.41.17.45.17.54,0,.15-.14.24-.42.35-.68.29-1.37.43-2.12.43-1.81,0-2.97-1.08-2.97-2.96Z"/>
    <path class="cls-6" d="M822.43,298.08v-12.22q0-.71.77-.71t.77.71v4.1c.74-.72,1.88-1.28,3.06-1.28,2.17,0,3.67,1.32,3.67,3.78v5.63q0,.71-.77.71-.77,0-.77-.71v-5.43c0-1.55-.8-2.47-2.34-2.47-1.14,0-2.23.69-2.85,1.49v6.41q0,.71-.77.71-.77,0-.77-.71Z"/>
  </g>
  <g>
    <path class="cls-4" d="M1019.15,78.2c-.09,0-.19-.05-.24-.13-2.21-3.51-6.65-5.93-11.86-6.49-.12-.01-.22-.1-.25-.21-2.1-8.48-10.21-14.41-19.73-14.41-7.76,0-14.93,4.14-18.27,10.54-.04.08-.12.13-.21.15-.09.01-.18-.01-.24-.07-2.5-2.38-5.81-3.7-9.3-3.7-5.97,0-11.25,3.91-12.83,9.52-.04.15-.2.24-.35.2-.15-.04-.24-.2-.2-.35,1.66-5.85,7.16-9.93,13.38-9.93,3.52,0,6.85,1.28,9.42,3.6,3.51-6.41,10.77-10.52,18.6-10.52,4.74,0,9.38,1.5,13.06,4.23,3.58,2.65,6.12,6.34,7.17,10.42,5.3.61,9.81,3.12,12.09,6.73.08.13.04.31-.09.39-.05.03-.1.04-.15.04Z"/>
    <path class="cls-4" d="M1019.16,78.2h-94.2c-.16,0-.28-.13-.28-.28s.13-.28.28-.28h94.2c.16,0,.28.13.28.28s-.13.28-.28.28Z"/>
  </g>
  <g>
    <path class="cls-4" d="M934.84,133.43c-.08,0-.15-.04-.19-.11-1.79-2.83-5.36-4.79-9.57-5.23-.1-.01-.18-.08-.2-.17-1.69-6.84-8.24-11.62-15.92-11.62-6.26,0-12.04,3.34-14.74,8.51-.03.06-.09.11-.17.12-.07.01-.14-.01-.2-.06-2.02-1.92-4.68-2.98-7.5-2.98-4.81,0-9.07,3.16-10.35,7.68-.03.12-.16.19-.28.16-.12-.03-.19-.16-.16-.28,1.34-4.72,5.77-8.01,10.79-8.01,2.84,0,5.52,1.03,7.6,2.9,2.83-5.17,8.69-8.49,15-8.49,3.83,0,7.57,1.21,10.54,3.41,2.88,2.14,4.93,5.12,5.79,8.41,4.28.49,7.91,2.52,9.75,5.43.07.11.04.25-.07.32-.04.02-.08.04-.12.04Z"/>
    <path class="cls-4" d="M934.85,133.42h-75.99c-.13,0-.23-.1-.23-.23s.1-.23.23-.23h75.99c.13,0,.23.1.23.23s-.1.23-.23.23Z"/>
  </g>
  <g>
    <path class="cls-4" d="M219.64,138.43c-.07,0-.14-.03-.17-.1-1.61-2.55-4.84-4.32-8.64-4.72-.09,0-.16-.07-.18-.16-1.53-6.18-7.43-10.49-14.36-10.49-5.65,0-10.87,3.01-13.3,7.68-.03.06-.09.1-.15.11-.06.01-.13,0-.18-.05-1.82-1.74-4.23-2.69-6.77-2.69-4.34,0-8.19,2.85-9.34,6.93-.03.11-.15.17-.25.14-.11-.03-.17-.15-.14-.25,1.21-4.26,5.21-7.23,9.74-7.23,2.56,0,4.98.93,6.86,2.62,2.56-4.66,7.84-7.66,13.54-7.66,3.45,0,6.83,1.09,9.51,3.08,2.6,1.93,4.45,4.62,5.22,7.59,3.86.45,7.14,2.27,8.8,4.9.06.1.03.22-.06.28-.03.02-.07.03-.11.03Z"/>
    <path class="cls-4" d="M219.65,138.42h-68.57c-.11,0-.21-.09-.21-.21s.09-.21.21-.21h68.57c.11,0,.21.09.21.21s-.09.21-.21.21Z"/>
  </g>
  <g>
    <path class="cls-3" d="M436.94,163.2c-.05,0-.1-.03-.13-.07-1.23-1.95-3.7-3.3-6.6-3.61-.07,0-.12-.05-.14-.12-1.17-4.72-5.68-8.02-10.98-8.02-4.32,0-8.31,2.3-10.17,5.87-.02.04-.07.07-.11.08-.05,0-.1,0-.13-.04-1.39-1.33-3.23-2.06-5.18-2.06-3.32,0-6.26,2.18-7.14,5.3-.02.08-.11.13-.19.11-.08-.02-.13-.11-.11-.19.92-3.25,3.98-5.53,7.45-5.53,1.96,0,3.81.71,5.24,2,1.95-3.56,5.99-5.86,10.35-5.86,2.64,0,5.22.84,7.27,2.35,1.99,1.47,3.4,3.53,3.99,5.8,2.95.34,5.46,1.74,6.73,3.74.05.07.02.17-.05.22-.03.02-.06.02-.08.02Z"/>
    <path class="cls-3" d="M436.94,163.2h-52.42c-.09,0-.16-.07-.16-.16s.07-.16.16-.16h52.42c.09,0,.16.07.16.16s-.07.16-.16.16Z"/>
  </g>
  <g>
    <path class="cls-3" d="M345.4,88.38s-.08-.02-.11-.06c-.99-1.57-2.98-2.66-5.33-2.91-.05,0-.1-.04-.11-.1-.94-3.81-4.58-6.47-8.86-6.47-3.48,0-6.7,1.86-8.2,4.73-.02.04-.05.06-.09.07-.04,0-.08,0-.11-.03-1.12-1.07-2.61-1.66-4.17-1.66-2.68,0-5.05,1.76-5.76,4.27-.02.07-.09.11-.16.09-.07-.02-.11-.09-.09-.16.74-2.62,3.21-4.46,6.01-4.46,1.58,0,3.07.57,4.23,1.62,1.58-2.88,4.83-4.72,8.35-4.72,2.13,0,4.21.67,5.86,1.9,1.6,1.19,2.75,2.85,3.22,4.68,2.38.28,4.4,1.4,5.43,3.02.04.06.02.14-.04.18-.02.01-.04.02-.07.02Z"/>
    <path class="cls-3" d="M345.41,88.38h-42.28c-.07,0-.13-.06-.13-.13s.06-.13.13-.13h42.28c.07,0,.13.06.13.13s-.06.13-.13.13Z"/>
  </g>
  <g>
    <path class="cls-4" d="M1165.11,187.99c-.09,0-.19-.05-.24-.13-2.21-3.51-6.65-5.93-11.86-6.49-.12-.01-.22-.1-.25-.21-2.1-8.48-10.21-14.41-19.73-14.41-7.76,0-14.93,4.14-18.27,10.54-.04.08-.12.13-.21.15-.09.01-.18-.01-.24-.07-2.5-2.38-5.81-3.7-9.3-3.7-5.97,0-11.25,3.91-12.83,9.52-.04.15-.2.24-.35.2-.15-.04-.24-.2-.2-.35,1.66-5.85,7.16-9.93,13.38-9.93,3.52,0,6.85,1.28,9.42,3.6,3.51-6.41,10.77-10.52,18.6-10.52,4.74,0,9.38,1.5,13.06,4.23,3.58,2.65,6.12,6.34,7.17,10.42,5.3.61,9.81,3.12,12.09,6.73.08.13.04.31-.09.39-.05.03-.1.04-.15.04Z"/>
    <path class="cls-4" d="M1165.12,187.99h-94.2c-.16,0-.28-.13-.28-.28s.13-.28.28-.28h94.2c.16,0,.28.13.28.28s-.13.28-.28.28Z"/>
  </g>
  <g class="cls-8">
    <path class="cls-7" d="M330.82,291.61v14.84c0,13.67-11.2,24.79-24.96,24.79h-120.73c-12.71,0-23.06,10.25-23.06,22.84v10.41h-6.55v-10.41c0-16.2,13.28-29.39,29.61-29.39h120.73c10.15,0,18.41-8.18,18.41-18.24v-14.84c0-10.73-8.81-19.45-19.65-19.45h-140.23c-9.94,0-17.34-3.84-22.01-11.42-2.2-3.56-3.76-7.98-4.67-13.21h-.01c-5.95-.94-10.5-6.08-10.5-12.3,0-5.27,3.27-9.77,7.89-11.59-.77-4.2-2.02-7.71-3.73-10.49-3.44-5.58-8.81-8.3-16.43-8.3H-25.31c-14.44,0-26.2-11.66-26.2-26.01v-14.84c0-13.67,11.2-24.79,24.97-24.79h120.73c12.17,0,22.17-9.39,23-21.24-5.29-1.44-9.17-6.27-9.17-12.01s3.95-10.64,9.3-12.04c.85-15.46,13.79-27.76,29.56-27.76h120.73c10.15,0,18.42-8.18,18.42-18.24v-14.84c0-10.73-8.82-19.46-19.65-19.46H126.14c-9.93,0-17.34-3.84-22.01-11.41-3.75-6.08-5.65-14.67-5.65-25.51h6.55c0,9.61,1.57,17.04,4.68,22.07,3.44,5.59,8.82,8.3,16.43,8.3h140.24c14.44,0,26.2,11.67,26.2,26.01v14.84c0,13.67-11.2,24.79-24.97,24.79h-120.73c-12.18,0-22.19,9.42-22.99,21.29,5.21,1.48,9.02,6.28,9.02,11.96s-3.88,10.57-9.16,12.01c-.83,15.46-13.77,27.8-29.56,27.8H-26.54c-10.15,0-18.41,8.18-18.41,18.23v14.84c0,10.73,8.81,19.46,19.64,19.46H114.93c9.94,0,17.34,3.84,22.01,11.41,2.2,3.57,3.76,7.99,4.67,13.22,5.94.95,10.48,6.09,10.48,12.3,0,5.25-3.25,9.75-7.86,11.58.77,4.21,2.01,7.71,3.73,10.49,3.44,5.59,8.81,8.3,16.43,8.3h140.23c14.45,0,26.2,11.67,26.2,26.01Z"/>
  </g>
  <g>
    <g>
      <path d="M246.9,203.25c-.18,0-.34-.12-.38-.3-.73-2.82-1.09-5.74-1.06-8.69.08-7.51,2.76-14.82,7.53-20.6,4.7-5.69,11.24-9.68,18.41-11.23.21-.05.43.09.47.3.05.21-.09.43-.3.47-14.74,3.19-25.14,15.96-25.31,31.06-.03,2.87.32,5.72,1.03,8.48.06.21-.07.43-.29.49-.03,0-.07.01-.1.01Z"/>
      <path d="M269.72,226.4s-.07,0-.11-.01c-6.18-1.7-11.7-5.16-15.96-10-.15-.17-.13-.42.04-.56.17-.15.42-.13.56.04,4.16,4.72,9.54,8.1,15.57,9.76.21.06.34.28.28.49-.05.18-.21.29-.38.29Z"/>
      <path d="M285.9,226.69c-.18,0-.34-.12-.39-.31-.05-.21.08-.43.3-.48,6.46-1.53,12.21-4.97,16.64-9.97.15-.16.4-.18.56-.03.16.15.18.4.03.56-4.54,5.12-10.44,8.65-17.05,10.22-.03,0-.06.01-.09.01Z"/>
      <path d="M309.72,203.83s-.07,0-.11-.01c-.21-.06-.34-.28-.28-.49.76-2.7,1.16-5.51,1.19-8.34.14-12.53-7.1-24.09-18.44-29.44-.2-.09-.28-.33-.19-.53.09-.2.33-.28.53-.19,11.62,5.48,19.04,17.32,18.89,30.17-.03,2.9-.44,5.78-1.22,8.55-.05.18-.21.29-.38.29Z"/>
    </g>
    <g>
      <path d="M240.72,204.88c-.18,0-.34-.12-.39-.3-.88-3.37-1.3-6.86-1.26-10.37.1-8.96,3.29-17.69,8.98-24.59,5.61-6.79,13.42-11.56,21.98-13.41.21-.05.43.09.47.3.05.21-.09.43-.3.47-17.66,3.82-30.14,19.13-30.34,37.23-.04,3.44.38,6.86,1.24,10.16.06.21-.07.43-.29.49-.03,0-.07.01-.1.01Z"/>
      <path d="M268.02,232.56s-.07,0-.11-.01c-7.38-2.03-13.96-6.16-19.05-11.93-.15-.17-.13-.42.04-.56.16-.15.42-.13.56.04,4.98,5.66,11.44,9.7,18.66,11.69.21.06.34.28.28.49-.05.18-.21.29-.38.29Z"/>
      <path d="M287.37,232.92c-.18,0-.34-.12-.39-.31-.05-.21.08-.43.3-.48,7.74-1.83,14.64-5.96,19.95-11.95.15-.16.4-.18.56-.03.16.15.18.4.03.56-5.42,6.11-12.46,10.33-20.36,12.2-.03,0-.06.01-.09.01Z"/>
      <path d="M315.87,205.57s-.07,0-.11-.01c-.21-.06-.34-.28-.28-.49.91-3.24,1.39-6.6,1.42-10,.17-15.02-8.51-28.87-22.1-35.28-.2-.09-.28-.33-.19-.53.09-.2.33-.28.53-.19,13.87,6.55,22.72,20.68,22.56,36.01-.04,3.47-.53,6.9-1.45,10.2-.05.18-.21.29-.38.29Z"/>
    </g>
    <g>
      <g>
        <polygon class="cls-7" points="277.39 196.81 270.75 324.94 287.62 324.94 280.98 196.81 277.39 196.81"/>
        <path class="cls-9" d="M275.82,227.06c.73.06,1.47.09,2.21.1,1.53.02,3.04-.07,4.51-.26l-1.56-30.09h-3.59l-1.57,30.25Z"/>
        <path d="M287.62,325.34h-16.88c-.11,0-.21-.04-.29-.12-.08-.08-.11-.19-.11-.29l6.64-128.13c.01-.21.19-.38.4-.38h3.59c.21,0,.39.17.4.38l6.64,128.13c0,.11-.03.22-.11.29-.08.08-.18.12-.29.12ZM271.16,324.54h16.04l-6.6-127.33h-2.84l-6.6,127.33Z"/>
      </g>
      <g>
        <g>
          <path class="cls-9" d="M250.02,210.57c.62,1.1,1.3,2.16,2.04,3.17l23.35-10.67,3.44-6.51-.47-1.97-28.36,15.98Z"/>
          <path d="M235.11,221.89c-.11,0-.21-.04-.29-.12-.12-.12-.14-.31-.06-.46l1.89-3.57c.04-.07.09-.12.16-.16l41.38-23.32c.11-.06.24-.07.35-.02.11.05.2.15.23.27l.47,1.97c.02.09.01.19-.03.28l-3.44,6.51c-.04.08-.11.14-.19.18l-40.3,18.41c-.05.02-.11.04-.17.04ZM237.29,218.21l-1.29,2.43,39.11-17.87,3.3-6.26-.31-1.31-40.82,23.01Z"/>
        </g>
        <g>
          <path class="cls-9" d="M306.39,211.21c.64-1.08,1.22-2.19,1.73-3.34l-20.94-14.92-7.36.28-1.47,1.39,28.04,16.59Z"/>
          <path d="M319.23,219.21c-.07,0-.14-.02-.2-.06l-40.88-24.19c-.11-.06-.18-.17-.19-.3s.03-.25.12-.33l1.47-1.39c.07-.07.16-.11.26-.11l7.36-.28c.09,0,.17.02.25.07l36.09,25.71c.14.1.2.28.15.44-.05.16-.2.28-.37.28l-4.04.15s0,0-.01,0ZM279,194.55l40.33,23.86,2.75-.1-35.02-24.95-7.08.27-.98.93Z"/>
        </g>
        <g>
          <path class="cls-9" d="M278.74,162.09c-1.27-.01-2.53.05-3.76.18l-2.45,25.55,3.92,6.24,1.94.58.36-32.54Z"/>
          <path d="M278.39,195.03s-.08,0-.11-.02l-1.94-.58c-.09-.03-.17-.09-.22-.17l-3.92-6.24c-.05-.07-.07-.16-.06-.25l4.23-44.11c.02-.17.14-.31.3-.35.17-.04.34.03.43.18l2.15,3.42c.04.06.06.14.06.22l-.52,47.5c0,.12-.06.24-.16.32-.07.05-.15.08-.24.08ZM276.7,193.72l1.29.38.51-46.85-1.46-2.33-4.11,42.81,3.77,5.99Z"/>
        </g>
        <circle class="cls-9" cx="278.39" cy="194.63" r="5.72"/>
        <path d="M278.39,200.75s-.05,0-.07,0c-1.63-.02-3.16-.67-4.31-1.84-1.14-1.17-1.76-2.71-1.74-4.35.04-3.37,2.81-6.08,6.18-6.05,1.63.02,3.16.67,4.31,1.84,1.14,1.17,1.76,2.71,1.74,4.35-.04,3.35-2.77,6.05-6.12,6.05ZM278.39,189.31c-2.91,0-5.29,2.35-5.32,5.26-.02,1.42.52,2.76,1.52,3.78.99,1.02,2.32,1.58,3.74,1.6.02,0,.04,0,.06,0,2.91,0,5.29-2.35,5.32-5.26h.4s-.4,0-.4,0c.02-1.42-.52-2.76-1.52-3.78-.99-1.02-2.32-1.58-3.74-1.6-.02,0-.04,0-.06,0Z"/>
      </g>
    </g>
  </g>
  <g class="cls-8">
    <path class="cls-7" d="M1310.04,114.49v6.55c-9.62,0-17.04,1.58-22.08,4.68-5.58,3.45-8.3,8.82-8.3,16.43v140.24c0,14.45-11.67,26.2-26.01,26.2h-14.84c-13.67,0-24.79-11.2-24.79-24.97v-120.72c0-12.21-9.43-22.22-21.33-23-1.54,5.12-6.29,8.85-11.92,8.85s-10.28-3.65-11.87-8.69c-15.53-.77-27.93-13.74-27.93-29.57V-10.24c0-10.15-8.18-18.42-18.24-18.42h-14.84c-10.73,0-19.46,8.82-19.46,19.65v140.24c0,9.93-3.84,17.34-11.41,22.01-3.57,2.2-8.01,3.77-13.26,4.67-1.02,5.85-6.12,10.29-12.25,10.29-5.32,0-9.85-3.33-11.64-8.02-4.04.78-7.43,2-10.13,3.67-5.58,3.44-8.3,8.82-8.3,16.43v140.24c0,14.44-11.67,26.2-26.01,26.2h-14.84c-13.67,0-24.79-11.2-24.79-24.97v-120.73c0-12.15-9.35-22.13-21.18-22.98-1.37,5.39-6.25,9.38-12.07,9.38-5.51,0-10.19-3.59-11.82-8.55-4.1.77-7.53,2-10.25,3.68-5.59,3.45-8.3,8.82-8.3,16.44v140.23h-6.55v-140.23c0-9.94,3.84-17.35,11.41-22.01,3.59-2.22,8.06-3.79,13.35-4.7,1.23-5.59,6.21-9.76,12.16-9.76s10.43,3.76,11.94,8.93c15.5.8,27.86,13.76,27.86,29.57v120.73c0,10.15,8.19,18.41,18.24,18.41h14.84c10.73,0,19.46-8.81,19.46-19.64v-140.24c0-9.94,3.84-17.34,11.41-22.01,3.5-2.16,7.83-3.7,12.94-4.62.99-5.87,6.11-10.34,12.27-10.34,5.33,0,9.88,3.36,11.65,8.07,4.18-.78,7.66-2.02,10.42-3.72,5.59-3.44,8.3-8.82,8.3-16.43V-9.01c0-14.45,11.67-26.2,26.01-26.2h14.84c13.67,0,24.79,11.2,24.79,24.97v120.73c0,12.13,9.33,22.1,21.13,22.98,1.28-5.51,6.23-9.61,12.12-9.61s10.76,4.03,12.09,9.48c15.43.88,27.71,13.8,27.71,29.56v120.72c0,10.16,8.19,18.42,18.24,18.42h14.84c10.73,0,19.46-8.82,19.46-19.65v-140.24c0-9.93,3.84-17.34,11.41-22,6.09-3.76,14.67-5.66,25.52-5.66Z"/>
  </g>
  <g>
    <g>
      <g>
        <ellipse class="cls-5" cx="1031.67" cy="262.57" rx="22.53" ry="46.66"/>
        <path class="cls-2" d="M1031.67,309.42c-6.09,0-11.81-4.89-16.1-13.77-4.27-8.84-6.62-20.58-6.62-33.08s2.35-24.24,6.62-33.08c4.29-8.88,10.01-13.77,16.1-13.77s11.81,4.89,16.1,13.77c4.27,8.84,6.62,20.58,6.62,33.08s-2.35,24.24-6.62,33.08c-4.29,8.88-10.01,13.77-16.1,13.77ZM1031.67,216.1c-12.32,0-22.34,20.85-22.34,46.47s10.02,46.47,22.34,46.47,22.34-20.85,22.34-46.47-10.02-46.47-22.34-46.47Z"/>
      </g>
      <path class="cls-2" d="M1031.93,248.35h0c-.1,0-.19-.09-.19-.19,0-.1.09-.19.19-.19h0s2.3-.02,4.54-1.67c2.97-2.19,4.54-6.26,4.54-11.78,0-.1.08-.19.19-.19s.19.08.19.19c0,5.01-1.23,8.77-3.65,11.18-2.61,2.61-5.64,2.64-5.8,2.64Z"/>
      <path class="cls-2" d="M1031.05,238.19c-.73,0-2.22-.17-3.57-1.37-1.86-1.65-2.76-4.6-2.65-8.77,0-.1.09-.18.19-.19.1,0,.19.09.19.19-.1,4.05.75,6.9,2.53,8.47,1.71,1.52,3.7,1.25,3.72,1.25.1-.02.2.06.21.16.02.1-.06.2-.16.21-.02,0-.19.03-.46.03Z"/>
      <path class="cls-2" d="M1031.45,255.79h0s-3.5-.06-6.92-2.01c-3.16-1.8-6.93-5.62-6.93-13.59,0-.1.08-.19.19-.19s.19.08.19.19c0,6.25,2.26,10.71,6.72,13.26,3.33,1.9,6.72,1.96,6.75,1.96.1,0,.19.09.19.19,0,.1-.09.19-.19.19Z"/>
      <path class="cls-2" d="M1031.67,335.88c-.1,0-.19-.08-.19-.19v-105.53c0-.1.08-.19.19-.19s.19.08.19.19v105.53c0,.1-.08.19-.19.19Z"/>
    </g>
    <g>
      <g>
        <path class="cls-5" d="M1071.82,279.96c0,24.09-7.71,31.22-17.22,31.22s-17.22-7.13-17.22-31.22,7.71-56.02,17.22-56.02,17.22,31.93,17.22,56.02Z"/>
        <path class="cls-2" d="M1054.6,311.37c-5.31,0-9.46-2.24-12.33-6.66-3.37-5.18-5.07-13.51-5.07-24.75,0-12.07,1.89-25.94,5.05-37.1,2.02-7.14,6.32-19.12,12.36-19.12s10.33,11.98,12.36,19.12c3.16,11.16,5.05,25.03,5.05,37.1,0,11.24-1.71,19.57-5.07,24.75-2.87,4.42-7.02,6.66-12.33,6.66ZM1054.6,224.12c-4.23,0-8.6,6.87-11.99,18.84-3.15,11.13-5.04,24.96-5.04,37,0,11.17,1.69,19.43,5.01,24.54,2.8,4.31,6.84,6.49,12.01,6.49s9.22-2.18,12.01-6.49c3.33-5.12,5.01-13.38,5.01-24.54,0-12.04-1.88-25.87-5.04-37-3.39-11.97-7.76-18.84-11.99-18.84Z"/>
      </g>
      <g>
        <path class="cls-2" d="M1054.6,335.88c-.1,0-.19-.08-.19-.19v-76.21c0-.1.08-.19.19-.19s.19.08.19.19v76.21c0,.1-.08.19-.19.19Z"/>
        <path class="cls-2" d="M1054.6,277.32c-.08,0-.15-.04-.18-.12-.04-.1,0-.21.11-.25,7.25-2.92,9.67-8.6,10.42-12.85.82-4.62-.1-8.59-.1-8.63-.02-.1.04-.2.14-.23.1-.02.2.04.23.14,0,.04.94,4.09.11,8.79-.77,4.35-3.24,10.15-10.65,13.14-.02,0-.05.01-.07.01Z"/>
        <path class="cls-2" d="M1053.42,269.16c-2.1,0-3.9-.7-5.37-2.09-5.32-5.04-4.59-17.29-4.56-17.81,0-.1.1-.18.2-.18.1,0,.18.1.18.2,0,.13-.75,12.59,4.44,17.51,1.66,1.57,3.76,2.21,6.26,1.92.1-.01.2.06.21.17.01.1-.06.2-.17.21-.41.05-.81.07-1.2.07Z"/>
      </g>
    </g>
  </g>
</svg>