<?xml version="1.0" encoding="UTF-8"?>
<svg id="Layer_1" data-name="Layer 1" xmlns="http://www.w3.org/2000/svg" viewBox="0 0 320 568.89">
  <defs>
    <style>
      .cls-1 {
        fill: #fbb800;
      }

      .cls-2 {
        fill: #fff;
      }

      .cls-3 {
        stroke: #000;
        stroke-linecap: round;
        stroke-linejoin: round;
        stroke-width: .5px;
      }

      .cls-4 {
        opacity: .25;
      }

      .cls-5 {
        fill: #71d9ca;
      }
    </style>
  </defs>
  <rect class="cls-1" x="0" y="0" width="320" height="567.98"/>
  <g>
    <path class="cls-3" d="M290.63,122.56c-.09,0-.19-.05-.24-.13-2.21-3.51-6.65-5.93-11.86-6.49-.12-.01-.22-.1-.25-.21-2.1-8.48-10.21-14.41-19.73-14.41-7.76,0-14.93,4.14-18.27,10.54-.04.08-.12.13-.21.15-.09.01-.18-.01-.24-.07-2.5-2.38-5.81-3.7-9.3-3.7-5.97,0-11.25,3.91-12.83,9.52-.04.15-.2.24-.35.2-.15-.04-.24-.2-.2-.35,1.66-5.85,7.16-9.93,13.38-9.93,3.52,0,6.85,1.28,9.42,3.6,3.51-6.41,10.77-10.52,18.6-10.52,4.74,0,9.38,1.5,13.06,4.23,3.58,2.65,6.12,6.34,7.17,10.42,5.3.61,9.81,3.12,12.09,6.73.08.13.04.31-.09.39-.05.03-.1.04-.15.04Z"/>
    <path class="cls-3" d="M290.65,122.56h-94.2c-.16,0-.28-.13-.28-.28s.13-.28.28-.28h94.2c.16,0,.28.13.28.28s-.13.28-.28.28Z"/>
  </g>
  <g>
    <path class="cls-3" d="M140.33,168.38c-.08,0-.15-.04-.19-.11-1.79-2.83-5.36-4.79-9.57-5.23-.1-.01-.18-.08-.2-.17-1.69-6.84-8.24-11.62-15.92-11.62-6.26,0-12.04,3.34-14.74,8.51-.03.06-.09.11-.17.12-.07.01-.14-.01-.2-.06-2.02-1.92-4.68-2.98-7.5-2.98-4.81,0-9.07,3.16-10.35,7.68-.03.12-.16.19-.28.16-.12-.03-.19-.16-.16-.28,1.34-4.72,5.77-8.01,10.79-8.01,2.84,0,5.52,1.03,7.6,2.9,2.83-5.17,8.69-8.49,15-8.49,3.83,0,7.57,1.21,10.54,3.41,2.88,2.14,4.93,5.12,5.79,8.41,4.28.49,7.91,2.52,9.75,5.43.07.11.04.25-.07.32-.04.02-.08.04-.12.04Z"/>
    <path class="cls-3" d="M140.34,168.37h-75.99c-.13,0-.23-.1-.23-.23s.1-.23.23-.23h75.99c.13,0,.23.1.23.23s-.1.23-.23.23Z"/>
  </g>
  <g>
    <path class="cls-3" d="M233.22,262.29c-.09,0-.19-.05-.24-.13-2.21-3.51-6.65-5.93-11.86-6.49-.12-.01-.22-.1-.25-.21-2.1-8.48-10.21-14.41-19.73-14.41-7.76,0-14.93,4.14-18.27,10.54-.04.08-.12.13-.21.15-.09.01-.18-.01-.24-.07-2.5-2.38-5.81-3.7-9.3-3.7-5.97,0-11.25,3.91-12.83,9.52-.04.15-.2.24-.35.2-.15-.04-.24-.2-.2-.35,1.66-5.85,7.16-9.93,13.38-9.93,3.52,0,6.85,1.28,9.42,3.6,3.51-6.41,10.77-10.52,18.6-10.52,4.74,0,9.38,1.5,13.06,4.23,3.58,2.65,6.12,6.34,7.17,10.42,5.3.61,9.81,3.12,12.09,6.73.08.13.04.31-.09.39-.05.03-.1.04-.15.04Z"/>
    <path class="cls-3" d="M233.23,262.28h-94.2c-.16,0-.28-.13-.28-.28s.13-.28.28-.28h94.2c.16,0,.28.13.28.28s-.13.28-.28.28Z"/>
  </g>
  <g>
    <path class="cls-3" d="M288.31,291.53c-.07,0-.14-.03-.17-.1-1.61-2.55-4.84-4.32-8.64-4.72-.09,0-.16-.07-.18-.16-1.53-6.18-7.43-10.49-14.36-10.49-5.65,0-10.87,3.01-13.3,7.68-.03.06-.09.1-.15.11-.06.01-.13,0-.18-.05-1.82-1.74-4.23-2.69-6.77-2.69-4.34,0-8.19,2.85-9.34,6.93-.03.11-.15.17-.25.14-.11-.03-.17-.15-.14-.25,1.21-4.26,5.21-7.23,9.74-7.23,2.56,0,4.98.93,6.86,2.62,2.56-4.66,7.84-7.66,13.54-7.66,3.45,0,6.83,1.09,9.51,3.08,2.6,1.93,4.45,4.62,5.22,7.59,3.86.45,7.14,2.27,8.8,4.9.06.1.03.22-.06.28-.03.02-.07.03-.11.03Z"/>
    <path class="cls-3" d="M288.31,291.53h-68.57c-.11,0-.21-.09-.21-.21s.09-.21.21-.21h68.57c.11,0,.21.09.21.21s-.09.21-.21.21Z"/>
  </g>
  <g class="cls-4">
    <path class="cls-2" d="M-38.95,465.55v21.93c0,20.2,16.55,36.63,36.88,36.63h178.41c18.78,0,34.08,15.15,34.08,33.75v15.38h9.68v-15.38c0-23.94-19.62-43.43-43.76-43.43H-2.06c-15,0-27.21-12.09-27.21-26.95v-21.93c0-15.86,13.02-28.74,29.04-28.74h207.23c14.69,0,25.62-5.67,32.53-16.88,3.25-5.26,5.56-11.79,6.9-19.52h.02c8.79-1.39,15.52-8.98,15.52-18.18,0-7.79-4.83-14.44-11.66-17.13,1.14-6.21,2.99-11.39,5.51-15.5,5.08-8.25,13.02-12.27,24.28-12.27h207.24c21.34,0,38.72-17.23,38.72-38.44v-21.93c0-20.2-16.55-36.63-36.9-36.63h-178.41c-17.98,0-32.76-13.88-33.99-31.39,7.82-2.13,13.55-9.27,13.55-17.75,0-8.54-5.84-15.72-13.74-17.79-1.26-22.85-20.38-41.02-43.68-41.02H54.46c-15,0-27.22-12.09-27.22-26.95v-21.93c0-15.86,13.03-28.76,29.04-28.76h207.24c14.67,0,25.62-5.67,32.53-16.86,5.54-8.98,8.35-21.68,8.35-37.7h-9.68c0,14.2-2.32,25.18-6.92,32.61-5.08,8.26-13.03,12.27-24.28,12.27H56.28c-21.34,0-38.72,17.25-38.72,38.44v21.93c0,20.2,16.55,36.63,36.9,36.63h178.41c18,0,32.79,13.92,33.97,31.46-7.7,2.19-13.33,9.28-13.33,17.67,0,8.48,5.73,15.62,13.54,17.75,1.23,22.85,20.35,41.08,43.68,41.08h178.41c15,0,27.21,12.09,27.21,26.94v21.93c0,15.86-13.02,28.76-29.02,28.76h-207.24c-14.69,0-25.62,5.67-32.53,16.86-3.25,5.28-5.56,11.81-6.9,19.54-8.78,1.4-15.49,9-15.49,18.18,0,7.76,4.8,14.41,11.61,17.11-1.14,6.22-2.97,11.39-5.51,15.5-5.08,8.26-13.02,12.27-24.28,12.27H-.23c-21.35,0-38.72,17.25-38.72,38.44Z"/>
  </g>
  <g>
    <g>
      <path d="M49.7,378.36c-.29,0-.55-.19-.63-.48-1.19-4.58-1.77-9.33-1.72-14.11.13-12.19,4.48-24.08,12.23-33.46,7.64-9.25,18.26-15.73,29.91-18.25.35-.07.69.15.77.5.08.35-.15.69-.5.77-23.94,5.18-40.85,25.93-41.12,50.46-.05,4.67.51,9.3,1.68,13.77.09.35-.12.7-.46.79-.05.01-.11.02-.16.02Z"/>
      <path d="M86.78,415.97c-.06,0-.11,0-.17-.02-10.04-2.77-19-8.38-25.92-16.24-.24-.27-.21-.68.06-.91.27-.24.68-.21.91.06,6.75,7.67,15.5,13.15,25.3,15.85.34.09.55.45.45.8-.08.29-.34.48-.62.48Z"/>
      <path d="M113.06,416.45c-.29,0-.56-.2-.63-.5-.08-.35.13-.7.48-.78,10.49-2.48,19.84-8.08,27.04-16.2.24-.27.65-.29.91-.05.27.24.29.65.05.91-7.37,8.32-16.95,14.06-27.71,16.6-.05.01-.1.02-.15.02Z"/>
      <path d="M151.76,379.3c-.06,0-.12,0-.18-.02-.34-.1-.55-.45-.45-.8,1.23-4.39,1.88-8.95,1.93-13.55.22-20.36-11.53-39.13-29.95-47.82-.32-.15-.46-.54-.31-.86.15-.32.54-.46.86-.31,18.88,8.91,30.93,28.14,30.7,49.01-.05,4.71-.72,9.39-1.98,13.89-.08.29-.34.47-.62.47Z"/>
    </g>
    <g>
      <path d="M39.66,381c-.29,0-.55-.19-.63-.48-1.43-5.47-2.12-11.14-2.05-16.85.16-14.56,5.34-28.74,14.6-39.94,9.12-11.04,21.8-18.77,35.71-21.78.35-.07.69.15.77.5.08.35-.15.69-.5.77-28.69,6.21-48.96,31.08-49.29,60.48-.06,5.59.61,11.15,2.01,16.51.09.35-.12.7-.46.79-.05.01-.11.02-.16.02Z"/>
      <path d="M84.02,425.98c-.06,0-.11,0-.17-.02-11.98-3.3-22.68-10.01-30.95-19.39-.24-.27-.21-.68.06-.91.27-.24.68-.21.91.06,8.09,9.19,18.58,15.76,30.32,19,.34.09.55.45.45.8-.08.29-.34.48-.62.48Z"/>
      <path d="M115.45,426.56c-.29,0-.56-.2-.63-.5-.08-.35.13-.7.48-.78,12.58-2.97,23.78-9.68,32.4-19.41.24-.27.65-.29.91-.05.27.24.29.65.05.91-8.8,9.93-20.24,16.78-33.08,19.81-.05.01-.1.02-.15.02Z"/>
      <path d="M161.75,382.13c-.06,0-.12,0-.18-.02-.34-.1-.55-.45-.45-.8,1.47-5.26,2.25-10.73,2.31-16.24.27-24.4-13.82-46.9-35.9-57.32-.32-.15-.46-.54-.31-.86.15-.32.54-.46.86-.31,22.54,10.63,36.92,33.6,36.64,58.51-.06,5.63-.86,11.21-2.36,16.58-.08.29-.34.47-.62.47Z"/>
    </g>
    <g>
      <g>
        <polygon class="cls-2" points="99.23 367.9 88.44 576.06 115.86 576.06 105.07 367.9 99.23 367.9"/>
        <path class="cls-5" d="M96.69,417.05c1.19.09,2.38.15,3.59.16,2.49.03,4.93-.12,7.33-.43l-2.53-48.88h-5.84l-2.55,49.14Z"/>
        <path d="M115.86,576.71h-27.42c-.18,0-.35-.07-.47-.2-.12-.13-.19-.3-.18-.48l10.79-208.16c.02-.34.3-.61.65-.61h5.84c.34,0,.63.27.65.61l10.79,208.16c0,.18-.05.35-.18.48-.12.13-.29.2-.47.2ZM89.12,575.42h26.06l-10.73-206.87h-4.61l-10.73,206.87Z"/>
      </g>
      <g>
        <g>
          <path class="cls-5" d="M54.77,390.26c1,1.78,2.11,3.5,3.31,5.15l37.94-17.33,5.59-10.58-.77-3.2-46.07,25.97Z"/>
          <path d="M30.54,408.63c-.17,0-.35-.07-.47-.2-.19-.2-.23-.5-.1-.75l3.07-5.8c.06-.11.15-.2.25-.26l67.23-37.89c.18-.1.39-.11.58-.03.19.08.32.24.37.44l.77,3.2c.04.15.02.31-.06.45l-5.58,10.58c-.07.13-.17.23-.3.29l-65.48,29.91c-.09.04-.18.06-.27.06ZM34.09,402.66l-2.09,3.95,63.55-29.03,5.37-10.17-.51-2.13-66.32,37.38Z"/>
        </g>
        <g>
          <path class="cls-5" d="M146.34,391.3c1.04-1.75,1.98-3.56,2.81-5.43l-34.02-24.24-11.96.45-2.39,2.26,45.56,26.95Z"/>
          <path d="M167.2,404.28c-.12,0-.23-.03-.33-.09l-66.42-39.29c-.18-.1-.29-.28-.31-.48s.05-.4.2-.54l2.39-2.26c.11-.11.26-.17.42-.18l11.96-.45c.14,0,.28.04.4.12l58.63,41.76c.23.16.32.45.24.71-.08.27-.32.45-.6.46l-6.56.24s-.02,0-.02,0ZM101.85,364.22l65.52,38.76,4.47-.17-56.9-40.53-11.49.43-1.59,1.5Z"/>
        </g>
        <g>
          <path class="cls-5" d="M101.43,311.49c-2.07-.02-4.11.08-6.11.29l-3.98,41.51,6.37,10.13,3.15.94.58-52.87Z"/>
          <path d="M100.85,365.01c-.06,0-.12,0-.18-.03l-3.15-.94c-.15-.04-.28-.14-.36-.28l-6.37-10.13c-.08-.12-.11-.26-.1-.41l6.88-71.65c.03-.28.23-.5.49-.57.27-.06.55.05.7.29l3.49,5.56c.07.11.1.23.1.35l-.85,77.17c0,.2-.1.39-.26.51-.11.08-.25.13-.38.13ZM98.12,362.87l2.1.62.84-76.12-2.38-3.79-6.68,69.54,6.12,9.74Z"/>
        </g>
        <circle class="cls-5" cx="100.86" cy="364.35" r="9.29"/>
        <path d="M100.86,374.29s-.07,0-.11,0c-2.65-.03-5.14-1.09-7-2.99-1.86-1.9-2.86-4.4-2.83-7.06.06-5.48,4.57-9.88,10.05-9.83,2.65.03,5.14,1.09,7,2.99,1.86,1.9,2.86,4.4,2.83,7.06-.06,5.44-4.51,9.83-9.94,9.83ZM100.86,355.71c-4.72,0-8.59,3.82-8.64,8.55-.03,2.31.85,4.49,2.46,6.14,1.61,1.65,3.78,2.57,6.08,2.6.03,0,.07,0,.1,0,4.72,0,8.59-3.82,8.64-8.55h.65s-.65,0-.65,0c.03-2.31-.85-4.49-2.46-6.14-1.61-1.65-3.78-2.57-6.08-2.6-.03,0-.07,0-.1,0Z"/>
      </g>
    </g>
  </g>
</svg>