<?xml version="1.0" encoding="UTF-8"?>
<svg id="Layer_2" data-name="Layer 2" xmlns="http://www.w3.org/2000/svg" viewBox="0 0 375.25 277.52">
  <defs>
    <style>
      .cls-1 {
        fill: #fff;
      }

      .cls-2 {
        fill: #71d9ca;
      }

      .cls-3 {
        fill: #2140c1;
      }
    </style>
  </defs>
  <g id="Layer_1-2" data-name="Layer 1">
    <g>
      <path class="cls-1" d="M57.27,260.09h-12.2v-19.39c0-30.18,24.74-54.74,55.14-54.74h224.84c18.91,0,34.3-15.24,34.3-33.96v-27.64c0-19.98-16.41-36.24-36.59-36.24H61.58c-18.5,0-32.29-7.15-40.99-21.26-6.99-11.33-10.53-27.32-10.53-47.52h12.2c0,17.9,2.93,31.73,8.71,41.11,6.41,10.4,16.42,15.46,30.6,15.46h261.17c26.91,0,48.8,21.73,48.8,48.44v27.64c0,25.46-20.86,46.17-46.5,46.17H100.21c-23.68,0-42.94,19.08-42.94,42.53v19.39Z"/>
      <g>
        <path class="cls-3" d="M182.63,47.37l-27.59,78.71h-38.74v-42.18l-14.84,42.18h-38.74V47.37h20.72v70.99l24.89-70.99h28.69v70.99l24.89-70.99h20.72Z"/>
        <path class="cls-3" d="M234.74,126.09h-20.11l-3.8-10.54c-3.31,6.62-10.05,11.28-18.02,11.28-11.03,0-19.98-8.95-19.98-19.98s8.95-20.11,19.98-20.11c5.89,0,11.03,2.45,14.71,6.5v-11.28h-24.4v-20.11h44.51v44.63l7.11,19.62ZM196.61,106.84c0-2.21-1.72-3.92-3.8-3.92s-3.8,1.72-3.8,3.92c0,2.08,1.72,3.8,3.8,3.8s3.8-1.72,3.8-3.8Z"/>
        <path class="cls-3" d="M275.45,105.98v20.11h-35.06v-44.87h-8.09v-20.11h8.09l.12-13.73h19.98v13.85h14.96v20.11l-14.96-.12v24.77h14.96Z"/>
        <path class="cls-3" d="M323.51,105.98v20.11h-35.07v-44.87h-8.09v-20.11h8.09l.12-13.73h19.98v13.85h14.96v20.11l-14.96-.12v24.77h14.96Z"/>
        <path class="cls-3" d="M130.89,145l-27.59,78.71h-38.74v-42.18l-14.84,42.18H10.99v-78.71h20.72v70.99l24.89-70.99h28.69v70.99l24.89-70.99h20.72Z"/>
        <path class="cls-3" d="M187.91,191.84c0,18.14-14.71,32.86-32.74,32.86s-32.86-14.71-32.86-32.86,14.71-32.74,32.86-32.74,32.74,14.71,32.74,32.74ZM167.92,191.84c0-6.99-5.76-12.75-12.75-12.75s-12.75,5.76-12.75,12.75,5.64,12.75,12.75,12.75,12.75-5.64,12.75-12.75Z"/>
        <path class="cls-3" d="M243.08,159.59v20.11l-18.88-.12-5.27,3.68v40.46h-20.11v-44.14h-7.23v-20.11h27.34v12.38l10.3-12.38,13.85.12Z"/>
        <path class="cls-3" d="M314.93,223.72h-20.11l-2.94-17.41h-19v17.41h-20.11v-63.63l-7.23-.12v-19.98h27.34v38.62l14.96-19.13h22.68l-22.68,28.32h21.09l6.01,35.92Z"/>
        <path class="cls-3" d="M375.25,203.73c0,11.28-11.65,20.97-29.43,20.97-16.06,0-26.73-11.52-28.44-17.41l17.66-6.25c2.33,2.33,5.89,5.15,12.38,5.15,3.43,0,6.87-.61,6.87-3.43,0-2.45-4.17-3.43-9.44-3.8-19-1.23-27.46-6.87-27.46-19,0-11.16,11.65-20.84,29.43-20.84,16.06,0,26.73,11.53,28.44,17.29l-17.66,6.38c-2.45-2.45-6.01-5.27-12.38-5.27-3.56,0-6.99.74-6.99,3.56,0,2.33,4.29,3.31,9.56,3.68,18.88,1.35,27.46,6.99,27.46,19Z"/>
      </g>
      <rect class="cls-1" x="117.85" y="185.94" width="73.86" height="12.2"/>
      <rect class="cls-1" x="89.08" y="75.93" width="54.58" height="12.2"/>
      <circle class="cls-2" cx="16.36" cy="16.36" r="16.36"/>
      <circle class="cls-2" cx="51.33" cy="261.16" r="16.36"/>
    </g>
  </g>
</svg>