
<svg xmlns="http://www.w3.org/2000/svg" version="1.1" xmlns:xlink="http://www.w3.org/1999/xlink" preserveAspectRatio="none" x="0px" y="0px" width="2700px" height="1020px" viewBox="0 0 2700 1020">
<defs>
<g id="Layer0_0_FILL">
<path fill="#303030" stroke="none" d="
M 1829.9 584.55
Q 1826.6 584.55 1824.85 586.35 1823.15 588.1 1823.15 591.5
L 1823.15 718.3
Q 1823.15 721.85 1824.85 723.55 1826.6 725.4 1829.9 725.4
L 1868.45 725.4
Q 1885.15 725.4 1898.15 720.8 1911.1 716.2 1920.2 707.4 1929.2 698.25 1933.8 685.2 1938.5 672 1938.5 654.95 1938.5 620.55 1920.35 602.45 1901.9 584.55 1868.45 584.55
L 1829.9 584.55
M 1925.35 654.95
Q 1925.35 669.65 1921.6 680.85 1918.15 692.1 1911.05 699.55 1903.75 706.95 1892.85 710.7 1882.1 714.6 1867.45 714.6
L 1835.2 714.6 1835.2 595.3 1867.45 595.3
Q 1896.35 595.3 1911 610.15 1925.35 625.15 1925.35 654.95
M 1301.55 601.15
Q 1301 599.4 1299.25 597.9 1290.1 590.1 1279.3 586.65 1268.45 582.95 1255.55 582.95 1244.5 582.95 1235.45 585.75 1226.2 588.75 1219.7 594.15 1213.15 599.55 1209.5 607 1205.95 614.45 1205.95 623.75 1205.95 638.6 1215.05 647.6 1224.4 656.6 1243.25 660.3
L 1263.45 664.7
Q 1279.15 667.75 1285.95 673.45 1292.95 679.05 1292.95 689 1292.95 701.05 1283.5 708.25 1273.95 715.85 1255.2 715.85 1241.55 715.85 1231.1 712.5 1220.95 709.45 1211.8 702.6 1209.8 701.1 1208 701.3 1206.1 701.4 1204.85 702.6 1203.6 703.9 1203 705.4 1202.5 707.2 1203.3 709 1203.85 710.9 1205.95 712.45 1212.3 717.1 1219.85 720.4 1227.5 723.85 1236.65 725.4 1245.4 726.9 1255.2 726.9 1266.85 726.9 1276.05 724.25 1285.25 721.5 1291.95 716.25 1298.5 711.2 1301.95 704.1 1305.6 697 1305.6 688.45 1305.6 673.9 1295.85 665.7 1285.95 657.55 1265.85 653.35
L 1245.4 649.1
Q 1231.25 646.25 1224.95 640.1 1218.45 633.85 1218.45 623.5 1218.45 614.45 1223.1 608 1227.5 601.4 1235.95 597.75 1244.2 594.15 1255.55 594.15 1266.4 594.15 1275.55 597.2 1284.6 600.35 1292.95 607.15 1295 608.6 1296.85 608.6 1298.5 608.55 1299.8 607.55 1301 606.45 1301.55 604.85 1302.2 603.25 1301.55 601.15
M 1603.15 584.85
Q 1601.3 586.35 1601.3 589.4
L 1601.3 670.45
Q 1601.3 684.25 1604.85 694.85 1608.4 705.35 1615.35 712.5 1622.2 719.65 1632.55 723.45 1642.95 726.9 1656.3 726.9 1674.3 726.9 1686.55 720.5 1698.95 714.1 1705.05 701.6 1711.25 688.7 1711.25 670.45
L 1711.25 589.4
Q 1711.25 586.35 1709.5 584.85 1708.05 583.25 1705.15 583.25 1702.25 583.25 1700.7 584.85 1698.95 586.35 1698.95 589.4
L 1698.95 669.5
Q 1698.95 692.75 1688.35 704.2 1677.4 715.85 1656.3 715.85 1635.35 715.85 1624.45 704.2 1613.6 692.75 1613.6 669.5
L 1613.6 589.4
Q 1613.6 586.35 1612.1 584.85 1610.3 583.25 1607.45 583.25 1604.65 583.25 1603.15 584.85
M 1509.2 589.9
Q 1509.2 587.45 1507.55 585.9 1506.3 584.55 1503.45 584.55
L 1395.4 584.55
Q 1392.55 584.55 1391 585.9 1389.5 587.45 1389.5 589.9 1389.5 592.25 1391 593.9 1392.55 595.55 1395.4 595.55
L 1443.2 595.55 1443.2 720.15
Q 1443.2 723.2 1444.75 724.8 1446.4 726.6 1449.25 726.6 1452.5 726.6 1454.05 724.8 1455.35 723.2 1455.35 720.15
L 1455.35 595.55 1503.45 595.55
Q 1506.3 595.55 1507.55 593.9 1509.2 592.55 1509.2 589.9
M 1591.35 332.7
Q 1587.45 323.5 1581.55 319.4 1575.7 315.4 1568.05 315.4 1560.4 315.4 1554.55 319.4 1548.65 323.5 1544.25 332.7
L 1476.2 482.05
Q 1472.65 489.2 1473.85 495.05 1474.9 501 1479.75 504.4 1484.3 507.8 1491.9 507.8 1500.4 507.8 1504.8 503.8 1509.1 499.65 1513.05 490.2
L 1523.95 464.85 1611.85 464.85 1622.8 490.2
Q 1626.5 499.35 1631.55 503.7 1636.35 507.8 1645.4 507.8 1652.6 507.8 1657.2 504.5 1661.85 501.1 1662.45 495.2 1663.5 489.2 1660.1 482.05
L 1591.35 332.7
M 1567.35 361.75
L 1568.05 361.75 1597.9 432.45 1537.85 432.45 1567.35 361.75
M 1320.15 315.4
Q 1312.5 315.4 1307.85 319.4 1303.2 323.5 1300.1 332.1
L 1259.4 446.2 1221 331.85
Q 1218.25 323.3 1213.6 319.4 1208.8 315.4 1200.3 315.4 1188.15 315.4 1183 322.5 1178.25 329.7 1181.7 339.75
L 1235.5 491.05
Q 1238.65 499.65 1243.9 503.8 1249.3 507.8 1257.85 507.8 1266.2 507.8 1271.3 503.8 1276.1 499.65 1279.45 491.25
L 1318.7 381.3 1357.8 491.05
Q 1361 499.65 1365.95 503.8 1370.9 507.8 1379.55 507.8 1388.25 507.8 1393.3 503.8 1398.45 499.65 1401.45 491.25
L 1455.75 339.75
Q 1459.4 329.7 1454.6 322.5 1449.85 315.4 1439.45 315.4 1431.15 315.4 1426.35 319.4 1421.6 323.5 1418.95 331.85
L 1379.3 448.05 1340 332.45
Q 1336.6 323.5 1332.2 319.4 1327.65 315.4 1320.15 315.4
M 1692.7 323.3
Q 1687 328.9 1687 339.35
L 1687 486.05
Q 1687 496.6 1692.5 502.2 1697.95 507.8 1708.05 507.8 1728.25 507.8 1728.25 486.05
L 1728.25 428.05 1793.8 428.05
Q 1801.9 428.05 1806.2 423.6 1810.45 419.65 1810.45 411.65 1810.45 403.95 1806.2 400 1801.9 395.65 1793.8 395.65
L 1728.25 395.65 1728.25 350 1799.7 350
Q 1807.75 350 1811.8 345.75 1816.05 341.6 1816.05 333.75 1816.05 326 1811.8 321.95 1807.75 317.75 1799.7 317.75
L 1708.55 317.75
Q 1698.3 317.75 1692.7 323.3
M 2047.15 585.05
Q 2045.6 586.65 2045.6 589.8
L 2045.6 720.15
Q 2045.6 723.2 2047.15 724.8 2048.75 726.6 2051.5 726.6 2054.85 726.6 2056.2 724.8 2057.55 723.2 2057.55 720.15
L 2057.55 589.8
Q 2057.55 586.65 2056.2 585.05 2054.55 583.25 2051.5 583.25 2048.75 583.25 2047.15 585.05
M 2261.7 591.6
Q 2247.55 582.95 2228.05 582.95 2213.45 582.95 2201.65 587.95 2190 592.8 2181.95 602.05 2173.7 611.5 2169.25 624.85 2165.1 638.1 2165.1 654.95 2165.1 677.05 2172.7 693.25 2180.4 709.45 2194.6 718.15 2208.75 726.9 2228.05 726.9 2242.5 726.9 2254.2 721.85 2265.95 716.85 2274.1 707.65 2282.3 698.15 2286.75 684.75 2291 671.35 2291 654.65 2291 632.45 2283.5 616.45 2275.95 600.35 2261.7 591.6
M 2228.05 594.15
Q 2252.05 594.15 2264.95 610.05 2278.1 625.8 2278.1 654.95 2278.1 674.2 2272.25 687.7 2266.25 701.4 2255.2 708.5 2243.95 715.85 2228.05 715.85 2204.5 715.85 2191.3 699.75 2177.95 683.45 2177.95 654.95 2177.95 635.7 2184.05 622.2 2189.9 608.55 2201.1 601.4 2212.2 594.15 2228.05 594.15
M 1967.65 333.75
Q 1967.65 326 1963.4 321.95 1959.35 317.75 1951.3 317.75
L 1860.3 317.75
Q 1849.8 317.75 1844.25 323.3 1838.65 328.9 1838.65 339.35
L 1838.65 486.05
Q 1838.65 496.6 1844.2 502.2 1849.65 507.8 1859.75 507.8 1880.05 507.8 1880.05 486.05
L 1880.05 428.05 1945.45 428.05
Q 1953.55 428.05 1957.75 423.6 1962.1 419.65 1962.1 411.65 1962.1 403.95 1957.75 400 1953.55 395.65 1945.45 395.65
L 1880.05 395.65 1880.05 350 1951.3 350
Q 1959.35 350 1963.4 345.75 1967.65 341.6 1967.65 333.75
M 2011.3 317.25
Q 2001.1 317.25 1995.85 322.5 1990.45 327.85 1990.45 338.35
L 1990.45 484.35
Q 1990.45 494.2 1996 499.75 2001.4 505.45 2011.55 505.45
L 2103.05 505.45
Q 2111.55 505.45 2116.35 501 2120.95 496.3 2120.95 487.85 2120.95 479.6 2116.35 475.25 2111.55 470.7 2103.05 470.7
L 2031.85 470.7 2031.85 338.35
Q 2031.85 327.85 2026.4 322.5 2021.25 317.25 2011.3 317.25
M 2273.9 333.75
Q 2273.9 326 2269.75 321.95 2265.45 317.75 2257.65 317.75
L 2164.7 317.75
Q 2154.3 317.75 2148.7 323.3 2142.95 328.9 2142.95 339.35
L 2142.95 483.8
Q 2142.95 494.2 2148.7 499.75 2154.3 505.45 2164.7 505.45
L 2257.65 505.45
Q 2265.45 505.45 2269.75 501.2 2273.9 497.3 2273.9 489.2 2273.9 481.5 2269.75 477.45 2265.45 473.15 2257.65 473.15
L 2182.5 473.15 2182.5 426.35 2251.55 426.35
Q 2259.6 426.35 2263.95 422.2 2268.05 418.15 2268.05 410.1 2268.05 402.1 2263.95 397.95 2259.6 394 2251.55 394
L 2182.5 394 2182.5 350 2257.65 350
Q 2265.45 350 2269.75 345.75 2273.9 341.6 2273.9 333.75 Z"/>

<path fill="#000000" stroke="none" d="
M 1017.75 263.75
Q 1017.75 246.65 1013 233.35 1000.4 190.5 944.45 190.5
L 482.15 190.5
Q 426.15 190.5 413.8 233.35 409 246.65 409 263.75
L 409 728.7
Q 409 728.8 409 728.85
L 409 760.05
Q 409.6 787.5 421.45 804.3 427.45 812.6 435.95 818.2
L 436.05 818.35
Q 438.05 819.7 440.25 821 440.4 821 440.45 821 457.65 829.55 482.15 829.55
L 944.45 829.55
Q 969.25 829.55 985.3 821 997.2 814.6 1004.75 804.3
L 1004.75 804.45
Q 1016.2 788.9 1017.55 764.1 1017.7 762.1 1017.75 760.05
L 1017.75 728.95
Q 1017.75 728.8 1017.75 728.7
L 1017.75 263.75
M 1003.65 236.4
Q 1003.7 236.55 1003.7 236.7 1007.85 248.5 1007.85 263.75
L 1007.85 728.7
Q 1007.75 730.55 1007.65 732.3
L 1007.65 732.35
Q 1006.55 753.85 996.8 767.35 990.55 775.6 980.7 781.15
L 980.7 780.95
Q 966.45 788.45 944.45 788.45
L 482.15 788.45
Q 460.35 788.45 445.1 781.15 443.2 780.05 441.6 778.85
L 441.45 778.75
Q 434.3 774.2 429.55 767.4 419.4 752.6 418.9 728.7
L 418.9 263.75
Q 418.9 248.5 423.05 236.7 423.2 236.55 423.2 236.4 434.2 200.4 482.15 200.4
L 944.45 200.4
Q 992.45 200.4 1003.65 236.4
M 1004.75 773.2
Q 1005.95 771.55 1007.2 769.7 1005.1 787.05 996.8 798.55 990.55 807 980.75 812.15
L 980.7 812.15
Q 966.45 819.65 944.45 819.65
L 482.15 819.65
Q 460.35 819.65 445.1 812.3 443.2 811.2 441.45 810.05 434.3 805.4 429.55 798.6 421.6 787.1 419.6 770.2 420.5 771.75 421.45 773.1 427.45 781.4 436.05 787.1 438.05 788.45 440.25 789.75 440.4 789.75 440.45 789.8 457.65 798.4 482.15 798.4
L 944.45 798.4
Q 969.25 798.4 985.3 789.75 997.2 783.35 1004.75 773.2
M 461.95 709
Q 461.95 709.2 461.95 709.25 463.9 745.3 501.9 745.3
L 570.35 744.6
Q 609.65 744.6 610.4 709.2
L 610.4 708.1
Q 610.4 707.15 610.4 705.3
L 610.4 656.95
Q 610.4 656.7 610.4 656.55
L 610.4 637.9
Q 610.4 637.85 610.4 637.8 609.25 596.85 569.35 596.9
L 501.9 596.9
Q 462.95 596.85 461.95 636.85
L 461.95 709
M 471.85 708.7
L 471.85 656.25
Q 473.35 627.5 501.9 627.5
L 569.35 627.5
Q 599.65 627.5 600.55 656.85
L 600.55 705.3
Q 600.55 707.15 600.55 708.1
L 600.55 708.8
Q 599.5 734.6 570.3 734.6
L 501.85 735.45
Q 473.5 735.45 471.85 708.7
M 569.35 606.85
Q 593.55 606.95 599 626.65 588.75 617.65 569.35 617.65
L 501.9 617.65
Q 483.1 617.65 473.05 627 478.05 606.95 501.9 606.85
L 569.35 606.85
M 610.4 479.7
Q 610.4 479.6 610.4 479.55
L 610.4 460.75
Q 610.4 460.7 610.4 460.6 609.25 419.75 569.35 419.9
L 501.9 419.9
Q 462.95 419.75 461.95 460.7
L 461.95 479.45
Q 461.95 479.55 461.95 479.7
L 461.95 531.75
Q 461.95 531.95 461.95 532.05 463.9 568.15 501.9 568.15
L 570.35 567.25
Q 609.65 568.2 610.4 532.8 610.4 532.7 610.4 532.65 610.4 531.75 610.4 530.85 610.4 529.95 610.4 529
L 610.4 479.7
M 600.55 479.7
Q 600.55 479.75 600.55 479.85
L 600.55 529
Q 600.55 529.95 600.55 530.85 600.55 531.7 600.55 532.5 599.45 558.15 570.4 557.35 570.3 557.35 570.25 557.35
L 501.85 558.35
Q 473.5 558.35 471.85 531.55
L 471.85 480
Q 473.35 451.25 501.9 451.25
L 569.4 450.35
Q 599.65 450.45 600.55 479.7
M 569.35 429.8
Q 593.55 429.85 599 449.65 588.75 440.45 569.35 440.45
L 501.85 441.35
Q 482.95 441.35 473 450.8 477.75 429.85 501.9 429.8
L 569.35 429.8
M 461.95 283.65
L 461.95 354.95
Q 463.95 391.95 501.9 391.95
L 570.35 391
Q 609.65 391 610.4 355.65 610.4 355.6 610.4 355.5
L 610.4 354.75
Q 610.4 352.9 610.4 351.95
L 610.4 303.65
Q 610.4 303.4 610.4 303.2
L 610.4 283.5
Q 609.25 242.7 569.35 242.75
L 501.85 243.65
Q 462.95 243.65 461.95 283.65
M 471.85 354.4
L 471.85 302.75
Q 473.35 274.15 501.9 274.15
L 569.4 273.3
Q 599.7 273.3 600.55 303.5
L 600.55 351.95
Q 600.55 352.9 600.55 354.75
L 600.55 355.4
Q 599.45 381.1 570.3 381.1
L 501.85 382
Q 473.4 382 471.85 354.4
M 569.4 252.6
Q 593.75 252.65 599.1 272.85 588.85 263.3 569.35 263.3
L 501.85 264.3
Q 483.1 264.3 473.05 273.6 478.05 253.6 501.9 253.55
L 569.4 252.6
M 963.7 656.1
Q 963.7 655.95 963.7 655.85
L 963.7 637.9
Q 963.7 595.9 923.7 596
L 855.3 596.9
Q 816.3 596.9 816.3 636.95
L 816.3 708.2
Q 817.2 745.3 855.35 745.3
L 924.7 744.6
Q 962.85 744.5 963.7 709.2
L 963.7 708.1
Q 963.7 707.15 963.7 705.3
L 963.7 656.1
M 923.75 605.95
Q 947.9 606.05 952.65 626.65 942.6 617.65 923.7 617.65
L 855.35 617.65
Q 837 617.65 827.3 626.55 831.8 606.95 855.35 606.85
L 923.75 605.95
M 923.7 627.5
Q 952.95 627.5 953.85 656.1
L 953.85 705.3
Q 953.85 707.15 953.85 708.1
L 953.85 708.8
Q 952.8 734.6 924.55 734.6
L 855.3 735.45
Q 827.05 735.45 826.15 708.1
L 826.15 656.1
Q 826.9 627.5 855.35 627.5
L 923.7 627.5
M 787.5 637.9
Q 787.5 637.85 787.5 637.8 786.45 596.85 746.5 596.9
L 678.2 596.9
Q 640.1 596.85 639.1 636.85
L 639.1 709.2
Q 639.95 745.3 678.2 745.3
L 747.5 744.6
Q 786.65 744.6 787.5 709.2
L 787.5 708.1
Q 787.5 707.15 787.5 705.3
L 787.5 656.95
Q 787.5 656.7 787.5 656.55
L 787.5 637.9
M 746.5 606.85
Q 770.65 606.95 776.1 626.65 765.8 617.65 746.5 617.65
L 678.2 617.65
Q 660.2 617.65 650.45 626.2 655.5 606.95 678.2 606.85
L 746.5 606.85
M 746.5 627.5
Q 776.75 627.5 777.6 656.85
L 777.6 705.3
Q 777.6 707.15 777.6 708.1
L 777.6 708.8
Q 776.6 734.6 747.45 734.6
L 678.2 735.45
Q 649.9 735.45 649.1 709
L 649.1 656.1
Q 649.7 627.5 678.2 627.5
L 746.5 627.5
M 787.5 480
Q 787.5 479.7 787.5 479.55
L 787.5 460.75
Q 787.5 460.7 787.5 460.6 786.45 419.75 746.5 419.9
L 678.2 419.9
Q 640.1 419.75 639.1 460.7
L 639.1 531.75
Q 639.1 531.85 639.1 531.95 639.95 568.15 678.2 568.15
L 747.5 567.25
Q 786.7 568.2 787.5 532.8 787.5 532.7 787.5 532.65 787.5 531.75 787.5 530.85 787.5 529.95 787.5 529
L 787.5 480
M 746.6 450.35
Q 776.75 450.45 777.6 479.85
L 777.6 529
Q 777.6 529.95 777.6 530.85 777.6 531.7 777.6 532.5 776.6 558.15 747.55 557.35 747.45 557.35 747.4 557.35
L 678.2 558.35
Q 649.9 558.35 649.1 531.75
L 649.1 479.85
Q 649.7 451.25 678.2 451.25
L 746.6 450.35
M 746.5 429.8
Q 770.65 429.85 776.1 449.55 765.8 440.45 746.5 440.45
L 678.2 441.35
Q 660 441.35 650.3 450.1 655.3 429.85 678.2 429.8
L 746.5 429.8
M 963.7 479.7
Q 963.7 479.6 963.7 479.55
L 963.7 460.75
Q 963.7 419.75 923.7 419.9
L 855.35 419.9
Q 816.3 419.75 816.3 460.75
L 816.3 479.55
Q 816.3 479.6 816.3 479.7
L 816.3 531.75
Q 816.3 531.85 816.3 531.95 817.2 568.15 855.35 568.15
L 923.75 567.25
Q 962.95 568.2 963.7 532.8 963.7 532.7 963.7 532.65 963.7 531.75 963.7 530.85 963.7 529.95 963.7 529
L 963.7 479.7
M 953.85 479.7
Q 953.85 479.75 953.85 479.85
L 953.85 529
Q 953.85 529.95 953.85 530.85 953.85 531.7 953.85 532.5 952.8 558.15 923.85 557.35 923.7 557.35 923.65 557.35
L 855.3 558.35
Q 827.1 558.35 826.15 531.75
L 826.15 479.85
Q 826.15 479.75 826.15 479.7 827.05 451.25 855.35 451.25
L 923.75 450.35
Q 952.95 450.45 953.85 479.7
M 923.7 429.8
Q 947.85 429.85 952.6 449.7 942.6 440.45 923.7 440.45
L 855.3 441.35
Q 836.9 441.35 827.25 450.35 831.65 429.85 855.35 429.8
L 923.7 429.8
M 963.7 283.65
Q 963.7 242.7 923.7 242.75
L 855.3 243.65
Q 816.3 243.65 816.3 283.65
L 816.3 302.3
Q 816.3 302.4 816.3 302.5
L 816.3 354.75
Q 817.2 391.95 855.35 391.95
L 924.7 391
Q 962.85 391 963.7 355.65 963.7 355.6 963.7 355.5
L 963.7 354.75
Q 963.7 352.9 963.7 351.95
L 963.7 302.5
Q 963.7 302.4 963.7 302.3
L 963.7 283.65
M 923.75 252.6
Q 947.85 252.65 952.6 272.5 942.6 263.3 923.7 263.3
L 855.3 264.3
Q 837 264.3 827.3 273.2 831.8 253.6 855.35 253.55
L 923.75 252.6
M 826.15 302.65
Q 826.15 302.55 826.15 302.5 827.05 274.15 855.35 274.15
L 923.75 273.3
Q 952.95 273.3 953.85 302.5 953.85 302.55 953.85 302.65
L 953.85 351.95
Q 953.85 352.9 953.85 354.75
L 953.85 355.4
Q 952.8 381.1 924.55 381.1
L 855.3 382
Q 827.05 382 826.15 354.75
L 826.15 302.65
M 787.5 284.5
Q 787.5 242.5 747.45 242.7
L 679.1 243.5
Q 640 243.5 640 283.65
L 640 354.75
Q 641.1 391.95 679.15 391.95
L 748.4 391.15
Q 786.65 391.1 787.5 355.75 787.5 355.65 787.5 355.6
L 787.5 354.75
Q 787.5 353.8 787.5 351.9
L 787.5 302.75
Q 787.5 302.55 787.5 302.4
L 787.5 284.5
M 747.5 252.55
Q 771.65 252.65 776.4 273.3 766.4 264.2 747.45 264.2
L 679.15 264.2
Q 660.8 264.2 651.05 273.1 655.6 253.55 679.15 253.4
L 747.5 252.55
M 679.1 382
Q 650.85 382 649.9 354.75
L 649.9 302.7
Q 650.7 274.15 679.15 274.15
L 747.45 274.15
Q 776.75 274.15 777.6 302.7
L 777.6 351.9
Q 777.6 353.8 777.6 354.75
L 777.6 355.4
Q 776.6 381.3 748.3 381.3
L 679.1 382 Z"/>

<path fill="#C47A28" stroke="none" d="
M 1007.2 769.7
Q 1005.95 771.55 1004.75 773.2 997.2 783.35 985.3 789.75 969.25 798.4 944.45 798.4
L 482.15 798.4
Q 457.65 798.4 440.45 789.8 440.4 789.75 440.25 789.75 438.05 788.45 436.05 787.1 427.45 781.4 421.45 773.1 420.5 771.75 419.6 770.2 421.6 787.1 429.55 798.6 434.3 805.4 441.45 810.05 443.2 811.2 445.1 812.3 460.35 819.65 482.15 819.65
L 944.45 819.65
Q 966.45 819.65 980.7 812.15
L 980.75 812.15
Q 990.55 807 996.8 798.55 1005.1 787.05 1007.2 769.7
M 599 626.65
Q 593.55 606.95 569.35 606.85
L 501.9 606.85
Q 478.05 606.95 473.05 627 483.1 617.65 501.9 617.65
L 569.35 617.65
Q 588.75 617.65 599 626.65
M 599 449.65
Q 593.55 429.85 569.35 429.8
L 501.9 429.8
Q 477.75 429.85 473 450.8 482.95 441.35 501.85 441.35
L 569.35 440.45
Q 588.75 440.45 599 449.65
M 599.1 272.85
Q 593.75 252.65 569.4 252.6
L 501.9 253.55
Q 478.05 253.6 473.05 273.6 483.1 264.3 501.85 264.3
L 569.35 263.3
Q 588.85 263.3 599.1 272.85
M 952.65 626.65
Q 947.9 606.05 923.75 605.95
L 855.35 606.85
Q 831.8 606.95 827.3 626.55 837 617.65 855.35 617.65
L 923.7 617.65
Q 942.6 617.65 952.65 626.65
M 776.1 626.65
Q 770.65 606.95 746.5 606.85
L 678.2 606.85
Q 655.5 606.95 650.45 626.2 660.2 617.65 678.2 617.65
L 746.5 617.65
Q 765.8 617.65 776.1 626.65
M 776.1 449.55
Q 770.65 429.85 746.5 429.8
L 678.2 429.8
Q 655.3 429.85 650.3 450.1 660 441.35 678.2 441.35
L 746.5 440.45
Q 765.8 440.45 776.1 449.55
M 952.6 449.7
Q 947.85 429.85 923.7 429.8
L 855.35 429.8
Q 831.65 429.85 827.25 450.35 836.9 441.35 855.3 441.35
L 923.7 440.45
Q 942.6 440.45 952.6 449.7
M 952.6 272.5
Q 947.85 252.65 923.75 252.6
L 855.35 253.55
Q 831.8 253.6 827.3 273.2 837 264.3 855.3 264.3
L 923.7 263.3
Q 942.6 263.3 952.6 272.5
M 776.4 273.3
Q 771.65 252.65 747.5 252.55
L 679.15 253.4
Q 655.6 253.55 651.05 273.1 660.8 264.2 679.15 264.2
L 747.45 264.2
Q 766.4 264.2 776.4 273.3 Z"/>

<path fill="#FFC654" stroke="none" d="
M 1003.7 236.7
Q 1003.7 236.55 1003.65 236.4 992.45 200.4 944.45 200.4
L 482.15 200.4
Q 434.2 200.4 423.2 236.4 423.2 236.55 423.05 236.7 418.9 248.5 418.9 263.75
L 418.9 728.7
Q 419.4 752.6 429.55 767.4 434.3 774.2 441.45 778.75
L 441.6 778.85
Q 443.2 780.05 445.1 781.15 460.35 788.45 482.15 788.45
L 944.45 788.45
Q 966.45 788.45 980.7 780.95
L 980.7 781.15
Q 990.55 775.6 996.8 767.35 1006.55 753.85 1007.65 732.35
L 1007.65 732.3
Q 1007.75 730.55 1007.85 728.7
L 1007.85 263.75
Q 1007.85 248.5 1003.7 236.7
M 747.45 242.7
Q 787.5 242.5 787.5 284.5
L 787.5 302.4
Q 787.5 302.55 787.5 302.75
L 787.5 351.9
Q 787.5 353.8 787.5 354.75
L 787.5 355.6
Q 787.5 355.65 787.5 355.75 786.65 391.1 748.4 391.15
L 679.15 391.95
Q 641.1 391.95 640 354.75
L 640 283.65
Q 640 243.5 679.1 243.5
L 747.45 242.7
M 923.7 242.75
Q 963.7 242.7 963.7 283.65
L 963.7 302.3
Q 963.7 302.4 963.7 302.5
L 963.7 351.95
Q 963.7 352.9 963.7 354.75
L 963.7 355.5
Q 963.7 355.6 963.7 355.65 962.85 391 924.7 391
L 855.35 391.95
Q 817.2 391.95 816.3 354.75
L 816.3 302.5
Q 816.3 302.4 816.3 302.3
L 816.3 283.65
Q 816.3 243.65 855.3 243.65
L 923.7 242.75
M 963.7 479.55
Q 963.7 479.6 963.7 479.7
L 963.7 529
Q 963.7 529.95 963.7 530.85 963.7 531.75 963.7 532.65 963.7 532.7 963.7 532.8 962.95 568.2 923.75 567.25
L 855.35 568.15
Q 817.2 568.15 816.3 531.95 816.3 531.85 816.3 531.75
L 816.3 479.7
Q 816.3 479.6 816.3 479.55
L 816.3 460.75
Q 816.3 419.75 855.35 419.9
L 923.7 419.9
Q 963.7 419.75 963.7 460.75
L 963.7 479.55
M 787.5 479.55
Q 787.5 479.7 787.5 480
L 787.5 529
Q 787.5 529.95 787.5 530.85 787.5 531.75 787.5 532.65 787.5 532.7 787.5 532.8 786.7 568.2 747.5 567.25
L 678.2 568.15
Q 639.95 568.15 639.1 531.95 639.1 531.85 639.1 531.75
L 639.1 460.7
Q 640.1 419.75 678.2 419.9
L 746.5 419.9
Q 786.45 419.75 787.5 460.6 787.5 460.7 787.5 460.75
L 787.5 479.55
M 787.5 637.8
Q 787.5 637.85 787.5 637.9
L 787.5 656.55
Q 787.5 656.7 787.5 656.95
L 787.5 705.3
Q 787.5 707.15 787.5 708.1
L 787.5 709.2
Q 786.65 744.6 747.5 744.6
L 678.2 745.3
Q 639.95 745.3 639.1 709.2
L 639.1 636.85
Q 640.1 596.85 678.2 596.9
L 746.5 596.9
Q 786.45 596.85 787.5 637.8
M 963.7 655.85
Q 963.7 655.95 963.7 656.1
L 963.7 705.3
Q 963.7 707.15 963.7 708.1
L 963.7 709.2
Q 962.85 744.5 924.7 744.6
L 855.35 745.3
Q 817.2 745.3 816.3 708.2
L 816.3 636.95
Q 816.3 596.9 855.3 596.9
L 923.7 596
Q 963.7 595.9 963.7 637.9
L 963.7 655.85
M 461.95 354.95
L 461.95 283.65
Q 462.95 243.65 501.85 243.65
L 569.35 242.75
Q 609.25 242.7 610.4 283.5
L 610.4 303.2
Q 610.4 303.4 610.4 303.65
L 610.4 351.95
Q 610.4 352.9 610.4 354.75
L 610.4 355.5
Q 610.4 355.6 610.4 355.65 609.65 391 570.35 391
L 501.9 391.95
Q 463.95 391.95 461.95 354.95
M 610.4 479.55
Q 610.4 479.6 610.4 479.7
L 610.4 529
Q 610.4 529.95 610.4 530.85 610.4 531.75 610.4 532.65 610.4 532.7 610.4 532.8 609.65 568.2 570.35 567.25
L 501.9 568.15
Q 463.9 568.15 461.95 532.05 461.95 531.95 461.95 531.75
L 461.95 479.7
Q 461.95 479.55 461.95 479.45
L 461.95 460.7
Q 462.95 419.75 501.9 419.9
L 569.35 419.9
Q 609.25 419.75 610.4 460.6 610.4 460.7 610.4 460.75
L 610.4 479.55
M 461.95 709.25
Q 461.95 709.2 461.95 709
L 461.95 636.85
Q 462.95 596.85 501.9 596.9
L 569.35 596.9
Q 609.25 596.85 610.4 637.8 610.4 637.85 610.4 637.9
L 610.4 656.55
Q 610.4 656.7 610.4 656.95
L 610.4 705.3
Q 610.4 707.15 610.4 708.1
L 610.4 709.2
Q 609.65 744.6 570.35 744.6
L 501.9 745.3
Q 463.9 745.3 461.95 709.25 Z"/>

<path fill="#EE9531" stroke="none" d="
M 471.85 656.25
L 471.85 708.7
Q 473.5 735.45 501.85 735.45
L 570.3 734.6
Q 599.5 734.6 600.55 708.8
L 600.55 708.1
Q 600.55 707.15 600.55 705.3
L 600.55 656.85
Q 599.65 627.5 569.35 627.5
L 501.9 627.5
Q 473.35 627.5 471.85 656.25
M 600.55 479.85
Q 600.55 479.75 600.55 479.7 599.65 450.45 569.4 450.35
L 501.9 451.25
Q 473.35 451.25 471.85 480
L 471.85 531.55
Q 473.5 558.35 501.85 558.35
L 570.25 557.35
Q 570.3 557.35 570.4 557.35 599.45 558.15 600.55 532.5 600.55 531.7 600.55 530.85 600.55 529.95 600.55 529
L 600.55 479.85
M 471.85 302.75
L 471.85 354.4
Q 473.4 382 501.85 382
L 570.3 381.1
Q 599.45 381.1 600.55 355.4
L 600.55 354.75
Q 600.55 352.9 600.55 351.95
L 600.55 303.5
Q 599.7 273.3 569.4 273.3
L 501.9 274.15
Q 473.35 274.15 471.85 302.75
M 953.85 656.1
Q 952.95 627.5 923.7 627.5
L 855.35 627.5
Q 826.9 627.5 826.15 656.1
L 826.15 708.1
Q 827.05 735.45 855.3 735.45
L 924.55 734.6
Q 952.8 734.6 953.85 708.8
L 953.85 708.1
Q 953.85 707.15 953.85 705.3
L 953.85 656.1
M 777.6 656.85
Q 776.75 627.5 746.5 627.5
L 678.2 627.5
Q 649.7 627.5 649.1 656.1
L 649.1 709
Q 649.9 735.45 678.2 735.45
L 747.45 734.6
Q 776.6 734.6 777.6 708.8
L 777.6 708.1
Q 777.6 707.15 777.6 705.3
L 777.6 656.85
M 777.6 479.85
Q 776.75 450.45 746.6 450.35
L 678.2 451.25
Q 649.7 451.25 649.1 479.85
L 649.1 531.75
Q 649.9 558.35 678.2 558.35
L 747.4 557.35
Q 747.45 557.35 747.55 557.35 776.6 558.15 777.6 532.5 777.6 531.7 777.6 530.85 777.6 529.95 777.6 529
L 777.6 479.85
M 953.85 479.85
Q 953.85 479.75 953.85 479.7 952.95 450.45 923.75 450.35
L 855.35 451.25
Q 827.05 451.25 826.15 479.7 826.15 479.75 826.15 479.85
L 826.15 531.75
Q 827.1 558.35 855.3 558.35
L 923.65 557.35
Q 923.7 557.35 923.85 557.35 952.8 558.15 953.85 532.5 953.85 531.7 953.85 530.85 953.85 529.95 953.85 529
L 953.85 479.85
M 826.15 302.5
Q 826.15 302.55 826.15 302.65
L 826.15 354.75
Q 827.05 382 855.3 382
L 924.55 381.1
Q 952.8 381.1 953.85 355.4
L 953.85 354.75
Q 953.85 352.9 953.85 351.95
L 953.85 302.65
Q 953.85 302.55 953.85 302.5 952.95 273.3 923.75 273.3
L 855.35 274.15
Q 827.05 274.15 826.15 302.5
M 649.9 354.75
Q 650.85 382 679.1 382
L 748.3 381.3
Q 776.6 381.3 777.6 355.4
L 777.6 354.75
Q 777.6 353.8 777.6 351.9
L 777.6 302.7
Q 776.75 274.15 747.45 274.15
L 679.15 274.15
Q 650.7 274.15 649.9 302.7
L 649.9 354.75 Z"/>
</g>
</defs>

<g transform="matrix( 1, 0, 0, 1, 0,0) ">
<use xlink:href="#Layer0_0_FILL"/>
</g>
</svg>
