<?xml version="1.0" encoding="UTF-8"?>
<svg id="Layer_2" data-name="Layer 2" xmlns="http://www.w3.org/2000/svg" viewBox="0 0 247.46 215.35">
  <defs>
    <style>
      .cls-1 {
        fill: #267ae4;
      }
    </style>
  </defs>
  <g id="pattern">
    <g>
      <path class="cls-1" d="M117.55,215.35l-57.51-50.55S-10.34,132.72,1.3,116.42c11.64-16.3,59.51,12.94,59.51,12.94,0,0-66.5-47.35-54.85-61.06,11.64-13.71,74.45,26.47,74.45,26.47,0,0-80.92-59.84-66.95-74.85,13.97-15.01,93.41,44.76,93.41,44.76,0,0-58.22-48.9-43.47-63.13,8.86-8.55,50.8,20.35,82.87,44.79l-.53,3.11c1.55-.95,3.16-1.87,4.81-2.77,33.25-18.13,70.5-1.69,88.25,28.84,13.25,22.78,7.35,63.88,7.35,63.88"/>
      <g>
        <path d="M59.8,142.88c-.19,0-.38-.03-.57-.1-.92-.32-1.4-1.31-1.09-2.23,13.29-38.53,33.28-66.84,61.11-86.54,.79-.56,1.88-.37,2.45,.42,.56,.79,.37,1.89-.42,2.45-27.21,19.26-46.78,47.01-59.82,84.82-.25,.73-.93,1.18-1.66,1.18Z"/>
        <path d="M160.84,154.07c-.58,0-1.15-.29-1.48-.81-25.51-40.09,5.44-71.93,5.76-72.24,.68-.68,1.79-.69,2.48,0,.69,.68,.69,1.79,0,2.48-1.21,1.21-29.26,30.2-5.28,67.88,.52,.82,.28,1.9-.54,2.42-.29,.19-.62,.27-.94,.27Z"/>
        <path d="M164.14,83.84c-12.27,0-28.14-1.54-33.84-8.92-2.48-3.22-2.89-7.17-1.22-11.74,3.46-9.43,15.16-15.77,24.97-20.24,.88-.41,1.92-.02,2.32,.87,.4,.88,.01,1.92-.87,2.32-8.47,3.86-20.09,9.95-23.13,18.25-1.25,3.41-1.02,6.16,.7,8.39,6.36,8.24,31.5,8.21,45.35,6.89,.95-.12,1.82,.62,1.91,1.58,.09,.96-.62,1.82-1.58,1.91-2.31,.22-7.94,.68-14.63,.68Z"/>
      </g>
    </g>
  </g>
</svg>