<?xml version="1.0" encoding="UTF-8"?>
<svg id="Layer_2" data-name="Layer 2" xmlns="http://www.w3.org/2000/svg" viewBox="0 0 216.06 254.65">
  <defs>
    <style>
      .cls-1 {
        fill: #09b690;
      }
    </style>
  </defs>
  <g id="pattern">
    <g>
      <path class="cls-1" d="M22.22,254.65l-7.68-119.26S-12.54,62.94,7.22,59.65c19.76-3.29,32.93,51.23,32.93,51.23,0,0-13.54-80.5,4.39-81.97,17.93-1.46,33.93,71.36,33.93,71.36C78.47,100.27,63.57,.74,84.06,0c20.49-.73,34.4,97.7,34.4,97.7,0,0-6.59-75.75,13.9-75.38,20.49,.37,32.41,138.88,32.41,138.88,5.14-5.01,33.46-56.18,48.46-39.71,15,16.47-34.66,133.15-34.66,133.15"/>
      <g>
        <path d="M31.11,120.24c-.65,0-1.27-.36-1.58-.99-.42-.87-.06-1.92,.81-2.35,36.65-17.85,70.8-23.73,104.41-17.98,.96,.16,1.6,1.07,1.43,2.02-.16,.95-1.06,1.6-2.02,1.43-32.87-5.63-66.32,.16-102.28,17.68-.25,.12-.51,.18-.77,.18Z"/>
        <path d="M107.73,208.6c-.13,0-.25-.01-.38-.04-.95-.21-1.54-1.15-1.33-2.09,10.31-46.39,58.27-47.01,58.75-47.01h0c.97,0,1.75,.78,1.75,1.75,0,.97-.78,1.76-1.75,1.76-1.86,0-45.64,.65-55.34,44.26-.18,.82-.91,1.37-1.71,1.37Z"/>
      </g>
    </g>
  </g>
</svg>