<?xml version="1.0" encoding="UTF-8"?>
<svg id="Layer_2" data-name="Layer 2" xmlns="http://www.w3.org/2000/svg" viewBox="0 0 238 169.79">
  <defs>
    <style>
      .cls-1 {
        fill: #fd629e;
      }
    </style>
  </defs>
  <g id="pattern">
    <g>
      <path class="cls-1" d="M238,8.74S88.65-10.93,46.97,8.74C5.3,28.42-28.17,102.2,35.36,128.84l1.18,2.63s-7.3,27.8,29.55,37.28c23.23,5.98,36.86-15.87,36.86-15.87l-1.94-.02c7.79-.15,13.78-1.64,13.78-1.64l2.1,3.06c15.35,22.69,74.78,13.81,72.05-12.84l49.07-5.55V8.74Z"/>
      <g>
        <path d="M69.56,144.65c-8.8,0-22.02-2.01-30.14-12.7-13.52-17.78,3.25-48.44,3.97-49.73,.47-.85,1.54-1.15,2.38-.68,.85,.47,1.15,1.54,.68,2.38-.17,.3-16.38,29.96-4.24,45.91,7.76,10.21,20.73,11.76,30.24,11.24,.96-.05,1.79,.69,1.84,1.66,.05,.97-.69,1.79-1.66,1.85-.95,.05-1.98,.08-3.09,.08Z"/>
        <path d="M99.69,154.67c-9.86,0-22.1-2.26-29.44-11.92-13.52-17.79,3.24-48.44,3.96-49.73,.47-.85,1.54-1.15,2.38-.68,.85,.47,1.15,1.54,.68,2.38-.17,.3-16.37,29.95-4.24,45.91,12.12,15.95,41.03,8.96,41.32,8.89,.94-.24,1.89,.34,2.13,1.28,.23,.94-.34,1.89-1.28,2.13-.58,.15-7.21,1.75-15.52,1.75Z"/>
        <path d="M188.93,143.2c-.89,0-1.65-.67-1.74-1.58-2.52-24.55-26.44-22.45-27.45-22.34-.95,.08-1.82-.6-1.92-1.57-.1-.96,.6-1.82,1.56-1.92,.28-.03,28.42-2.59,31.3,25.48,.1,.96-.6,1.82-1.57,1.92-.06,0-.12,0-.18,0Z"/>
        <path d="M114.79,152.97c-.56,0-1.12-.27-1.45-.77-15.86-23.44,1.95-48.43,2.13-48.68,.57-.78,1.67-.95,2.45-.39,.78,.57,.96,1.67,.39,2.45-.17,.23-16.52,23.27-2.06,44.65,.54,.8,.33,1.89-.47,2.44-.3,.2-.64,.3-.98,.3Z"/>
        <path d="M171.45,120.66s-.09,0-.13,0c-.97-.07-1.69-.91-1.62-1.88l1.07-14.35c.07-.97,.9-1.7,1.88-1.62,.97,.07,1.69,.91,1.62,1.88l-1.07,14.35c-.07,.92-.84,1.62-1.75,1.62Z"/>
      </g>
    </g>
  </g>
</svg>