<?xml version="1.0" encoding="UTF-8"?>
<svg id="Layer_2" data-name="Layer 2" xmlns="http://www.w3.org/2000/svg" viewBox="0 0 202.8 239.84">
  <defs>
    <style>
      .cls-1 {
        fill: #feac0b;
      }
    </style>
  </defs>
  <g id="pattern">
    <g>
      <path class="cls-1" d="M15.43,69.52c8.82-4.04,16.04-3.25,21.42,.16l-1.53-2.84s2.95-16.75,13.54-21.19c10.51-4.41,19.42,1.93,25.27,12l-1.21-3.22s5.18-16.2,16.26-19.18c5.39-1.45,10.05-.39,13.93,2.32,0,0-3.07-37.57,16.81-37.57,24.24,0,31.89,129.52,32.38,138.39,6.14-7.11,33.39-55.27,48.01-39.22,15,16.47-43.14,140.67-43.14,140.67H9.79L2.1,113.07s-9.92-32.9,13.32-43.55Z"/>
      <g>
        <path d="M34.11,113.17c-1.01,0-2.02-.14-3.03-.41-7.49-2.03-12.29-10.97-12.49-11.35-.45-.85-.13-1.92,.73-2.37,.86-.46,1.92-.13,2.37,.73,.04,.08,4.3,7.98,10.32,9.6,2.31,.63,4.56,.23,6.86-1.2,8.74-5.43,9.17-19.77,4.08-29.23-5.43-10.1-15.44-13.03-26.78-7.83-.89,.4-1.92,.02-2.33-.86-.4-.88-.02-1.92,.86-2.33,15.57-7.13,26.4,.16,31.34,9.36,5.94,11.07,5.22,27.32-5.32,33.88-2.16,1.34-4.37,2.02-6.61,2.02Z"/>
        <path d="M69.15,108.84c-.78,0-1.56-.07-2.36-.2-8.15-1.39-15.85-9.91-20.34-17.43-.5-.83-.23-1.91,.61-2.41,.83-.5,1.91-.23,2.41,.61,4.09,6.84,10.95,14.58,17.92,15.77,2.98,.51,5.68-.24,8.22-2.3,9.77-13.95,2.09-33.97-1.68-41.95-.41-.88-.04-1.92,.84-2.34,.88-.42,1.92-.04,2.33,.84,4.05,8.58,12.28,30.2,1.23,45.67-.09,.12-.19,.23-.3,.33-2.72,2.26-5.69,3.41-8.87,3.41Z"/>
        <path d="M101.54,100.74c-11.81,0-20.45-19.73-20.86-20.66-.38-.89,.03-1.92,.92-2.3,.89-.39,1.92,.03,2.3,.92,.1,.22,9.76,22.22,20.45,17.98,10.87-4.32,13.12-26.32,7.8-42.37-2.14-6.46-8.63-21.09-22.51-17.36-.94,.25-1.9-.3-2.15-1.24-.25-.94,.3-1.9,1.24-2.15,11.64-3.11,21.64,4.22,26.76,19.64,5.94,17.9,3.36,41.5-9.83,46.74-1.41,.56-2.78,.81-4.11,.81Z"/>
        <path d="M94.82,186.27c-.13,0-.25-.01-.38-.04-.95-.21-1.54-1.15-1.33-2.09,10.31-46.39,54.71-47.01,55.15-47.01h3.6c.97,0,1.75,.79,1.75,1.76,0,.97-.79,1.75-1.75,1.75h-3.6c-1.71,0-42.04,.66-51.73,44.26-.18,.82-.91,1.37-1.71,1.37Z"/>
      </g>
    </g>
  </g>
</svg>