<?xml version="1.0" encoding="UTF-8"?>
<svg id="Layer_1" data-name="Layer 1" xmlns="http://www.w3.org/2000/svg" viewBox="0 0 800 800">
  <g>
    <path d="M197.14,245.38c-1.9,10.03-9.02,18.28-18.67,21.62-8.78,3.65-20.18,6.03-28.42,0-8.03-9.16-4.72-22.27-5.04-33.37,.84-29.64,3.74-59.16,6.36-88.68-1.25-9.36,4.47-17.75,11.4-23.5,8.85-6.98,19.98-12.38,31.44-12.21,13.37,1.77,10.49,16.51,8.77,25.88-1.73,15.77-3.42,31.54-5.85,47.22,11.44-2.51,21.27-9.88,32.97-11.5-.51-20.13-2.47-40.48,.58-60.5,5.29-12.21,19.37-17.22,31.42-19.98,8.58-1.76,20.79-2.37,25.02,7.21,4.92,14.48,1.7,29.96,1.52,44.88-2.18,34.57-4.09,69.46-12.29,103.24-2.42,9.3-5.63,18.92-13.13,25.41-6.17,8.06-14.08,17.67-25.48,16.03-10.56-.2-12.81-12.31-12.4-20.76-.53-19.07,2.26-38.02,2.57-57.07-8.95,6.39-18.9,11.34-27.25,18.57"/>
    <path d="M486.69,149.33c-1.2-10.8-14.39-3.29-18.76,1.42-10.28,9.81-16.8,23.01-21.11,36.37-3.31,11.41-5.6,24.86,.53,35.71,6,8.6,20.42,9.23,26.42,.24,3.39-8.39,14.33-8,18.2-.12,6.15,10.73-.75,23.49-7.94,31.83-6.66,7.27-15.31,12.72-24.34,16.55-11.9,4.19-25.02,.77-36.21-3.93-13.37-7.07-19.62-22.03-21.85-36.27-7.6-40.23,7.38-82.33,33.74-112.81,14.88-15.73,35.95-26.58,57.83-26.64,13.92-.12,29.69,5.89,34.97,19.82,4.5,11.38,2.47,24.29-1.56,35.5-4.57,10.92-16.85,17.19-28.22,17.65-7.96,1.04-14.1-6.77-11.84-14.23l.17-1.08"/>
    <path d="M375.77,140.13c7.24,1.12,15.58,7.42,12.49,15.6-5.39,33.18-7.27,68.11,3.81,100.36,1.93,6.95,5.68,13.31,7.49,20.22-.35,9.69-11.73,13.14-19.75,14-9.45,2.01-22.16-2.25-20.27-13.96-.44-5.05-.81-16.2-4.5-17.06-7.54,6.34-14.72,13.49-24.14,17.09-7.6,4.94-5.91,16-12.53,21.98-8.15,7.97-20.61,11.5-31.78,9.64-8.45-1.29-15.76-13.22-8.61-19.8,12.16-18.63,16.3-41.03,20.23-62.54,4.15-25.34,6.2-50.98,7.44-76.62,6.03-10.6,18.35-15.11,29.2-19.16,11.8-3.73,25.32-7.5,37.07-1.73,4.43,2.24,5.78,7.57,3.82,11.95m-33.48,60.6c-1.36,14.14-4.21,28-6.43,41.98,5.49-3.1,19.61-.31,16.97-8.95-2.02-15.22-3.29-30.54-5.14-45.78l-5.37,12.75"/>
    <path d="M543.5,133.02c1.93-8.75,13.28-5.38,16.41-12.9,9.6-6.1,21.89-5.26,32.69-3.86,9.49,.64,16.1,10.92,10.41,19.19-7.51,10.65-12.63,22.73-19.73,33.66-2.57,5.36-11.3,17.07-9.28,18.63,17.03-8.82,30.6-23.82,48.9-30.13,6.79,.19,15.85,3.04,17.1,10.69,2.05,9.03-.78,18.48-7.45,24.91-14.23,16.78-34.18,28.58-55.86,32.55,2.62,2.24,13.69,6.52,17,12.72,11.82,14.37,15.76,33,20.81,50.44-.71,11.21-17.76,12.6-24.34,5.47-14.78-11.01-26.68-25.86-43.32-34.33-7.15,1.33-7.38,12.81-11.35,18.48-3.21,6.76-5.91,14.29-11.12,19.68-10.2,4.5-22.61,5.69-33.05,1.34-7.71-4.11-5.96-14.89-4.44-22.1,2.48-8.2,8.73-14.55,12.11-22.4,18.53-34.93,24.01-74.73,39.2-110.96,1.63-3.76,3.39-7.47,5.33-11.08"/>
    <path d="M187.34,431.82c-3.14,0-5.92-2.04-6.86-5.04l-15.6-49.97c-4.18,1.34-8.49,2.22-12.85,2.62-3.96,.23-7.37-2.79-7.6-6.75-.22-3.79,2.54-7.11,6.32-7.56,3.35-.32,6.64-1,9.84-2.05l-15.89-50.89c-1.05-3.38,.51-7.02,3.68-8.58l3.86-1.93c14.66-7.35,31.31-15.7,49.29-10.88,.82,.22,1.6,.59,2.29,1.08,6.28,4.39,10.37,11.27,11.23,18.88,1.85,14.52-6.62,32.05-15.83,42.98-6.07,6.83-13.19,12.65-21.09,17.23l16.06,51.5c1.2,3.78-.89,7.83-4.67,9.03-.7,.22-1.43,.34-2.16,.34Zm-27.08-118.09l13.46,43.05c5.43-3.49,10.37-7.7,14.67-12.52,7-8.32,13.64-22.01,12.36-31.71-.29-3.2-1.84-6.15-4.3-8.21-11.77-2.52-24.15,3.35-36.18,9.38Z"/>
    <path d="M294.56,428.8c-.25,0-.51-.01-.76-.04-3.92-.4-6.79-3.88-6.43-7.81,.48-5.25,3.66-38.73,8.17-64.9-2.9,2.26-5.78,4.36-8.63,6.34-.25,.17-.51,.33-.78,.48-.82,18.46-6.56,37.27-20.5,51.01-8.46,9.31-21.92,12.85-34.36,9-11.57-3.58-19.41-12.68-21.03-24.37-8.66-44.29,10.06-74.54,28.92-87.22,3.54-3.21,8.28-5,13.82-5.02h.1c12.94,0,28.18,10.12,29.86,24.78,1.17,4.8,2.03,9.68,2.57,14.59,6.61-5.06,13.06-10.92,17.24-18.07,.48-.83,1.13-1.55,1.9-2.12,.59-1.55,1.21-3.09,1.86-4.62,.31-.74,.75-1.42,1.29-2.02,7.66-8.53,14.68-7.55,18.19-6.21,12.18,4.67,16.06,25.76,17.29,36.69,3.32-10.45,7.94-20.43,13.75-29.73,.37-.58,.82-1.1,1.33-1.55,7.79-6.81,14.64-8.46,20.34-4.87,13.44,8.43,4.65,41.06,4.27,42.44l-.12,.42c-3.86,13.97-10.28,37.35,1.11,49.6,2.8,2.82,2.78,7.37-.04,10.17-2.82,2.8-7.37,2.78-10.17-.04-.11-.11-.22-.23-.33-.35-16.8-18.12-8.75-47.44-4.43-63.19l.12-.42c2.66-9.68,3.21-21.01,2.06-25.44-.9,.55-1.76,1.17-2.57,1.85-12.89,20.74-17.48,45.98-21.89,70.43-.68,3.75-1.36,7.49-2.06,11.19-.75,3.9-4.51,6.46-8.42,5.71-3.5-.67-5.98-3.81-5.83-7.37,.85-19.21,.55-36.09-.95-51.57,0-.23-.03-.46-.03-.7,0-10.53-4.72-27.22-8.35-29.69-.67,.38-1.29,.85-1.82,1.41-10.1,24.65-13.03,52.2-15.86,78.86-.57,5.35-1.14,10.68-1.75,15.98-.42,3.6-3.45,6.33-7.07,6.36Zm-60.78-92.03c-11.14,16.71-13.18,39.93-9.38,59.18,0,.15,.06,.31,.08,.46,1.14,8.76,8.11,11.83,11.05,12.74,5.87,1.82,14.2,.98,19.56-5.01,.11-.12,.22-.24,.33-.35,10.36-10.13,15.07-24.09,16.21-38.29-7.96-.37-15.65-3-22.17-7.58-7.8-5.46-13.28-12.95-15.69-21.15Zm13-9.79c-.12,7.15,3.94,14.28,10.92,19.11,4.1,2.93,8.93,4.68,13.96,5.06-.45-5.78-1.38-11.5-2.8-17.12-.09-.37-.15-.74-.19-1.11-.58-6.63-9.05-12.28-15.6-12.28h-.04c-3.96,.01-5.84,1.94-6.25,6.34h0Z"/>
    <path d="M389.75,485.83c-3.97,0-7.2-3.21-7.2-7.18,0-1.13,.26-2.25,.78-3.26,4.94-9.74,5.42-31.32,5.94-54.17,.43-19.1,.89-39.26,3.79-57.14,.82-6.49,2.32-12.88,4.46-19.07,5.46-16.82,14.78-29.6,30.93-34.31,.42-.12,.85-.21,1.29-.25,12.16-4.14,28.71,.54,35.07,15.65,5.02,11.93,4.69,24.32,1.4,35.73,2.26,.53,4.54,.93,6.84,1.22,.73-5.23,2.18-10.33,4.31-15.16,5.6-12.63,20.49-46.2,47.34-35.05,9.08,3.77,14.44,11.61,14.7,21.51,.35,13.49-9,28.72-21.36,34.62-10.36,4.95-20.56,7.85-30.7,8.71,.41,2.64,1.19,5.21,2.29,7.65,2.51,5.37,6.56,8.89,12.05,10.47,4.4,1.16,9.03,.18,14.01-3.06,14.69-9.57,27.87-35.88,34.47-60,.94-5.01,2.09-10.28,3.45-15.89,.98-3.85,4.89-6.18,8.74-5.2,3.57,.91,5.87,4.36,5.35,8-.89,5.61-2.09,11.17-3.59,16.65-3.34,18.1-3.69,32.39-1.67,50.65,1.09,9.85,5.3,17.42,11.26,20.26,5.31,2.53,10.58,.48,14.14-1.75,22.95-17.26,24.26-64.19,24.96-89.43,.06-2.24,.12-4.36,.19-6.32,.13-3.87,3.31-6.94,7.18-6.94h.19c3.94,.09,7.06,3.34,7.02,7.27-1.58,128.06-29.62,138.01-38.84,141.27-.22,.08-.43,.14-.64,.2-17.08,4.24-39.44-2.43-52.8-15.11-13.98,6.79-31.99,8.31-48.52,3.86-8.26-2.22-15.17-5.69-20.29-10.1-13.49,14.97-38.5,13.35-47.65,12.76-3.93-.55-6.67-4.19-6.12-8.12,.5-3.52,3.48-6.15,7.04-6.19,22.23,1.43,35.09-2.91,39.26-13.28,1.05-2.61,3.52-4.36,6.32-4.5,2.8-.11,5.41,1.38,6.72,3.86,2.57,4.92,9.45,9.3,18.44,11.71,14.71,3.95,31.34,1.93,42.38-5.07,3.1-1.97,7.19-1.29,9.48,1.59,8.8,11.09,28.33,17.9,41.9,14.74,4.96-1.93,11.47-7.91,17.07-24.63-1.54,1.48-3.17,2.86-4.89,4.14-.13,.09-.26,.18-.39,.27-9.36,6.01-19.39,6.99-28.27,2.76-10.48-4.99-17.72-16.82-19.37-31.65-.42-3.78-.75-7.42-.96-10.98-6.77,11.64-14.78,21.45-23.65,27.23-8.35,5.44-17.22,7.13-25.7,4.87-9.45-2.61-17.24-9.3-21.24-18.24-2-4.4-3.27-9.08-3.78-13.89-3.73-.4-7.43-1.06-11.07-1.97l-.93-.23c-3.55,6.9-8.02,13.29-13.29,18.99-.1,.11-.2,.21-.3,.31-9,8.59-25.84,15.05-39.28,10.07-1.32-.48-2.59-1.08-3.8-1.79-.24,6.32-.38,12.59-.51,18.63-.58,25.59-1.07,47.69-7.49,60.34-1.23,2.42-3.71,3.94-6.43,3.94Zm17.26-116.99c-.41,4.38-.42,8.79-.04,13.18,.64,6.49,3.75,8.35,6.03,9.21,6.59,2.44,17.64-.69,24.22-6.85,3.51-3.82,6.61-8.01,9.23-12.5-12.11-3.46-23.04-9.64-30.27-30.41-.22-.63-.42-1.25-.59-1.86l-.32,.57c-4.07,7.76-6.63,17.7-8.25,28.67Zm107.54-43.82c-5.2,0-13.28,4.5-24.01,28.72-1.33,3.03-2.31,6.21-2.91,9.47,8.42-1.01,16.61-3.45,24.21-7.22,7.24-3.46,13.4-13.4,13.2-21.28-.12-4.27-1.97-7-5.84-8.61-1.47-.68-3.06-1.06-4.68-1.1h.03Zm-75.75-1.61c-1.63-.02-3.24,.26-4.77,.82-4.99,1.93-6.47,6.25-4.29,12.53,5.37,15.42,11.91,19.1,22.57,21.85,2.64-8.75,3.01-18.09-.69-26.89-2.6-6.12-8.11-8.33-12.85-8.33h.03Z"/>
    <path d="M267.23,462.37c-2.18,0-4.45-.03-6.79-.1-18.96-1.12-34.66-3.32-50.42-10.47-3.64-1.58-5.32-5.81-3.74-9.46,1.58-3.64,5.81-5.32,9.46-3.74,.07,.03,.15,.07,.22,.1,13.79,6.25,27.48,8.15,45.11,9.2,33.02,.91,47.16-5.14,60.87-10.99,12.95-5.52,25.19-10.74,49.54-9.14,3.97,0,7.2,3.2,7.21,7.18s-3.2,7.2-7.18,7.21c-.33,0-.65-.02-.97-.06-20.94-1.38-31.15,2.98-42.96,8.02-13.49,5.78-28.67,12.25-60.33,12.25Z"/>
  </g>
  <g>
    <path d="M168.98,620.3c-.84,.17-1.3,.59-1.38,1.25-.09,.67-.04,1.17,.13,1.5,.83,4.01,1.5,9.43,2,16.27,.5,6.85,.58,13.81,.25,20.91-.34,7.1-1.21,13.77-2.63,20.03-1.42,6.26-3.8,10.89-7.14,13.9-2.84,2.5-6.09,4.42-9.76,5.76-3.67,1.34-7.51,2-11.52,2s-7.68-.58-11.02-1.75c-6.18-2.34-11.44-6.47-15.77-12.39-4.34-5.92-8.05-12.52-11.14-19.78-3.09-7.26-5.72-14.69-7.89-22.28-2.17-7.59-4.17-14.15-6.01-19.66-.67-1.67-1.59-2.25-2.75-1.75-.67,.34-1.04,.79-1.13,1.38-.09,.59-.04,1.13,.13,1.63,3.17,9.18,5.34,18.45,6.51,27.79,1,6.01,1.58,12.48,1.75,19.4,.16,6.93-.79,13.19-2.88,18.78-2.09,5.59-5.51,9.98-10.27,13.14-4.76,3.17-11.56,4.01-20.41,2.5-7.01-1.17-12.89-3.84-17.65-8.01-4.76-4.17-8.64-9.3-11.64-15.4-3-6.09-5.26-12.77-6.76-20.03-1.5-7.26-2.59-14.65-3.26-22.16-.67-7.51-1-14.77-1-21.78v-18.78c.33-7.17,1.42-15.02,3.25-23.53,1.84-8.51,4.76-16.44,8.76-23.79,4.01-7.34,9.14-13.35,15.4-18.03,6.26-4.67,13.9-6.76,22.91-6.26,6.01,.34,11.47,1.92,16.4,4.76,4.92,2.84,9.35,6.47,13.27,10.89,3.92,4.42,7.39,9.47,10.39,15.15,3,5.68,5.67,11.52,8.01,17.53,2.34,6.01,4.3,11.98,5.88,17.9,1.58,5.93,2.96,11.39,4.13,16.4,.16,.34,.41,.75,.75,1.25,.33,.5,.83,.67,1.5,.5,1-.16,1.5-.83,1.5-2,0-8.01,.54-16.56,1.63-25.66,1.08-9.1,3.26-17.61,6.51-25.54,3.26-7.93,7.89-14.69,13.9-20.28,6.01-5.59,13.93-8.97,23.79-10.14,7.84-.83,15.31,.42,22.41,3.76,7.09,3.34,13.6,7.8,19.53,13.39,5.92,5.59,11.18,11.85,15.77,18.78,4.59,6.93,8.39,13.56,11.39,19.9,18.36,36.39,26.45,64.51,24.29,84.38-.34,4.01-1.21,7.89-2.63,11.64-1.42,3.76-3.25,7.22-5.51,10.39-2.25,3.17-5.01,5.88-8.26,8.14-3.25,2.25-6.97,3.8-11.14,4.63-6.18,1.17-11.98,.54-17.4-1.88-5.43-2.42-10.52-5.97-15.27-10.64-4.76-4.67-9.1-10.18-13.02-16.52-3.92-6.34-7.47-12.85-10.64-19.53-3.17-6.67-5.88-13.18-8.14-19.53-2.25-6.34-4.05-11.85-5.38-16.52-.34-1.67-1.25-2.34-2.75-2Z"/>
    <path d="M302.42,694.41c-8.01-6.17-13.23-14.52-15.65-25.04-2.42-10.52-2.63-21.82-.63-33.93,2-12.1,6.01-24.37,12.02-36.8,6.01-12.43,13.48-23.7,22.41-33.8,8.93-10.1,19.03-18.32,30.3-24.66,11.27-6.34,23.24-9.51,35.93-9.51,9.01,0,18.23,1.92,27.67,5.76,9.43,3.84,18.9,10.01,28.42,18.53,7.84,7.01,12.6,15.69,14.27,26.04,1.67,10.35,1,21.33-2,32.92-3,11.6-7.97,23.16-14.9,34.68-6.93,11.52-15.23,21.87-24.91,31.05-9.68,9.18-20.37,16.65-32.05,22.41-11.69,5.76-23.62,8.64-35.8,8.64-7.51,0-15.07-1.29-22.66-3.88-7.6-2.59-15.07-6.72-22.41-12.39Zm92.89-105.66c-12.02,6.01-21.87,14.52-29.54,25.54-7.68,11.02-13.44,23.03-17.28,36.05-.5,1.84-.09,2.92,1.25,3.26,1.33,.17,2.25-.5,2.75-2,4.01-12.02,9.6-23.28,16.78-33.8,7.17-10.52,16.69-18.86,28.54-25.04,.5-.33,.92-.83,1.25-1.5,.33-.66,.33-1.33,0-2-.67-1.17-1.92-1.33-3.76-.5Z"/>
    <path d="M613.64,532.16c8.34-1.67,14.94-.54,19.78,3.38,4.84,3.92,8.18,9.68,10.01,17.28,1.84,7.6,2.29,16.57,1.38,26.92-.92,10.35-2.88,21.12-5.88,32.3-3.01,11.18-6.97,22.24-11.89,33.17-4.93,10.93-10.48,20.78-16.65,29.54-6.18,8.76-12.9,15.98-20.16,21.66-7.26,5.68-14.82,8.85-22.66,9.51-6.85,.5-13.69-1.17-20.53-5.01-6.85-3.84-13.48-9.14-19.9-15.9-6.43-6.76-12.56-14.65-18.4-23.66-5.84-9.01-11.06-18.4-15.65-28.17-4.59-9.76-8.51-19.53-11.77-29.29-3.26-9.77-5.51-18.9-6.76-27.42-1.25-8.51-1.46-15.94-.63-22.28,.83-6.34,3-10.93,6.51-13.77,3-2.5,5.97-4.3,8.89-5.38,2.92-1.08,5.8-1.63,8.64-1.63,5.67,0,11.02,2,16.02,6.01,5.01,4.01,9.72,9.14,14.15,15.4,4.42,6.26,8.51,13.31,12.27,21.16,3.76,7.85,7.17,15.61,10.27,23.28,3.09,7.68,5.76,14.94,8.01,21.78,2.25,6.85,4.05,12.35,5.38,16.52,.16,.5,.41,1,.75,1.5,.33,.5,.83,.67,1.5,.5,.66-.16,1.08-.5,1.25-1,.16-.5,.25-1,.25-1.5,.5-13.35,2-26.04,4.51-38.06,2.5-12.02,5.76-22.74,9.77-32.17,4.01-9.43,8.68-17.19,14.02-23.28,5.34-6.09,11.18-9.89,17.53-11.39Z"/>
    <path d="M780.88,589.25c1.17,2.84,1.58,5.63,1.25,8.39-.34,2.75-1.17,5.38-2.5,7.89-1.34,2.5-3.13,4.8-5.38,6.89-2.25,2.09-4.8,3.97-7.64,5.63-7.01,4.17-14.48,7.35-22.41,9.51-7.93,2.17-15.82,4.42-23.66,6.76-.67,.34-1.29,.59-1.88,.75-.59,.17-.79,.67-.63,1.5,.16,.84,.54,1.34,1.13,1.5,.58,.17,1.13,.17,1.63,0,2.34-.5,5.05-.92,8.14-1.25,3.09-.33,6.3-.5,9.64-.5,6.01,0,11.85,.79,17.53,2.38,5.67,1.59,9.68,4.55,12.02,8.89,2.67,4.67,3.5,9.35,2.5,14.02-1,4.68-3.26,9.23-6.76,13.65-3.51,4.42-8.1,8.56-13.77,12.39-5.68,3.84-11.77,7.14-18.28,9.89-6.51,2.75-13.27,4.97-20.28,6.63-7.01,1.67-13.69,2.5-20.03,2.5-4.34,0-8.35-.38-12.02-1.13-3.67-.75-6.93-2.04-9.77-3.88-8.68-4.34-14.94-11.18-18.78-20.53-1.34-3.67-1.8-9.35-1.38-17.03,.42-7.68,1.63-16.31,3.63-25.91,2-9.6,4.59-19.57,7.76-29.92,3.17-10.35,6.67-20.03,10.52-29.04,3.84-9.01,7.97-16.82,12.39-23.41,4.42-6.59,8.89-10.8,13.39-12.64,9.01-3.84,17.65-6.63,25.91-8.39,8.26-1.75,17.15-2.63,26.66-2.63,4.34,0,8.76,.88,13.27,2.63,4.51,1.75,7.76,4.63,9.77,8.64,1.83,4.51,1.63,8.76-.63,12.77-2.25,4.01-5.63,6.76-10.14,8.26-5.34,1.84-10.77,3.51-16.27,5.01-5.51,1.5-10.77,3.5-15.77,6.01-.5,.34-1.04,.67-1.63,1-.59,.34-.71,.92-.38,1.75,.33,1.34,1.58,1.67,3.76,1,1.5-.5,4.21-1.13,8.14-1.88,3.92-.75,8.22-1.46,12.89-2.13,6.34-.83,11.93-.41,16.78,1.25,4.84,1.67,8.59,5.93,11.27,12.77Z"/>
  </g>
</svg>