<?xml version="1.0" encoding="UTF-8"?>
<svg xmlns="http://www.w3.org/2000/svg" xmlns:xlink="http://www.w3.org/1999/xlink" viewBox="0 0 1656 630">
  <defs>
    <style>
      .cls-1 {
        fill: none;
      }

      .cls-2 {
        clip-path: url(#clippath);
      }

      .cls-3 {
        fill: #ff5836;
      }

      .cls-4 {
        fill: #ffba05;
      }

      .cls-5 {
        fill: #fefaee;
      }

      .cls-6 {
        fill: #fd629e;
      }

      .cls-7 {
        fill: #feac0b;
      }

      .cls-8 {
        fill: #09b690;
      }

      .cls-9 {
        fill: #267ae4;
      }

      .cls-10 {
        mix-blend-mode: multiply;
      }

      .cls-11 {
        mix-blend-mode: darken;
      }

      .cls-12 {
        isolation: isolate;
      }
    </style>
    <clipPath id="clippath">
      <rect class="cls-1" x="-7.99" y="-7" width="1671.99" height="644.25"/>
    </clipPath>
  </defs>
  <g class="cls-12">
    <g id="Layer_2" data-name="Layer 2">
      <rect class="cls-5" x="-7.99" y="-7" width="1671.99" height="644.25"/>
    </g>
    <g id="Layer_1" data-name="Layer 1">
      <g class="cls-2">
        <path class="cls-6" d="M1205.05-15.07c12.1,44.62,34.75,85.69,62.79,122.2,14.9,19.39,30.62,37.97,47.25,55.9,16.16,17.42,32.62,34.59,49.86,50.96,18.91,17.95,38.83,34.91,59.89,50.3,13.39,9.78,27.9,18,42.86,25.1,19.15,9.1,39.02,16.96,59.36,22.98s42.64,10.17,64.5,12.74c18.21,2.14,36.69,2.63,54.94,.6,11.41-1.27,22.87-2.85,33.99-5.76,10.74-2.81,21.05-6.95,31.12-11.59,3.71-1.71,7.34-3.61,10.86-5.68,7.6-4.47,13.74-12.41,16.08-20.92,1.46-4.65,1.67-9.3,.63-13.96-.21-4.66-1.6-9-4.15-13.01-4.82-7.47-11.99-14.05-20.92-16.08-9.18-2.09-18.7-1.34-26.97,3.53-4.71,2.77-9.6,5.21-14.63,7.34,2.79-1.18,5.57-2.35,8.36-3.53-12.56,5.25-25.83,8.53-39.3,10.37l9.3-1.25c-21.24,2.83-42.8,2.16-64-.65,3.1,.42,6.2,.83,9.3,1.25-23.77-3.2-47.17-9.1-69.75-17.19-6.23-2.23-12.4-4.64-18.5-7.22,2.79,1.18,5.57,2.35,8.36,3.53-22.47-9.53-43.71-21.39-63.06-36.29l7.08,5.47c-20.73-16.02-40.14-33.64-58.73-52.08-18.1-17.95-35.69-36.51-52.56-55.63-8.9-10.08-17.52-20.4-25.74-31.04,1.82,2.36,3.65,4.72,5.47,7.08-18.96-24.61-35.64-51.02-47.75-79.69,1.18,2.79,2.35,5.57,3.53,8.36-4.75-11.32-8.76-22.91-11.98-34.76-2.3-8.48-8.52-16.49-16.08-20.92-4.02-2.56-8.36-3.94-13.01-4.15-4.65-1.04-9.3-.83-13.96,.63-8.47,2.74-16.64,7.99-20.92,16.08-4.41,8.35-6.05,17.68-3.53,26.97h0Z"/>
        <path class="cls-4" d="M-3.44,87.81C.25,74.74,4.06,61.66,9.34,49.13l-3.53,8.36c4.02-9.48,8.9-18.61,15.19-26.79l-5.47,7.08c4.5-5.8,9.67-11,15.47-15.5l-7.08,5.47c7.43-5.72,15.68-10.23,24.31-13.88l-8.36,3.53c12.48-5.24,25.6-8.73,38.78-11.7,3.73-.84,7.47-1.64,11.22-2.43,4.55-1.08,8.52-3.17,11.9-6.26,3.81-2.47,6.82-5.74,9.01-9.82,2.56-4.02,3.94-8.36,4.15-13.01,1.04-4.65,.83-9.3-.63-13.96l-3.53-8.36c-3.11-5.26-7.3-9.44-12.56-12.56l-8.36-3.53c-6.2-1.67-12.41-1.67-18.61,0-11.21,2.35-22.41,4.83-33.37,8.17-5.51,1.68-10.94,3.59-16.26,5.8-7.81,3.25-15.6,6.45-22.91,10.74-7.31,4.29-14.16,9.54-20.59,15.04-4.26,3.65-8.14,7.72-11.6,12.13-5.34,6.8-10.5,13.51-14.68,21.08-4.13,7.48-7.38,15.39-10.63,23.28-4.97,12.07-8.61,24.64-12.15,37.19-1.46,4.65-1.67,9.3-.63,13.96,.21,4.66,1.6,9,4.15,13.01,2.2,4.08,5.2,7.35,9.01,9.82,3.38,3.09,7.35,5.18,11.9,6.26l9.3,1.25c6.32-.02,12.21-1.61,17.67-4.78,2.36-1.82,4.72-3.65,7.08-5.47,4.34-4.37,7.34-9.52,9-15.44h0Z"/>
        <g class="cls-10">
          <path class="cls-9" d="M1014.31-10.79c22.55,19.55,45.59,38.54,69.1,56.92,8.83,6.91,17.71,13.76,26.63,20.54,4.02,2.56,8.36,3.94,13.01,4.15,4.65,1.04,9.3,.83,13.96-.63,4.55-1.08,8.52-3.17,11.9-6.26,3.81-2.47,6.82-5.74,9.01-9.82,1.18-2.79,2.35-5.57,3.53-8.36,1.67-6.2,1.67-12.41,0-18.61-1.18-2.79-2.35-5.57-3.53-8.36-3.11-5.26-7.3-9.44-12.56-12.56-3.72-2.83-7.44-5.68-11.14-8.54,2.36,1.82,4.72,3.65,7.08,5.47-20.55-15.88-40.76-32.21-60.59-48.98-5.67-4.79-11.3-9.62-16.91-14.48-3.17-3.41-6.92-5.83-11.26-7.24-4.17-2.19-8.67-3.2-13.48-3.01-4.82-.18-9.31,.82-13.48,3.01-4.34,1.41-8.09,3.82-11.26,7.24-1.82,2.36-3.65,4.72-5.47,7.08-3.17,5.46-4.76,11.35-4.78,17.67l1.25,9.3c1.66,5.93,4.66,11.08,9,15.44h0Z"/>
        </g>
        <g class="cls-10">
          <path class="cls-4" d="M625.4,944.44c6.54-8.38,12.8-16.7,17.78-26.12,4.98-9.43,9.14-19.39,12.61-29.46,6.07-17.63,8.97-36.25,10.69-54.76,1.47-15.79,1.3-31.73-.35-47.5-1.96-18.75-5.09-37.35-10.27-55.5-5.12-17.93-12.08-35.34-19.9-52.26-6.7-14.49-14.49-28.47-23.22-41.84-18.47-28.28-40.45-54.47-64.65-78.01-24.36-23.7-51.08-44.94-78.6-64.84-3.15-2.28-6.32-4.54-9.5-6.77-4.02-2.56-8.36-3.94-13.01-4.15-4.65-1.04-9.3-.83-13.96,.63-4.55,1.08-8.52,3.17-11.9,6.26-3.81,2.47-6.82,5.74-9.01,9.82-4.29,8.12-6.44,17.96-3.53,26.97l3.53,8.36c3.11,5.26,7.3,9.44,12.56,12.56,9.93,6.98,19.71,14.16,29.32,21.58-2.36-1.82-4.72-3.65-7.08-5.47,27.09,20.96,52.79,43.85,75.56,69.49,6.34,7.14,12.44,14.5,18.29,22.06l-5.47-7.08c17.94,23.3,33.18,48.59,44.64,75.7l-3.53-8.36c9.75,23.22,16.7,47.58,20.1,72.54l-1.25-9.3c2.84,21.28,3.05,42.86,.24,64.15l1.25-9.3c-2.14,15.89-6.01,31.56-12.22,46.37,1.18-2.79,2.35-5.57,3.53-8.36-4.49,10.56-10.15,20.56-17.16,29.65l5.47-7.08-.43,.55c-3.41,3.17-5.83,6.92-7.24,11.26-2.19,4.17-3.2,8.67-3.01,13.48-.18,4.82,.82,9.31,3.01,13.48,1.41,4.34,3.82,8.09,7.24,11.26,6.67,6.12,15.43,10.67,24.75,10.25,3.1-.42,6.2-.83,9.3-1.25,5.93-1.66,11.08-4.66,15.44-9h0Z"/>
        </g>
        <g>
          <g class="cls-10">
            <path class="cls-3" d="M504.01,742.03c2.56-3.8,5.23-7.51,8.02-11.14l-5.47,7.08c11.98-15.4,26.01-28.97,41.39-40.96-2.36,1.82-4.72,3.65-7.08,5.47,26.05-20.09,55.33-35.41,85.54-48.21l-8.36,3.53c33.39-14.04,67.92-25.58,102.58-36.04,37.2-11.22,74.92-20.74,113.04-28.25,21.63-4.26,43.38-7.86,65.22-10.8l-9.3,1.25c55.78-7.41,111.9-8.87,168.11-8.88,27.66,0,55.31,.25,82.97,.05,25.05-.18,50.28-.15,75.23-2.75,13.38-1.39,26.83-3.18,39.96-6.19s26.23-7.83,38.84-13.49c24.14-10.83,43.57-29.23,58.39-50.88,13.62-19.91,22.66-44.1,26.35-67.91,4.26-27.47,4.09-54.66-3.07-81.74-13.93-52.67-50.48-95.91-90.07-131.74-6.87-6.22-15.31-10.25-24.75-10.25-8.58,0-18.84,3.81-24.75,10.25-6.12,6.67-10.67,15.43-10.25,24.75,.4,9.01,3.35,18.51,10.25,24.75,16.78,15.19,32.74,31.32,46.6,49.25-1.82-2.36-3.65-4.72-5.47-7.08,10.81,14.13,20.18,29.29,27.16,45.68-1.18-2.79-2.35-5.57-3.53-8.36,5.34,12.83,9.09,26.16,10.99,39.94-.42-3.1-.83-6.2-1.25-9.3,1.79,13.95,1.65,27.99-.22,41.92,.42-3.1,.83-6.2,1.25-9.3-1.9,13.32-5.35,26.32-10.51,38.75,1.18-2.79,2.35-5.57,3.53-8.36-4.37,10.26-9.85,19.94-16.61,28.83,1.82-2.36,3.65-4.72,5.47-7.08-5.71,7.34-12.18,13.99-19.51,19.72,2.36-1.82,4.72-3.65,7.08-5.47-7.66,5.82-16.02,10.48-24.84,14.28,2.79-1.18,5.57-2.35,8.36-3.53-15.77,6.61-32.48,10.39-49.37,12.72,3.1-.42,6.2-.83,9.3-1.25-24.57,3.27-49.45,3.48-74.2,3.77-28.81,.33-57.62,.08-86.43,.05-57.39-.07-114.76,1.02-171.74,8.44-57.28,7.47-113.81,18.78-169.42,34.48-51.38,14.51-102.73,31.48-151.14,54.16-50.85,23.83-97.09,57.54-128.74,104.53-4.88,7.25-5.79,18.76-3.53,26.97s8.51,16.92,16.08,20.92c17.67,9.34,36.94,3.69,47.89-12.56h0Z"/>
          </g>
          <g class="cls-10">
            <path class="cls-3" d="M1108.95,122.07c-29.66-27.63-64.86-46.57-101.97-62.11-37.75-15.81-77.47-26.65-117.55-34.67-46.38-9.28-93.59-15.05-140.77-18.18-44.32-2.93-88.82-3.41-133.18-1.4-20.78,.94-41.53,2.45-62.22,4.61-25.09,2.62-49.73,6.4-75.07,5.05-7.37-.39-14.71-1.12-22.02-2.1l9.3,1.25c-20.47-2.87-40.78-7.81-60.72-13.24s-39.91-11.96-59.1-20.02l8.36,3.53c-18.25-7.74-36.05-16.91-51.82-29l7.08,5.47c-7.88-6.12-15.14-12.97-21.25-20.87l5.47,7.08c-.57-.75-1.13-1.51-1.68-2.28-5.48-7.59-11.59-13.51-20.92-16.08-8.38-2.31-19.53-1.27-26.97,3.53s-14.05,11.99-16.08,20.92c-1.98,8.67-1.9,19.45,3.53,26.97,13.07,18.09,28.94,32.26,47.75,44.31,17.71,11.35,37.16,19.83,56.69,27.49,17.5,6.86,35.48,12.5,53.64,17.34s36,9.17,54.28,11.9c28.2,4.21,56.07,5.46,84.4,1.73,17.03-2.24,34.12-4.02,51.25-5.36,37.06-2.9,74.26-3.9,111.42-3.24,43.83,.78,87.64,3.88,131.09,9.68l-9.3-1.25c47.92,6.46,95.66,16.09,141.56,31.48,11.88,3.98,23.61,8.38,35.16,13.24l-8.36-3.53c24.93,10.57,49.06,23.4,70.56,39.96-2.36-1.82-4.72-3.65-7.08-5.47,5.19,4.03,10.22,8.27,15.03,12.76,6.72,6.26,15.44,10.25,24.75,10.25,8.58,0,18.84-3.81,24.75-10.25,6.12-6.67,10.67-15.43,10.25-24.75-.41-9.09-3.41-18.37-10.25-24.75h0Z"/>
          </g>
          <g class="cls-11">
            <path class="cls-3" d="M1056.39,86.76l52.51,16.03s44.04-2.05,42.38,9.25c-1.66,11.3-33.55,8.93-33.55,8.93,0,0,46.05,6.7,43.72,16.69-2.33,9.99-44.65,5.96-44.65,5.96,0,0,56.62,9.28,53.44,20.53-3.18,11.25-59.02,1.62-59.02,1.62,0,0,42.26,9.64,38.48,20.7-2.27,6.64-31.06,2.9-53.68-1.14l-.54-1.72c-.54,.88-1.11,1.77-1.72,2.66-12.14,17.85-35.31,19.21-52.26,8.35-12.65-8.1-29.59-60.25-29.59-60.25"/>
            <g>
              <path d="M1114.73,113.85c.1-.05,.2-.08,.32-.1,.55-.08,1.05,.3,1.13,.85,3.29,23,.53,42.56-8.46,59.8-.26,.49-.86,.68-1.35,.42-.49-.26-.68-.86-.42-1.35,8.79-16.85,11.49-36.02,8.25-58.59-.06-.43,.16-.84,.53-1.03Z"/>
              <path d="M1060.58,134.47c.29-.15,.66-.15,.96,.03,23.38,13.69,15.97,37.89,15.89,38.14-.17,.52-.73,.82-1.26,.65-.53-.17-.82-.73-.65-1.26,.3-.93,6.98-22.93-14.99-35.8-.48-.28-.64-.89-.36-1.37,.1-.17,.24-.3,.41-.38Z"/>
              <path d="M1077.18,170.95c6.22-3.19,14.67-6.54,19.48-4.29,2.1,.99,3.33,2.88,3.67,5.64,.7,5.68-3.58,11.94-7.4,16.76-.34,.43-.97,.51-1.41,.16-.43-.34-.51-.97-.16-1.4,3.29-4.16,7.6-10.28,6.98-15.28-.25-2.06-1.08-3.39-2.54-4.07-5.37-2.52-18.11,4.04-24.79,8.31-.45,.31-1.08,.16-1.38-.3-.3-.47-.16-1.08,.3-1.38,1.11-.71,3.85-2.41,7.24-4.15Z"/>
            </g>
          </g>
          <g>
            <path class="cls-3" d="M1263.58,287.51c-10.29,.49-102.24-19.41-93.65-36.76,7.08-14.29,41.55,3.68,43.16-4.63,1.68-8.66-10.95-16.23-23.74-22.15-16.54-7.66-54.47-11.96-52.83-20.91,.87-4.75,12.22-8.02,25.89-7.87,1.88-3.61,4.33-6.12,7.11-7.81,5.12-11.68,13.19-15.02,21.2-14.71l-1.09-.34c6.7-21.97,44.54,2.44,44.54,2.44l20.38,13.09c7.74,4.97,14.71,11.04,20.71,18.01l20.58,23.94"/>
            <g>
              <path d="M1162.13,195.56c-.04-.12-.07-.24-.07-.38,.01-.55,.47-.99,1.02-.98,10.06,.19,24.49,2.07,36.12,10,.46,.31,.57,.93,.26,1.39-.31,.46-.93,.57-1.39,.26-11.22-7.65-25.24-9.47-35.03-9.65-.42,0-.77-.27-.92-.64Z"/>
              <path d="M1167.63,188.36c-.16-.42-.02-.91,.36-1.18,3.03-2.11,6.73-3.34,10.98-3.65,8.41-.62,18.44,2.08,28.24,7.58,.48,.27,.65,.88,.38,1.36-.27,.48-.88,.65-1.36,.38-9.46-5.32-19.09-7.92-27.12-7.33-3.89,.29-7.26,1.39-9.99,3.3-.45,.32-1.08,.2-1.39-.25-.05-.07-.09-.14-.11-.21Z"/>
              <path d="M1187.42,173.05c-.04-.09-.06-.2-.06-.3-.03-.55,.39-1.02,.94-1.05,11.82-.65,22.87,6.32,28.4,10.53,.44,.34,.52,.96,.19,1.4-.33,.44-.96,.52-1.4,.19-5.31-4.05-15.9-10.74-27.08-10.13-.44,.02-.84-.25-.99-.64Z"/>
            </g>
          </g>
        </g>
        <g class="cls-10">
          <path class="cls-9" d="M-91.53,518.86c12.04,19.23,26.85,37.24,44.04,52.09s36.55,27.99,57.68,37.25c12.16,5.33,24.43,10.21,37.17,13.93,10.25,3,20.67,5.37,31.18,7.25,23.83,4.26,48.02,6.63,72.2,7.52,23.69,.87,47.42,.6,71.09-.69,11.7-.64,23.47-1.34,35.12-2.72,10.69-1.27,21.3-2.7,31.46-6.39,9.17-3.33,18.44-7.26,26.54-12.8,7.71-5.28,15.31-11.22,21.51-18.27s12.02-14.74,16.49-23.03c4.55-8.45,8.29-17.5,11.14-26.67,2.06-6.63,3.51-13.43,4.48-20.31,1.42-10.05,2.66-20.01,2.71-30.17,.08-17.61-2.26-35.49-6.23-52.63-2.47-10.64-6.11-21.29-11.92-30.59-7.4-11.84-16.79-21.21-28.4-28.9-5.64-3.74-12.14-6.3-18.41-8.69s-13.43-3.2-20.38-4.08c-4.25-.54-8.51-.63-12.78-.15-7.19,.8-14.29,1.68-21.19,3.86-10.79,3.41-21.5,8.26-30.83,14.72-9.43,6.53-18.46,13.87-26.16,22.41-7.76,8.61-14.9,18.04-20.89,27.98s-10.63,20.57-14.73,31.34c-3.46,9.08-5.83,18.52-7.4,28.11-2.33,14.22-3.83,28.52-3.65,42.93,.18,14.3,1.92,28.45,3.96,42.59,1.63,11.31,3.89,22.53,6.57,33.64,5.38,22.3,12.59,44.46,23.44,64.75,5.97,11.15,13.57,21.6,22.02,30.98s18.67,17.27,29.19,24.09c8.38,5.43,17.35,9.91,26.51,13.86,11.93,5.14,23.95,9.85,36.19,14.2,21.67,7.7,43.43,15.37,65.84,20.66,13.64,3.22,27.5,5.35,41.43,6.85,4.82,.18,9.31-.82,13.48-3.01,4.34-1.41,8.09-3.82,11.26-7.24,3.41-3.17,5.83-6.92,7.24-11.26,2.19-4.17,3.2-8.67,3.01-13.48-.41-9.05-3.38-18.44-10.25-24.75l-7.08-5.47c-5.46-3.17-11.35-4.76-17.67-4.78-2.05-.22-4.09-.46-6.14-.73l9.3,1.25c-32.5-4.4-63.62-15.43-94.37-26.43-7.78-2.78-15.52-5.66-23.15-8.85l8.36,3.53c-12.95-5.47-25.53-11.92-36.74-20.47l7.08,5.47c-7.26-5.61-13.72-12.06-19.35-19.31l5.47,7.08c-7.25-9.48-12.95-19.97-17.61-30.93l3.53,8.36c-4.96-11.82-8.74-24.09-11.92-36.5-3.61-14.07-6.58-28.32-8.54-42.72l1.25,9.3c-2.63-19.74-3.29-39.75-.66-59.53l-1.25,9.3c1.77-12.79,4.87-25.26,9.84-37.18l-3.53,8.36c4.85-11.5,11.14-22.35,18.77-32.24l-5.47,7.08c6.12-7.85,13.06-15.01,20.92-21.14-2.36,1.82-4.72,3.65-7.08,5.47,6.1-4.69,12.68-8.69,19.75-11.74-2.79,1.18-5.57,2.35-8.36,3.53,5.64-2.38,11.52-4.18,17.59-5.05-3.1,.42-6.2,.83-9.3,1.25,4.69-.61,9.4-.63,14.09-.01l-9.3-1.25c4.3,.62,8.47,1.75,12.5,3.4l-8.36-3.53c4.15,1.75,8.03,4.01,11.62,6.73l-7.08-5.47c3.59,2.79,6.8,5.99,9.61,9.57l-5.47-7.08c2.98,3.88,5.43,8.09,7.36,12.59l-3.53-8.36c4.21,10.13,6.11,21.52,7.58,32.35l-1.25-9.3c2.02,15.11,2.31,30.46,.29,45.58l1.25-9.3c-1.45,10.49-4.02,20.82-8.1,30.61l3.53-8.36c-3.1,7.34-7.02,14.29-11.88,20.6l5.47-7.08c-4.05,5.2-8.69,9.88-13.88,13.94l7.08-5.47c-5.46,4.22-11.43,7.67-17.78,10.38l8.36-3.53c-7.81,3.27-16.02,5.36-24.4,6.53,3.1-.42,6.2-.83,9.3-1.25-9.98,1.32-20.09,1.92-30.13,2.56-10.71,.68-21.42,1.14-32.15,1.38-20.29,.46-40.63,.23-60.9-1.03-10.74-.67-21.45-1.67-32.12-3.08l9.3,1.25c-24.89-3.36-49.51-9.11-72.73-18.82l8.36,3.53c-16.16-6.83-31.39-15.58-45.29-26.29l7.08,5.47c-13.27-10.31-25.2-22.23-35.51-35.5l5.47,7.08c-4.04-5.24-7.82-10.66-11.33-16.27-4.76-7.61-12.17-13.68-20.92-16.08-4.65-1.46-9.3-1.67-13.96-.63-4.66,.21-9,1.6-13.01,4.15-7.47,4.82-14.05,11.99-16.08,20.92s-1.52,18.91,3.53,26.97h0Z"/>
        </g>
        <g class="cls-10">
          <path class="cls-8" d="M-137.12,508.11c18.85,2.45,38.47,.35,56.84-4.23s36.56-12.49,52.88-22.22c34.11-20.34,60.66-49.38,84.23-80.86,11.73-15.66,22.42-32.07,32.91-48.58H29.3c10.06,16.33,20.65,32.66,33.82,46.7,14.87,15.85,34.26,28.46,55.5,33.68,42.71,10.49,87.43-3.84,121.63-29.91,18.51-14.1,34.94-29.94,51.04-46.7-18.32-2.36-36.65-4.72-54.97-7.08,11.64,16.55,23.92,33.2,38.81,47.02,8.16,7.58,17.11,14.72,26.75,20.33,5.99,3.49,12.44,6.12,18.87,8.68,3.74,1.49,7.61,2.67,11.56,3.48,14.96,3.04,28.56,2.96,43.54,0,12.45-2.46,24.48-7.94,35.68-13.77,19.54-10.16,38.14-22.4,57.01-33.75,22.21-13.36,44.41-26.71,66.62-40.07,7.6-4.57,13.72-12.32,16.08-20.92,2.31-8.38,1.27-19.53-3.53-26.97s-11.99-14.05-20.92-16.08-18.77-1.4-26.97,3.53c-22.76,13.69-45.52,27.38-68.28,41.07-11.29,6.79-22.58,13.58-33.86,20.37-10.39,6.25-20.76,12.57-31.94,17.33,2.79-1.18,5.57-2.35,8.36-3.53-6.7,2.77-13.59,4.9-20.78,5.95l9.3-1.25c-5.47,.7-10.91,.75-16.38,.1l9.3,1.25c-6.19-.83-12.15-2.53-17.91-4.95l8.36,3.53c-6.99-3.05-13.44-7.05-19.49-11.68,2.36,1.82,4.72,3.65,7.08,5.47-11.86-9.23-21.91-20.49-31.11-32.32l5.47,7.08c-3.85-4.99-7.56-10.08-11.18-15.24-3.11-5.26-7.3-9.44-12.56-12.56-4.02-2.56-8.36-3.94-13.01-4.15-10.74-1.44-21.7,1.6-29.4,9.63-13.66,14.23-27.48,28.38-43.06,40.53l7.08-5.47c-10.39,8.01-21.48,15.08-33.55,20.3l8.36-3.53c-9.52,4.02-19.44,6.85-29.68,8.26l9.3-1.25c-7.94,1-15.91,1.11-23.86,.11,3.1,.42,6.2,.83,9.3,1.25-6.81-.95-13.4-2.69-19.75-5.34l8.36,3.53c-6.01-2.62-11.58-5.97-16.79-9.94,2.36,1.82,4.72,3.65,7.08,5.47-7.83-6.11-14.56-13.38-20.66-21.2l5.47,7.08c-7.21-9.36-13.49-19.35-19.68-29.4-6.51-10.57-17.67-17.33-30.22-17.33s-23.53,6.81-30.22,17.33c-11.73,18.45-23.72,36.75-37.08,54.06l5.47-7.08c-14.21,18.3-29.99,35.47-48.32,49.73l7.08-5.47c-12.59,9.68-26.24,17.87-40.85,24.11l8.36-3.53c-12.13,5.08-24.78,8.74-37.82,10.55l9.3-1.25c-10.83,1.41-21.73,1.51-32.57,.1-8.22-1.07-19.18,4.68-24.75,10.25-6.07,6.07-10.64,16.03-10.25,24.75s3.38,18.44,10.25,24.75l7.08,5.47c5.46,3.17,11.35,4.76,17.67,4.78h0Z"/>
        </g>
        <g class="cls-10">
          <path class="cls-7" d="M1445.88-41.83c-2.4,10.94-3.92,22.28-4.11,33.49-.18,10.89,1.21,21.72,2.9,32.46,2.99,19.06,9.96,37.32,18.34,54.62,8.51,17.58,19.95,33.37,32.31,48.43,11,13.41,23.34,25.66,36.31,37.16,16.42,14.57,33.86,27.95,51.29,41.29v-60.44c-7.54,3.78-15.07,7.6-22.38,11.81-9.61,5.54-18.43,11.93-27.12,18.84-17.1,13.59-29.46,32.06-36.52,52.65-7.31,21.33-6.67,44.62-2.5,66.48,3.85,20.14,12.86,39.66,23.8,56.91,12.43,19.6,27.69,37.37,42.95,54.8,2.36-18.32,4.72-36.65,7.08-54.97-35.88,20.81-71.61,47.25-85.17,88.23-1.72,5.2-2.51,10.48-3.24,15.9-.82,6.13-1.48,12.08-.98,18.27,1.08,13.43,3.86,26.14,8.95,38.58,9.47,23.18,21.08,45.45,32.07,67.94,11.53,23.58,23.05,47.17,34.58,70.75,3.69,7.54,13.06,13.92,20.92,16.08,8.38,2.31,19.53,1.27,26.97-3.53,7.47-4.82,14.05-11.99,16.08-20.92l1.25-9.3c-.02-6.32-1.61-12.21-4.78-17.67-10.56-21.6-21.11-43.21-31.67-64.81-10.26-21-21.32-41.8-30.52-63.29,1.18,2.79,2.35,5.57,3.53,8.36-3.71-8.83-6.77-17.89-8.17-27.4,.42,3.1,.83,6.2,1.25,9.3-.78-5.91-.86-11.81-.1-17.72-.42,3.1-.83,6.2-1.25,9.3,.79-5.5,2.27-10.81,4.37-15.96-1.18,2.79-2.35,5.57-3.53,8.36,2.66-6.25,6.15-12.02,10.25-17.43l-5.47,7.08c6.91-8.94,15.23-16.62,24.13-23.55l-7.08,5.47c10.43-8.03,21.58-15.03,32.96-21.63,9.53-5.53,15.27-14.85,16.71-25.57,1.54-11.45-2.1-20.8-9.63-29.4-8.22-9.39-16.38-18.83-24.03-28.7,1.82,2.36,3.65,4.72,5.47,7.08-10.42-13.53-19.77-27.87-26.46-43.63,1.18,2.79,2.35,5.57,3.53,8.36-4.05-9.76-6.87-19.93-8.3-30.4,.42,3.1,.83,6.2,1.25,9.3-1.09-8.6-1.19-17.25-.09-25.86-.42,3.1-.83,6.2-1.25,9.3,.99-7.07,2.79-13.93,5.54-20.53-1.18,2.79-2.35,5.57-3.53,8.36,2.53-5.83,5.74-11.25,9.6-16.3-1.82,2.36-3.65,4.72-5.47,7.08,5.11-6.51,11.11-12.15,17.64-17.21l-7.08,5.47c12.59-9.58,26.68-16.83,40.78-23.9,10.82-5.42,17.33-18.51,17.33-30.22-.02-6.32-1.61-12.21-4.78-17.67-3.11-5.26-7.3-9.44-12.56-12.56-2.46-1.88-4.91-3.76-7.35-5.65,2.36,1.82,4.72,3.65,7.08,5.47-28.06-21.71-55.57-44.63-77.47-72.74,1.82,2.36,3.65,4.72,5.47,7.08-10.63-13.78-19.65-28.63-26.47-44.66,1.18,2.79,2.35,5.57,3.53,8.36-5.47-13.1-9.41-26.76-11.33-40.83,.42,3.1,.83,6.2,1.25,9.3-1.47-11.38-1.58-22.82-.09-34.2-.42,3.1-.83,6.2-1.25,9.3,.47-3.31,1.05-6.59,1.77-9.86,2.01-9.16,1.3-18.72-3.53-26.97-4.25-7.26-12.57-14.18-20.92-16.08-8.96-2.04-19.02-1.6-26.97,3.53-7.44,4.8-14.13,12-16.08,20.92h0Z"/>
        </g>
        <g class="cls-10">
          <path class="cls-8" d="M1124.91,715.52c-5.08-14.62-8.66-29.71-10.74-45.04,.42,3.1,.83,6.2,1.25,9.3-2.7-20.38-2.73-41.04-.04-61.42-.42,3.1-.83,6.2-1.25,9.3,1.44-10.68,3.1-21.9,7.23-31.93-1.18,2.79-2.35,5.57-3.53,8.36,1.19-2.79,2.62-5.42,4.43-7.86l-5.47,7.08c1.43-1.85,3.04-3.49,4.86-4.95l-7.08,5.47c1.9-1.45,3.94-2.64,6.13-3.6-2.79,1.18-5.57,2.35-8.36,3.53,2.96-1.23,6.04-1.99,9.22-2.42l-9.3,1.25c4.99-.6,10.01-.4,14.99,.24-3.1-.42-6.2-.83-9.3-1.25,14.43,1.95,28.59,6.77,42.38,11.29,14.81,4.85,29.47,10.17,44.25,15.13,14.84,4.98,29.82,9.6,45.12,12.96,15.78,3.47,32.01,5.89,48.18,6.29,15.11,.37,30.39-1.26,45.2-4.19s28.53-8.12,41.62-14.85c5.2-2.67,10.19-5.77,14.85-9.3,6.93-5.25,13.76-10.46,19.6-16.91,6.06-6.7,11.7-14.05,16.27-21.87,4.89-8.36,8.65-17.46,11.94-26.54,9.53-26.36,10.69-54.69,17.45-81.72,.9-3.58,1.96-7.11,3.35-10.53-1.18,2.79-2.35,5.57-3.53,8.36,1.43-3.38,3.18-6.56,5.42-9.47-1.82,2.36-3.65,4.72-5.47,7.08,1.98-2.5,4.23-4.73,6.73-6.7-2.36,1.82-4.72,3.65-7.08,5.47,3.27-2.51,6.85-4.51,10.63-6.14-2.79,1.18-5.57,2.35-8.36,3.53,6.89-2.89,14.2-4.49,21.58-5.49l-9.3,1.25c6.92-.91,13.89-1.29,20.86-1.5,9.14-.28,18.21-3.71,24.75-10.25,3.41-3.17,5.83-6.92,7.24-11.26,2.19-4.17,3.2-8.67,3.01-13.48-.41-9.05-3.38-18.44-10.25-24.75s-15.37-10.54-24.75-10.25c-5.46,.17-10.93,.43-16.37,.98-8.23,.83-16.59,1.81-24.65,3.77-2.55,.62-5.07,1.35-7.53,2.24-5.15,1.85-10.27,3.95-15.14,6.45-2.23,1.15-4.38,2.46-6.39,3.96-4.15,3.09-8.67,6.25-12.27,10.1-3.78,4.04-7.27,8.5-10.14,13.24-3.12,5.16-5.38,11.03-7.41,16.65-2.22,6.15-3.55,12.62-4.82,19.01-2.45,12.28-4.21,24.68-6.47,36.99-2.5,13.65-5.63,27.25-11.02,40.08,1.18-2.79,2.35-5.57,3.53-8.36-3.28,7.68-7.37,14.97-12.47,21.6,1.82-2.36,3.65-4.72,5.47-7.08-4.63,5.94-9.97,11.24-15.9,15.88l7.08-5.47c-7.17,5.53-15.05,10.01-23.38,13.56,2.79-1.18,5.57-2.35,8.36-3.53-11.12,4.67-22.85,7.64-34.79,9.28l9.3-1.25c-15.3,2.04-30.84,1.91-46.13-.11l9.3,1.25c-47.6-6.43-91.26-28.16-137.46-40.1-7.82-2.02-15.67-3.16-23.7-4.12-4.78-.57-9.56-.71-14.35-.16-5.04,.58-10.76,1.06-15.75,2.64-4.92,1.56-9.84,3.53-14.3,6.14-1.04,.61-2.01,1.29-2.97,2.01-3.02,2.26-6.18,4.47-8.93,7.06-3.94,3.71-7.28,8.26-10.12,12.83-4.13,6.66-7,14.37-9.02,21.94-1.5,5.6-2.58,11.34-3.52,17.06-2.39,14.59-4.11,29.33-4.26,44.12-.17,16.34,1.59,32.58,4.19,48.69,2.14,13.27,5.44,26.33,9.85,39.03,1.08,4.55,3.17,8.52,6.26,11.9,2.47,3.81,5.74,6.82,9.82,9.01,4.02,2.56,8.36,3.94,13.01,4.15,4.65,1.04,9.3,.83,13.96-.63,8.47-2.74,16.64-7.99,20.92-16.08,4.24-8.02,6.61-18.1,3.53-26.97h0Z"/>
        </g>
      </g>
    </g>
  </g>
</svg>