<?xml version="1.0" encoding="UTF-8"?>
<svg id="Layer_1" data-name="Layer 1" xmlns="http://www.w3.org/2000/svg" viewBox="0 0 783 640">
  <defs>
    <style>
      .cls-1 {
        fill: #162173;
      }

      .cls-2 {
        fill: #56a8f4;
      }

      .cls-3 {
        fill: #faf6db;
      }

      .cls-4 {
        fill: #fff;
      }
    </style>
  </defs>
  <rect class="cls-1" x="-16.5" y="-29" width="818" height="695"/>
  <g>
    <path class="cls-4" d="M772.59,123.36c.52,0,1.04-.02,1.56-.02,1.78-.03,3.28-1.57,3.25-3.35-.03-1.79-1.56-3.28-3.35-3.25l-1.56.02c-1.78.03-3.28,1.57-3.25,3.35.03,1.79,1.56,3.28,3.35,3.25h0Z"/>
    <path class="cls-4" d="M752.45,129.7c3.05,2.96,7.65-1.77,4.6-4.74-3.05-2.96-7.65,1.77-4.6,4.74h0Z"/>
    <path class="cls-4" d="M732.26,133.12c.26-.26.51-.53.77-.79,1.2-1.24,1.27-3.48-.07-4.67-1.34-1.19-3.38-1.26-4.67.07l-.77.79c-1.2,1.24-1.27,3.48.07,4.67,1.34,1.19,3.38,1.26,4.67-.07h0Z"/>
    <path class="cls-4" d="M715.77,175.4c3.05,2.96,7.65-1.77,4.6-4.74s-7.65,1.77-4.6,4.74h0Z"/>
    <path class="cls-4" d="M737.14,147.05c3.05,2.96,7.65-1.77,4.6-4.74-3.05-2.96-7.65,1.77-4.6,4.74h0Z"/>
    <path class="cls-4" d="M718.51,150.45l.79.77c1.24,1.2,3.48,1.27,4.67-.07,1.19-1.34,1.26-3.38-.07-4.67l-.79-.77c-1.24-1.2-3.48-1.27-4.67.07-1.19,1.34-1.26,3.38.07,4.67h0Z"/>
    <path class="cls-4" d="M737.47,168.85c3.05,2.96,7.65-1.77,4.6-4.74-3.05-2.96-7.65,1.77-4.6,4.74h0Z"/>
    <path class="cls-4" d="M737.81,192.19c3.05,2.96,7.65-1.77,4.6-4.74-3.05-2.96-7.65,1.77-4.6,4.74h0Z"/>
    <path class="cls-4" d="M769.97,208.06c3.05,2.96,7.65-1.77,4.6-4.74-3.05-2.96-7.65,1.77-4.6,4.74h0Z"/>
    <path class="cls-4" d="M783.58,233.55c3.05,2.96,7.65-1.77,4.6-4.74-3.05-2.96-7.65,1.77-4.6,4.74h0Z"/>
    <path class="cls-4" d="M772.69,221.25c0-.52-.02-1.04-.02-1.56-.03-1.78-1.57-3.28-3.35-3.25-1.79.03-3.28,1.56-3.25,3.35,0,.52.02,1.04.02,1.56.03,1.78,1.57,3.28,3.35,3.25,1.79-.03,3.28-1.56,3.25-3.35h0Z"/>
    <path class="cls-4" d="M753.66,210.64l.77-.79c1.2-1.24,1.27-3.48-.07-4.67-1.34-1.19-3.38-1.26-4.67.07-.26.26-.51.53-.77.79-1.2,1.24-1.27,3.48.07,4.67,1.34,1.19,3.38,1.26,4.67-.07h0Z"/>
    <path class="cls-4" d="M762.42,171.59l.77-.79c1.2-1.24,1.27-3.48-.07-4.67-1.34-1.19-3.38-1.26-4.67.07-.26.26-.51.53-.77.79-1.2,1.24-1.27,3.48.07,4.67,1.34,1.19,3.38,1.26,4.67-.07h0Z"/>
    <path class="cls-4" d="M761.12,188.73l1.53-1.58c1.2-1.24,1.27-3.48-.07-4.67-1.34-1.19-3.38-1.26-4.67.07-.51.53-1.02,1.05-1.53,1.58-1.2,1.24-1.27,3.48.07,4.67,1.34,1.19,3.38,1.26,4.67-.07h0Z"/>
    <path class="cls-4" d="M782,180.05l1.56-.02c1.78-.03,3.28-1.57,3.25-3.35-.03-1.79-1.56-3.28-3.35-3.25l-1.56.02c-1.78.03-3.28,1.57-3.25,3.35s1.56,3.28,3.35,3.25h0Z"/>
    <path class="cls-4" d="M771.5,154.33l-.79-.77c-1.24-1.2-3.48-1.27-4.67.07-1.19,1.34-1.26,3.38.07,4.67l.79.77c1.24,1.2,3.48,1.27,4.67-.07,1.19-1.34,1.26-3.38-.07-4.67h0Z"/>
    <path class="cls-4" d="M757.33,143.64l.77-.79c1.2-1.24,1.27-3.48-.07-4.67-1.34-1.19-3.38-1.26-4.67.07l-.77.79c-1.2,1.24-1.27,3.48.07,4.67,1.34,1.19,3.38,1.26,4.67-.07h0Z"/>
    <path class="cls-4" d="M779.03,137.09l.79.77c1.24,1.2,3.48,1.27,4.67-.07,1.19-1.34,1.26-3.38-.07-4.67l-.79-.77c-1.24-1.2-3.48-1.27-4.67.07-1.19,1.34-1.26,3.38.07,4.67h0Z"/>
    <path class="cls-4" d="M760.65,105.45c3.05,2.96,7.65-1.77,4.6-4.74-3.05-2.96-7.65,1.77-4.6,4.74h0Z"/>
    <path class="cls-4" d="M748.94,103.29c3.05,2.96,7.65-1.77,4.6-4.74s-7.65,1.77-4.6,4.74h0Z"/>
    <path class="cls-4" d="M716.21,100.66c3.05,2.96,7.65-1.77,4.6-4.74-3.05-2.96-7.65,1.77-4.6,4.74h0Z"/>
    <path class="cls-4" d="M696.47,131.62c1.05.5,2.09,1,3.14,1.51,1.61.77,3.59.32,4.48-1.31.82-1.5.31-3.71-1.31-4.48-1.05-.5-2.09-1-3.14-1.51-1.61-.77-3.59-.32-4.48,1.31-.82,1.5-.31,3.71,1.31,4.48h0Z"/>
    <path class="cls-4" d="M698.51,166.31c3.05,2.96,7.65-1.77,4.6-4.74-3.05-2.96-7.65,1.77-4.6,4.74h0Z"/>
    <path class="cls-4" d="M667.42,169.89c3.05,2.96,7.65-1.77,4.6-4.74-3.05-2.96-7.65,1.77-4.6,4.74h0Z"/>
    <path class="cls-4" d="M652.81,181.98c.52,0,1.04-.02,1.56-.02,1.78-.03,3.28-1.57,3.25-3.35-.03-1.79-1.56-3.28-3.35-3.25-.52,0-1.04.02-1.56.02-1.78.03-3.28,1.57-3.25,3.35.03,1.79,1.56,3.28,3.35,3.25h0Z"/>
    <path class="cls-4" d="M669.35,194.77c3.05,2.96,7.65-1.77,4.6-4.74-3.05-2.96-7.65,1.77-4.6,4.74h0Z"/>
    <path class="cls-4" d="M689.45,185.13c3.05,2.96,7.65-1.77,4.6-4.74-3.05-2.96-7.65,1.77-4.6,4.74h0Z"/>
  </g>
  <g>
    <g>
      <path class="cls-3" d="M698.47.4c5.34-3.97,10.59-8.34,16.48-11.48,3.72-1.99,7.78-2.82,11.91-3.17-.19.3-.37.6-.55.9-17.81,7.93-33.24,20.32-44.59,36.21-2.32,3.25,2.37,7.41,4.71,4.13,8.01-11.22,18.08-20.71,29.69-27.93-1.74,1.44-3.53,2.83-5.23,4.31-8.18,7.09-14.53,15.93-18.75,25.89-1.57,3.7,4.06,6.45,5.64,2.73,3.88-9.14,9.6-17.38,17.14-23.88,3.3-2.85,6.92-5.36,9.94-8.53,2.71-2.85,4.66-6.27,6.7-9.6.96-1.57,2.02-3.32,3.32-4.8.49-.26.86-.65,1.09-1.11.89-.81,1.89-1.47,3.02-1.87,3.72-1.31,7.81.17,11.61-1.21,3.85-1.41,6.18-4.06,10.57-3.21,2.57.5,5,1.56,7.3,2.84-4.38,4.58-12.21,4.85-18.06,6.13-3.29.72-6.56,1.73-9.41,3.57-3.11,2-5.33,4.93-7.79,7.62-2.74,2.99-6.08,4.33-9.44,6.43-3.16,1.97-5.6,4.79-7.72,7.82-5,7.15-9.63,14.6-14.42,21.9-2.2,3.36,3.45,6.05,5.64,2.73,4.82-7.33,9.3-15.1,14.63-22.07,2.65-3.48,5.68-5.28,9.43-7.35,3.34-1.85,5.8-4.42,8.29-7.26,2.56-2.92,5.14-5.19,8.88-6.42,3.5-1.15,7.17-1.56,10.76-2.29,4.6-.95,9.03-2.51,12.47-5.41-1.09,3.41-5.35,5.93-8.45,7.37-4.29,1.99-8.51,3.75-11.88,7.04-4.16,3.53-9.01,5.81-14.18,7.51-4.67,1.54-9.14,2.41-12.83,5.88-2.94,2.76,1.8,6.87,4.71,4.13,3.35-3.15,9.33-3.7,13.58-5.32-1.01,1.64-2.01,3.27-3.04,4.84-.28.43-.56.87-.85,1.3-2.91,3.85-7.86,4.87-12.21,6.32-4.77,1.59-9.08,3.58-12.29,7.61-2.35,2.95-4.28,6.3-6.11,9.68-.39-.06-.81-.06-1.26.04-8.68,1.89-13.53,9.51-17.63,16.73-1.99,3.51,3.65,6.22,5.64,2.73,2.39-4.21,4.91-8.5,8.73-11.19-3.32,5.89-6.63,11.79-9.95,17.68-1.98,3.51,3.67,6.23,5.64,2.73,3.45-6.14,6.91-12.28,10.36-18.42,3.1-5.51,5.83-12.15,10.12-16.84,3.1-3.39,7.45-4.68,11.78-6.05-1.13,1.73-2.25,3.46-3.38,5.19-3.65,5.6-7.4,11.18-10.4,17.17-2.81,5.63-4.33,11.94-7.64,17.32-5.95,9.68-16.7,15.19-21.35,25.88-1.6,3.68,4.02,6.43,5.64,2.73,4.77-10.94,16.39-16.72,22.07-27.14.37-.67.71-1.35,1.04-2.04.85,2.98-2.57,9-3.64,10.91-2.07,3.7-4.78,6.9-7.86,9.79-2.94,2.76,1.79,6.86,4.71,4.13,6.22-5.83,19.77-23.78,9.5-31.15.92-2.3,1.82-4.61,2.84-6.87-.43,2.72,3.23,5.25,5.4,2.62,7.75-9.42,16.22-18.57,23.15-28.61,5.38-7.8,8.77-16.95,6.2-26.34,1.34-1.07,2.85-2.02,4.59-2.82,3.83-1.75,7.74-3.31,10.8-6.13-1.56,3.29-4.25,6.41-5.95,8.46-2.54,3.06-5.01,6.23-6.35,10.02-1.22,3.44-1.3,7.03-1.62,10.63-.35,3.86-1.13,7.24-3.96,10.06-2.7,2.7-5.97,4.74-8.59,7.55-6.26,6.72-11.24,14.97-16.62,22.4-2.35,3.24,2.35,7.39,4.71,4.13,3.13-4.33,6.27-8.66,9.4-12.99,2.5-3.45,4.91-7.04,7.9-10.08-2.66,9.23-10.78,16.6-16.2,24.24-2.31,3.26,2.38,7.41,4.71,4.13,7.69-10.85,18.42-20.33,18.6-34.54,1.34-1.25,2.57-2.6,3.54-4.22,2.21-3.66,2.52-7.87,2.84-12.04.39-5.01,1.45-8.94,4.56-12.99.54-.7,1.1-1.38,1.66-2.06.13,1.99.47,4.03.87,6.08,1.55,8-.53,14-4.68,20.84-3.92,6.47-7.49,12.66-10.13,19.79-2.82,7.61-5.34,15.4-10.9,21.52-2.71,2.99,2,7.11,4.71,4.13,5.1-5.62,7.98-12.45,10.57-19.49,2.73-7.42,5.79-14.21,9.97-20.92,3.55-5.69,7.08-11.69,7.45-18.56.29-5.38-3.05-12.44-1.5-17.89.88,1.94,2.39,3.27,3.74,5.06,4.95,6.53,1.8,16.71-1.11,23.45-3.67,8.47-8.89,16.15-12.02,24.86-1.35,3.75,4.27,6.52,5.64,2.73,3.43-9.54,9.4-17.87,13.03-27.32,2.88-7.5,4.95-16.97,1.28-24.59-1.22-2.53-4.14-4.35-4.99-6.94-.66-1.99-.08-4.67-.08-6.72,0-6.15-2.23-11.36-7.44-14.84-.27-.18-.54-.3-.82-.39-.19-.22-.4-.43-.64-.6-.16-.16-.35-.31-.56-.45-6.3-4.05-14.59-7.75-21.84-3.99-2.52,1.31-4.32,2.61-7.27,2.69-2.3.06-4.55-.22-6.82.3-2.45.56-4.57,1.79-6.4,3.41-6.37.07-12.87.65-18.66,3.47-6.66,3.24-12.46,8.05-18.37,12.45-3.23,2.4.25,7.61,3.49,5.2ZM743.37,30.4c-6.36,8.02-13,15.84-19.51,23.75.31-.64.63-1.28.97-1.91,3.46-6.37,7.6-12.37,11.56-18.44,3.95-6.05,7.89-12.1,11.84-18.15,1.49-2.28,2.85-4.48,4.33-6.5.37,7.86-4.37,15.19-9.18,21.26Z"/>
      <path class="cls-3" d="M775.93-39.02c2.28,1.1,4.4,2.33,6.33,3.57.58.37,1.14.78,1.67,1.21.19.12.37.23.56.36,9,6.01,13.96,15.61,13.96,27.03,0,.65-.03,1.26-.06,1.83,1.17,1.36,2.56,3.16,3.68,5.48,4.83,10.03,4.56,22.21-.81,36.19-2.06,5.38-4.6,10.13-7.05,14.73-2.28,4.28-4.44,8.33-5.87,12.29-2.13,5.93-7.03,10.13-13.11,11.23-1.09.2-2.19.29-3.28.28-2.29,4.79-5.22,9.66-9.3,14.15-6.68,7.36-17.72,7.85-25.12,1.12-.65-.59-1.25-1.22-1.8-1.87-.78-.13-1.55-.32-2.31-.56-5.1,9.26-12.13,15.94-12.61,16.38-4.45,4.17-10.49,5.61-16.07,4.42-4.91,5.41-12.81,7.28-20,4.14-9.22-4.01-13.31-14.32-9.33-23.47,1.68-3.85,3.83-7.17,6.14-10.09-1.44-2.15-2.37-4.57-2.73-7.1-.84-.91-1.59-1.92-2.23-3-3.15-5.37-3.17-11.87-.04-17.38,1.41-2.48,3.23-5.7,5.68-8.99-.08-.08-.15-.16-.22-.23-6.05-.82-11.36-4.79-13.95-10.49-2.68-5.89-2.03-12.56,1.74-17.84,3.03-4.24,6.32-8.27,9.86-12.07-.22-.82-.38-1.67-.48-2.53-.75-6.35,1.89-12.44,7.06-16.29,1.03-.77,2.05-1.54,3.07-2.32,5.1-3.87,10.87-8.26,17.63-11.55,6.86-3.34,14.02-4.44,20.2-4.8,2.52-1.49,5.2-2.56,8.02-3.2,3.33-.76,6.2-.71,8.29-.67.12,0,.24,0,.36,0,.14-.08.29-.16.42-.23.49-.27,1-.54,1.53-.82,10.61-5.5,21.51-3.1,30.19,1.1ZM689.72-11.34s0,0,0,0c0,0,0,0,0,0Z"/>
    </g>
    <path class="cls-1" d="M698.47.4c5.34-3.97,10.59-8.34,16.48-11.48,3.72-1.99,7.78-2.82,11.91-3.17-.19.3-.37.6-.55.9-17.81,7.93-33.24,20.32-44.59,36.21-2.32,3.25,2.37,7.41,4.71,4.13,8.01-11.22,18.08-20.71,29.69-27.93-1.74,1.44-3.53,2.83-5.23,4.31-8.18,7.09-14.53,15.93-18.75,25.89-1.57,3.7,4.06,6.45,5.64,2.73,3.88-9.14,9.6-17.38,17.14-23.88,3.3-2.85,6.92-5.36,9.94-8.53,2.71-2.85,4.66-6.27,6.7-9.6.96-1.57,2.02-3.32,3.32-4.8.49-.26.86-.65,1.09-1.11.89-.81,1.89-1.47,3.02-1.87,3.72-1.31,7.81.17,11.61-1.21,3.85-1.41,6.18-4.06,10.57-3.21,2.57.5,5,1.56,7.3,2.84-4.38,4.58-12.21,4.85-18.06,6.13-3.29.72-6.56,1.73-9.41,3.57-3.11,2-5.33,4.93-7.79,7.62-2.74,2.99-6.08,4.33-9.44,6.43-3.16,1.97-5.6,4.79-7.72,7.82-5,7.15-9.63,14.6-14.42,21.9-2.2,3.36,3.45,6.05,5.64,2.73,4.82-7.33,9.3-15.1,14.63-22.07,2.65-3.48,5.68-5.28,9.43-7.35,3.34-1.85,5.8-4.42,8.29-7.26,2.56-2.92,5.14-5.19,8.88-6.42,3.5-1.15,7.17-1.56,10.76-2.29,4.6-.95,9.03-2.51,12.47-5.41-1.09,3.41-5.35,5.93-8.45,7.37-4.29,1.99-8.51,3.75-11.88,7.04-4.16,3.53-9.01,5.81-14.18,7.51-4.67,1.54-9.14,2.41-12.83,5.88-2.94,2.76,1.8,6.87,4.71,4.13,3.35-3.15,9.33-3.7,13.58-5.32-1.01,1.64-2.01,3.27-3.04,4.84-.28.43-.56.87-.85,1.3-2.91,3.85-7.86,4.87-12.21,6.32-4.77,1.59-9.08,3.58-12.29,7.61-2.35,2.95-4.28,6.3-6.11,9.68-.39-.06-.81-.06-1.26.04-8.68,1.89-13.53,9.51-17.63,16.73-1.99,3.51,3.65,6.22,5.64,2.73,2.39-4.21,4.91-8.5,8.73-11.19-3.32,5.89-6.63,11.79-9.95,17.68-1.98,3.51,3.67,6.23,5.64,2.73,3.45-6.14,6.91-12.28,10.36-18.42,3.1-5.51,5.83-12.15,10.12-16.84,3.1-3.39,7.45-4.68,11.78-6.05-1.13,1.73-2.25,3.46-3.38,5.19-3.65,5.6-7.4,11.18-10.4,17.17-2.81,5.63-4.33,11.94-7.64,17.32-5.95,9.68-16.7,15.19-21.35,25.88-1.6,3.68,4.02,6.43,5.64,2.73,4.77-10.94,16.39-16.72,22.07-27.14.37-.67.71-1.35,1.04-2.04.85,2.98-2.57,9-3.64,10.91-2.07,3.7-4.78,6.9-7.86,9.79-2.94,2.76,1.79,6.86,4.71,4.13,6.22-5.83,19.77-23.78,9.5-31.15.92-2.3,1.82-4.61,2.84-6.87-.43,2.72,3.23,5.25,5.4,2.62,7.75-9.42,16.22-18.57,23.15-28.61,5.38-7.8,8.77-16.95,6.2-26.34,1.34-1.07,2.85-2.02,4.59-2.82,3.83-1.75,7.74-3.31,10.8-6.13-1.56,3.29-4.25,6.41-5.95,8.46-2.54,3.06-5.01,6.23-6.35,10.02-1.22,3.44-1.3,7.03-1.62,10.63-.35,3.86-1.13,7.24-3.96,10.06-2.7,2.7-5.97,4.74-8.59,7.55-6.26,6.72-11.24,14.97-16.62,22.4-2.35,3.24,2.35,7.39,4.71,4.13,3.13-4.33,6.27-8.66,9.4-12.99,2.5-3.45,4.91-7.04,7.9-10.08-2.66,9.23-10.78,16.6-16.2,24.24-2.31,3.26,2.38,7.41,4.71,4.13,7.69-10.85,18.42-20.33,18.6-34.54,1.34-1.25,2.57-2.6,3.54-4.22,2.21-3.66,2.52-7.87,2.84-12.04.39-5.01,1.45-8.94,4.56-12.99.54-.7,1.1-1.38,1.66-2.06.13,1.99.47,4.03.87,6.08,1.55,8-.53,14-4.68,20.84-3.92,6.47-7.49,12.66-10.13,19.79-2.82,7.61-5.34,15.4-10.9,21.52-2.71,2.99,2,7.11,4.71,4.13,5.1-5.62,7.98-12.45,10.57-19.49,2.73-7.42,5.79-14.21,9.97-20.92,3.55-5.69,7.08-11.69,7.45-18.56.29-5.38-3.05-12.44-1.5-17.89.88,1.94,2.39,3.27,3.74,5.06,4.95,6.53,1.8,16.71-1.11,23.45-3.67,8.47-8.89,16.15-12.02,24.86-1.35,3.75,4.27,6.52,5.64,2.73,3.43-9.54,9.4-17.87,13.03-27.32,2.88-7.5,4.95-16.97,1.28-24.59-1.22-2.53-4.14-4.35-4.99-6.94-.66-1.99-.08-4.67-.08-6.72,0-6.15-2.23-11.36-7.44-14.84-.27-.18-.54-.3-.82-.39-.19-.22-.4-.43-.64-.6-.16-.16-.35-.31-.56-.45-6.3-4.05-14.59-7.75-21.84-3.99-2.52,1.31-4.32,2.61-7.27,2.69-2.3.06-4.55-.22-6.82.3-2.45.56-4.57,1.79-6.4,3.41-6.37.07-12.87.65-18.66,3.47-6.66,3.24-12.46,8.05-18.37,12.45-3.23,2.4.25,7.61,3.49,5.2ZM743.37,30.4c-6.36,8.02-13,15.84-19.51,23.75.31-.64.63-1.28.97-1.91,3.46-6.37,7.6-12.37,11.56-18.44,3.95-6.05,7.89-12.1,11.84-18.15,1.49-2.28,2.85-4.48,4.33-6.5.37,7.86-4.37,15.19-9.18,21.26Z"/>
  </g>
  <g>
    <path class="cls-2" d="M805.07,395.62c-3.75-3.01-13.7-8.38-14.26-13.09-.42-3.56,2.08-8.8,2.92-12.34.71-2.98,2.02-6.42,1.65-9.57-.54-4.65-4.38-6.47-8.71-5.47-3.66.84-7.2,3.45-10.5,5.1-3.72,1.85-7.46,3.66-11.13,5.61-5.11-4.66-10.51-8.94-16.03-13.12-3.11-2.36-7.75-7.06-11.87-3.94-3.7,2.8-2.73,8.98-2.34,12.85.72,7.16,2.29,14.13,4.52,20.95-7.3,4.49-14.64,8.92-21.88,13.5-3.85,2.43-7.39,4.57-5.33,9.55,4.3,10.43,18.39,11.66,27.78,9.85,2.17-.42,8.38-2.42,9.61-1.68.82.49,1.28,3.12,1.61,4.04,1.85,5.16,3.45,10.42,5.22,15.61,2.24,6.59,5.73,19.03,14.81,18.39,8.77-.61,8.97-14.53,9.45-20.76.32-4.15-.49-9.74.81-13.7.06-.19.1-.32.13-.43.5-.06,1.12-.04,1.4-.03,2.27.08,4.67-.27,6.95-.41,6.26-.39,21.12.03,25.21-5.86,3.82-5.51-6.73-12.41-10.01-15.04ZM808.03,409.76c-7.68,2.53-16.08,2.4-24.06,2.96-3.59.25-5.9.08-6.64,3.9-1.42,7.35-.49,15.14-1.8,22.56-.22,1.24-.33,3.3-1.04,4.43-.32.7-.64,1.4-.96,2.1-2.5-.26-5-.51-7.5-.77-.99-.6-1.76-2.44-2.38-3.66-1.65-3.25-2.67-6.93-3.83-10.37-1.93-5.74-3.09-13.57-6.49-18.64-4.14-6.17-18.37.91-24.59-.22-3.4-.62-6.89-1.9-9.54-4.15-5.09-4.3-1.87-6.87,2.65-9.66,6.99-4.31,13.99-8.62,20.98-12.94.74-.46,1.25-1.47.95-2.34-1.48-4.34-2.75-8.72-3.63-13.22-.57-2.88-3.5-13.36-1.35-16.01,3.52-4.32,21.46,13.32,24.46,16.11.37.34.77.52,1.17.56.41.07.87.02,1.34-.24,5.12-2.8,10.43-5.21,15.61-7.91,4.36-2.28,9.42-5.75,9.23,3.15-.07,3.18-1.6,6.76-2.34,9.87-.7,2.95-3.17,7.8-1.51,10.65,1.89,3.25,6.91,5.99,9.82,8.27,3.55,2.79,7.19,5.5,10.54,8.53,3.19,2.89,6.43,5.22.9,7.04Z"/>
    <path class="cls-2" d="M770.72,394.86c.26-1.64.07-3.35-.51-4.9,1.26-1.34,1.74-3.24,2.11-5.26.89-4.82,3.06-8.21,7.31-10.88,2.25-1.41.18-5-2.09-3.58-3.3,2.07-6.35,4.94-7.99,8.54-.62,1.36-.8,5.73-1.78,7.69-.3-.18-.62-.26-.92-.26-.04,0-.07-.02-.12-.02-1.99-.2-4.04.29-5.74,1.32-.09-.33-.28-.67-.62-.96-5.86-5.07-5.01-14.31-9.46-20.09.66.53,1.57.68,2.36.22.93-.55,1.35-1.89.74-2.83-.06-.1-.13-.19-.19-.29-.61-.94-1.84-1.33-2.83-.74-.93.55-1.35,1.89-.74,2.83.04.07.09.13.13.2-.96-1.09-2.13-2.06-3.64-2.79-2.39-1.16-4.49,2.41-2.09,3.58,4.79,2.33,5.52,7.84,6.86,12.46,1.16,3.98,2.74,7.62,5.93,10.38.29.25.6.39.91.47-.26.39-.5.8-.69,1.23-.41.92-.58,1.89-.57,2.86-7.45.82-14.57,2.57-21.51,5.42-2.43,1-1.37,5.01,1.1,3.99,6.57-2.71,13.36-4.5,20.43-5.28.42-.05.76-.2,1.04-.4.69,1.15,1.69,2.14,2.92,2.79.9.48,1.83.69,2.75.7,5.97,9.04-4.94,23.47,3.15,31.55,1.89,1.89,4.82-1.04,2.93-2.93-3.66-3.66-.81-14.08-.62-18.85.16-4,.11-7.67-1.56-11.05.52-.38.98-.82,1.39-1.33,2.72,1.04,5.51,1.37,8.53,1.42,4.77.08,10.73-.46,13.76,4.08,1.47,2.21,5.06.14,3.58-2.09-5.82-8.73-16.11-4.06-24.27-7.2ZM761.77,392.27c.91-1.32,2.38-1.9,3.91-1.97.12.29.28.56.51.76.5,1.07.65,2.32.4,3.5-.23,1.1-.99,2.1-1.94,2.44-.05.01-.1.03-.16.04-.56.15-1.18.09-1.79-.34-1.47-1-1.94-2.96-.92-4.43Z"/>
    <path class="cls-2" d="M725.96,401.8c-.61-.94-1.84-1.33-2.83-.74-.93.55-1.35,1.89-.74,2.83.13.19.25.39.38.58.61.94,1.84,1.33,2.83.74.93-.55,1.35-1.89.74-2.83-.13-.19-.25-.39-.38-.58Z"/>
    <path class="cls-2" d="M733.01,404.11c-.16-.03-.32-.07-.48-.1-1.06-.23-2.29.31-2.55,1.45-.24,1.04.31,2.31,1.45,2.55.16.03.32.07.48.1,1.06.23,2.29-.31,2.55-1.45.24-1.04-.31-2.31-1.45-2.55Z"/>
    <path class="cls-2" d="M742.63,403.21c-.19.13-.39.25-.58.38-.94.61-1.33,1.84-.74,2.83.55.93,1.89,1.35,2.83.74.19-.13.39-.25.58-.38.94-.61,1.33-1.84.74-2.83-.55-.93-1.89-1.35-2.83-.74Z"/>
    <path class="cls-2" d="M776.9,402.77c-2.67,0-2.67,4.14,0,4.14s2.67-4.14,0-4.14Z"/>
    <path class="cls-2" d="M784.06,404.3c-2.67,0-2.67,4.14,0,4.14s2.67-4.14,0-4.14Z"/>
    <path class="cls-2" d="M779.57,386.77c-.61-.94-1.84-1.33-2.83-.74-.93.55-1.35,1.89-.74,2.83l.19.29c.61.94,1.84,1.33,2.83.74.93-.55,1.35-1.89.74-2.83-.06-.1-.13-.19-.19-.29Z"/>
    <path class="cls-2" d="M778.37,377.13c-2.67,0-2.67,4.14,0,4.14s2.67-4.14,0-4.14Z"/>
    <path class="cls-2" d="M766.26,377.2c2.67,0,2.67-4.14,0-4.14s-2.67,4.14,0,4.14Z"/>
    <path class="cls-2" d="M761.7,382.21c2.67,0,2.67-4.14,0-4.14s-2.67,4.14,0,4.14Z"/>
    <path class="cls-2" d="M750.06,381.23c-.61-.94-1.84-1.33-2.83-.74-.93.55-1.35,1.89-.74,2.83.06.1.13.19.19.29.61.94,1.84,1.33,2.83.74.93-.55,1.35-1.89.74-2.83l-.19-.29Z"/>
    <path class="cls-2" d="M749.15,390.77c2.67,0,2.67-4.14,0-4.14s-2.67,4.14,0,4.14Z"/>
    <path class="cls-2" d="M739.74,393.86c.61.94,1.84,1.33,2.83.74.93-.55,1.35-1.89.74-2.83-.06-.1-.13-.19-.19-.29-.61-.94-1.84-1.33-2.83-.74-.93.55-1.35,1.89-.74,2.83l.19.29Z"/>
    <path class="cls-2" d="M755.85,402.03c-2.67,0-2.67,4.14,0,4.14s2.67-4.14,0-4.14Z"/>
    <path class="cls-2" d="M758.79,411.64c-2.67,0-2.67,4.14,0,4.14s2.67-4.14,0-4.14Z"/>
    <path class="cls-2" d="M784.2,368.83c1.04.24,2.31-.31,2.55-1.45.03-.16.07-.32.1-.48.23-1.06-.31-2.29-1.45-2.55-1.04-.24-2.31.31-2.55,1.45-.03.16-.07.32-.1.48-.23,1.06.31,2.29,1.45,2.55Z"/>
    <path class="cls-2" d="M769.11,435.8c-2.67,0-2.67,4.14,0,4.14s2.67-4.14,0-4.14Z"/>
    <path class="cls-2" d="M743.91,360c1.06.23,2.29-.31,2.55-1.45.24-1.04-.31-2.31-1.45-2.55-.16-.03-.32-.07-.48-.1-1.06-.23-2.29.31-2.55,1.45-.24,1.04.31,2.31,1.45,2.55.16.03.32.07.48.1Z"/>
    <path class="cls-2" d="M771.57,423.1c-2.67,0-2.67,4.14,0,4.14s2.67-4.14,0-4.14Z"/>
    <path class="cls-2" d="M783.8,375.69c2.67,0,2.67-4.14,0-4.14s-2.67,4.14,0,4.14Z"/>
    <path class="cls-2" d="M744.94,371.26c-2.67,0-2.67,4.14,0,4.14s2.67-4.14,0-4.14Z"/>
  </g>
  <g>
    <path class="cls-2" d="M36.33,170.26c-9.6-11.17-26.86-14-38.5-4.62-5.65.83-11.76,2.79-16.09,6.56-6.07,5.28-8.53,15.32-9.88,22.9-2.99,16.8,9.69,27.85,24.16,33.49,7.95,3.1,17.01,4.76,25.22,1.65,7.75-2.93,14.65-9.95,19.83-16.21,11.05-13.35,5.71-31.61-4.75-43.78ZM28.42,220.3c-11.19,9.71-24.54,7.89-36.85,1.29-12.3-6.6-17.81-16.17-14.23-29.97,1.32-5.09,2.73-11.09,6.37-15.07,2.2-2.41,5.51-4.07,8.91-5.15-6.19,9.46-7.95,24.69,1.66,31.88,11.21,8.4,31.4,10.79,34.52-6.59,1.21-6.76.35-14.25-4.92-19.09-3.22-2.96-11.52-7.77-16.01-5.12-5.01,2.95-5.93,13.83-3.86,18.59,2.2,5.05,8.73,8.13,13.4,4.08,3.92-3.41,2.65-10.07-2.49-11.58-3.39-1-5.95.61-7.27,3.1-.38-1.45-.25-3.03.45-4.74.15-1.64.89-2.93,2.22-3.86.82-1.76,2.02-2.06,3.61-.91,1.96.64,3.78,1.53,5.48,2.67,5.42,4.02,6.55,12.09,4.45,18.29-3.35,9.91-14.47,7.63-21.81,4.2-6.79-3.18-9.89-7.92-9.78-15.45.19-12.64,10.33-22.63,23.03-22.4,13.36.24,22.71,12.55,26.2,24.43,4.03,13.71-3.18,22.83-13.07,31.41Z"/>
    <path class="cls-2" d="M5.6,215.07h-.76c-1.19,0-2.33,1.05-2.27,2.27.06,1.23,1,2.27,2.27,2.27h.76c1.19,0,2.33-1.05,2.27-2.27-.06-1.23-1-2.27-2.27-2.27Z"/>
    <path class="cls-2" d="M19.91,216.5c-.25.25-.51.51-.76.76-.87.87-.87,2.35,0,3.21.87.87,2.34.87,3.21,0,.25-.25.51-.51.76-.76.87-.87.87-2.35,0-3.21-.87-.87-2.34-.87-3.21,0Z"/>
    <path class="cls-2" d="M33.63,202.95c-1.23.06-2.27,1-2.27,2.27v.76c0,1.19,1.05,2.33,2.27,2.27,1.23-.06,2.27-1,2.27-2.27v-.76c0-1.19-1.05-2.33-2.27-2.27Z"/>
    <path class="cls-2" d="M34.39,187.04c-1.23.06-2.27,1-2.27,2.27v.76c0,1.19,1.05,2.33,2.27,2.27,1.23-.06,2.27-1,2.27-2.27v-.76c0-1.19-1.05-2.33-2.27-2.27Z"/>
    <path class="cls-2" d="M24.54,167.34c-2.92,0-2.93,4.55,0,4.55s2.93-4.55,0-4.55Z"/>
    <path class="cls-2" d="M8.63,165.83c-2.92,0-2.93,4.55,0,4.55s2.93-4.55,0-4.55Z"/>
    <path class="cls-2" d="M-1.97,177.95c-1.23.06-2.27,1-2.27,2.27v.76c0,1.19,1.05,2.33,2.27,2.27,1.23-.06,2.27-1,2.27-2.27v-.76c0-1.19-1.05-2.33-2.27-2.27Z"/>
  </g>
  <path class="cls-2" d="M245.53,630.15c-4.55-2.86-7.54-1.36-9,3.58-2.54,8.54-2.49,18.13-3.23,26.93-.85,10.21-2.12,20.05-6.9,29.24-3.2,6.15-8.31,14.31-15.47,16.5.66-3.69,3.41-6.49,5.05-9.88,1.73-3.6,2.19-7.58,2.77-11.48,1.42-9.58,2.81-19.18,3.66-28.83.89-10.1,1.22-20.27.34-30.38-.45-5.22-.25-14.43-6.27-16.72-5.13-1.96-10.03,2.24-11.71,6.79-3,8.09-1.36,18.67-.96,27.07.94,19.46,2.52,39.27-6.47,57.24-1.89,1.4-3.69-4.72-3.61-4.18-.04-.31.12-.78.1-1.07-.18-2.13-.07-4.39-.15-6.54-.15-4.56-.3-9.11-.45-13.67-.3-9.11-.6-18.23-.9-27.34-.3-9.11-.6-18.23-.9-27.34-.23-7.06.12-14.66-2.41-21.38-1.45-3.87-3.56-4.95-7.63-3.74-4.54,1.35-5.98,3.61-5.75,8.15.92,17.69,3.81,35.28,3.49,53.04-.23,12.66-3.06,26.51,1.31,38.57-11.01-11.88-13.33-29.35-15.66-45.03-1.68-11.26-3.35-22.51-5.03-33.77-.81-5.47-1.63-10.94-2.44-16.4-.62-4.13-1.1-8.42-2.86-12.25-2.36-5.12-7.78-9.47-13.75-7.96-6.86,1.73-7.03,9.35-5.35,14.91,2.83,9.36,7.18,18.26,10.03,27.65,3.04,10.02,5.44,20.24,7.16,30.57,2.71,16.19,1.06,37.79,12.94,50.74-18.02-2.41-21.6-28.02-25.23-42.49-3.8-15.16-8.58-31.18-18.67-43.51-2.29-2.8-6.4-3.3-7.7.89-1.06,3.42,0,8.29.57,11.75.87,5.29,2.38,10.45,3.8,15.61,4.49,16.35,7.59,34.43,15.8,49.46,3.85,7.04,9.3,13.15,16.58,16.72,8.35,4.1,17.78,4.89,26.92,5.58,8.93,2.03,18.09,1.02,27.06,2.7,7.02,1.32,13.43,1.33,19.78-2.36,13.88-8.07,17.92-24.23,19.77-39.04,1.2-9.65,2.81-19.26,3.95-28.92.59-5.05,2.68-16.08-2.56-19.38ZM242.69,665.92c-2.04,15.37-2.26,32.85-14,44.53-7.01,6.98-14.73,8.2-24.16,6.41-8.74-1.66-17.67-.56-26.38-2.57-.12-.03-.23-.04-.34-.04-.02,0-.04,0-.06,0-8.4-.63-17.17-1.26-24.93-4.84-6.97-3.21-12.17-8.78-15.91-15.39-7.63-13.5-10.5-29.92-14.57-44.73-1.18-4.3-2.42-8.58-3.5-12.91-1.11-4.43-2.83-9.81-2.22-14.4.14-1.07-.57-4.19,2.1-3.64.37.08,1.09,1.43,1.32,1.78.65.96,1.21,1.97,1.84,2.93,2.08,3.14,4.12,6.25,5.81,9.63,7.03,14.01,9.61,29.66,13.68,44.65,3.67,13.53,11.54,29.67,27.97,28.93.6-.03,1-.34,1.22-.75.3-.41.37-.94.06-1.4-.13-.31-.36-.56-.7-.69-12.19-10.58-11.39-28.88-13.35-43.59-2.38-17.87-6.72-35.46-12.97-52.37-1.96-5.29-12.41-24.21-1.17-25.41,10.8-1.16,11.54,14.97,12.6,22.1,2.81,18.85,5.31,37.77,8.46,56.56,2.65,15.79,7.48,31.61,20.95,41.44.68.5,1.35.26,1.75-.24.5-.4.73-1.07.26-1.77-8.04-11.9-5.12-26.75-4.52-40.21.72-16.16-1.51-32.23-2.8-48.3-.22-2.79-1.89-9.78-.18-12.17.59-.82,2.67-1.77,3.69-1.83,2.74-.16,3.84,2.38,4.45,4.9,1.89,7.79,1.34,16.41,1.6,24.37.55,16.6,1.09,33.2,1.64,49.8.15,4.56.3,9.11.45,13.67.09,2.75-.81,6.19.35,8.77,1.34,2.97,5.11,5.42,7.94,3.41.23-.09.43-.26.59-.52.14-.17.23-.35.28-.54,6.46-13.01,7.89-27.09,7.55-41.46-.2-8.54-.89-17.06-1.1-25.6-.1-3.99-.18-8.02.11-12,.2-2.71.56-5.55,2.22-7.8,2.06-2.79,6.16-4.76,8.85-.83,2.42,3.52,2.07,9.91,2.37,13.92.27,3.79.38,7.58.37,11.38-.04,8.9-.8,17.78-1.86,26.61-.99,8.3-1.73,17.02-3.66,25.17-1.48,6.22-7.15,10.81-6.96,17.41.03.9.71,1.37,1.41,1.41.14.02.29.03.45,0,10.07-1.37,17.07-13.24,20.81-21.57,5.89-13.15,5.41-27.86,6.96-41.91.42-3.85.79-7.96,1.89-11.69.62-2.1,2.09-3.86,4.24-2.07,1.94,1.62,2.03,5.37,2.09,7.83.22,8.63-1.86,17.14-2.99,25.65Z"/>
  <path class="cls-2" d="M37,600.48c-3.07-4.95-7.06-9.42-12.45-10.85-3.41-5.49-6.96-11.84-13.45-14.06-.93-.32-1.85-.54-2.74-.67-.08-.13-.18-.25-.31-.37-2.01-1.89-4.39-3.62-6.85-4.76.01-.33-.08-.69-.33-1.05-2.58-3.71-8.47-11.53-13.85-7.69-4.82,3.44-2.64,9.96-.35,14.19-2.66,6.29-1.7,15.39-.27,21.65.13.56.43.92.81,1.13-1.79,9.11-.79,18.92,6.38,23.73-.62,10.65,3.28,21.41,13.7,25.6.09.04.18.06.27.08,2.15,4.88,5.91,7.96,11.93,5.24,6.43-.02,11.03-11.14,13.65-17.89,0-.02.02-.04.03-.06.22-.55.45-1.15.69-1.8.24-.61.45-1.15.64-1.61,2.82-6.74,12.76-26.01,2.5-30.83ZM-10.99,564.27c2.01-1.66,5.05,1.6,6.99,4.13-2.55-.1-4.99.76-7.02,3.07-1.11-2.4-2.02-5.51.03-7.21ZM-10.77,581.7c.15-2.76.64-5.62,2.62-7.73,3.48-3.72,7.86-1.48,11.24,1.22-3.84,1.01-7.14,3.72-9.7,7.39-1.51,2.17-2.95,4.99-4.11,8.13-.25-3.01-.2-6.08-.04-9.02ZM-5.49,587.99c3.63-6.88,10.33-12.58,18.13-7.4,3.13,2.08,5.26,5.38,7.23,8.62-.37.02-.74.05-1.12.1-9.67,1.33-17.03,9.38-21.23,17.62-1.6,3.14-2.76,6.69-3.41,10.37-6.83-6.92-3.28-22.33.4-29.31ZM5.32,630.64c-.38,3.09-.24,7.66.7,11.92-9.98-6.07-10.7-22.12-6.1-32.01,2.9-6.25,6.81-11.65,12.89-15.15,6.89-3.97,12.73-2.26,17.29,2.31-16.11.6-22.99,18.52-24.77,32.92ZM9.9,625.72c2.04-10.32,7.41-21.5,17.63-23.79-6.44,5.03-11.17,16.94-12,22.29-1.72,5.31-6.75,18.98-2.31,25.27-5.5-3.08-4.11-19.83-3.33-23.77ZM31.65,626.44c-.34,1.77-.8,3.52-1.38,5.23-.03.07-.06.14-.09.21-1.4,3.23-5.95,16.56-10.48,17.07-.13.02-.25,0-.37,0-.18-.03-.37-.03-.56,0-4.28-.51-3.6-8.53-3.15-11.19.01-.07.03-.14.05-.22.28-.29.49-.67.55-1.16.78-6.79,5.2-14.17,12.71-14.73,3.87-.29,3.3,1.75,2.72,4.78ZM34.88,620.03s0,.02,0,.03c-.9-1.36-2.49-2.23-5.09-2.25-3.79-.03-7.03,1.32-9.65,3.48.9-2.78,2.2-5.44,3.62-7.96,1.6-2.84,4.81-8.79,8.29-9.34,9.64-1.54,4.3,12.04,2.84,16.05Z"/>
  <g>
    <path class="cls-4" d="M15.36,9.27c2.38,3.6,7.98-.08,5.6-3.69-2.38-3.6-7.98.08-5.6,3.69h0Z"/>
    <path class="cls-4" d="M-3.86,8.55l.62.93c.97,1.46,3.18,2.02,4.65.95,1.47-1.07,1.99-3.08.95-4.65l-.62-.93c-.97-1.46-3.18-2.02-4.65-.95-1.47,1.07-1.99,3.08-.95,4.65h0Z"/>
    <path class="cls-4" d="M10.91,30.95c2.38,3.6,7.98-.08,5.6-3.69-2.38-3.6-7.98.08-5.6,3.69h0Z"/>
    <path class="cls-4" d="M6.14,54.19c2.38,3.6,7.98-.08,5.6-3.69-2.38-3.6-7.98.08-5.6,3.69h0Z"/>
    <path class="cls-4" d="M34.55,76.97c2.38,3.6,7.98-.08,5.6-3.69s-7.98.08-5.6,3.69h0Z"/>
    <path class="cls-4" d="M42.47,105.23c2.38,3.6,7.98-.08,5.6-3.69-2.38-3.6-7.98.08-5.6,3.69h0Z"/>
    <path class="cls-4" d="M72.64,88.01c2.38,3.6,7.98-.08,5.6-3.69s-7.98.08-5.6,3.69h0Z"/>
    <path class="cls-4" d="M56.2,89.48l.62.93c.97,1.46,3.18,2.02,4.65.95,1.47-1.07,1.99-3.08.95-4.65l-.62-.93c-.97-1.46-3.18-2.02-4.65-.95-1.47,1.07-1.99,3.08-.95,4.65h0Z"/>
    <path class="cls-4" d="M64.16,109.68l.93-.62c1.46-.97,2.02-3.18.95-4.65-1.07-1.47-3.08-1.99-4.65-.95l-.93.62c-1.46.97-2.02,3.18-.95,4.65,1.07,1.47,3.08,1.99,4.65.95h0Z"/>
    <path class="cls-4" d="M34.36,90.65c.11-.52.21-1.03.32-1.55.36-1.77-.84-3.6-2.61-3.96-1.78-.37-3.59.83-3.96,2.61-.11.52-.21,1.03-.32,1.55-.36,1.77.84,3.6,2.61,3.96,1.78.37,3.59-.83,3.96-2.61h0Z"/>
    <path class="cls-4" d="M17.81,75.95l.93-.62c1.46-.97,2.02-3.18.95-4.65-1.07-1.47-3.08-1.99-4.65-.95l-.93.62c-1.46.97-2.02,3.18-.95,4.65,1.07,1.47,3.08,1.99,4.65.95h0Z"/>
    <path class="cls-4" d="M35.06,39.14l.93-.62c1.46-.97,2.02-3.18.95-4.65-1.07-1.47-3.08-1.99-4.65-.95l-.93.62c-1.46.97-2.02,3.18-.95,4.65,1.07,1.47,3.08,1.99,4.65.95h0Z"/>
    <path class="cls-4" d="M30.01,55.86c.62-.41,1.24-.82,1.87-1.23,1.46-.97,2.02-3.18.95-4.65-1.07-1.47-3.08-1.99-4.65-.95-.62.41-1.24.82-1.87,1.23-1.46.97-2.02,3.18-.95,4.65,1.07,1.47,3.08,1.99,4.65.95h0Z"/>
    <path class="cls-4" d="M52.63,51.82l1.55.32c1.77.36,3.6-.84,3.96-2.61.37-1.78-.83-3.59-2.61-3.96l-1.55-.32c-1.77-.36-3.6.84-3.96,2.61-.37,1.78.83,3.59,2.61,3.96h0Z"/>
    <path class="cls-4" d="M55.37,69.94c2.38,3.6,7.98-.08,5.6-3.69-2.38-3.6-7.98.08-5.6,3.69h0Z"/>
    <path class="cls-4" d="M78.98,61.07c2.38,3.6,7.98-.08,5.6-3.69-2.38-3.6-7.98.08-5.6,3.69h0Z"/>
    <path class="cls-4" d="M85,35.67c2.38,3.6,7.98-.08,5.6-3.69-2.38-3.6-7.98.08-5.6,3.69h0Z"/>
    <path class="cls-4" d="M67.26,47.36c2.38,3.6,7.98-.08,5.6-3.69s-7.98.08-5.6,3.69h0Z"/>
    <path class="cls-4" d="M62.72,26.25c2.38,3.6,7.98-.08,5.6-3.69-2.38-3.6-7.98.08-5.6,3.69h0Z"/>
    <path class="cls-4" d="M47.85,24.01l-.62-.93c-.97-1.46-3.18-2.02-4.65-.95-1.47,1.07-1.99,3.08-.95,4.65l.62.93c.97,1.46,3.18,2.02,4.65.95,1.47-1.07,1.99-3.08.95-4.65h0Z"/>
    <path class="cls-4" d="M36.13,10.3l.93-.62c1.46-.97,2.02-3.18.95-4.65-1.07-1.47-3.08-1.99-4.65-.95l-.93.62c-1.46.97-2.02,3.18-.95,4.65,1.07,1.47,3.08,1.99,4.65.95h0Z"/>
    <path class="cls-4" d="M59.09,8.56l.62.93c.97,1.46,3.18,2.02,4.65.95,1.47-1.07,1.99-3.08.95-4.65l-.62-.93c-.97-1.46-3.18-2.02-4.65-.95-1.47,1.07-1.99,3.08-.95,4.65h0Z"/>
    <path class="cls-4" d="M104.42,59.02l-.62-.93c-.97-1.46-3.18-2.02-4.65-.95-1.47,1.07-1.99,3.08-.95,4.65l.62.93c.97,1.46,3.18,2.02,4.65.95,1.47-1.07,1.99-3.08.95-4.65h0Z"/>
    <path class="cls-4" d="M114.43,41.71c2.38,3.6,7.98-.08,5.6-3.69s-7.98.08-5.6,3.69h0Z"/>
    <path class="cls-4" d="M133.29,44.16c.52.11,1.03.21,1.55.32,1.77.36,3.6-.84,3.96-2.61.37-1.78-.83-3.59-2.61-3.96-.52-.11-1.03-.21-1.55-.32-1.77-.36-3.6.84-3.96,2.61-.37,1.78.83,3.59,2.61,3.96h0Z"/>
    <path class="cls-4" d="M162.88,25.83l.93-.62c1.46-.97,2.02-3.18.95-4.65-1.07-1.47-3.08-1.99-4.65-.95l-.93.62c-1.46.97-2.02,3.18-.95,4.65,1.07,1.47,3.08,1.99,4.65.95h0Z"/>
    <path class="cls-4" d="M162.12,53.11c2.38,3.6,7.98-.08,5.6-3.69-2.38-3.6-7.98.08-5.6,3.69h0Z"/>
    <path class="cls-4" d="M151.03,40.34c2.38,3.6,7.98-.08,5.6-3.69-2.38-3.6-7.98.08-5.6,3.69h0Z"/>
  </g>
  <g>
    <g>
      <g>
        <path class="cls-3" d="M10.4,461.48c-.25.32-.29.65-.21.95.46,3.92-4.73,7.27-1.95,11.38,2.25,3.33,6.67.36,8.32-2.02,2.03-2.93,2.16-6.51.31-9.55-1.65-2.7-4.39-3.39-6.47-.76ZM12.72,472.31c-3.78,2.06-2.96-2.46-1.89-4.44.95-1.76,1.78-3.33,1.69-5.29,1.56-1.48,2.94,1.56,3.26,2.99.55,2.47-.83,5.52-3.07,6.74Z"/>
        <path class="cls-3" d="M8.94,489.65c-5.14-.56-9.69-3.32-12.68-7.74-6.15-9.09-2.18-17.7-.51-20.99.24-3.02,1.37-5.96,3.31-8.41,3.86-4.88,9.44-7.47,15.33-7.11,6.02.37,11.44,3.76,14.83,9.31,4.85,7.94,4.55,17.65-.77,25.32-3.13,4.52-9.63,9.78-17.64,9.73-.63,0-1.25-.04-1.86-.11ZM4.32,464.16c-.85,1.71-.79,3.96.22,5.61,1.54,2.52,4.72,4.28,8.11,4.49,3.07.19,6.17-.92,8.24-2.87l-8.35-8.81,4.14-.18c-1.7-.99-3.68-1.56-5.69-1.57-.37,0-.82.01-1.3.07l.73.58-.73-.58c-.85.1-1.83.31-2.75.76l.59,1.08,2.68-.32-2.46.73,4.98,9.16-4.98-9.16-3.42,1.01ZM6.93,461.66c-.67.32-1.3.77-1.84,1.37l2.43-.29-.59-1.08Z"/>
      </g>
      <g>
        <path class="cls-3" d="M24.6,426.24c-.23.18-.36.39-.41.61-1.19,2.74-.43,5.95,1.6,8.1,1.92,2.05,5.52,3.24,7.98,1.35,2.63-2.04,1.17-5.64-.73-7.6-2.28-2.34-5.32-4.9-8.43-2.47ZM31.19,430.12c1.37,1.38,2.93,4.49-.2,4.78-3.56.33-5.8-4.01-4.71-7.01,1.76-1.08,3.69,1,4.91,2.23Z"/>
        <path class="cls-3" d="M28.6,451.63c-4.86-.53-9.64-2.82-13.35-6.77-5.91-6.29-7.68-15.28-4.6-23.09.99-2.71,2.74-5.12,5.04-6.92,0,0,0,0,0,0,0,0,0,0,0,0,2.31-1.81,14.32-9.92,27.68,3.77,4.3,4.4,6.63,10.42,6.23,16.1-.36,5.2-2.85,9.84-7,13.04-4.09,3.16-9.1,4.42-14.01,3.88ZM22.33,438.4c1.92,1.33,6.48,2.19,10.3-.16l-6.34-10.35,5.24,1.9,4.8-4.76c-3.06-3.25-8.2-2.65-11.39-.18-.29.23-.57.47-.84.72l.51.66-.51-.66c-.28.27-.55.56-.81.87l.91.4-1.04-.24c-1.38,1.72-2.24,3.86-2.39,6.08-.08,1.09-.06,3.73,1.57,5.72ZM31.52,429.8l6.16,2.24c.85-2.49.35-5.18-1.35-6.99,0,0,0,0,0,0l-4.8,4.76ZM38.27,430.16s0,.01,0,.02c0,0,0-.01,0-.02Z"/>
      </g>
      <g>
        <path class="cls-3" d="M65.5,454.18c3.72.03,10.56-4.72,8.85-9.16-.81-2.09-3.37-2.32-5.28-2.36-4.72-.1-8.28-.26-11.18-4.53-.05-.2-.18-.39-.38-.52-.24-.24-.53-.31-.81-.26-4.34-.93-4.79,3.83-4.08,7.27,1.2,5.76,7.08,9.51,12.87,9.56ZM57.54,448.84c-1.64-1.3-2.32-2.94-2.69-4.92-.2-1.09-.87-4.7,1.23-4.35,1.78,2.64,4.46,4.81,7.67,5.34,2.32.39,10.77-1.26,7.46,3.43-3.42,4.85-9.38,3.91-13.67.5Z"/>
        <path class="cls-3" d="M62.47,468.47c-11.81-1.29-21.67-9.72-24-20.9-1.63-7.84.16-15.05,4.91-19.78,3.84-3.82,9.05-5.57,14.6-4.87,3.18.23,6.24,1.46,8.73,3.53.65.53,1.26,1.11,1.81,1.74.32,0,.62.01.85.02,4.24.09,14.52,1.39,18.47,11.61,2.28,5.9,1.41,12.44-2.4,17.94-4.48,6.48-12.74,10.96-20.07,10.89h0c-.98,0-1.94-.07-2.9-.17ZM60.2,445.49c-.14,1.44.01,3.07.66,4.75.02.05.04.09.06.14,1.04-.54,2.01-1.25,2.86-2.09.77-.76,1.36-1.56,1.8-2.33l.06-6.24c-.32,0-.6,0-.87.02l-4.57,5.75ZM64.77,439.74c-2.13.14-2.65.88-3.11,1.55-.69.99-1.29,2.47-1.46,4.2l4.57-5.75ZM65.66,439.71l-.07,6.24c1.12-1.96,1.31-3.72,1.2-4.27-.25-1.19-.93-1.86-1.13-1.96Z"/>
      </g>
      <g>
        <path class="cls-3" d="M98.95,459.61c-.24,0-.44.06-.61.16-.41.2-.72.6-.66,1.18.59,5.46,1.89,14.4,9.24,13.85.54-.04.86-.55.97-1.02,1.27-5.81-2.15-14.11-8.94-14.17ZM105.75,472.5c-4.17-.39-5.16-6.44-5.61-10.39,4.17,1.03,6.05,6.28,5.61,10.39Z"/>
        <path class="cls-3" d="M103.85,489.15c-7.48-.82-13.74-5.46-17.21-12.96-2.13-4.61-2.89-9.51-3.34-13.69-.69-6.44,2.66-12.63,8.38-15.58,2.28-1.19,4.83-1.8,7.4-1.78,6.89.07,13.13,3.17,17.56,8.73,5.03,6.3,7.08,15.11,5.36,22.98-1.5,6.87-7.13,11.84-14.01,12.36-1.42.11-2.8.08-4.15-.07ZM93.69,471.19c0,.08,0,.14,0,.16.18.64,1.52,1.99,3.53,2.51l.55-2.22-4.08-.44ZM106.87,460.39l-.09.97,2.64-.3c-.79-.35-1.65-.6-2.55-.67Z"/>
      </g>
      <path class="cls-3" d="M-13.88,451.69c-9.9-1.08-19.65-6.93-21.41-17.35-.91-5.4.44-10.67,3.81-14.82,5.03-6.21,12.57-7.63,16.98-7.89,1.16-.1,2.33-.08,3.49.08,8.16,1.11,18.52,6.27,20.92,17.19,1.19,5.41-.06,10.95-3.42,15.23-3.7,4.7-9.82,7.6-16.36,7.74-1.33.03-2.67-.03-4.01-.18ZM-14.91,440.36s.01,0,0,0c0,0,0,0,0,0h0ZM-13.7,423.97c-1.28.79-2.18,1.83-2.53,2.28-1.98,2.51-2.76,5.82-2.09,8.86.68,3.07,2.62,4.85,3.5,5.27l1.66-12.02.79,12.03c1.7-.59,3.81-2.62,4.94-5.35l-.29-.42.29.42c.68-1.64,1-3.52.67-5.51-.61-3.6-2.85-5.81-4.13-6.54-.6.06-1.17.21-1.69.43l-.36,2.63.35-2.63c-.29.12-.56.25-.82.4l.09,2.25-.37-2.08Z"/>
      <g>
        <path class="cls-3" d="M27.57,410.3c4.27.99,12.22.03,10.09-6.39-1.81-5.47-9.53-6.92-14.36-7.87-3.41-.62-10.55.76-10.79,5.12-.34,6.23,10.85,8.17,15.06,9.15ZM23.05,398.34c2.78.55,5.64,1.16,8.21,2.41.89.41,1.71.94,2.45,1.57,1.89,4.22,1.35,6.23-1.6,6.04-2.21.49-4.54-.4-6.64-1-1.73-.5-10.61-2.76-10.41-4.96.32-3.56,5.26-4.56,8-4.06Z"/>
        <path class="cls-3" d="M27.49,424.92c-1.12-.12-2.2-.31-3.19-.54h0c-.29-.07-.62-.14-.97-.22-2.82-.62-7.53-1.67-11.9-3.72-12.72-5.97-13.57-16.04-13.35-20.09.3-5.37,2.87-10.23,7.24-13.68,6.14-4.84,14.75-5.93,20.58-4.87.07.01.13.02.2.04l.18.04c6.18,1.22,20.67,4.06,25.11,17.47,2.27,6.85.89,13.93-3.68,18.95-5.46,5.99-13.69,7.34-20.21,6.62ZM26.55,398.59c-.38.4-.77.86-1.13,1.39-1.62,2.38-2.01,4.92-1.81,6.86l2.4-1.07c.5-1.09.86-2.37.94-3.81.07-1.24-.1-2.37-.4-3.37Z"/>
      </g>
      <g>
        <path class="cls-3" d="M68.27,420.21c-1.26,4.45,6.15,5.71,9.08,5.59,4.65-.18,9.55-2.7,11.63-7.02,1.7-3.54-.44-9.76-5.21-7.08-.02.01-.04.03-.06.04-.14.07-.28.18-.4.33-2.6,3.24-6.36,4.35-10.29,4.95-2,.3-4.14,1.02-4.76,3.19ZM75.82,418.95c1.09-.23,2.18-.58,3.21-1.01,2.23-.92,4.19-2.26,5.77-4.06.89.74,1.77,1.48,2.66,2.22-.31.78-.62,1.56-.93,2.34-.41.68-.97,1.33-1.54,1.87-1.21,1.16-2.7,1.99-4.28,2.52-1.44.49-2.95.73-4.48.65-.89-.05-4.72-.45-5.02-1.48-.34-1.14,1.85-2.53,2.68-2.77.6-.18,1.31-.16,1.93-.29Z"/>
        <path class="cls-3" d="M73.65,440.08c-4.61-.5-11.64-2.27-16.23-8.11-3.51-4.46-4.63-10.19-3.06-15.71,0,0,0,0,0,0,.98-3.47,4.56-11.72,16.49-13.54.88-.13,1.42-.26,1.73-.35,1.07-1.2,2.3-2.21,3.67-3.02.16-.1.32-.19.47-.28,7.14-4,15.47-3.11,21.2,2.27,6.18,5.81,7.9,15.78,4.09,23.71-4.25,8.82-13.7,14.79-24.09,15.2-.69.03-2.25.05-4.27-.17ZM76.46,411.72l2.31.92c-.79-.68-1.5-1.08-1.95-1.27-.09.07-.22.18-.36.35Z"/>
      </g>
      <g>
        <path class="cls-3" d="M64.97,404.55c5.24.57,10.9-.43,13.41-5.65,2.21-4.6-2.84-6.06-6.49-5.02-2.38.25-4.74.25-7.1-.16-1.6-.28-3.34-1.25-4.98-1.23-1.45.02-3.39.87-4.05,2.21-2.7,5.49,5.16,9.41,9.21,9.85ZM58.79,395.11c1.04-.67,3.86.57,5.08.8,2.65.52,5.29.54,7.96.3.13.01.27,0,.43-.04.14-.01.25-.05.36-.1,1.68-.44,4.4-.85,3.22,2.54-.36,1.03-2.32,2.54-3.14,2.95-2.87,1.4-8.16,1.15-11.02-.14-1.65-.66-2.83-1.78-3.53-3.36.22-.98.44-1.97.66-2.95Z"/>
        <path class="cls-3" d="M63.38,418.92c-7.02-.77-15.99-5-20.24-12.74-3.07-5.59-3.2-12.1-.35-17.87,3.46-7.01,10.97-10.21,16.87-10.28,3.43-.04,6.13.88,7.75,1.42.07.02.15.05.22.07.57.07,1.22.08,1.95.04,7.58-1.58,15.19.75,19.75,6.15,4.49,5.32,5.28,12.77,2.08,19.44-4.8,10-15.27,15.14-28,13.76h-.02ZM66.41,391.21c-.41.38-.8.86-1.07,1.43-.35.73-.62,1.59-.76,2.53l1.48-.66.36-3.29ZM66.41,391.21l-.36,3.29,2.89-1.3c-.45-1.13-1.05-2.06-1.67-2.64-.27.17-.57.38-.86.65Z"/>
      </g>
      <g>
        <path class="cls-3" d="M116.27,430.8c-2.34-3.14-6.92-8.65-11.34-5.26-1.83,1.41-2.64,4.32-3.49,6.36-1.32,3.14-2.67,6.37-5.63,8.17-.09-.99-.25-2-.51-3.06-1.19-4.72-.96-8.25.56-12.91.78-2.39,1.63-4.76,1.84-7.29.39-4.77-1.57-8.81-6.07-10.74-1.93-.83-4.83-1.78-7.52-1.9,2.05-6.07,2.37-14.85-6.3-14.79-1.92.02-3.78.53-5.68.72-3.43.35-5.44-.96-8.16-2.86-2.35-1.64-4.97-2.98-7.84-1.81-6.82,2.77-7.92,13.87-8.79,20.01-1.46,10.37-2.41,20.58-9.29,28.61-.16-2.87-.79-5.6-2.2-8.02-.53-.91-1.23-1.74-2.05-2.48,3.64-6.81,11.16-12.65,8.27-21.1-2.69-7.84-11.42-11.54-19.21-11.16-8.23.4-15.1,5.46-15.75,14.01-.39,5.07,1.03,10.12.46,15.19-.55,4.92-2.91,9.27-5.59,13.36-.05-2.94-.69-5.7-3-8.02-5.08-5.12-17.83-7.13-23.32-1.83-8.51,8.23,2.11,19.87,5.36,27.64,4.53,10.84,4.39,23.12,11.38,32.97,6.75,9.5,17.84,15.4,29.45,15.85.29.01.54-.07.73-.21,1.54,1.01,3.17,1.9,4.8,2.72,3.89,1.95,9.14,4.55,12.26,0,.01-.02.02-.04.03-.05,6.15,7.13,19.4,3.73,26.1-.68,5.59-3.68,9.9-8.88,15.05-13.09,2.7-2.21,5.64-4.2,8.96-5.34,4.2-1.44,8.69-1.26,13.02-2.04,4.64-.84,9.79-3.14,11.64-7.83,2.07-5.27-1.35-10.41-4.77-14.18-.54-.59-1.13-1.2-1.75-1.78,2.31-3.36,5.14-5.94,8.7-7.98,1.89-1.08,3.75-2.02,4.71-4.11,2.31-5.02-2.22-11.28-5.07-15.11ZM84.9,406.76c3.02.28,7.08,1.23,9.06,3.74,3.87,4.93-.37,11.97-1.54,17.07-1.3,5.65,2.06,10.39,1.35,15.88-.72,5.56-4.66,12.63-8.16,16.88-2.65,3.22-5.95,5.51-7.11,9.6-4.28,1.06-8.69,1.58-12.87,3.18-3.94,1.51-6.48,4.01-8.04,7.31-.07-1.78-.04-3.56.28-5.33,1.26-7.03,5.78-13.37,12.11-16.72,4.59-2.42,9.76-4.03,11.04-9.73.96-4.29-.98-8.68-4.76-10.9-2.16-1.27-4.42-1.43-6.87-1.41.11-3.98-1.09-7.59-3.65-10.75-1.41-1.73-3.48-3.42-4.22-5.57-1.75-5.06,4.15-5.62,7.41-5.7,3.06-.07,6.56-.03,8.86-2.4,2.33-2.41,2.51-5.58,7.11-5.16ZM40.84,500.6c.02-.06.04-.13.07-.19,2.64-.13,4.59-1.84,5.46-4.41,1.27-3.72-.69-7.17-2.86-10.08-2.46-3.3-4.5-6.5-5.9-10.15.37-6.6,1.63-13.09,3.62-19.39,1.96-6.2,4.42-13.05,8.23-18.38,1.48-2.06,3.58-4.49,6.47-4.14,2.48.3,2.67,1.74,4.14,3,1.63,1.4,3.57,1.79,5.65,1.88,3.57.15,7.23-.81,10.29,1.62,4.15,3.29,3.67,9.3-.33,12.45-2.33,1.83-5.35,2.65-7.88,4.15-2.2,1.31-4.15,2.93-5.86,4.83-3.42,3.79-5.7,8.56-6.45,13.61-.93,6.28,1.8,13.27-.62,19.29-2.06,5.13-9.14,9.86-14.03,5.91ZM47.34,420.57c1.87-7.85,1.85-16.06,4.06-23.84,1.04-3.65,2.7-9.17,7.19-9.15,3.52.02,5.7,3.48,8.96,4.53,2.76.89,5.54.08,8.31-.23,2.88-.33,5.33-.15,6.96,2.72,1.49,2.63-.03,6.4-.95,9-.09.26-.09.5-.03.72-1.12.21-2.14.65-2.94,1.42-1.19,1.15-1.35,2.83-2.36,4.09-1.03,1.3-2.61,1.78-4.17,2.03-2.65.43-5.35-.08-7.98.59-3.59.91-6.35,3.74-5.29,7.64.66,2.42,2.58,4.3,4.15,6.15,2.59,3.06,3.98,6.24,3.83,10.21-1.07.05-2.13.04-3.14-.25-1.99-.57-2.81-2.04-4.32-3.25-3.58-2.86-8.23-.89-10.88,2.2-4.46,5.21-7.13,12.73-9.25,19.14-1.62,4.89-2.83,9.91-3.55,15.01-.73-4.73-.66-9.54-.28-14.3.42-5.26,2.12-11.56,2.42-17.54,4.73-4.7,7.72-10.34,9.27-16.87ZM35.58,436.74c-.13.27-.14.55-.07.81-.21,2.24-.6,4.44-.89,6.43-1.34,9.22-2.55,18.88-.55,28.1.85,3.94,2.32,7.73,4.52,11.11,1.26,1.94,2.86,3.64,4.11,5.58,1.46,2.27,3.18,8.74-1.21,9.32.32-2.08.04-4.15-1.42-5.3-.15-.27-.43-.46-.86-.45-7.31.16-10.72-8.37-11.71-14.31-.84-5.05-1.04-10.38-3.65-14.93-.43-.74-.93-1.46-1.51-2.15,1.18-4.95,1.95-9.96,1.69-15.07-.28-5.48-2.66-10.54-2.98-15.96-.49-8.27,8.55-8.91,12.51-3.24,2,2.86,2.28,6.46,2.02,10.05ZM10.01,418.22c.07-8.62-3.17-19.23,7.07-23.36,7.99-3.23,19.79-.44,22.79,8.41,2.41,7.11-4.51,13.03-7.92,18.92-4-2.4-9.36-2.57-12.02,1.93-2.95,4.99.05,11.13,1.07,16.21,1.27,6.28.75,12.5-.58,18.67-2.22-1.94-4.95-3.38-7.67-3.89-1.95-.36-4.24.09-5.74,1.38-4.02-5.33-5.74-11.53-5.25-18.19,4.18-6.08,8.18-12.45,8.24-20.08ZM-7.75,480.04c-6.12-11.16-5.73-24.45-12.35-35.52-3.02-5.05-7.8-12.76-3.07-18.38,3.98-4.72,14.6-2.91,19.09.17,3.98,2.72,3.94,6.87,3.65,11.11-.25.39-.24.78-.08,1.11-.12,1.67-.22,3.34-.07,4.93.51,5.55,2.75,10.68,6.19,15.03.01.02.03.03.04.04-.11.34-.19.69-.22,1.08-.06.75.26,1.26.32,1.94.23,2.7.07,2.96-1.69,4.21-1.35.96-2.44,1.93-2.87,3.6-1.11,4.3,2.24,7.52,5.09,10.13,4.58,4.18,6,9.66,9.5,14.54,1.06,1.48,2.31,2.78,3.68,3.94-11.26-1.28-21.72-7.87-27.23-17.92ZM38.96,498.21c-.58,2.9-2.26,5.36-5.73,4.75-2.61-.46-5.8-2.46-8.01-3.78-5.3-3.16-8.2-7.25-10.89-12.67-1.97-3.96-4.31-6.71-7.53-9.68-2.88-2.65-5.08-6.16-1.27-9.29,1.14-.94,2.5-1.42,3.03-2.93.24-.7.2-1.11.11-1.78-.23-1.75-.75-1.41.14-3.52.34-2.33,1.82-2.9,4.46-1.71.6.2,1.18.44,1.73.72,1.81.85,3.6,1.97,5,3.42.08.17.21.31.38.4,3.58,4.06,3.9,9.86,4.65,14.96,1.06,7.13,4.87,17.47,13.63,17.53.94.88.53,2.52.31,3.57ZM111.64,474.3c-3.49,5.51-10.96,5.35-16.67,6.07-10.29,1.29-16.78,8.08-24.06,14.78-4.37,4.02-9.12,7.6-15.05,8.84-2.75.57-6.09.89-9.07.27,4.97-1,9.66-5.72,10.81-10.56.59-2.46.56-4.95.4-7.46.17-.16.3-.37.35-.65,1.16-6.04,4.66-9.52,10.66-11.1,4.23-1.11,8.58-1.56,12.74-2.99,3.79-1.3,7.49-3.23,10.25-6.19,1.19-1.28,2.07-2.7,2.87-4.23.85-1.62,1.22-2.7,2.88-3.7,2.29-1.38,4.58-.81,6.74.7,4.54,3.18,10.72,10.58,7.14,16.23ZM118.83,445.67c-.85,1.19-2.38,1.75-3.58,2.47-3.69,2.18-6.67,4.86-9.1,8.37-2.69-2-5.88-3.21-9.17-1.66-1.95.92-2.87,2.6-3.81,4.45-1.75,3.45-4,6.04-7.42,7.94-1.47.82-3,1.44-4.55,1.94,1.18-2.57,3.55-4.36,5.44-6.49,2.06-2.31,3.63-4.95,5.02-7.7,2.16-4.27,3.93-8.07,4.19-12.32.02,0,.04-.01.06-.02,3.12-1.45,4.97-3.97,6.43-7.01.91-1.89,1.6-3.87,2.48-5.77.29-1.81,1.35-2.47,3.18-1.99,1.59-.69,2.84-.33,3.75,1.09.84.84,1.61,1.84,2.33,2.79,1.68,2.18,3.33,4.59,4.43,7.13.88,2.05,1.82,4.66.31,6.78Z"/>
        <path class="cls-3" d="M32.55,519.84c-.29-.03-.58-.07-.87-.11-4.5-.67-8.28-2.57-10.78-3.82-.77-.39-1.5-.77-2.21-1.15-.34-.03-.68-.06-1.02-.1-14.8-1.62-28.45-9.54-37.06-21.66-5.87-8.27-7.94-17.04-9.76-24.77-.95-4.02-1.84-7.82-3.17-10.99-.41-.97-1.38-2.68-2.32-4.32-2.34-4.1-5.26-9.21-6.62-15.02-2.16-9.27.27-17.89,6.87-24.27,6.98-6.75,17.46-8.37,26.97-6.43,0-.96.03-1.95.11-2.98,1.18-15.32,13.3-26.57,29.47-27.35,6.47-.31,12.68,1.05,18.02,3.71,2.47-3.55,5.84-6.62,10.51-8.51,7.02-2.85,14.27-1.72,21.54,3.35.03.02.06.04.1.07,1.41-.23,3.24-.51,5.36-.53,7.48-.06,13.83,2.98,17.87,8.57,2.14,2.95,3.47,6.48,3.97,10.36,6.46,3.52,10.76,9.45,12.17,16.56,7.77,1.57,12.92,7.4,16.16,11.76,0,0,0,0,0,0,3.43,4.61,12.56,16.86,6.61,29.79-1.9,4.13-4.71,6.74-7.15,8.45,3.37,7.65,2.42,14.19.58,18.85-3.42,8.68-11.63,14.79-22.52,16.76-2.2.4-4.26.6-6.07.77-1.96.19-3.8.36-4.83.72-1.17.4-2.64,1.34-4.5,2.86-1.6,1.31-3.26,2.89-5.01,4.57-3.17,3.03-6.77,6.47-11.24,9.41-5.65,3.72-12.83,6.26-19.72,6.97-5.48.57-10.56-.04-15-1.74-2.07.42-4.24.52-6.47.27Z"/>
      </g>
      <g>
        <path class="cls-3" d="M111.45,430.18c-1.94-1.62-4.86-2.39-5.71.38-.08.14-.12.31-.13.51-.04.19-.03.36.01.51.04,4,1.54,7.81,4.44,10.63,1.12,1.1,2.96,2.78,4.7,2.44,1.81-.35,2.02-2.38,1.96-3.89-.14-3.64-2.47-8.24-5.28-10.58ZM112.13,440.98c-.8-.7-1.51-1.52-2.1-2.4-1.44-2.15-2.16-4.67-2.11-7.25.26-1.4,3.3,2.03,3.54,2.4,1.33,2,3.38,5.08,2.97,7.63-.26,1.61-1.47.34-2.3-.38Z"/>
        <path class="cls-3" d="M112.41,459.07c-4.31-.47-8.48-2.65-12.44-6.5-5.38-5.24-8.48-12.29-8.79-19.92-.09-1.02-.08-2.04.03-3.06.14-1.45.48-2.87,1.01-4.22,1.87-5.05,5.9-8.9,10.95-10.41,5.82-1.73,12.37-.19,17.53,4.12h0c5.97,4.98,10.17,13.48,10.46,21.14.42,10.95-6.55,17.25-13.65,18.63-1.73.34-3.43.41-5.12.23ZM102.28,441.36c2.02,1.62,5.12,2.2,8.16,1.57l1.69-1.95-1.69,1.95c.33-.07.67-.15,1-.25,3.56-1.06,6.47-3.69,7.81-6.98.26-.69.45-1.41.59-2.13l-1.11-.21-6.6,7.62,6.59-7.62-9.83-1.85c-4.45,2.22-6.73,6.8-6.62,9.8,0,.02,0,.03,0,.05ZM102.18,441.28h0s0,0,0,0ZM118.44,437.49s0,.01,0,.02c0,0,0-.01,0-.02ZM118.45,437.47s0,0,0,0c0,0,0,0,0,0ZM119.57,434.79s0,0,0,.01c0,0,0,0,0-.01ZM119.83,433.71s0,0,0,.01c0,0,0,0,0-.01ZM115.57,430.3c-1.07-.12-2.26-.1-3.57.16-1,.19-1.93.5-2.78.89l10.37.21c-.88-.5-2.27-1.06-4.03-1.26Z"/>
      </g>
    </g>
    <g>
      <path class="cls-1" d="M10.4,461.48c-.25.32-.29.65-.21.95.46,3.92-4.73,7.27-1.95,11.38,2.25,3.33,6.67.36,8.32-2.02,2.03-2.93,2.16-6.51.31-9.55-1.65-2.7-4.39-3.39-6.47-.76ZM12.72,472.31c-3.78,2.06-2.96-2.46-1.89-4.44.95-1.76,1.78-3.33,1.69-5.29,1.56-1.48,2.94,1.56,3.26,2.99.55,2.47-.83,5.52-3.07,6.74Z"/>
      <path class="cls-1" d="M24.6,426.24c-.23.18-.36.39-.41.61-1.19,2.74-.43,5.95,1.6,8.1,1.92,2.05,5.52,3.24,7.98,1.35,2.63-2.04,1.17-5.64-.73-7.6-2.28-2.34-5.32-4.9-8.43-2.47ZM31.19,430.12c1.37,1.38,2.93,4.49-.2,4.78-3.56.33-5.8-4.01-4.71-7.01,1.76-1.08,3.69,1,4.91,2.23Z"/>
      <path class="cls-1" d="M65.5,454.18c3.72.03,10.56-4.72,8.85-9.16-.81-2.09-3.37-2.32-5.28-2.36-4.72-.1-8.28-.26-11.18-4.53-.05-.2-.18-.39-.38-.52-.24-.24-.53-.31-.81-.26-4.34-.93-4.79,3.83-4.08,7.27,1.2,5.76,7.08,9.51,12.87,9.56ZM57.54,448.84c-1.64-1.3-2.32-2.94-2.69-4.92-.2-1.09-.87-4.7,1.23-4.35,1.78,2.64,4.46,4.81,7.67,5.34,2.32.39,10.77-1.26,7.46,3.43-3.42,4.85-9.38,3.91-13.67.5Z"/>
      <path class="cls-1" d="M98.95,459.61c-.24,0-.44.06-.61.16-.41.2-.72.6-.66,1.18.59,5.46,1.89,14.4,9.24,13.85.54-.04.86-.55.97-1.02,1.27-5.81-2.15-14.11-8.94-14.17ZM105.75,472.5c-4.17-.39-5.16-6.44-5.61-10.39,4.17,1.03,6.05,6.28,5.61,10.39Z"/>
      <path class="cls-1" d="M27.57,410.3c4.27.99,12.22.03,10.09-6.39-1.81-5.47-9.53-6.92-14.36-7.87-3.41-.62-10.55.76-10.79,5.12-.34,6.23,10.85,8.17,15.06,9.15ZM23.05,398.34c2.78.55,5.64,1.16,8.21,2.41.89.41,1.71.94,2.45,1.57,1.89,4.22,1.35,6.23-1.6,6.04-2.21.49-4.54-.4-6.64-1-1.73-.5-10.61-2.76-10.41-4.96.32-3.56,5.26-4.56,8-4.06Z"/>
      <path class="cls-1" d="M68.27,420.21c-1.26,4.45,6.15,5.71,9.08,5.59,4.65-.18,9.55-2.7,11.63-7.02,1.7-3.54-.44-9.76-5.21-7.08-.02.01-.04.03-.06.04-.14.07-.28.18-.4.33-2.6,3.24-6.36,4.35-10.29,4.95-2,.3-4.14,1.02-4.76,3.19ZM75.82,418.95c1.09-.23,2.18-.58,3.21-1.01,2.23-.92,4.19-2.26,5.77-4.06.89.74,1.77,1.48,2.66,2.22-.31.78-.62,1.56-.93,2.34-.41.68-.97,1.33-1.54,1.87-1.21,1.16-2.7,1.99-4.28,2.52-1.44.49-2.95.73-4.48.65-.89-.05-4.72-.45-5.02-1.48-.34-1.14,1.85-2.53,2.68-2.77.6-.18,1.31-.16,1.93-.29Z"/>
      <path class="cls-1" d="M64.97,404.55c5.24.57,10.9-.43,13.41-5.65,2.21-4.6-2.84-6.06-6.49-5.02-2.38.25-4.74.25-7.1-.16-1.6-.28-3.34-1.25-4.98-1.23-1.45.02-3.39.87-4.05,2.21-2.7,5.49,5.16,9.41,9.21,9.85ZM58.79,395.11c1.04-.67,3.86.57,5.08.8,2.65.52,5.29.54,7.96.3.13.01.27,0,.43-.04.14-.01.25-.05.36-.1,1.68-.44,4.4-.85,3.22,2.54-.36,1.03-2.32,2.54-3.14,2.95-2.87,1.4-8.16,1.15-11.02-.14-1.65-.66-2.83-1.78-3.53-3.36.22-.98.44-1.97.66-2.95Z"/>
      <path class="cls-1" d="M116.27,430.8c-2.34-3.14-6.92-8.65-11.34-5.26-1.83,1.41-2.64,4.32-3.49,6.36-1.32,3.14-2.67,6.37-5.63,8.17-.09-.99-.25-2-.51-3.06-1.19-4.72-.96-8.25.56-12.91.78-2.39,1.63-4.76,1.84-7.29.39-4.77-1.57-8.81-6.07-10.74-1.93-.83-4.83-1.78-7.52-1.9,2.05-6.07,2.37-14.85-6.3-14.79-1.92.02-3.78.53-5.68.72-3.43.35-5.44-.96-8.16-2.86-2.35-1.64-4.97-2.98-7.84-1.81-6.82,2.77-7.92,13.87-8.79,20.01-1.46,10.37-2.41,20.58-9.29,28.61-.16-2.87-.79-5.6-2.2-8.02-.53-.91-1.23-1.74-2.05-2.48,3.64-6.81,11.16-12.65,8.27-21.1-2.69-7.84-11.42-11.54-19.21-11.16-8.23.4-15.1,5.46-15.75,14.01-.39,5.07,1.03,10.12.46,15.19-.55,4.92-2.91,9.27-5.59,13.36-.05-2.94-.69-5.7-3-8.02-5.08-5.12-17.83-7.13-23.32-1.83-8.51,8.23,2.11,19.87,5.36,27.64,4.53,10.84,4.39,23.12,11.38,32.97,6.75,9.5,17.84,15.4,29.45,15.85.29.01.54-.07.73-.21,1.54,1.01,3.17,1.9,4.8,2.72,3.89,1.95,9.14,4.55,12.26,0,.01-.02.02-.04.03-.05,6.15,7.13,19.4,3.73,26.1-.68,5.59-3.68,9.9-8.88,15.05-13.09,2.7-2.21,5.64-4.2,8.96-5.34,4.2-1.44,8.69-1.26,13.02-2.04,4.64-.84,9.79-3.14,11.64-7.83,2.07-5.27-1.35-10.41-4.77-14.18-.54-.59-1.13-1.2-1.75-1.78,2.31-3.36,5.14-5.94,8.7-7.98,1.89-1.08,3.75-2.02,4.71-4.11,2.31-5.02-2.22-11.28-5.07-15.11ZM84.9,406.76c3.02.28,7.08,1.23,9.06,3.74,3.87,4.93-.37,11.97-1.54,17.07-1.3,5.65,2.06,10.39,1.35,15.88-.72,5.56-4.66,12.63-8.16,16.88-2.65,3.22-5.95,5.51-7.11,9.6-4.28,1.06-8.69,1.58-12.87,3.18-3.94,1.51-6.48,4.01-8.04,7.31-.07-1.78-.04-3.56.28-5.33,1.26-7.03,5.78-13.37,12.11-16.72,4.59-2.42,9.76-4.03,11.04-9.73.96-4.29-.98-8.68-4.76-10.9-2.16-1.27-4.42-1.43-6.87-1.41.11-3.98-1.09-7.59-3.65-10.75-1.41-1.73-3.48-3.42-4.22-5.57-1.75-5.06,4.15-5.62,7.41-5.7,3.06-.07,6.56-.03,8.86-2.4,2.33-2.41,2.51-5.58,7.11-5.16ZM40.84,500.6c.02-.06.04-.13.07-.19,2.64-.13,4.59-1.84,5.46-4.41,1.27-3.72-.69-7.17-2.86-10.08-2.46-3.3-4.5-6.5-5.9-10.15.37-6.6,1.63-13.09,3.62-19.39,1.96-6.2,4.42-13.05,8.23-18.38,1.48-2.06,3.58-4.49,6.47-4.14,2.48.3,2.67,1.74,4.14,3,1.63,1.4,3.57,1.79,5.65,1.88,3.57.15,7.23-.81,10.29,1.62,4.15,3.29,3.67,9.3-.33,12.45-2.33,1.83-5.35,2.65-7.88,4.15-2.2,1.31-4.15,2.93-5.86,4.83-3.42,3.79-5.7,8.56-6.45,13.61-.93,6.28,1.8,13.27-.62,19.29-2.06,5.13-9.14,9.86-14.03,5.91ZM47.34,420.57c1.87-7.85,1.85-16.06,4.06-23.84,1.04-3.65,2.7-9.17,7.19-9.15,3.52.02,5.7,3.48,8.96,4.53,2.76.89,5.54.08,8.31-.23,2.88-.33,5.33-.15,6.96,2.72,1.49,2.63-.03,6.4-.95,9-.09.26-.09.5-.03.72-1.12.21-2.14.65-2.94,1.42-1.19,1.15-1.35,2.83-2.36,4.09-1.03,1.3-2.61,1.78-4.17,2.03-2.65.43-5.35-.08-7.98.59-3.59.91-6.35,3.74-5.29,7.64.66,2.42,2.58,4.3,4.15,6.15,2.59,3.06,3.98,6.24,3.83,10.21-1.07.05-2.13.04-3.14-.25-1.99-.57-2.81-2.04-4.32-3.25-3.58-2.86-8.23-.89-10.88,2.2-4.46,5.21-7.13,12.73-9.25,19.14-1.62,4.89-2.83,9.91-3.55,15.01-.73-4.73-.66-9.54-.28-14.3.42-5.26,2.12-11.56,2.42-17.54,4.73-4.7,7.72-10.34,9.27-16.87ZM35.58,436.74c-.13.27-.14.55-.07.81-.21,2.24-.6,4.44-.89,6.43-1.34,9.22-2.55,18.88-.55,28.1.85,3.94,2.32,7.73,4.52,11.11,1.26,1.94,2.86,3.64,4.11,5.58,1.46,2.27,3.18,8.74-1.21,9.32.32-2.08.04-4.15-1.42-5.3-.15-.27-.43-.46-.86-.45-7.31.16-10.72-8.37-11.71-14.31-.84-5.05-1.04-10.38-3.65-14.93-.43-.74-.93-1.46-1.51-2.15,1.18-4.95,1.95-9.96,1.69-15.07-.28-5.48-2.66-10.54-2.98-15.96-.49-8.27,8.55-8.91,12.51-3.24,2,2.86,2.28,6.46,2.02,10.05ZM10.01,418.22c.07-8.62-3.17-19.23,7.07-23.36,7.99-3.23,19.79-.44,22.79,8.41,2.41,7.11-4.51,13.03-7.92,18.92-4-2.4-9.36-2.57-12.02,1.93-2.95,4.99.05,11.13,1.07,16.21,1.27,6.28.75,12.5-.58,18.67-2.22-1.94-4.95-3.38-7.67-3.89-1.95-.36-4.24.09-5.74,1.38-4.02-5.33-5.74-11.53-5.25-18.19,4.18-6.08,8.18-12.45,8.24-20.08ZM-7.75,480.04c-6.12-11.16-5.73-24.45-12.35-35.52-3.02-5.05-7.8-12.76-3.07-18.38,3.98-4.72,14.6-2.91,19.09.17,3.98,2.72,3.94,6.87,3.65,11.11-.25.39-.24.78-.08,1.11-.12,1.67-.22,3.34-.07,4.93.51,5.55,2.75,10.68,6.19,15.03.01.02.03.03.04.04-.11.34-.19.69-.22,1.08-.06.75.26,1.26.32,1.94.23,2.7.07,2.96-1.69,4.21-1.35.96-2.44,1.93-2.87,3.6-1.11,4.3,2.24,7.52,5.09,10.13,4.58,4.18,6,9.66,9.5,14.54,1.06,1.48,2.31,2.78,3.68,3.94-11.26-1.28-21.72-7.87-27.23-17.92ZM38.96,498.21c-.58,2.9-2.26,5.36-5.73,4.75-2.61-.46-5.8-2.46-8.01-3.78-5.3-3.16-8.2-7.25-10.89-12.67-1.97-3.96-4.31-6.71-7.53-9.68-2.88-2.65-5.08-6.16-1.27-9.29,1.14-.94,2.5-1.42,3.03-2.93.24-.7.2-1.11.11-1.78-.23-1.75-.75-1.41.14-3.52.34-2.33,1.82-2.9,4.46-1.71.6.2,1.18.44,1.73.72,1.81.85,3.6,1.97,5,3.42.08.17.21.31.38.4,3.58,4.06,3.9,9.86,4.65,14.96,1.06,7.13,4.87,17.47,13.63,17.53.94.88.53,2.52.31,3.57ZM111.64,474.3c-3.49,5.51-10.96,5.35-16.67,6.07-10.29,1.29-16.78,8.08-24.06,14.78-4.37,4.02-9.12,7.6-15.05,8.84-2.75.57-6.09.89-9.07.27,4.97-1,9.66-5.72,10.81-10.56.59-2.46.56-4.95.4-7.46.17-.16.3-.37.35-.65,1.16-6.04,4.66-9.52,10.66-11.1,4.23-1.11,8.58-1.56,12.74-2.99,3.79-1.3,7.49-3.23,10.25-6.19,1.19-1.28,2.07-2.7,2.87-4.23.85-1.62,1.22-2.7,2.88-3.7,2.29-1.38,4.58-.81,6.74.7,4.54,3.18,10.72,10.58,7.14,16.23ZM118.83,445.67c-.85,1.19-2.38,1.75-3.58,2.47-3.69,2.18-6.67,4.86-9.1,8.37-2.69-2-5.88-3.21-9.17-1.66-1.95.92-2.87,2.6-3.81,4.45-1.75,3.45-4,6.04-7.42,7.94-1.47.82-3,1.44-4.55,1.94,1.18-2.57,3.55-4.36,5.44-6.49,2.06-2.31,3.63-4.95,5.02-7.7,2.16-4.27,3.93-8.07,4.19-12.32.02,0,.04-.01.06-.02,3.12-1.45,4.97-3.97,6.43-7.01.91-1.89,1.6-3.87,2.48-5.77.29-1.81,1.35-2.47,3.18-1.99,1.59-.69,2.84-.33,3.75,1.09.84.84,1.61,1.84,2.33,2.79,1.68,2.18,3.33,4.59,4.43,7.13.88,2.05,1.82,4.66.31,6.78Z"/>
      <path class="cls-1" d="M111.45,430.18c-1.94-1.62-4.86-2.39-5.71.38-.08.14-.12.31-.13.51-.04.19-.03.36.01.51.04,4,1.54,7.81,4.44,10.63,1.12,1.1,2.96,2.78,4.7,2.44,1.81-.35,2.02-2.38,1.96-3.89-.14-3.64-2.47-8.24-5.28-10.58ZM112.13,440.98c-.8-.7-1.51-1.52-2.1-2.4-1.44-2.15-2.16-4.67-2.11-7.25.26-1.4,3.3,2.03,3.54,2.4,1.33,2,3.38,5.08,2.97,7.63-.26,1.61-1.47.34-2.3-.38Z"/>
    </g>
  </g>
  <g>
    <path class="cls-4" d="M714.1,621.08c1.93-4.43-4.96-7.44-6.89-3-1.93,4.43,4.96,7.44,6.89,3h0Z"/>
    <path class="cls-4" d="M730.38,621.33c-.17.38-.33.77-.5,1.15-.78,1.8.05,4.22,1.95,4.95,1.9.73,4.11-.01,4.95-1.95l.5-1.15c.78-1.8-.05-4.22-1.95-4.95-1.9-.73-4.1.01-4.95,1.95h0Z"/>
    <path class="cls-4" d="M772.72,643.7c-.22-.55-.43-1.1-.65-1.65-.74-1.89-2.98-2.86-4.87-2.12-1.9.75-2.87,2.98-2.12,4.87l.65,1.65c.74,1.89,2.98,2.86,4.87,2.12,1.9-.75,2.87-2.98,2.12-4.87h0Z"/>
    <path class="cls-4" d="M778.63,610.92c1.93-4.43-4.96-7.44-6.89-3-1.93,4.43,4.96,7.44,6.89,3h0Z"/>
    <path class="cls-4" d="M768.7,592.93c1.93-4.43-4.96-7.44-6.89-3-1.93,4.43,4.96,7.44,6.89,3h0Z"/>
    <path class="cls-4" d="M762.59,625.8c1.93-4.43-4.96-7.44-6.89-3-1.93,4.43,4.96,7.44,6.89,3h0Z"/>
    <path class="cls-4" d="M788.56,628.91c1.93-4.43-4.96-7.44-6.89-3s4.96,7.44,6.89,3h0Z"/>
    <path class="cls-4" d="M724.8,590.21c1.93-4.43-4.96-7.44-6.89-3-1.93,4.43,4.96,7.44,6.89,3h0Z"/>
    <path class="cls-4" d="M757.46,603.07c1.93-4.43-4.96-7.44-6.89-3-1.93,4.43,4.96,7.44,6.89,3h0Z"/>
    <path class="cls-4" d="M729.26,558l-.71-.31c-4.43-1.93-7.44,4.96-3,6.89l.71.31c4.43,1.93,7.44-4.96,3-6.89l-.71-.31c-4.43-1.93-7.44,4.96-3,6.89l.71.31c4.43,1.93,7.44-4.96,3-6.89h0Z"/>
    <path class="cls-4" d="M693.18,596.94c1.93-4.43-4.96-7.44-6.89-3-1.93,4.43,4.96,7.44,6.89,3h0Z"/>
    <path class="cls-4" d="M744.08,583.58c1.93-4.43-4.96-7.44-6.89-3-1.93,4.43,4.96,7.44,6.89,3h0Z"/>
    <path class="cls-4" d="M723.54,608.79c1.93-4.43-4.96-7.44-6.89-3-1.93,4.43,4.96,7.44,6.89,3h0Z"/>
    <path class="cls-4" d="M707.63,573.17c1.93-4.43-4.96-7.44-6.89-3-1.93,4.43,4.96,7.44,6.89,3h0Z"/>
    <path class="cls-4" d="M659.08,619.15c.55-.22,1.1-.43,1.65-.65,1.89-.74,2.86-2.98,2.12-4.87-.75-1.9-2.98-2.87-4.87-2.12l-1.65.65c-1.89.74-2.86,2.98-2.12,4.87.75,1.9,2.98,2.87,4.87,2.12h0Z"/>
    <path class="cls-4" d="M685.98,619.76c1.93-4.43-4.96-7.44-6.89-3-1.93,4.43,4.96,7.44,6.89,3h0Z"/>
  </g>
</svg>