<?xml version="1.0" encoding="UTF-8"?>
<svg id="Layer_1" data-name="Layer 1" xmlns="http://www.w3.org/2000/svg" viewBox="0 0 320 660">
  <defs>
    <style>
      .cls-1 {
        fill: #162173;
      }

      .cls-2 {
        fill: #56a8f4;
      }

      .cls-3 {
        fill: #faf6db;
      }

      .cls-4 {
        fill: #fff;
      }
    </style>
  </defs>
  <rect class="cls-1" x="-248" y="-19" width="818" height="695"/>
  <g>
    <path class="cls-4" d="M318.42,80.85l.33-.89c.52-1.4-.21-3.21-1.68-3.68-1.48-.48-3.12.18-3.68,1.68l-.33.89c-.52,1.4.21,3.21,1.68,3.68,1.48.48,3.12-.18,3.68-1.68h0Z"/>
    <path class="cls-4" d="M320.04,120.15c3.45,1.29,5.46-4.07,2-5.36s-5.46,4.07-2,5.36h0Z"/>
    <path class="cls-4" d="M313.53,99.39l.89.33c1.4.52,3.21-.21,3.68-1.68.48-1.48-.18-3.12-1.68-3.68l-.89-.33c-1.4-.52-3.21.21-3.68,1.68-.48,1.48.18,3.12,1.68,3.68h0Z"/>
    <path class="cls-4" d="M321.28,51.36c3.45,1.29,5.46-4.07,2-5.36s-5.46,4.07-2,5.36h0Z"/>
    <path class="cls-4" d="M294.38,60.67c3.45,1.29,5.46-4.07,2-5.36-3.45-1.29-5.46,4.07-2,5.36h0Z"/>
    <path class="cls-4" d="M289.49,92.11l3.02.1c1.54.05,2.96-1,3.1-2.6.13-1.48-1.05-3.05-2.6-3.1-1.01-.03-2.01-.07-3.02-.1-1.54-.05-2.96,1-3.1,2.6-.13,1.48,1.05,3.05,2.6,3.1h0Z"/>
    <path class="cls-4" d="M303.18,118.95c3.45,1.29,5.46-4.07,2-5.36s-5.46,4.07-2,5.36h0Z"/>
    <path class="cls-4" d="M279.75,132.61c3.45,1.29,5.46-4.07,2-5.36-3.45-1.29-5.46,4.07-2,5.36h0Z"/>
    <path class="cls-4" d="M272.36,147.28c.41-.19.82-.37,1.23-.56,1.41-.64,2.06-2.39,1.42-3.79-.64-1.41-2.38-2.06-3.79-1.42l-1.23.56c-1.41.64-2.06,2.39-1.42,3.79.64,1.41,2.38,2.06,3.79,1.42h0Z"/>
    <path class="cls-4" d="M289.94,151.69c3.45,1.29,5.46-4.07,2-5.36-3.45-1.29-5.46,4.07-2,5.36h0Z"/>
    <path class="cls-4" d="M302.54,137.04c3.45,1.29,5.46-4.07,2-5.36-3.45-1.29-5.46,4.07-2,5.36h0Z"/>
  </g>
  <g>
    <g>
      <path class="cls-3" d="M290.11,619.94c2.5,4.69,5.31,9.35,7.08,14.38,1.12,3.17,1.29,6.47,1.07,9.78-.21-.18-.43-.36-.65-.55-4.12-15-12.05-28.66-23.23-39.52-2.29-2.22-6.13.98-3.82,3.22,7.89,7.67,14.17,16.75,18.47,26.77-.93-1.54-1.81-3.12-2.77-4.65-4.61-7.3-10.82-13.37-18.17-17.9-2.73-1.68-5.57,2.43-2.83,4.12,6.75,4.15,12.56,9.65,16.79,16.39,1.85,2.95,3.4,6.1,5.54,8.86,1.92,2.48,4.39,4.43,6.77,6.44,1.12.95,2.37,1.99,3.39,3.19.14.42.41.75.75.99.53.8.94,1.66,1.12,2.61.59,3.09-1.07,6.14-.43,9.31.65,3.21,2.46,5.36,1.27,8.72-.7,1.97-1.83,3.76-3.12,5.42-3.09-4-2.36-10.21-2.67-14.98-.17-2.68-.58-5.38-1.69-7.85-1.21-2.69-3.25-4.79-5.08-7.06-2.03-2.52-2.69-5.31-3.94-8.22-1.18-2.73-3.11-4.99-5.24-7.03-5.04-4.81-10.37-9.35-15.55-14-2.39-2.14-5.19,2-2.83,4.12,5.21,4.68,10.79,9.15,15.66,14.18,2.43,2.51,3.48,5.11,4.67,8.32,1.06,2.86,2.8,5.1,4.74,7.41,1.99,2.37,3.48,4.67,4,7.78.49,2.9.37,5.84.52,8.76.19,3.74.9,7.42,2.77,10.48-2.56-1.27-4.04-4.93-4.8-7.55-1.06-3.62-1.93-7.17-4.13-10.21-2.29-3.7-3.5-7.81-4.23-12.08-.66-3.87-.81-7.5-3.1-10.82-1.83-2.65-5.63.6-3.82,3.22,2.08,3.02,1.8,7.8,2.57,11.35-1.17-.99-2.34-1.98-3.46-2.98-.31-.27-.62-.55-.92-.82-2.69-2.75-2.9-6.78-3.52-10.39-.68-3.96-1.74-7.59-4.53-10.61-2.04-2.2-4.46-4.13-6.91-5.98.1-.3.14-.63.12-1-.45-7.07-5.88-11.81-11.08-15.91-2.53-1.99-5.35,2.14-2.83,4.12,3.03,2.39,6.12,4.89,7.78,8.23-4.25-3.32-8.5-6.64-12.76-9.97-2.53-1.98-5.35,2.15-2.83,4.12,4.43,3.46,8.86,6.92,13.29,10.38,3.98,3.11,8.89,6.05,12.07,10,2.3,2.85,2.8,6.44,3.36,10.02-1.23-1.1-2.46-2.19-3.69-3.29-3.98-3.55-7.93-7.18-12.3-10.26-4.1-2.89-8.9-4.85-12.75-8.1-6.92-5.85-9.99-14.99-17.86-19.95-2.71-1.71-5.56,2.4-2.83,4.12,8.06,5.07,11.23,14.93,18.77,20.66.48.37.98.72,1.48,1.06-2.45.31-6.8-3.11-8.17-4.18-2.67-2.07-4.87-4.59-6.78-7.37-1.82-2.65-5.63.59-3.82,3.22,3.85,5.61,16.39,18.44,23.44,11.23,1.71,1,3.42,1.99,5.08,3.07-2.1-.67-4.53,1.92-2.72,3.94,6.5,7.24,12.71,15.02,19.8,21.69,5.51,5.18,12.33,8.95,20.04,8.05.68,1.19,1.25,2.49,1.67,3.96.93,3.23,1.69,6.5,3.54,9.25-2.41-1.63-4.55-4.12-5.97-5.71-2.11-2.37-4.32-4.7-7.14-6.21-2.57-1.37-5.39-1.87-8.19-2.55-3-.74-5.57-1.76-7.46-4.33-1.8-2.46-3.02-5.28-4.92-7.68-4.55-5.74-10.46-10.66-15.68-15.8-2.28-2.24-6.11.97-3.82,3.22,3.04,2.99,6.08,5.98,9.12,8.97,2.42,2.38,4.97,4.71,7.01,7.44-6.97-3.21-11.81-10.49-17.18-15.68-2.3-2.21-6.13.99-3.82,3.22,7.64,7.37,13.83,16.97,25.02,18.82.82,1.2,1.75,2.34,2.9,3.3,2.63,2.18,5.91,2.93,9.15,3.68,3.91.91,6.88,2.22,9.7,5.16.49.51.96,1.03,1.42,1.56-1.59-.13-3.23-.11-4.9-.04-6.49.27-10.98-2.1-15.88-6.19-4.63-3.87-9.09-7.43-14.4-10.37-5.67-3.14-11.51-6.06-15.67-11.17-2.03-2.5-5.85.73-3.82,3.22,3.82,4.7,8.87,7.79,14.11,10.67,5.53,3.04,10.51,6.27,15.31,10.37,4.07,3.48,8.38,6.99,13.75,8.1,4.21.88,10.18-.91,14.29.96-1.63.46-2.87,1.49-4.44,2.35-5.74,3.13-13.4-.58-18.36-3.69-6.24-3.91-11.67-8.95-18.17-12.46-2.8-1.51-5.66,2.59-2.83,4.12,7.12,3.85,12.97,9.56,19.99,13.55,5.58,3.17,12.8,5.94,19.25,3.96,2.14-.66,3.93-2.74,6.07-3.11,1.65-.28,3.69.5,5.31.75,4.85.74,9.23-.4,12.6-4.09.17-.19.3-.39.41-.6.2-.12.38-.26.55-.44.15-.11.29-.24.42-.39,3.95-4.48,7.86-10.58,5.76-16.75-.73-2.14-1.54-3.72-1.25-6.05.23-1.82.72-3.56.58-5.42-.15-2-.87-3.82-1.92-5.46.7-5.03,1.03-10.23-.5-15.14-1.76-5.64-4.86-10.79-7.62-15.98-1.51-2.83-6.03-.71-4.52,2.13ZM261.07,651.77c-5.57-5.98-10.94-12.16-16.4-18.24.47.32.93.65,1.39.99,4.61,3.5,8.85,7.48,13.17,11.33,4.3,3.84,8.6,7.68,12.9,11.51,1.62,1.45,3.19,2.79,4.61,4.19-6.25-.65-11.46-5.26-15.67-9.79Z"/>
      <path class="cls-3" d="M311.93,685.77c-1.14,1.66-2.36,3.19-3.57,4.56-.36.41-.75.8-1.16,1.17-.11.13-.23.27-.35.4-5.82,6.38-13.99,9.14-23,7.77-.51-.08-.99-.17-1.44-.27-1.21.76-2.8,1.64-4.76,2.25-8.49,2.61-18.06.93-28.45-4.97-4-2.27-7.44-4.84-10.78-7.33-3.11-2.32-6.04-4.5-8.99-6.1-4.43-2.39-7.15-6.76-7.29-11.68-.02-.88.04-1.76.18-2.62-3.51-2.38-6.99-5.27-10.05-9.03-5-6.15-4.07-14.92,2.12-19.95.55-.44,1.11-.84,1.69-1.19.2-.6.44-1.19.72-1.76-6.7-5.13-11.12-11.48-11.41-11.91-2.75-4.01-3.17-8.95-1.56-13.2-3.68-4.53-4.2-10.98-.87-16.28,4.27-6.8,12.89-8.78,19.63-4.54,2.84,1.79,5.2,3.88,7.22,6.06,1.87-.88,3.89-1.32,5.93-1.31.82-.55,1.7-1.02,2.64-1.4,4.62-1.85,9.74-1.08,13.72,2.05,1.79,1.41,4.11,3.23,6.41,5.56.07-.05.14-.1.21-.15,1.37-4.68,5.14-8.39,9.95-9.75,4.97-1.41,10.15-.1,13.86,3.51,2.98,2.89,5.76,5.98,8.34,9.22.68-.07,1.36-.1,2.06-.08,5.1.17,9.59,2.98,12.01,7.52.48.9.97,1.8,1.46,2.7,2.44,4.48,5.21,9.57,7,15.29,1.81,5.81,1.82,11.59,1.36,16.51.87,2.17,1.39,4.41,1.56,6.71.2,2.72-.18,4.97-.46,6.62-.02.09-.03.19-.05.28.04.12.09.25.13.36.15.42.31.85.46,1.3,3.07,9.03-.13,17.34-4.49,23.68ZM300.42,614.44s0,0,0,0c0,0,0,0,0,0Z"/>
    </g>
    <path class="cls-1" d="M290.11,619.94c2.5,4.69,5.31,9.35,7.08,14.38,1.12,3.17,1.29,6.47,1.07,9.78-.21-.18-.43-.36-.65-.55-4.12-15-12.05-28.66-23.23-39.52-2.29-2.22-6.13.98-3.82,3.22,7.89,7.67,14.17,16.75,18.47,26.77-.93-1.54-1.81-3.12-2.77-4.65-4.61-7.3-10.82-13.37-18.17-17.9-2.73-1.68-5.57,2.43-2.83,4.12,6.75,4.15,12.56,9.65,16.79,16.39,1.85,2.95,3.4,6.1,5.54,8.86,1.92,2.48,4.39,4.43,6.77,6.44,1.12.95,2.37,1.99,3.39,3.19.14.42.41.75.75.99.53.8.94,1.66,1.12,2.61.59,3.09-1.07,6.14-.43,9.31.65,3.21,2.46,5.36,1.27,8.72-.7,1.97-1.83,3.76-3.12,5.42-3.09-4-2.36-10.21-2.67-14.98-.17-2.68-.58-5.38-1.69-7.85-1.21-2.69-3.25-4.79-5.08-7.06-2.03-2.52-2.69-5.31-3.94-8.22-1.18-2.73-3.11-4.99-5.24-7.03-5.04-4.81-10.37-9.35-15.55-14-2.39-2.14-5.19,2-2.83,4.12,5.21,4.68,10.79,9.15,15.66,14.18,2.43,2.51,3.48,5.11,4.67,8.32,1.06,2.86,2.8,5.1,4.74,7.41,1.99,2.37,3.48,4.67,4,7.78.49,2.9.37,5.84.52,8.76.19,3.74.9,7.42,2.77,10.48-2.56-1.27-4.04-4.93-4.8-7.55-1.06-3.62-1.93-7.17-4.13-10.21-2.29-3.7-3.5-7.81-4.23-12.08-.66-3.87-.81-7.5-3.1-10.82-1.83-2.65-5.63.6-3.82,3.22,2.08,3.02,1.8,7.8,2.57,11.35-1.17-.99-2.34-1.98-3.46-2.98-.31-.27-.62-.55-.92-.82-2.69-2.75-2.9-6.78-3.52-10.39-.68-3.96-1.74-7.59-4.53-10.61-2.04-2.2-4.46-4.13-6.91-5.98.1-.3.14-.63.12-1-.45-7.07-5.88-11.81-11.08-15.91-2.53-1.99-5.35,2.14-2.83,4.12,3.03,2.39,6.12,4.89,7.78,8.23-4.25-3.32-8.5-6.64-12.76-9.97-2.53-1.98-5.35,2.15-2.83,4.12,4.43,3.46,8.86,6.92,13.29,10.38,3.98,3.11,8.89,6.05,12.07,10,2.3,2.85,2.8,6.44,3.36,10.02-1.23-1.1-2.46-2.19-3.69-3.29-3.98-3.55-7.93-7.18-12.3-10.26-4.1-2.89-8.9-4.85-12.75-8.1-6.92-5.85-9.99-14.99-17.86-19.95-2.71-1.71-5.56,2.4-2.83,4.12,8.06,5.07,11.23,14.93,18.77,20.66.48.37.98.72,1.48,1.06-2.45.31-6.8-3.11-8.17-4.18-2.67-2.07-4.87-4.59-6.78-7.37-1.82-2.65-5.63.59-3.82,3.22,3.85,5.61,16.39,18.44,23.44,11.23,1.71,1,3.42,1.99,5.08,3.07-2.1-.67-4.53,1.92-2.72,3.94,6.5,7.24,12.71,15.02,19.8,21.69,5.51,5.18,12.33,8.95,20.04,8.05.68,1.19,1.25,2.49,1.67,3.96.93,3.23,1.69,6.5,3.54,9.25-2.41-1.63-4.55-4.12-5.97-5.71-2.11-2.37-4.32-4.7-7.14-6.21-2.57-1.37-5.39-1.87-8.19-2.55-3-.74-5.57-1.76-7.46-4.33-1.8-2.46-3.02-5.28-4.92-7.68-4.55-5.74-10.46-10.66-15.68-15.8-2.28-2.24-6.11.97-3.82,3.22,3.04,2.99,6.08,5.98,9.12,8.97,2.42,2.38,4.97,4.71,7.01,7.44-6.97-3.21-11.81-10.49-17.18-15.68-2.3-2.21-6.13.99-3.82,3.22,7.64,7.37,13.83,16.97,25.02,18.82.82,1.2,1.75,2.34,2.9,3.3,2.63,2.18,5.91,2.93,9.15,3.68,3.91.91,6.88,2.22,9.7,5.16.49.51.96,1.03,1.42,1.56-1.59-.13-3.23-.11-4.9-.04-6.49.27-10.98-2.1-15.88-6.19-4.63-3.87-9.09-7.43-14.4-10.37-5.67-3.14-11.51-6.06-15.67-11.17-2.03-2.5-5.85.73-3.82,3.22,3.82,4.7,8.87,7.79,14.11,10.67,5.53,3.04,10.51,6.27,15.31,10.37,4.07,3.48,8.38,6.99,13.75,8.1,4.21.88,10.18-.91,14.29.96-1.63.46-2.87,1.49-4.44,2.35-5.74,3.13-13.4-.58-18.36-3.69-6.24-3.91-11.67-8.95-18.17-12.46-2.8-1.51-5.66,2.59-2.83,4.12,7.12,3.85,12.97,9.56,19.99,13.55,5.58,3.17,12.8,5.94,19.25,3.96,2.14-.66,3.93-2.74,6.07-3.11,1.65-.28,3.69.5,5.31.75,4.85.74,9.23-.4,12.6-4.09.17-.19.3-.39.41-.6.2-.12.38-.26.55-.44.15-.11.29-.24.42-.39,3.95-4.48,7.86-10.58,5.76-16.75-.73-2.14-1.54-3.72-1.25-6.05.23-1.82.72-3.56.58-5.42-.15-2-.87-3.82-1.92-5.46.7-5.03,1.03-10.23-.5-15.14-1.76-5.64-4.86-10.79-7.62-15.98-1.51-2.83-6.03-.71-4.52,2.13ZM261.07,651.77c-5.57-5.98-10.94-12.16-16.4-18.24.47.32.93.65,1.39.99,4.61,3.5,8.85,7.48,13.17,11.33,4.3,3.84,8.6,7.68,12.9,11.51,1.62,1.45,3.19,2.79,4.61,4.19-6.25-.65-11.46-5.26-15.67-9.79Z"/>
  </g>
  <g>
    <path class="cls-2" d="M330.41,405.26c-2.78-2.23-10.16-6.22-10.58-9.71-.31-2.64,1.55-6.53,2.17-9.15.52-2.21,1.5-4.77,1.23-7.1-.4-3.45-3.25-4.8-6.46-4.06-2.71.62-5.34,2.56-7.79,3.78-2.76,1.38-5.53,2.71-8.26,4.16-3.79-3.46-7.8-6.63-11.89-9.73-2.3-1.75-5.75-5.24-8.81-2.93-2.74,2.07-2.03,6.67-1.74,9.53.54,5.31,1.7,10.48,3.36,15.54-5.41,3.33-10.86,6.62-16.23,10.01-2.85,1.8-5.48,3.39-3.96,7.09,3.19,7.74,13.65,8.65,20.61,7.31,1.61-.31,6.22-1.79,7.13-1.25.61.36.95,2.32,1.2,3,1.38,3.83,2.56,7.73,3.87,11.58,1.66,4.89,4.25,14.11,10.98,13.64,6.51-.46,6.65-10.78,7.01-15.4.24-3.08-.36-7.23.6-10.16.05-.14.08-.24.1-.32.37-.04.83-.03,1.04-.02,1.69.06,3.46-.2,5.15-.31,4.65-.29,15.67.02,18.7-4.35,2.84-4.09-4.99-9.21-7.43-11.16ZM332.61,415.75c-5.69,1.88-11.93,1.78-17.85,2.2-2.67.19-4.38.06-4.93,2.89-1.05,5.45-.36,11.23-1.33,16.74-.16.92-.25,2.45-.77,3.28-.24.52-.47,1.04-.71,1.56-1.85-.19-3.71-.38-5.56-.57-.73-.45-1.3-1.81-1.77-2.72-1.22-2.41-1.98-5.14-2.84-7.7-1.43-4.26-2.29-10.06-4.81-13.83-3.07-4.58-13.63.67-18.24-.16-2.52-.46-5.11-1.41-7.08-3.08-3.77-3.19-1.39-5.1,1.97-7.17,5.19-3.2,10.38-6.4,15.56-9.6.55-.34.93-1.09.71-1.74-1.1-3.22-2.04-6.47-2.7-9.81-.42-2.13-2.6-9.91-1-11.87,2.61-3.2,15.92,9.88,18.15,11.95.27.26.57.38.87.42.31.06.64.01.99-.18,3.8-2.07,7.74-3.86,11.58-5.87,3.24-1.69,6.99-4.27,6.84,2.34-.05,2.36-1.19,5.02-1.73,7.32-.52,2.19-2.35,5.78-1.12,7.9,1.4,2.41,5.13,4.45,7.28,6.14,2.64,2.07,5.34,4.08,7.82,6.33,2.37,2.15,4.77,3.87.67,5.22Z"/>
    <path class="cls-2" d="M304.93,404.7c.19-1.21.05-2.48-.38-3.64.93-1,1.29-2.4,1.57-3.9.66-3.58,2.27-6.09,5.43-8.07,1.67-1.05.13-3.71-1.55-2.65-2.45,1.54-4.71,3.66-5.93,6.33-.46,1.01-.59,4.25-1.32,5.7-.22-.13-.46-.19-.69-.19-.03,0-.06-.01-.09-.02-1.48-.15-3,.22-4.26.98-.06-.25-.2-.49-.46-.71-4.35-3.76-3.72-10.62-7.02-14.9.49.4,1.17.5,1.75.16.69-.4,1-1.4.55-2.1-.05-.07-.09-.14-.14-.21-.45-.7-1.36-.98-2.1-.55-.69.4-1,1.4-.55,2.1.03.05.06.1.1.15-.72-.81-1.58-1.53-2.7-2.07-1.77-.86-3.33,1.79-1.55,2.65,3.55,1.73,4.09,5.81,5.09,9.25.86,2.95,2.03,5.65,4.4,7.7.21.19.44.29.68.35-.2.29-.37.59-.51.92-.3.69-.43,1.4-.42,2.12-5.53.6-10.81,1.9-15.96,4.02-1.8.74-1.01,3.72.82,2.96,4.88-2.01,9.91-3.34,15.16-3.91.31-.03.56-.14.77-.3.51.86,1.25,1.59,2.17,2.07.67.35,1.36.51,2.04.52,4.43,6.71-3.67,17.41,2.33,23.41,1.4,1.4,3.57-.77,2.17-2.17-2.72-2.71-.6-10.44-.46-13.99.12-2.97.08-5.69-1.16-8.2.38-.28.73-.61,1.03-.99,2.02.77,4.09,1.02,6.33,1.05,3.54.06,7.96-.34,10.21,3.03,1.09,1.64,3.75.1,2.65-1.55-4.32-6.48-11.95-3.01-18-5.34ZM298.29,402.78c.68-.98,1.77-1.41,2.9-1.46.09.22.21.41.38.56.37.79.48,1.72.3,2.59-.17.81-.73,1.56-1.44,1.81-.04,0-.08.02-.12.03-.41.11-.87.06-1.33-.25-1.09-.74-1.44-2.2-.68-3.29Z"/>
    <path class="cls-2" d="M271.73,409.85c-.45-.7-1.36-.98-2.1-.55-.69.4-1,1.4-.55,2.1.09.14.19.29.28.43.45.7,1.36.98,2.1.55.69-.4,1-1.4.55-2.1-.09-.14-.19-.29-.28-.43Z"/>
    <path class="cls-2" d="M276.96,411.56c-.12-.03-.24-.05-.35-.08-.78-.17-1.7.23-1.89,1.07-.18.77.23,1.71,1.07,1.89.12.03.24.05.35.08.78.17,1.7-.23,1.89-1.07.18-.77-.23-1.71-1.07-1.89Z"/>
    <path class="cls-2" d="M284.1,410.9c-.14.09-.29.19-.43.28-.7.45-.98,1.36-.55,2.1.4.69,1.4,1,2.1.55.14-.09.29-.19.43-.28.7-.45.98-1.36.55-2.1-.4-.69-1.4-1-2.1-.55Z"/>
    <path class="cls-2" d="M309.52,410.57c-1.98,0-1.98,3.07,0,3.07s1.98-3.07,0-3.07Z"/>
    <path class="cls-2" d="M314.83,411.7c-1.98,0-1.98,3.07,0,3.07s1.98-3.07,0-3.07Z"/>
    <path class="cls-2" d="M311.5,398.7c-.45-.7-1.36-.98-2.1-.55-.69.4-1,1.4-.55,2.1l.14.21c.45.7,1.36.98,2.1.55.69-.4,1-1.4.55-2.1-.05-.07-.09-.14-.14-.21Z"/>
    <path class="cls-2" d="M310.61,391.55c-1.98,0-1.98,3.07,0,3.07s1.98-3.07,0-3.07Z"/>
    <path class="cls-2" d="M301.63,391.6c1.98,0,1.98-3.07,0-3.07s-1.98,3.07,0,3.07Z"/>
    <path class="cls-2" d="M298.24,395.32c1.98,0,1.98-3.07,0-3.07s-1.98,3.07,0,3.07Z"/>
    <path class="cls-2" d="M289.6,394.59c-.45-.7-1.36-.98-2.1-.55-.69.4-1,1.4-.55,2.1.05.07.09.14.14.21.45.7,1.36.98,2.1.55.69-.4,1-1.4.55-2.1l-.14-.21Z"/>
    <path class="cls-2" d="M288.93,401.67c1.98,0,1.98-3.07,0-3.07s-1.98,3.07,0,3.07Z"/>
    <path class="cls-2" d="M281.95,403.96c.45.7,1.36.98,2.1.55.69-.4,1-1.4.55-2.1-.05-.07-.09-.14-.14-.21-.45-.7-1.36-.98-2.1-.55-.69.4-1,1.4-.55,2.1l.14.21Z"/>
    <path class="cls-2" d="M293.9,410.02c-1.98,0-1.98,3.07,0,3.07s1.98-3.07,0-3.07Z"/>
    <path class="cls-2" d="M296.08,417.15c-1.98,0-1.98,3.07,0,3.07s1.98-3.07,0-3.07Z"/>
    <path class="cls-2" d="M314.93,385.39c.77.18,1.71-.23,1.89-1.07.03-.12.05-.24.08-.35.17-.78-.23-1.7-1.07-1.89-.77-.18-1.71.23-1.89,1.07-.03.12-.05.24-.08.35-.17.78.23,1.7,1.07,1.89Z"/>
    <path class="cls-2" d="M303.74,435.07c-1.98,0-1.98,3.07,0,3.07s1.98-3.07,0-3.07Z"/>
    <path class="cls-2" d="M285.04,378.84c.78.17,1.7-.23,1.89-1.07.18-.77-.23-1.71-1.07-1.89-.12-.03-.24-.05-.35-.08-.78-.17-1.7.23-1.89,1.07-.18.77.23,1.71,1.07,1.89.12.03.24.05.35.08Z"/>
    <path class="cls-2" d="M305.56,425.65c-1.98,0-1.98,3.07,0,3.07s1.98-3.07,0-3.07Z"/>
    <path class="cls-2" d="M314.64,390.48c1.98,0,1.98-3.07,0-3.07s-1.98,3.07,0,3.07Z"/>
    <path class="cls-2" d="M285.8,387.19c-1.98,0-1.98,3.07,0,3.07s1.98-3.07,0-3.07Z"/>
    <path class="cls-2" d="M314.98,400.63c-.69.4-1,1.4-.55,2.1.05.07.09.14.14.21.45.7,1.36.98,2.1.55.69-.4,1-1.4.55-2.1-.05-.07-.09-.14-.14-.21-.45-.7-1.36-.98-2.1-.55Z"/>
  </g>
  <g>
    <path class="cls-2" d="M272.82-13.27c-7.23-8.41-20.23-10.54-29-3.48-4.26.62-8.85,2.1-12.12,4.94-4.57,3.98-6.42,11.54-7.44,17.25-2.25,12.66,7.3,20.98,18.2,25.23,5.99,2.33,12.81,3.58,19,1.25,5.84-2.21,11.03-7.49,14.94-12.21,8.32-10.06,4.3-23.81-3.58-32.98ZM266.86,24.42c-8.43,7.31-18.49,5.94-27.75.97-9.26-4.97-13.42-12.18-10.72-22.57.99-3.83,2.06-8.35,4.8-11.35,1.66-1.81,4.15-3.07,6.71-3.88-4.66,7.13-5.98,18.59,1.25,24.01,8.45,6.33,23.65,8.13,26-4.97.91-5.09.26-10.74-3.7-14.38-2.43-2.23-8.68-5.85-12.06-3.86-3.77,2.22-4.47,10.42-2.91,14,1.65,3.8,6.58,6.13,10.09,3.07,2.95-2.57,2-7.58-1.87-8.72-2.55-.75-4.48.46-5.48,2.34-.29-1.09-.19-2.28.34-3.57.11-1.24.67-2.2,1.67-2.91.62-1.33,1.52-1.55,2.72-.68,1.47.48,2.85,1.15,4.13,2.01,4.08,3.03,4.93,9.11,3.35,13.78-2.52,7.47-10.9,5.75-16.43,3.16-5.12-2.39-7.45-5.96-7.37-11.64.14-9.52,7.78-17.05,17.34-16.87,10.06.18,17.11,9.45,19.74,18.4,3.03,10.33-2.39,17.19-9.84,23.66Z"/>
    <path class="cls-2" d="M233.67,4.97c.42-2.15-2.87-3.07-3.3-.91-.45,2.27-.09,4.55,1.21,6.49,1.22,1.82,4.19.11,2.96-1.73-.78-1.16-1.14-2.47-.87-3.85Z"/>
    <path class="cls-2" d="M240.42,14.84c-.76-.19-1.52-.38-2.28-.57-.87-.22-1.9.28-2.11,1.2-.2.89.27,1.87,1.2,2.11.76.19,1.52.38,2.28.57.87.22,1.9-.28,2.11-1.2.2-.89-.27-1.87-1.2-2.11Z"/>
    <path class="cls-2" d="M249.67,20.48h-.57c-.9,0-1.75.79-1.71,1.71.04.93.75,1.71,1.71,1.71h.57c.9,0,1.75-.79,1.71-1.71-.04-.93-.75-1.71-1.71-1.71Z"/>
    <path class="cls-2" d="M260.44,21.55c-.19.19-.38.38-.57.57-.65.65-.65,1.77,0,2.42.66.66,1.77.66,2.42,0,.19-.19.38-.38.57-.57.65-.65.65-1.77,0-2.42-.66-.66-1.77-.66-2.42,0Z"/>
    <path class="cls-2" d="M270.78,11.35c-.93.04-1.71.75-1.71,1.71v.57c0,.9.79,1.75,1.71,1.71.93-.04,1.71-.75,1.71-1.71v-.57c0-.9-.79-1.75-1.71-1.71Z"/>
    <path class="cls-2" d="M271.35-.63c-.93.04-1.71.75-1.71,1.71v.57c0,.9.79,1.75,1.71,1.71.93-.04,1.71-.75,1.71-1.71v-.57c0-.9-.79-1.75-1.71-1.71Z"/>
    <path class="cls-2" d="M243.39,1.08c-2.2,0-2.21,3.42,0,3.42s2.21-3.42,0-3.42Z"/>
  </g>
  <path class="cls-2" d="M14.03,640.15c-4.55-2.86-7.54-1.36-9,3.58-2.54,8.54-2.49,18.13-3.23,26.93-.85,10.21-2.12,20.05-6.9,29.24-3.2,6.15-8.31,14.31-15.47,16.5.66-3.69,3.41-6.49,5.05-9.88,1.73-3.6,2.19-7.58,2.77-11.48,1.42-9.58,2.81-19.18,3.66-28.83.89-10.1,1.22-20.27.34-30.38-.45-5.22-.25-14.43-6.27-16.72-5.13-1.96-10.03,2.24-11.71,6.79-3,8.09-1.36,18.67-.96,27.07.94,19.46,2.52,39.27-6.47,57.24-1.89,1.4-3.69-4.72-3.61-4.18-.04-.31.12-.78.1-1.07-.18-2.13-.07-4.39-.15-6.54-.15-4.56-.3-9.11-.45-13.67-.3-9.11-.6-18.23-.9-27.34-.3-9.11-.6-18.23-.9-27.34-.23-7.06.12-14.66-2.41-21.38-1.45-3.87-3.56-4.95-7.63-3.74-4.54,1.35-5.98,3.61-5.75,8.15.92,17.69,3.81,35.28,3.49,53.04-.23,12.66-3.06,26.51,1.31,38.57-11.01-11.88-13.33-29.35-15.66-45.03-1.68-11.26-3.35-22.51-5.03-33.77-.81-5.47-1.63-10.94-2.44-16.4-.62-4.13-1.1-8.42-2.86-12.25-2.36-5.12-7.78-9.47-13.75-7.96-6.86,1.73-7.03,9.35-5.35,14.91,2.83,9.36,7.18,18.26,10.03,27.65,3.04,10.02,5.44,20.24,7.16,30.57,2.71,16.19,1.06,37.79,12.94,50.74-18.02-2.41-21.6-28.02-25.23-42.49-3.8-15.16-8.58-31.18-18.67-43.51-2.29-2.8-6.4-3.3-7.7.89-1.06,3.42,0,8.29.57,11.75.87,5.29,2.38,10.45,3.8,15.61,4.49,16.35,7.59,34.43,15.8,49.46,3.85,7.04,9.3,13.15,16.58,16.72,8.35,4.1,17.78,4.89,26.92,5.58,8.93,2.03,18.09,1.02,27.06,2.7,7.02,1.32,13.43,1.33,19.78-2.36,13.88-8.07,17.92-24.23,19.77-39.04,1.2-9.65,2.81-19.26,3.95-28.92.59-5.05,2.68-16.08-2.56-19.38ZM11.19,675.92c-2.04,15.37-2.26,32.85-14,44.53-7.01,6.98-14.73,8.2-24.16,6.41-8.74-1.66-17.67-.56-26.38-2.57-.12-.03-.23-.04-.34-.04-.02,0-.04,0-.06,0-8.4-.63-17.17-1.26-24.93-4.84-6.97-3.21-12.17-8.78-15.91-15.39-7.63-13.5-10.5-29.92-14.57-44.73-1.18-4.3-2.42-8.58-3.5-12.91-1.11-4.43-2.83-9.81-2.22-14.4.14-1.07-.57-4.19,2.1-3.64.37.08,1.09,1.43,1.32,1.78.65.96,1.21,1.97,1.84,2.93,2.08,3.14,4.12,6.25,5.81,9.63,7.03,14.01,9.61,29.66,13.68,44.65,3.67,13.53,11.54,29.67,27.97,28.93.6-.03,1-.34,1.22-.75.3-.41.37-.94.06-1.4-.13-.31-.36-.56-.7-.69-12.19-10.58-11.39-28.88-13.35-43.59-2.38-17.87-6.72-35.46-12.97-52.37-1.96-5.29-12.41-24.21-1.17-25.41,10.8-1.16,11.54,14.97,12.6,22.1,2.81,18.85,5.31,37.77,8.46,56.56,2.65,15.79,7.48,31.61,20.95,41.44.68.5,1.35.26,1.75-.24.5-.4.73-1.07.26-1.77-8.04-11.9-5.12-26.75-4.52-40.21.72-16.16-1.51-32.23-2.8-48.3-.22-2.79-1.89-9.78-.18-12.17.59-.82,2.67-1.77,3.69-1.83,2.74-.16,3.84,2.38,4.45,4.9,1.89,7.79,1.34,16.41,1.6,24.37.55,16.6,1.09,33.2,1.64,49.8.15,4.56.3,9.11.45,13.67.09,2.75-.81,6.19.35,8.77,1.34,2.97,5.11,5.42,7.94,3.41.23-.09.43-.26.59-.52.14-.17.23-.35.28-.54,6.46-13.01,7.89-27.09,7.55-41.46-.2-8.54-.89-17.06-1.1-25.6-.1-3.99-.18-8.02.11-12,.2-2.71.56-5.55,2.22-7.8,2.06-2.79,6.16-4.76,8.85-.83,2.42,3.52,2.07,9.91,2.37,13.92.27,3.79.38,7.58.37,11.38-.04,8.9-.8,17.78-1.86,26.61-.99,8.3-1.73,17.02-3.66,25.17-1.48,6.22-7.15,10.81-6.96,17.41.03.9.71,1.37,1.41,1.41.14.02.29.03.45,0,10.07-1.37,17.07-13.24,20.81-21.57,5.89-13.15,5.41-27.86,6.96-41.91.42-3.85.79-7.96,1.89-11.69.62-2.1,2.09-3.86,4.24-2.07,1.94,1.62,2.03,5.37,2.09,7.83.22,8.63-1.86,17.14-2.99,25.65Z"/>
  <path class="cls-2" d="M35.27,556.11c-2.36-3.8-5.43-7.24-9.57-8.34-2.62-4.22-5.35-9.1-10.34-10.81-.72-.24-1.42-.41-2.11-.51-.06-.1-.14-.19-.24-.29-1.54-1.45-3.37-2.78-5.27-3.66.01-.25-.06-.53-.25-.81-1.98-2.85-6.51-8.86-10.64-5.91-3.7,2.64-2.03,7.65-.27,10.91-2.05,4.83-1.3,11.83-.2,16.64.1.43.33.71.62.87-1.38,7-.61,14.54,4.9,18.24-.48,8.19,2.52,16.45,10.53,19.68.07.03.14.04.21.06,1.66,3.75,4.54,6.12,9.17,4.02,4.95-.02,8.48-8.56,10.49-13.75,0-.02.02-.03.02-.05.17-.42.35-.89.53-1.38.18-.47.35-.88.49-1.23,2.17-5.18,9.81-19.99,1.92-23.69ZM-1.62,528.28c1.55-1.28,3.88,1.23,5.37,3.18-1.96-.08-3.84.58-5.4,2.36-.85-1.85-1.55-4.24.02-5.54ZM-1.45,541.68c.12-2.12.49-4.32,2.01-5.94,2.67-2.86,6.04-1.14,8.64.94-2.95.77-5.49,2.86-7.46,5.68-1.16,1.67-2.26,3.83-3.16,6.25-.19-2.31-.16-4.67-.03-6.93ZM2.61,546.51c2.79-5.29,7.94-9.67,13.93-5.69,2.41,1.6,4.04,4.14,5.56,6.63-.28.02-.57.04-.86.08-7.43,1.03-13.09,7.21-16.32,13.54-1.23,2.41-2.12,5.14-2.62,7.97-5.25-5.32-2.52-17.16.31-22.53ZM10.92,579.3c-.29,2.37-.19,5.89.54,9.16-7.67-4.66-8.22-17-4.69-24.6,2.23-4.8,5.24-8.95,9.91-11.64,5.3-3.05,9.79-1.74,13.29,1.78-12.38.46-17.67,14.24-19.04,25.31ZM14.44,575.51c1.57-7.93,5.7-16.53,13.55-18.29-4.95,3.87-8.59,13.02-9.22,17.13-1.33,4.08-5.19,14.59-1.77,19.42-4.23-2.37-3.16-15.24-2.56-18.27ZM31.16,576.07c-.26,1.36-.62,2.71-1.06,4.02-.02.05-.04.11-.07.16-1.08,2.49-4.57,12.72-8.05,13.12-.1.01-.19,0-.29,0-.14-.02-.28-.02-.43,0-3.29-.39-2.77-6.56-2.42-8.6,0-.06.03-.11.04-.17.22-.22.38-.52.42-.89.6-5.22,3.99-10.89,9.77-11.33,2.97-.23,2.54,1.35,2.09,3.68ZM33.64,571.14s0,.01,0,.02c-.69-1.05-1.91-1.71-3.91-1.73-2.91-.02-5.4,1.01-7.42,2.67.69-2.13,1.69-4.18,2.79-6.12,1.23-2.18,3.69-6.75,6.37-7.18,7.41-1.19,3.31,9.25,2.18,12.34Z"/>
  <g>
    <path class="cls-4" d="M-.61,77.31c-3.77-.54-4.62,5.32-.84,5.87,3.77.54,4.62-5.32.84-5.87h0Z"/>
    <path class="cls-4" d="M12.26,64.19l-.14.98c-.22,1.53.92,3.2,2.51,3.35,1.6.16,3.12-.87,3.35-2.51l.14-.98c.22-1.53-.92-3.2-2.51-3.35-1.6-.16-3.12.87-3.35,2.51h0Z"/>
    <path class="cls-4" d="M1.95,24.79c-3.77-.54-4.62,5.32-.84,5.87,3.77.54,4.62-5.32.84-5.87h0Z"/>
    <path class="cls-4" d="M1.36,56.64c-3.77-.54-4.62,5.32-.84,5.87,3.77.54,4.62-5.32.84-5.87h0Z"/>
    <path class="cls-4" d="M13.11,44.35l-.98-.14c-1.53-.22-3.2.92-3.35,2.51-.16,1.6.87,3.12,2.51,3.35l.98.14c1.53.22,3.2-.92,3.35-2.51.16-1.6-.87-3.12-2.51-3.35h0Z"/>
    <path class="cls-4" d="M6.22,99.25c-3.77-.54-4.62,5.32-.84,5.87,3.77.54,4.62-5.32.84-5.87h0Z"/>
    <path class="cls-4" d="M15.87,94.64c-3.77-.54-4.62,5.32-.84,5.87,3.77.54,4.62-5.32.84-5.87h0Z"/>
    <path class="cls-4" d="M41.02,79.3c-3.77-.54-4.62,5.32-.84,5.87s4.62-5.32.84-5.87h0Z"/>
    <path class="cls-4" d="M39.03,46.41c-1.02.19-2.05.37-3.07.56-1.57.29-2.77,1.66-2.57,3.31.19,1.52,1.73,2.85,3.31,2.57,1.02-.19,2.05-.37,3.07-.56,1.57-.29,2.77-1.66,2.57-3.31-.19-1.53-1.73-2.85-3.31-2.57h0Z"/>
    <path class="cls-4" d="M19.27,22.29c-3.77-.54-4.62,5.32-.84,5.87s4.62-5.32.84-5.87h0Z"/>
    <path class="cls-4" d="M39.96,3.3c-3.77-.54-4.62,5.32-.84,5.87s4.62-5.32.84-5.87h0Z"/>
    <path class="cls-4" d="M15.93,3.84c-3.77-.54-4.62,5.32-.84,5.87,3.77.54,4.62-5.32.84-5.87h0Z"/>
  </g>
  <g>
    <g>
      <g>
        <path class="cls-3" d="M-6,413.36c2.98.03,8.45-3.78,7.08-7.32-.64-1.67-2.69-1.86-4.22-1.89-3.77-.08-6.62-.21-8.94-3.62-.04-.16-.14-.31-.3-.42-.19-.19-.42-.25-.65-.21-3.47-.74-3.83,3.06-3.26,5.81.96,4.61,5.66,7.6,10.29,7.65ZM-12.37,409.1c-1.31-1.04-1.86-2.35-2.15-3.94-.16-.87-.7-3.76.98-3.48,1.43,2.11,3.56,3.84,6.14,4.27,1.86.31,8.61-1.01,5.97,2.75-2.73,3.88-7.5,3.12-10.93.4Z"/>
        <path class="cls-3" d="M-8.43,424.79c-9.45-1.03-17.33-7.77-19.19-16.72-1.31-6.27.13-12.04,3.93-15.82,3.07-3.05,7.24-4.45,11.68-3.89,2.54.19,4.99,1.17,6.98,2.82.52.42,1.01.89,1.45,1.39.26,0,.5.01.68.02,3.39.07,11.61,1.11,14.77,9.28,1.82,4.72,1.12,9.95-1.92,14.35-3.59,5.18-10.19,8.76-16.05,8.71h0c-.78,0-1.55-.05-2.32-.14ZM-10.24,406.42c-.11,1.15.01,2.45.53,3.79.01.04.03.07.04.11.83-.43,1.61-1,2.29-1.67.61-.61,1.08-1.25,1.44-1.86l.05-4.99c-.25,0-.48,0-.69.02l-3.65,4.6ZM-6.59,401.82c-1.71.11-2.12.71-2.49,1.24-.55.79-1.03,1.97-1.17,3.36l3.65-4.6ZM-5.88,401.79l-.05,4.99c.9-1.57,1.05-2.97.96-3.42-.2-.95-.74-1.49-.91-1.57Z"/>
      </g>
      <g>
        <path class="cls-3" d="M20.75,417.71c-.19,0-.35.05-.49.12-.33.16-.58.48-.53.94.47,4.37,1.51,11.52,7.39,11.08.43-.03.69-.44.77-.81,1.01-4.64-1.72-11.28-7.15-11.33ZM26.18,428.02c-3.34-.31-4.13-5.15-4.49-8.31,3.33.83,4.84,5.02,4.49,8.31Z"/>
        <path class="cls-3" d="M24.67,441.33c-5.98-.65-10.99-4.37-13.76-10.36-1.71-3.69-2.31-7.61-2.67-10.95-.56-5.15,2.13-10.1,6.7-12.46,1.82-.95,3.86-1.44,5.92-1.42,5.51.05,10.5,2.53,14.04,6.98,4.02,5.04,5.66,12.08,4.29,18.38-1.2,5.49-5.7,9.47-11.21,9.88-1.13.08-2.24.07-3.32-.05ZM16.54,426.97c0,.07,0,.11,0,.13.14.51,1.21,1.59,2.82,2l.44-1.78-3.26-.35ZM27.08,418.33l-.07.78,2.11-.24c-.63-.28-1.32-.48-2.04-.54Z"/>
      </g>
      <g>
        <path class="cls-3" d="M-3.79,386.2c-1.01,3.56,4.92,4.57,7.26,4.47,3.72-.15,7.64-2.16,9.3-5.62,1.36-2.83-.35-7.8-4.16-5.67-.02,0-.03.02-.05.03-.11.06-.22.14-.32.26-2.08,2.59-5.08,3.48-8.23,3.96-1.6.24-3.31.81-3.8,2.55ZM2.25,385.19c.87-.18,1.74-.46,2.56-.8,1.79-.74,3.35-1.8,4.62-3.25.71.59,1.42,1.18,2.13,1.78-.25.62-.5,1.25-.75,1.87-.33.54-.78,1.06-1.23,1.5-.97.93-2.16,1.59-3.42,2.01-1.15.39-2.36.59-3.58.52-.71-.04-3.77-.36-4.02-1.18-.27-.91,1.48-2.02,2.14-2.22.48-.14,1.05-.13,1.54-.23Z"/>
        <path class="cls-3" d="M.51,402.09c-3.69-.4-9.31-1.82-12.98-6.48-2.81-3.57-3.7-8.15-2.45-12.56,0,0,0,0,0,0,.79-2.77,3.65-9.37,13.19-10.83.71-.11,1.14-.21,1.39-.28.85-.96,1.84-1.77,2.93-2.42.13-.08.25-.15.38-.22,5.71-3.2,12.37-2.49,16.96,1.82,4.94,4.65,6.32,12.62,3.27,18.96-3.4,7.06-10.96,11.83-19.27,12.15-.55.02-1.8.04-3.41-.14ZM2.76,379.41l1.85.74c-.63-.54-1.2-.86-1.56-1.01-.07.05-.17.14-.29.28Z"/>
      </g>
      <g>
        <path class="cls-3" d="M-6.43,373.67c4.19.46,8.72-.34,10.72-4.52,1.77-3.68-2.27-4.85-5.19-4.01-1.91.2-3.79.2-5.68-.13-1.28-.22-2.67-1-3.98-.98-1.16.01-2.71.69-3.24,1.77-2.16,4.39,4.12,7.52,7.36,7.87ZM-11.37,366.12c.83-.54,3.09.45,4.06.64,2.12.41,4.23.43,6.36.24.1.01.22,0,.34-.03.11-.01.2-.04.29-.08,1.34-.35,3.52-.68,2.58,2.03-.29.83-1.85,2.04-2.51,2.36-2.29,1.12-6.52.92-8.82-.11-1.32-.53-2.26-1.43-2.83-2.69.17-.79.35-1.57.52-2.36Z"/>
        <path class="cls-3" d="M-7.7,385.17c-5.61-.61-12.79-4-16.19-10.19-2.46-4.47-2.56-9.68-.28-14.29,2.77-5.61,8.77-8.17,13.49-8.22,2.74-.03,4.9.7,6.2,1.14.06.02.12.04.18.06.46.05.98.06,1.56.03,6.06-1.26,12.15.6,15.79,4.92,3.59,4.26,4.22,10.21,1.66,15.55-3.84,8-12.21,12.11-22.39,11.01h-.02ZM-5.28,363.01c-.33.3-.64.69-.86,1.14-.28.58-.49,1.27-.61,2.02l1.18-.53.29-2.63ZM-5.28,363.01l-.29,2.63,2.31-1.04c-.36-.91-.84-1.65-1.33-2.11-.22.13-.46.31-.69.52Z"/>
      </g>
      <g>
        <path class="cls-3" d="M34.6,394.67c-1.87-2.51-5.53-6.92-9.07-4.2-1.46,1.12-2.11,3.46-2.79,5.08-1.06,2.51-2.13,5.1-4.5,6.53-.07-.79-.2-1.6-.41-2.45-.95-3.77-.77-6.6.45-10.32.63-1.91,1.3-3.81,1.47-5.83.31-3.82-1.26-7.05-4.85-8.59-1.55-.67-3.86-1.43-6.01-1.52,1.64-4.85,1.89-11.88-5.04-11.82-1.53.01-3.02.42-4.54.58-2.74.28-4.35-.77-6.53-2.28-1.88-1.31-3.97-2.38-6.27-1.45-5.45,2.21-6.34,11.09-7.03,16-1.17,8.3-1.93,16.46-7.43,22.88-.13-2.29-.63-4.48-1.76-6.42-.42-.73-.99-1.4-1.64-1.98,2.91-5.44,8.93-10.12,6.61-16.88-2.15-6.27-9.13-9.23-15.36-8.93-6.58.32-12.07,4.37-12.6,11.2-.31,4.06.82,8.1.37,12.15-.44,3.93-2.33,7.41-4.47,10.69-.04-2.35-.55-4.55-2.4-6.41-4.06-4.09-14.26-5.71-18.65-1.46-6.81,6.58,1.68,15.89,4.28,22.11,3.62,8.67,3.51,18.49,9.1,26.37,5.4,7.6,14.26,12.32,23.55,12.68.23,0,.43-.06.58-.17,1.23.8,2.53,1.52,3.84,2.18,3.11,1.56,7.31,3.64,9.8,0,0-.01.02-.03.03-.04,4.92,5.7,15.52,2.98,20.87-.54,4.47-2.94,7.92-7.1,12.04-10.47,2.16-1.76,4.51-3.36,7.17-4.27,3.36-1.15,6.95-1,10.41-1.63,3.71-.67,7.83-2.51,9.31-6.26,1.66-4.21-1.08-8.32-3.82-11.34-.43-.48-.9-.96-1.4-1.42,1.85-2.69,4.11-4.75,6.96-6.38,1.51-.86,3-1.62,3.76-3.28,1.85-4.02-1.78-9.02-4.05-12.08ZM9.51,375.44c2.42.22,5.66.98,7.24,2.99,3.1,3.94-.3,9.58-1.23,13.65-1.04,4.52,1.65,8.31,1.08,12.7-.57,4.45-3.72,10.1-6.52,13.5-2.12,2.57-4.76,4.41-5.68,7.68-3.42.85-6.95,1.26-10.29,2.54-3.15,1.21-5.18,3.21-6.43,5.84-.06-1.43-.03-2.85.22-4.26,1.01-5.62,4.63-10.7,9.69-13.37,3.67-1.94,7.8-3.22,8.83-7.78.77-3.43-.79-6.94-3.81-8.72-1.72-1.01-3.53-1.15-5.49-1.13.09-3.18-.87-6.07-2.92-8.59-1.12-1.39-2.78-2.73-3.38-4.46-1.4-4.05,3.32-4.49,5.93-4.56,2.44-.06,5.25-.02,7.08-1.92,1.86-1.93,2.01-4.47,5.68-4.13ZM-25.72,450.49s.03-.1.05-.15c2.11-.1,3.67-1.47,4.37-3.52,1.01-2.97-.55-5.73-2.29-8.06-1.96-2.64-3.6-5.2-4.72-8.12.3-5.28,1.3-10.47,2.89-15.51,1.56-4.96,3.54-10.44,6.58-14.7,1.18-1.65,2.86-3.59,5.18-3.31,1.98.24,2.14,1.39,3.31,2.4,1.3,1.12,2.85,1.43,4.52,1.5,2.86.12,5.78-.65,8.23,1.29,3.32,2.63,2.94,7.44-.26,9.95-1.86,1.46-4.28,2.12-6.3,3.32-1.76,1.04-3.32,2.35-4.69,3.86-2.73,3.03-4.56,6.85-5.16,10.89-.74,5.03,1.44,10.61-.49,15.42-1.65,4.1-7.31,7.88-11.22,4.73ZM-20.53,386.49c1.5-6.28,1.48-12.84,3.25-19.06.83-2.92,2.16-7.33,5.75-7.31,2.82.01,4.56,2.78,7.16,3.62,2.21.71,4.43.07,6.65-.19,2.3-.26,4.26-.12,5.56,2.17,1.19,2.1-.03,5.12-.76,7.2-.07.21-.07.4-.02.57-.9.17-1.71.52-2.35,1.13-.95.92-1.08,2.26-1.88,3.27-.82,1.04-2.09,1.42-3.33,1.62-2.12.35-4.28-.06-6.39.47-2.87.73-5.08,2.99-4.23,6.11.53,1.94,2.06,3.44,3.32,4.92,2.07,2.45,3.19,4.99,3.06,8.16-.85.04-1.71.03-2.51-.2-1.59-.46-2.24-1.63-3.46-2.6-2.86-2.29-6.58-.71-8.7,1.76-3.57,4.17-5.7,10.18-7.4,15.31-1.3,3.91-2.27,7.93-2.84,12-.58-3.78-.53-7.63-.22-11.44.34-4.21,1.69-9.25,1.93-14.03,3.78-3.76,6.17-8.27,7.42-13.49ZM-29.93,399.42c-.1.21-.11.44-.05.65-.17,1.79-.48,3.55-.71,5.14-1.07,7.38-2.04,15.1-.44,22.47.68,3.15,1.85,6.18,3.62,8.88,1.01,1.55,2.28,2.91,3.28,4.46,1.17,1.82,2.54,6.99-.97,7.45.25-1.66.03-3.32-1.14-4.24-.12-.22-.34-.37-.69-.36-5.85.13-8.58-6.7-9.36-11.45-.67-4.04-.83-8.3-2.92-11.94-.34-.59-.75-1.17-1.21-1.72.95-3.96,1.56-7.96,1.35-12.05-.22-4.38-2.13-8.43-2.38-12.76-.39-6.62,6.84-7.12,10-2.59,1.6,2.29,1.82,5.17,1.62,8.03ZM-50.38,384.61c.06-6.89-2.54-15.37,5.66-18.68,6.39-2.58,15.82-.35,18.23,6.73,1.93,5.69-3.61,10.42-6.34,15.13-3.2-1.92-7.49-2.06-9.61,1.54-2.36,3.99.04,8.9.86,12.97,1.01,5.02.6,10-.46,14.93-1.77-1.55-3.96-2.71-6.13-3.11-1.56-.29-3.39.08-4.59,1.1-3.21-4.26-4.59-9.22-4.2-14.54,3.34-4.86,6.54-9.96,6.59-16.06ZM-64.59,434.04c-4.9-8.93-4.58-19.55-9.88-28.41-2.41-4.04-6.24-10.2-2.45-14.7,3.19-3.78,11.68-2.32,15.27.13,3.18,2.18,3.15,5.5,2.92,8.88-.2.31-.19.63-.06.89-.09,1.34-.18,2.67-.06,3.94.41,4.44,2.2,8.54,4.95,12.02,0,.01.02.02.03.03-.09.27-.15.56-.17.86-.05.6.21,1.01.25,1.55.18,2.16.05,2.37-1.35,3.37-1.08.77-1.95,1.54-2.3,2.88-.88,3.44,1.79,6.02,4.07,8.1,3.66,3.34,4.79,7.72,7.6,11.63.85,1.18,1.85,2.22,2.95,3.15-9-1.02-17.37-6.29-21.77-14.33ZM-27.23,448.58c-.47,2.32-1.81,4.29-4.58,3.8-2.09-.36-4.63-1.97-6.41-3.02-4.24-2.52-6.56-5.8-8.71-10.13-1.57-3.17-3.45-5.36-6.02-7.74-2.3-2.12-4.06-4.92-1.02-7.43.91-.75,2-1.14,2.42-2.34.19-.56.16-.88.09-1.42-.18-1.4-.6-1.13.11-2.82.27-1.86,1.46-2.32,3.57-1.37.48.16.94.35,1.39.58,1.45.68,2.88,1.58,4,2.73.06.14.17.24.3.32,2.87,3.25,3.12,7.89,3.72,11.97.85,5.7,3.89,13.97,10.9,14.02.76.71.42,2.01.25,2.86ZM30.9,429.46c-2.79,4.41-8.77,4.28-13.33,4.86-8.23,1.03-13.42,6.46-19.24,11.82-3.5,3.22-7.29,6.08-12.03,7.07-2.2.46-4.87.71-7.25.21,3.98-.8,7.72-4.57,8.65-8.44.47-1.97.45-3.96.32-5.96.13-.13.24-.3.28-.52.93-4.83,3.72-7.61,8.53-8.87,3.39-.89,6.86-1.25,10.19-2.39,3.03-1.04,5.99-2.58,8.2-4.95.95-1.02,1.65-2.16,2.3-3.38.68-1.3.97-2.16,2.3-2.96,1.83-1.1,3.66-.65,5.39.56,3.63,2.54,8.57,8.46,5.71,12.98ZM36.64,406.56c-.68.95-1.9,1.4-2.86,1.97-2.95,1.75-5.33,3.89-7.28,6.69-2.15-1.6-4.7-2.57-7.33-1.32-1.56.73-2.3,2.08-3.05,3.56-1.4,2.76-3.2,4.83-5.93,6.35-1.18.66-2.4,1.15-3.64,1.55.95-2.06,2.84-3.49,4.35-5.19,1.64-1.85,2.9-3.96,4.02-6.16,1.73-3.41,3.14-6.46,3.35-9.85.02,0,.03,0,.05-.02,2.49-1.16,3.97-3.17,5.14-5.6.73-1.51,1.28-3.1,1.98-4.61.23-1.44,1.08-1.97,2.54-1.59,1.27-.55,2.27-.26,3,.87.67.68,1.29,1.47,1.87,2.23,1.34,1.75,2.67,3.67,3.54,5.7.7,1.64,1.45,3.73.25,5.42Z"/>
        <path class="cls-3" d="M-32.36,465.88c-.23-.03-.46-.06-.69-.09-3.6-.54-6.62-2.05-8.62-3.06-.61-.31-1.2-.62-1.77-.92-.27-.02-.54-.05-.81-.08-11.83-1.29-22.75-7.63-29.63-17.33-4.7-6.61-6.35-13.63-7.81-19.81-.76-3.22-1.47-6.25-2.53-8.79-.33-.78-1.1-2.14-1.86-3.46-1.87-3.28-4.21-7.36-5.29-12.01-1.73-7.42.22-14.31,5.49-19.41,5.58-5.4,13.96-6.69,21.56-5.15,0-.77.03-1.56.09-2.38.94-12.25,10.63-21.25,23.57-21.87,5.17-.25,10.14.84,14.41,2.96,1.97-2.84,4.67-5.29,8.41-6.81,5.61-2.28,11.41-1.38,17.23,2.68.02.02.05.03.08.06,1.13-.19,2.59-.41,4.28-.42,5.98-.05,11.06,2.39,14.29,6.85,1.71,2.36,2.77,5.18,3.18,8.28,5.17,2.82,8.6,7.56,9.73,13.24,6.21,1.25,10.33,5.92,12.92,9.4,0,0,0,0,0,0,2.75,3.69,10.04,13.48,5.29,23.82-1.52,3.31-3.77,5.39-5.72,6.76,2.69,6.12,1.93,11.35.46,15.07-2.73,6.94-9.3,11.83-18.01,13.41-1.76.32-3.41.48-4.86.62-1.56.15-3.04.29-3.86.57-.93.32-2.11,1.07-3.6,2.29-1.28,1.05-2.61,2.31-4.01,3.65-2.54,2.42-5.42,5.17-8.99,7.53-4.52,2.97-10.26,5-15.77,5.57-4.38.45-8.44-.03-12-1.39-1.66.33-3.39.41-5.17.22Z"/>
      </g>
      <g>
        <path class="cls-3" d="M30.74,394.17c-1.55-1.3-3.89-1.91-4.57.31-.06.11-.1.24-.1.41-.03.15-.02.29.01.4.03,3.2,1.23,6.25,3.55,8.5.9.88,2.37,2.22,3.76,1.95,1.45-.28,1.61-1.91,1.57-3.11-.11-2.91-1.98-6.59-4.22-8.46ZM31.29,402.81c-.64-.56-1.21-1.22-1.68-1.92-1.15-1.72-1.73-3.74-1.69-5.8.21-1.12,2.64,1.63,2.83,1.92,1.06,1.6,2.7,4.06,2.37,6.1-.2,1.29-1.18.27-1.84-.3Z"/>
        <path class="cls-3" d="M31.51,417.28c-3.45-.38-6.78-2.12-9.95-5.2-4.3-4.19-6.78-9.82-7.03-15.93-.07-.81-.06-1.63.03-2.45.11-1.16.39-2.3.81-3.37,1.49-4.04,4.72-7.12,8.76-8.32,4.65-1.38,9.89-.15,14.02,3.29h0c4.77,3.99,8.13,10.78,8.36,16.9.33,8.76-5.24,13.79-10.92,14.9-1.38.27-2.74.33-4.09.18ZM23.41,403.11c1.61,1.29,4.09,1.76,6.52,1.26l1.35-1.56-1.35,1.56c.27-.05.53-.12.8-.2,2.85-.85,5.18-2.95,6.24-5.58.2-.56.36-1.13.47-1.71l-.89-.17-5.28,6.09,5.27-6.09-7.86-1.48c-3.56,1.77-5.38,5.44-5.29,7.84,0,.01,0,.03,0,.04ZM23.33,403.05h0s0,0,0,0ZM36.33,400.02s0,0,0,.01c0,0,0,0,0-.01ZM36.33,400s0,0,0,0c0,0,0,0,0,0ZM37.23,397.86s0,0,0,.01c0,0,0,0,0-.01ZM37.44,396.99s0,0,0,.01c0,0,0,0,0-.01ZM34.04,394.27c-.85-.09-1.81-.08-2.85.13-.8.16-1.54.4-2.22.71l8.3.16c-.71-.4-1.82-.85-3.22-1Z"/>
      </g>
    </g>
    <g>
      <path class="cls-1" d="M-6,413.36c2.98.03,8.45-3.78,7.08-7.32-.64-1.67-2.69-1.86-4.22-1.89-3.77-.08-6.62-.21-8.94-3.62-.04-.16-.14-.31-.3-.42-.19-.19-.42-.25-.65-.21-3.47-.74-3.83,3.06-3.26,5.81.96,4.61,5.66,7.6,10.29,7.65ZM-12.37,409.1c-1.31-1.04-1.86-2.35-2.15-3.94-.16-.87-.7-3.76.98-3.48,1.43,2.11,3.56,3.84,6.14,4.27,1.86.31,8.61-1.01,5.97,2.75-2.73,3.88-7.5,3.12-10.93.4Z"/>
      <path class="cls-1" d="M20.75,417.71c-.19,0-.35.05-.49.12-.33.16-.58.48-.53.94.47,4.37,1.51,11.52,7.39,11.08.43-.03.69-.44.77-.81,1.01-4.64-1.72-11.28-7.15-11.33ZM26.18,428.02c-3.34-.31-4.13-5.15-4.49-8.31,3.33.83,4.84,5.02,4.49,8.31Z"/>
      <path class="cls-1" d="M-3.79,386.2c-1.01,3.56,4.92,4.57,7.26,4.47,3.72-.15,7.64-2.16,9.3-5.62,1.36-2.83-.35-7.8-4.16-5.67-.02,0-.03.02-.05.03-.11.06-.22.14-.32.26-2.08,2.59-5.08,3.48-8.23,3.96-1.6.24-3.31.81-3.8,2.55ZM2.25,385.19c.87-.18,1.74-.46,2.56-.8,1.79-.74,3.35-1.8,4.62-3.25.71.59,1.42,1.18,2.13,1.78-.25.62-.5,1.25-.75,1.87-.33.54-.78,1.06-1.23,1.5-.97.93-2.16,1.59-3.42,2.01-1.15.39-2.36.59-3.58.52-.71-.04-3.77-.36-4.02-1.18-.27-.91,1.48-2.02,2.14-2.22.48-.14,1.05-.13,1.54-.23Z"/>
      <path class="cls-1" d="M-6.43,373.67c4.19.46,8.72-.34,10.72-4.52,1.77-3.68-2.27-4.85-5.19-4.01-1.91.2-3.79.2-5.68-.13-1.28-.22-2.67-1-3.98-.98-1.16.01-2.71.69-3.24,1.77-2.16,4.39,4.12,7.52,7.36,7.87ZM-11.37,366.12c.83-.54,3.09.45,4.06.64,2.12.41,4.23.43,6.36.24.1.01.22,0,.34-.03.11-.01.2-.04.29-.08,1.34-.35,3.52-.68,2.58,2.03-.29.83-1.85,2.04-2.51,2.36-2.29,1.12-6.52.92-8.82-.11-1.32-.53-2.26-1.43-2.83-2.69.17-.79.35-1.57.52-2.36Z"/>
      <path class="cls-1" d="M34.6,394.67c-1.87-2.51-5.53-6.92-9.07-4.2-1.46,1.12-2.11,3.46-2.79,5.08-1.06,2.51-2.13,5.1-4.5,6.53-.07-.79-.2-1.6-.41-2.45-.95-3.77-.77-6.6.45-10.32.63-1.91,1.3-3.81,1.47-5.83.31-3.82-1.26-7.05-4.85-8.59-1.55-.67-3.86-1.43-6.01-1.52,1.64-4.85,1.89-11.88-5.04-11.82-1.53.01-3.02.42-4.54.58-2.74.28-4.35-.77-6.53-2.28-1.88-1.31-3.97-2.38-6.27-1.45-5.45,2.21-6.34,11.09-7.03,16-1.17,8.3-1.93,16.46-7.43,22.88-.13-2.29-.63-4.48-1.76-6.42-.42-.73-.99-1.4-1.64-1.98,2.91-5.44,8.93-10.12,6.61-16.88-2.15-6.27-9.13-9.23-15.36-8.93-6.58.32-12.07,4.37-12.6,11.2-.31,4.06.82,8.1.37,12.15-.44,3.93-2.33,7.41-4.47,10.69-.04-2.35-.55-4.55-2.4-6.41-4.06-4.09-14.26-5.71-18.65-1.46-6.81,6.58,1.68,15.89,4.28,22.11,3.62,8.67,3.51,18.49,9.1,26.37,5.4,7.6,14.26,12.32,23.55,12.68.23,0,.43-.06.58-.17,1.23.8,2.53,1.52,3.84,2.18,3.11,1.56,7.31,3.64,9.8,0,0-.01.02-.03.03-.04,4.92,5.7,15.52,2.98,20.87-.54,4.47-2.94,7.92-7.1,12.04-10.47,2.16-1.76,4.51-3.36,7.17-4.27,3.36-1.15,6.95-1,10.41-1.63,3.71-.67,7.83-2.51,9.31-6.26,1.66-4.21-1.08-8.32-3.82-11.34-.43-.48-.9-.96-1.4-1.42,1.85-2.69,4.11-4.75,6.96-6.38,1.51-.86,3-1.62,3.76-3.28,1.85-4.02-1.78-9.02-4.05-12.08ZM9.51,375.44c2.42.22,5.66.98,7.24,2.99,3.1,3.94-.3,9.58-1.23,13.65-1.04,4.52,1.65,8.31,1.08,12.7-.57,4.45-3.72,10.1-6.52,13.5-2.12,2.57-4.76,4.41-5.68,7.68-3.42.85-6.95,1.26-10.29,2.54-3.15,1.21-5.18,3.21-6.43,5.84-.06-1.43-.03-2.85.22-4.26,1.01-5.62,4.63-10.7,9.69-13.37,3.67-1.94,7.8-3.22,8.83-7.78.77-3.43-.79-6.94-3.81-8.72-1.72-1.01-3.53-1.15-5.49-1.13.09-3.18-.87-6.07-2.92-8.59-1.12-1.39-2.78-2.73-3.38-4.46-1.4-4.05,3.32-4.49,5.93-4.56,2.44-.06,5.25-.02,7.08-1.92,1.86-1.93,2.01-4.47,5.68-4.13ZM-25.72,450.49s.03-.1.05-.15c2.11-.1,3.67-1.47,4.37-3.52,1.01-2.97-.55-5.73-2.29-8.06-1.96-2.64-3.6-5.2-4.72-8.12.3-5.28,1.3-10.47,2.89-15.51,1.56-4.96,3.54-10.44,6.58-14.7,1.18-1.65,2.86-3.59,5.18-3.31,1.98.24,2.14,1.39,3.31,2.4,1.3,1.12,2.85,1.43,4.52,1.5,2.86.12,5.78-.65,8.23,1.29,3.32,2.63,2.94,7.44-.26,9.95-1.86,1.46-4.28,2.12-6.3,3.32-1.76,1.04-3.32,2.35-4.69,3.86-2.73,3.03-4.56,6.85-5.16,10.89-.74,5.03,1.44,10.61-.49,15.42-1.65,4.1-7.31,7.88-11.22,4.73ZM-20.53,386.49c1.5-6.28,1.48-12.84,3.25-19.06.83-2.92,2.16-7.33,5.75-7.31,2.82.01,4.56,2.78,7.16,3.62,2.21.71,4.43.07,6.65-.19,2.3-.26,4.26-.12,5.56,2.17,1.19,2.1-.03,5.12-.76,7.2-.07.21-.07.4-.02.57-.9.17-1.71.52-2.35,1.13-.95.92-1.08,2.26-1.88,3.27-.82,1.04-2.09,1.42-3.33,1.62-2.12.35-4.28-.06-6.39.47-2.87.73-5.08,2.99-4.23,6.11.53,1.94,2.06,3.44,3.32,4.92,2.07,2.45,3.19,4.99,3.06,8.16-.85.04-1.71.03-2.51-.2-1.59-.46-2.24-1.63-3.46-2.6-2.86-2.29-6.58-.71-8.7,1.76-3.57,4.17-5.7,10.18-7.4,15.31-1.3,3.91-2.27,7.93-2.84,12-.58-3.78-.53-7.63-.22-11.44.34-4.21,1.69-9.25,1.93-14.03,3.78-3.76,6.17-8.27,7.42-13.49ZM-29.93,399.42c-.1.21-.11.44-.05.65-.17,1.79-.48,3.55-.71,5.14-1.07,7.38-2.04,15.1-.44,22.47.68,3.15,1.85,6.18,3.62,8.88,1.01,1.55,2.28,2.91,3.28,4.46,1.17,1.82,2.54,6.99-.97,7.45.25-1.66.03-3.32-1.14-4.24-.12-.22-.34-.37-.69-.36-5.85.13-8.58-6.7-9.36-11.45-.67-4.04-.83-8.3-2.92-11.94-.34-.59-.75-1.17-1.21-1.72.95-3.96,1.56-7.96,1.35-12.05-.22-4.38-2.13-8.43-2.38-12.76-.39-6.62,6.84-7.12,10-2.59,1.6,2.29,1.82,5.17,1.62,8.03ZM-50.38,384.61c.06-6.89-2.54-15.37,5.66-18.68,6.39-2.58,15.82-.35,18.23,6.73,1.93,5.69-3.61,10.42-6.34,15.13-3.2-1.92-7.49-2.06-9.61,1.54-2.36,3.99.04,8.9.86,12.97,1.01,5.02.6,10-.46,14.93-1.77-1.55-3.96-2.71-6.13-3.11-1.56-.29-3.39.08-4.59,1.1-3.21-4.26-4.59-9.22-4.2-14.54,3.34-4.86,6.54-9.96,6.59-16.06ZM-64.59,434.04c-4.9-8.93-4.58-19.55-9.88-28.41-2.41-4.04-6.24-10.2-2.45-14.7,3.19-3.78,11.68-2.32,15.27.13,3.18,2.18,3.15,5.5,2.92,8.88-.2.31-.19.63-.06.89-.09,1.34-.18,2.67-.06,3.94.41,4.44,2.2,8.54,4.95,12.02,0,.01.02.02.03.03-.09.27-.15.56-.17.86-.05.6.21,1.01.25,1.55.18,2.16.05,2.37-1.35,3.37-1.08.77-1.95,1.54-2.3,2.88-.88,3.44,1.79,6.02,4.07,8.1,3.66,3.34,4.79,7.72,7.6,11.63.85,1.18,1.85,2.22,2.95,3.15-9-1.02-17.37-6.29-21.77-14.33ZM-27.23,448.58c-.47,2.32-1.81,4.29-4.58,3.8-2.09-.36-4.63-1.97-6.41-3.02-4.24-2.52-6.56-5.8-8.71-10.13-1.57-3.17-3.45-5.36-6.02-7.74-2.3-2.12-4.06-4.92-1.02-7.43.91-.75,2-1.14,2.42-2.34.19-.56.16-.88.09-1.42-.18-1.4-.6-1.13.11-2.82.27-1.86,1.46-2.32,3.57-1.37.48.16.94.35,1.39.58,1.45.68,2.88,1.58,4,2.73.06.14.17.24.3.32,2.87,3.25,3.12,7.89,3.72,11.97.85,5.7,3.89,13.97,10.9,14.02.76.71.42,2.01.25,2.86ZM30.9,429.46c-2.79,4.41-8.77,4.28-13.33,4.86-8.23,1.03-13.42,6.46-19.24,11.82-3.5,3.22-7.29,6.08-12.03,7.07-2.2.46-4.87.71-7.25.21,3.98-.8,7.72-4.57,8.65-8.44.47-1.97.45-3.96.32-5.96.13-.13.24-.3.28-.52.93-4.83,3.72-7.61,8.53-8.87,3.39-.89,6.86-1.25,10.19-2.39,3.03-1.04,5.99-2.58,8.2-4.95.95-1.02,1.65-2.16,2.3-3.38.68-1.3.97-2.16,2.3-2.96,1.83-1.1,3.66-.65,5.39.56,3.63,2.54,8.57,8.46,5.71,12.98ZM36.64,406.56c-.68.95-1.9,1.4-2.86,1.97-2.95,1.75-5.33,3.89-7.28,6.69-2.15-1.6-4.7-2.57-7.33-1.32-1.56.73-2.3,2.08-3.05,3.56-1.4,2.76-3.2,4.83-5.93,6.35-1.18.66-2.4,1.15-3.64,1.55.95-2.06,2.84-3.49,4.35-5.19,1.64-1.85,2.9-3.96,4.02-6.16,1.73-3.41,3.14-6.46,3.35-9.85.02,0,.03,0,.05-.02,2.49-1.16,3.97-3.17,5.14-5.6.73-1.51,1.28-3.1,1.98-4.61.23-1.44,1.08-1.97,2.54-1.59,1.27-.55,2.27-.26,3,.87.67.68,1.29,1.47,1.87,2.23,1.34,1.75,2.67,3.67,3.54,5.7.7,1.64,1.45,3.73.25,5.42Z"/>
      <path class="cls-1" d="M30.74,394.17c-1.55-1.3-3.89-1.91-4.57.31-.06.11-.1.24-.1.41-.03.15-.02.29.01.4.03,3.2,1.23,6.25,3.55,8.5.9.88,2.37,2.22,3.76,1.95,1.45-.28,1.61-1.91,1.57-3.11-.11-2.91-1.98-6.59-4.22-8.46ZM31.29,402.81c-.64-.56-1.21-1.22-1.68-1.92-1.15-1.72-1.73-3.74-1.69-5.8.21-1.12,2.64,1.63,2.83,1.92,1.06,1.6,2.7,4.06,2.37,6.1-.2,1.29-1.18.27-1.84-.3Z"/>
    </g>
  </g>
  <g>
    <path class="cls-4" d="M322.56,497.45l-.77-.68c-1.2-1.06-3.29-1.02-4.33.27-1.04,1.3-1.02,3.19.27,4.33l.77.68c1.2,1.06,3.29,1.02,4.33-.27,1.04-1.3,1.02-3.19-.27-4.33h0Z"/>
    <path class="cls-4" d="M293.61,497.84c2.96,2.61,7.02-1.99,4.06-4.6s-7.02,1.99-4.06,4.6h0Z"/>
    <path class="cls-4" d="M268.1,506.88c.48-.03.96-.06,1.44-.09,1.65-.1,2.97-1.6,2.87-3.26-.11-1.66-1.6-2.97-3.26-2.87-.48.03-.96.06-1.44.09-1.65.1-2.97,1.6-2.87,3.26.11,1.66,1.6,2.97,3.26,2.87h0Z"/>
    <path class="cls-4" d="M267.03,535.76c2.96,2.61,7.02-1.99,4.06-4.6-2.96-2.61-7.02,1.99-4.06,4.6h0Z"/>
    <path class="cls-4" d="M294.59,524.76c.48-.03.96-.06,1.44-.09,1.65-.1,2.97-1.6,2.87-3.26-.11-1.66-1.6-2.97-3.26-2.87l-1.44.09c-1.65.1-2.97,1.6-2.87,3.26.11,1.66,1.6,2.97,3.26,2.87h0Z"/>
    <path class="cls-4" d="M300.16,555.39c2.96,2.61,7.02-1.99,4.06-4.6s-7.02,1.99-4.06,4.6h0Z"/>
    <path class="cls-4" d="M318.59,537.56c2.96,2.61,7.02-1.99,4.06-4.6-2.96-2.61-7.02,1.99-4.06,4.6h0Z"/>
    <path class="cls-4" d="M317.93,561.51c2.96,2.61,7.02-1.99,4.06-4.6-2.96-2.61-7.02,1.99-4.06,4.6h0Z"/>
    <path class="cls-4" d="M311.04,521.37c2.96,2.61,7.02-1.99,4.06-4.6-2.96-2.61-7.02,1.99-4.06,4.6h0Z"/>
    <path class="cls-4" d="M302.13,540.77c2.96,2.61,7.02-1.99,4.06-4.6s-7.02,1.99-4.06,4.6h0Z"/>
    <path class="cls-4" d="M281.03,550.81l.77.68c1.2,1.06,3.29,1.02,4.33-.27,1.04-1.3,1.02-3.19-.27-4.33l-.77-.68c-1.2-1.06-3.29-1.02-4.33.27-1.04,1.3-1.02,3.19.27,4.33h0Z"/>
    <path class="cls-4" d="M273.92,518.65l.77.68c1.2,1.06,3.29,1.02,4.33-.27,1.04-1.3,1.02-3.19-.27-4.33l-.77-.68c-1.2-1.06-3.29-1.02-4.33.27-1.04,1.3-1.02,3.19.27,4.33h0Z"/>
    <path class="cls-4" d="M254.75,524.94l.68-.77c1.06-1.2,1.02-3.29-.27-4.33-1.3-1.04-3.19-1.02-4.33.27l-.68.77c-1.06,1.2-1.02,3.29.27,4.33,1.3,1.04,3.19,1.02,4.33-.27h0Z"/>
    <path class="cls-4" d="M301.04,489.4c2.96,2.61,7.02-1.99,4.06-4.6-2.96-2.61-7.02,1.99-4.06,4.6h0Z"/>
  </g>
</svg>