<svg xmlns="http://www.w3.org/2000/svg" viewBox="0 0 1119.22 279.37"><title>hackpompey--7_1</title><path d="M76,277.21H50.4l-11.88-11.7v11.7H12.78L0,264.61V124.22H25.92l11.52,12.42V124.22H63.36l12.64,13Zm-14.8-14.4V126.38H39.6v58H23.76v-58H2.16V262.45h21.6V201.62H39.6v61.2Z" style="fill:#3fc"/><path d="M172.62,277.39H146l-12.6-12.78-.54-6.48h-1.08l-1.44,19.26h-22.5L95.4,264.61l18.18-140.39h27.54L153.72,137Zm-15.3-14.94-18-136.07H115.38L97.92,262.45h17.82l1.8-19.26h16l1.8,19.26ZM131.4,226.1H119.16l7-68.22Z" style="fill:#3fc"/><path d="M230.76,279.37c-14.58,0-19.8-4.32-34.92-20.34-4.86-5.22-7.74-12.06-7.74-22.68V153c0-20.52,11.52-31.14,29.7-31.14,7.2,0,13.68,1.44,18.54,5,14.94,11.16,22.5,19.44,22.5,39.24a139.1,139.1,0,0,1-1.62,19.8L236.7,184.7l-9.9-10.44v41.4l18-1.26L257.4,227a183.39,183.39,0,0,1,1.44,20.16C258.84,269.47,247,279.37,230.76,279.37ZM243,216.56l-16.2,1.26a116.71,116.71,0,0,1,1.08,13.86c0,13-2.7,16.92-7.74,16.92-6.3,0-8.1-3.78-8.1-10.26v-88.2c0-7.38,2.16-9.9,7.38-9.9,5.4,0,8.46,2.88,8.46,15.84a103.3,103.3,0,0,1-1.08,13.86l16,1.26a144.23,144.23,0,0,0,1.26-17.82c0-24.12-11-29.34-26.28-29.34-16.92,0-27.54,9.54-27.54,29v83.34c0,19.62,10.62,28.26,27.9,28.26,15.12,0,26.1-5.4,26.1-30.06A127.48,127.48,0,0,0,243,216.56Z" style="fill:#3fc"/><path d="M359.46,277.39H330.84L318.6,265v12.42H292.5l-12.6-12.78V124.22H306l9,9.9,3.42-9.9H343.8l11.52,11.88L337.5,188.66Zm-16.38-14.58L322.2,175.7l18.54-49.32H320.22l-16,45h-.36v-45h-21.8V262.81h21.78V216l4.86-12.6,11.88,59.4Z" style="fill:#3fc"/><path d="M493.55,158.06h-18.9V277.21H448.73L436,264.61V158.06h-6l-12.78-12.6V124.22H481l12.6,13ZM478.79,143.3V126.38H419.4V143.3h18.72V262.81H459.9V143.3Z" style="fill:#3fc"/><path d="M590,277.21H564.47l-11.88-11.7v11.7H526.86l-12.78-12.6V124.22H540l11.52,12.42V124.22h25.92l12.6,13Zm-14.76-14.4V126.38h-21.6v58H537.83v-58h-21.6V262.45h21.6V201.62h15.84v61.2Z" style="fill:#3fc"/><path d="M677.15,277.21H626l-12.42-12.6V124.22h50.58L676.76,137v21.06H652.31v23.58H660l12.6,13v21.24H652.31v27.5h12.06l12.78,12.78Zm-14.94-14.76V245.53H637.55V201.08h20.34V183.8H637.55V143.3H662V126.38H615.78V262.45Z" style="fill:#3fc"/><path d="M819.71,277.21H794.15l-11.88-11.7v11.7H756.53l-12.78-12.6V124.22h25.92l11.52,12.42V124.22h25.92l12.6,13ZM805,262.81V126.38h-21.6v58H767.51v-58h-21.6V262.45h21.6V201.62h15.84v61.2Z" style="fill:#3fc"/><path d="M916.55,246.07c0,23.4-14.22,33.3-30.78,33.3-12.78,0-19.08-2.52-36.54-21.78-4.68-5-7.38-12.42-7.38-22.5V153.56c0-23.22,14.58-31.68,31.32-31.68,6.84,0,13.32,1.44,18.36,4.68,18.36,11.52,25,24.48,25,39.6Zm-14.94-92.51c0-22-12.6-29.52-28.44-29.52S844,131.78,844,153.56V235.1c0,21.42,13.14,29.52,29.16,29.52,15.66,0,28.44-7.56,28.44-29.52ZM880,239.78c0,5.58-2.52,8.46-6.84,8.46-4.68,0-7.38-2.88-7.38-8.64V148.88c0-5.94,2.88-8.64,7.2-8.64,3.6,0,7,2.7,7,8.64Z" style="fill:#3fc"/><path d="M1032.1,277.21h-25l-8.1-7.92-1.26,7.92H983L973.28,268v9.18H951.47l-12.78-12.6V124.22h29.7l12.6,13,3.24,25.2,6.3-38.16h29l12.6,12.6Zm-14.76-14.4V126.38h-25l-14,87.84-11.75-87.84H940.85V262.81h17.64V186.14l12.78,76.68h13l12.24-77.58v77.58Z" style="fill:#3fc"/><path d="M1119.22,277.21H1068.1l-12.42-12.6V124.22h50.58l12.6,12.78v21.06h-24.48v23.58h7.74l12.6,13v21.24h-20.34v27.5h12.06l12.78,12.78Zm-14.94-14.76V245.53h-24.66V201.08H1100V183.8h-20.34V143.3h24.48V126.38h-46.26V262.45Z" style="fill:#3fc"/><g style="opacity:0.9500000000000001"><path d="M342,66.78a12.33,12.33,0,0,1-8.32,9.15c-3.84,1.48-8.79,2.4-12.3-.29-3.38-4.05-1.81-9.71-1.83-14.49.69-12.82,2.24-25.56,3.68-38.3-.44-4.06,2.12-7.63,5.18-10.06,3.9-2.93,8.78-5.15,13.73-5,5.77.92,4.37,7.26,3.52,11.3-.92,6.8-1.81,13.61-3,20.38,5-1,9.31-4.05,14.38-4.63,0-8.72-.64-17.55.89-26.17,2.41-5.22,8.57-7.25,13.81-8.32,3.73-.69,9-.8,10.75,3.38,2,6.32.42,13,.19,19.42-1.3,14.94-2.5,30-6.4,44.55-1.14,4-2.64,8.13-6,10.86-2.77,3.42-6.28,7.5-11.2,6.67-4.57-.19-5.42-5.46-5.15-9.11,0-8.26,1.39-16.42,1.72-24.67-3.94,2.67-8.32,4.71-12,7.75" style="fill:#fff"/><path d="M468.38,28.25c-.4-4.68-6.19-1.57-8.13.42-4.54,4.16-7.51,9.78-9.52,15.51-1.55,4.9-2.68,10.7-.15,15.46,2.5,3.79,8.74,4.2,11.43.38,1.55-3.59,6.28-3.31,7.88.14,2.55,4.71-.57,10.15-3.77,13.69a30.18,30.18,0,0,1-10.71,6.94c-5.19,1.69-10.83.07-15.63-2.08-5.71-3.2-8.26-9.71-9.06-16-2.86-17.48,4.06-35.55,15.78-48.46,6.59-6.65,15.82-11.1,25.28-10.92,6,.1,12.78,2.86,14.92,8.95,1.78,5,.8,10.54-1.06,15.35-2.08,4.67-7.48,7.26-12.4,7.34a4.8,4.8,0,0,1-5-6.28l.08-.46" style="fill:#fff"/><path d="M420.45,23.11c3.12.56,6.66,3.38,5.24,6.88-2.68,14.3-3.86,29.39.6,43.47.76,3,2.32,5.82,3,8.83-.26,4.16-5.22,5.55-8.7,5.85-4.11.77-9.56-1.21-8.63-6.24-.14-2.19-.18-7-1.75-7.43-3.33,2.66-6.51,5.69-10.62,7.14-3.34,2.08-2.73,6.86-5.65,9.38a16.31,16.31,0,0,1-13.87,3.84c-3.64-.65-6.69-5.88-3.52-8.66,5.46-7.93,7.48-17.58,9.41-26.85a292.53,292.53,0,0,0,4-33.07c2.73-4.52,8.1-6.35,12.84-8,5.15-1.49,11-3,16.06-.36a3.9,3.9,0,0,1,1.53,5.21M405.3,49c-.74,6.09-2.08,12.07-3.22,18.1,2.41-1.28,8.49.07,7.43-3.7-.69-6.61-1.1-13.25-1.76-19.86L405.29,49" style="fill:#fff"/><path d="M493.1,21.78c.94-3.77,5.8-2.19,7.23-5.41,4.22-2.54,9.53-2.08,14.19-1.34,4.1.38,6.85,4.9,4.3,8.41-3.36,4.53-5.71,9.71-8.89,14.36-1.18,2.3-5.07,7.27-4.21,8,7.46-3.63,13.49-10,21.5-12.53,2.93.15,6.82,1.48,7.29,4.81A11.45,11.45,0,0,1,531,48.76a41.88,41.88,0,0,1-24.52,13.5c1.11,1,5.85,3,7.22,5.68,5,6.34,6.47,14.45,8.48,22-.42,4.85-7.82,5.27-10.59,2.08-6.28-4.92-11.28-11.47-18.39-15.31-3.11.5-3.33,5.47-5.1,7.88-1.46,2.89-2.7,6.12-5,8.4-4.46,1.84-9.84,2.23-14.31.23-3.3-1.86-2.43-6.51-1.69-9.61,1.16-3.52,3.93-6.21,5.47-9.56C481,59.16,483.76,42,490.71,26.49c.74-1.61,1.55-3.2,2.42-4.74" style="fill:#fff"/></g><g style="opacity:0.9500000000000001"><path d="M562.05,73.44l-18-63c8.08-3.75,17.34-8.77,26.43-6.09,9.13,6.82,2.14,21.12-3.93,28-6.08,6.44-14.43,11.51-23.42,12.1" style="fill:none;stroke:#fff;stroke-linecap:round;stroke-linejoin:round;stroke-width:4.487183067128086px"/><path d="M594.17,15.42c-14.3,8.91-18,28.07-15.38,43.53,1.2,11.4,16,14.76,23.39,6.94,11.1-10.32,12.58-27.62,9.43-41.65-.64-10-18.42-16.06-19.72-3.59-.6,11.6,13,20.74,23.18,16.92,5.55-3.68,11.1-7.77,14.64-13.49-4.41,9.15-9.09,49.19-9.09,49.19,2.54-17.93,4-36.58,11.46-53.27,9.07-9.62,12.55,11.51,12.39,17.93a204.48,204.48,0,0,1-.16,28.73c3.38-15.74,5.91-32.5,15.06-46.1,11-9.13,9.11,8.6,6.67,16.69s-6.87,22.5.69,31.06" style="fill:none;stroke:#fff;stroke-linecap:round;stroke-linejoin:round;stroke-width:4.487183067128086px"/><path d="M671.89,105.64C681,88.72,669,25.47,696.26,18.25c-13.3,4-18.49,22.75-17.63,35.13,1,12.62,16.07,10.66,23.13,4.24,8.06-8.27,14.05-21.25,9.49-32.85s-23.84-8.7-19.42,5.1,11.69,13.87,21.77,16.64,19.42,1.3,28.18-2.64S756.39,25,746.18,20.5s-17,7.82-21.16,16.57c-4.55,9.63-3.88,24.84,7.93,28.55,16,4.66,30.8-25.43,34.38-45.16-4.16,15.52-4.9,25.18-3.81,37.73s10.17,19.19,19.69,13.39c15.58-11,16-40.68,16.76-55-.89,24.21-4.06,67.71-20.38,73.06-9.45,2.08-21.46-2.87-26.87-10-13.09,7.9-34,3.47-38.68-6.07-4.16,9.71-16.73,9.88-25.57,9.09" style="fill:none;stroke:#fff;stroke-linecap:round;stroke-linejoin:round;stroke-width:4.487183067128086px"/><path d="M662.22,81.53c-26.22-2.35-24.65,11.39-60.54,9.54-9.15-.76-17.54-2-25.9-6" style="fill:none;stroke:#fff;stroke-linecap:round;stroke-width:4.487183067128086px"/></g></svg>